<svg viewBox="0 0 34 30" xmlns="http://www.w3.org/2000/svg" fill-rule="evenodd" clip-rule="evenodd" stroke-linejoin="round" stroke-miterlimit="2"><circle cx="3996.78" cy="35.418" r="1.774" fill="#09e0c1" transform="translate(-6121.961 -28.084) scale(1.53526)"/><circle cx="3996.78" cy="35.418" r="1.774" fill="#09e0c1" transform="translate(-6109.513 -28.084) scale(1.53526)"/><path d="M.008 1.407A1 1 0 011.003.41h7.313c.463 0 .872.312.967.754l1.008 4.767h22.622c.314 0 .613.144.804.39a.93.93 0 01.15.859l-3.868 12.343a1.002 1.002 0 01-.967.711H11.626c-.463 0-.872-.313-.98-.754L6.858 3.134H1.003c-.26 0-.518-.105-.709-.293a1.032 1.032 0 01-.286-.704v-.73zm10.596 7.248l2.37 8.855h14.519l3.078-8.855H10.604z" fill="#09e0c1"/></svg>