<svg viewBox="0 0 42 30" xmlns="http://www.w3.org/2000/svg" fill-rule="evenodd" clip-rule="evenodd" stroke-linejoin="round" stroke-miterlimit="2"><path d="M188.515 62.576c76.543 0 138.593 49.687 138.593 110.979 0 21.409-7.576 41.398-20.691 58.351-.649.965-1.497 2.031-2.566 3.209l-.081.088c-4.48 5.36-9.525 10.392-15.072 15.037-38.326 35.425-101.41 77.601-109.736 71.094-7.238-5.656 11.921-33.321-10.183-37.925-1.542-.177-3.08-.367-4.605-.583l-.029-.002v-.002c-64.921-9.223-114.222-54.634-114.222-109.267-.002-61.292 62.049-110.979 138.592-110.979z" fill="none" stroke="#fff" stroke-width="16.22" transform="matrix(.13986 0 0 .10406 -5.57 -5.346)"/><circle cx="1233.51" cy="3238.57" r="2.166" fill="#fff" transform="translate(-803.688 -2133.865) scale(.66298)"/><circle cx="1233.51" cy="3238.57" r="2.166" fill="#fff" transform="translate(-796.992 -2133.865) scale(.66298)"/><circle cx="1233.51" cy="3238.57" r="2.166" fill="#fff" transform="translate(-790.294 -2133.865) scale(.66298)"/></svg>