<svg viewBox="0 0 28 27" xmlns="http://www.w3.org/2000/svg" fill-rule="evenodd" clip-rule="evenodd" stroke-linejoin="round" stroke-miterlimit="2"><path d="M18.357 4.597h6.67l-1.445 1.445a.683.683 0 10.966.966l2.549-2.549a.683.683 0 000-.966L24.48.878a.683.683 0 00-.966.966l1.388 1.387h-6.546a.683.683 0 000 1.366zm-8.713 0h-6.67l1.444 1.445a.683.683 0 11-.966.966L.903 4.459a.683.683 0 010-.966L3.52.878a.683.683 0 01.966.966L3.098 3.23h6.545a.683.683 0 010 1.366z" fill="#53d7b8" fill-rule="nonzero"/><path d="M26.977 13.803c-.44-2.602-2.314-2.956-3.121-2.985a.69.69 0 01-.56-.322c-.61-.963-1.439-1.216-2.14-1.216-.322 0-.617.053-.853.115a.82.82 0 01-.21.028.78.78 0 01-.636-.32c-.6-.833-1.385-1.058-2.058-1.058-.18 0-.351.016-.51.04a.796.796 0 01-.92-.786l-.005-4.813C15.963 1.242 15.03.621 14.097.621c-.935 0-1.87.623-1.868 1.87l.012 10.258c0 .32-.19.608-.485.732-3.705 1.548.87 8.494 1.69 9.685.079.116.126.25.137.391l.2 2.64c.031.416.378.713.795.713l8.951.014c.4 0 .737-.285.789-.681l.364-2.77a.788.788 0 01.123-.327c2.392-3.698 2.58-6.93 2.172-9.343z" fill="#53d7b8" fill-rule="nonzero"/></svg>