<svg viewBox="0 0 34 30" xmlns="http://www.w3.org/2000/svg" fill-rule="evenodd" clip-rule="evenodd" stroke-linejoin="round" stroke-miterlimit="2"><path d="M16.955 4.188C20.76-.66 27.21-.392 30.551 2.454c3.533 3.009 3.755 9.024.222 15.04-2.343 4.261-8.315 8.555-13.32 11.395-.306.175-.69.175-.997 0-5.004-2.84-10.976-7.134-13.32-11.394-3.532-6.017-3.31-12.032.223-15.04C6.699-.393 13.15-.66 16.955 4.187zm0 22.682c-4.596-2.658-9.943-6.48-12.064-10.34l-.015-.024C1.922 11.479 1.72 6.479 4.654 3.976c2.64-2.247 7.725-2.38 10.729 1.447l1.572 2.004 1.572-2.004c3.004-3.828 8.089-3.694 10.73-1.446 2.937 2.502 2.73 7.502-.207 12.505l-.015.024c-2.137 3.883-7.489 7.707-12.08 10.364z" fill="#00dfbf"/></svg>