<svg viewBox="0 0 36 40" xmlns="http://www.w3.org/2000/svg" fill-rule="evenodd" clip-rule="evenodd" stroke-linejoin="round" stroke-miterlimit="2"><path d="M12.339 15.097L22.564 9.2a6.79 6.79 0 01.593-5.487C25.044.442 29.243-.68 32.5 1.209c3.287 1.888 4.398 6.078 2.511 9.35a6.838 6.838 0 01-9.342 2.504 6.684 6.684 0 01-1.628-1.307l-10.012 5.78a6.85 6.85 0 01.502 2.566c0 .908-.183 1.774-.502 2.567l10.012 5.78a6.84 6.84 0 0110.97 1.197c1.887 3.272.776 7.462-2.51 9.35-3.257 1.889-7.456.767-9.343-2.506a6.786 6.786 0 01-.593-5.485L12.34 25.108a6.795 6.795 0 01-4.656 1.84 6.843 6.843 0 01-6.847-6.846 6.843 6.843 0 016.847-6.844c1.795 0 3.439.698 4.656 1.84z" fill="#09e0c1"/></svg>