<svg viewBox="0 0 44 43" xmlns="http://www.w3.org/2000/svg" fill-rule="evenodd" clip-rule="evenodd" stroke-linejoin="round" stroke-miterlimit="2"><g transform="translate(-11.306 -8735.152) scale(.30202)"><circle cx="110.644" cy="28993.6" r="70.644" fill="#e71600"/><path d="M119.759 29016.196c-.953 0-1.728.778-1.728 1.728a1.726 1.726 0 103.452 0 1.73 1.73 0 00-1.724-1.728m-59.843 1.642s.86-2.883.993-3.335c.348-1.174.868-3.02.868-3.02h.087s.479 1.914.791 3.004c.124.422.946 3.351.946 3.351h-3.685zm5.244 5.237h3.118l-4.709-14.39a5.634 5.634 0 00-1.767-.27c-.714 0-.969.093-1.529.27l-4.992 14.39h2.985s.4-1.26.89-2.825h5.163l.841 2.825m100.846 0s-1.477-3.15-1.84-3.863c-.405-.808-.782-1.365-1.615-1.564v-.046c.559-.106 1.002-.445 1.482-1.475.463-1.006.6-1.222.87-1.458.266-.241.63-.15.63-.15l.135-1.874a7.007 7.007 0 00-1.259-.029c-.73.047-1.112.254-1.47.62-.28.278-.475.693-.712 1.18-.254.52-.454.942-.708 1.47-.26.543-.387.786-1.088.786h-.454v-3.89h-2.717v10.293h2.717v-4.206l.369-.005c.772 0 .904.19 1.314 1.006.484.974 1.396 3.205 1.396 3.205h2.95zm-11.106 0v-10.293h-2.708v3.892h-3.062v-3.892h-2.702v10.293h2.702v-4.203h3.062v4.203h2.708zm-74.358-10.387l-.01 9.845c1.282.542 2.692.787 3.943.787 2.874 0 4.41-1.485 4.41-3.933 0-2.215-1.36-3.586-3.904-3.586-.645 0-1.025.086-1.734.256v-3.37h-2.705zm5.546 6.824c0 1.016-.358 1.712-1.657 1.712-.438 0-.617 0-1.185-.16v-2.968c.704-.138.766-.16 1.185-.16 1.241 0 1.657.603 1.657 1.576m58.923 2.575c-.717-1.086-.903-1.726-.903-3.093v-2.772c0-1.498-.17-2.048-.567-2.597-.55-.77-1.465-1.104-3.155-1.104-1.192 0-2.36.13-3.478.415l.4 1.986c.759-.106 1.556-.198 2.127-.198 1.788 0 1.994.261 1.994 1.603v.502a5.2 5.2 0 00-1.365-.184c-2.704 0-4.129 1.32-4.129 3.497 0 2.047 1.52 3.166 3.384 3.166.694 0 1.415-.13 1.987-.36.345-.152.496-.239.941-.532.271.396.812.797 1.032.867l1.732-1.196zm-3.44-1.186c-.593.205-.985.254-1.456.254-.969 0-1.515-.384-1.515-1.375 0-1.033.693-1.383 2.034-1.383.326 0 .648.048.795.102v.74c0 .799.043 1.322.142 1.662m-26.41 1.186c-.714-1.086-.9-1.726-.9-3.093v-2.772c0-1.498-.173-2.048-.57-2.597-.548-.77-1.464-1.104-3.152-1.104-1.19 0-2.362.13-3.481.415l.4 1.986c.761-.106 1.554-.198 2.127-.198 1.792 0 2 .261 2 1.603v.502a5.249 5.249 0 00-1.37-.184c-2.704 0-4.13 1.32-4.13 3.497 0 2.047 1.522 3.166 3.387 3.166.692 0 1.416-.13 1.987-.36.345-.152.495-.239.94-.532.273.396.81.797 1.03.867l1.731-1.196zm-3.439-1.186c-.594.205-.985.254-1.454.254-.968 0-1.519-.384-1.519-1.375 0-1.033.695-1.383 2.035-1.383.323 0 .648.048.8.102v.74c0 .799.04 1.322.138 1.662m-33.324 2.174v-9.92c-1.485-.44-2.629-.634-4.12-.634-1.489 0-2.603.193-4.088.635v5.079c0 1.38-.024 1.796-.175 2.242-.149.392-.35.86-.895 1.223l.736 1.583c2.174-.612 2.991-1.557 2.991-4.561v-3.737c.717-.105.86-.13 1.432-.13.576 0 .696.025 1.41.13v8.09h2.71zm20.472 3.372v-3.698c.343.202 1.027.502 2.179.502 2.291 0 3.98-1.904 3.98-5.384 0-3.748-1.678-5.352-4.436-5.352-.7 0-1.156.071-1.723.342v-4.42h-2.695v4.42c-.566-.27-1.025-.342-1.725-.342-2.756 0-4.434 1.67-4.434 5.417 0 3.48 1.517 5.32 3.976 5.32 1.158 0 1.84-.3 2.183-.503v3.698h2.695m-6.077-8.515c0-2.067.624-3.159 1.865-3.159.525 0 .872-.004 1.517.304v5.685c-.586.192-.864.22-1.387.22-1.414 0-1.995-1.155-1.995-3.05m9.459-.065c0 1.893-.756 3.115-1.996 3.115-.52 0-.797-.028-1.386-.22v-5.685c.647-.308.995-.304 1.517-.304 1.243 0 1.865 1.027 1.865 3.094m32.65.74c0-2.551-1.494-4.307-4.632-4.307-.772 0-1.309.073-2.142.27l-.005-3.673c.516-.073 1.404-.137 2.38-.137.922 0 2.09.05 3.117.176l.072-2.128c-1.166-.261-2.858-.421-4.17-.421-1.295 0-3.305.325-4.262.583l-.001 13.568a12.7 12.7 0 004.445.799c3.422 0 5.199-1.816 5.199-4.73m-2.878.204c0 1.375-.763 2.282-2.164 2.282-.553 0-1.01.002-1.733-.197v-4.162a8.81 8.81 0 011.733-.128c1.426.054 2.164.719 2.164 2.205m-20.875-58.526l-4.048 12.154h8.162l-4.063-12.154h-.051zm-14.188 32.365a.459.459 0 00-.454.465v5.168c0 .257.202.465.454.465h28.426c.25 0 .449-.208.449-.465v-5.168c0-.258-.2-.465-.449-.465H96.962m14.213-39.591c3.111 0 4.089 2.228 4.905 4.46.347.942 8.427 23.068 8.67 23.733.067.183.023.487-.263.597-.287.11-4.486 1.743-4.717 1.83a.457.457 0 01-.58-.273c-.085-.23-1.826-5.054-2.023-5.593h-11.971l-2.036 5.593c-.081.22-.333.37-.578.273-.246-.1-4.464-1.732-4.713-1.83a.468.468 0 01-.267-.597c.298-.831 8.254-22.602 8.662-23.734.787-2.195 1.801-4.459 4.91-4.459" fill="#fff" fill-rule="nonzero"/></g></svg>