<svg viewBox="0 0 44 44" xmlns="http://www.w3.org/2000/svg" fill-rule="evenodd" clip-rule="evenodd" stroke-linejoin="round" stroke-miterlimit="2"><g fill-rule="nonzero"><path d="M43.202 21.971c0 11.783-9.552 21.335-21.335 21.335-11.783 0-21.335-9.552-21.335-21.335C.532 10.188 10.084.636 21.867.636c11.783 0 21.335 9.552 21.335 21.335z" fill="#fff"/><path d="M16.33 26.064l1.632-9.64h2.644l-1.633 9.64H16.33zm12.053-9.391a6.866 6.866 0 00-2.37-.405c-2.612 0-4.452 1.308-4.467 3.182-.015 1.385 1.313 2.157 2.316 2.619 1.029.471 1.375.774 1.37 1.196-.006.646-.822.941-1.582.941-1.058 0-1.62-.146-2.489-.506l-.34-.154-.371 2.158c.617.27 1.76.503 2.945.515 2.778 0 4.582-1.293 4.602-3.294.01-1.096-.694-1.931-2.22-2.619-.923-.445-1.489-.743-1.483-1.195 0-.4.48-.83 1.514-.83a4.902 4.902 0 011.979.37l.237.111.359-2.09zm4.507-.249c-.634 0-1.092.193-1.37.82l-3.917 8.82H30.4l.544-1.477h3.344l.31 1.477h2.488l-2.176-9.64h-2.022zm-1.202 6.234c.218-.555 1.052-2.694 1.052-2.694-.015.025.218-.558.351-.92l.179.83.612 2.784h-2.194zm-20.178.374l-.233-1.322c-.482-1.54-1.98-3.207-3.657-4.042l2.335 8.396h2.8l4.197-9.64h-2.798l-2.644 6.608z" fill="#293688"/><path d="M4.746 16.424v.156c3.317.797 5.62 2.814 6.531 5.13l-.958-4.464c-.16-.61-.645-.801-1.219-.822H4.746zm17.119 26.882c8.235 0 15.375-4.668 18.932-11.5H2.934c3.557 6.832 10.697 11.5 18.931 11.5z" fill="#f7981d"/><path d="M21.865.634c-8.104 0-15.152 4.519-18.764 11.174H40.63C37.018 5.153 29.97.634 21.865.634z" fill="#293688"/></g></svg>