<svg viewBox="0 0 44 43" xmlns="http://www.w3.org/2000/svg" fill-rule="evenodd" clip-rule="evenodd" stroke-linejoin="round" stroke-miterlimit="2"><g transform="translate(-11.549 -8735.04) scale(.30202)"><circle cx="110.644" cy="28993.6" r="70.644" fill="#fff"/><path d="M73.858 28974.77c0-5.474.459-8.948 11.796-17.411 9.386-7.007 39.472-30.95 39.472-30.95v39.969h22.88v57.525H81.004c-3.93 0-7.147-3.217-7.147-7.147l.001-41.986z" fill="#ffcf01" fill-rule="nonzero"/><path d="M125.126 28966.378v23.159l-42.042 28.642 53.155-17.295v-34.506h-11.113z" fill="#d3ac06" fill-rule="nonzero"/><path d="M105.914 28965.18c2.459-2.93 6.05-3.964 8.02-2.31 1.972 1.655 1.578 5.372-.88 8.301-2.458 2.93-6.05 3.963-8.021 2.308-1.972-1.654-1.577-5.37.88-8.299z" fill="#231f20" fill-rule="nonzero"/><path d="M87.059 29031.371h-.987c-1.492 0-2.935.987-2.935 3.85 0 2.768 1.323 3.659 2.935 3.659h.987v-7.509zm-1.54 9.05l-2.936 6.593H80.44l3.225-7.051c-1.517-.77-2.527-2.166-2.527-4.741 0-3.61 2.286-5.415 5.006-5.415h2.767v17.207h-1.853v-6.594h-1.54z" fill="red" fill-rule="nonzero"/><path d="M102.012 29030.794h-3.73c-.073 4.356-.193 7.677-.385 10.156-.217 2.574-.602 4.283-1.252 5.078h5.367v-15.234zm1.275 16.22h-7.364l-.168 2.864h-.939v-3.85h.506c.842-.699 1.25-2.624 1.491-5.078.241-2.551.313-6.354.386-11.143h6.016v16.22h1.18v3.85h-.94l-.168-2.863zm3.443-6.763h4.405c.192-3.224-.77-4.668-1.997-4.668-1.276 0-2.311 1.636-2.407 4.668zm2.648 6.017c1.612 0 2.454-1.3 2.454-1.3l.362.914s-.915 1.372-2.84 1.372c-2.574 0-3.754-2.334-3.754-6.304 0-3.971 1.492-6.306 3.538-6.306 2.093 0 3.44 2.19 3.056 6.498h-5.487c.048 3.321.914 5.126 2.671 5.126zm10.23-5.102h-4.14v5.848h-1.13v-12.129h1.13v5.366h4.14v-5.366h1.13v12.13h-1.13v-5.849zm4.935-.89v5.847h.722c1.708 0 2.864-.841 2.864-2.935 0-2.046-1.011-2.912-2.744-2.912h-.842zm-1.13-5.391h1.13v4.5h.89c2.31 0 3.803 1.252 3.803 3.779 0 2.575-1.588 3.85-3.875 3.85h-1.949v-12.129zm8.88.939v11.19h-1.106v-12.129h5.125v.939h-4.019zm11.41 2.743c0-.626.047-1.155.096-1.66h-.073a10.74 10.74 0 01-.65 1.564l-3.946 8.543h-.962v-12.129h1.059v8.423c0 .65-.05 1.179-.097 1.708h.072c.169-.553.409-1.082.65-1.612l3.947-8.519h.986v12.13h-1.082v-8.448z" fill-rule="nonzero"/></g></svg>