<svg viewBox="0 0 44 43" xmlns="http://www.w3.org/2000/svg" fill-rule="evenodd" clip-rule="evenodd" stroke-linejoin="round" stroke-miterlimit="2"><circle cx="110.644" cy="28993.6" r="70.644" fill="#fff" transform="translate(-11.617 -8735.194) scale(.30202)"/><path d="M33.45 15.272a11.613 11.613 0 01-2.702 7.463 13.006 13.006 0 01-8.947 3.549c-3.43 0-6.551-1.323-8.88-3.487a11.598 11.598 0 01-2.77-7.54c0-1.59.318-3.107.894-4.487-1.225 4.995.673 9.068 5.037 9.33 6.025.358 8.796-3.994 8.796-3.994l.304-.467-.121 2.117c-.043.755.534 1.4 1.288 1.443.026.004.055.004.08.004a1.37 1.37 0 001.366-1.292l.273-4.794a1.367 1.367 0 00-1.366-1.446h-4.763c-.768 0-1.415.629-1.4 1.396a1.371 1.371 0 001.37 1.344h2.085c-1.06 1.205-3.604 3.406-7.615 2.567-4.79-.998-3.588-9.45 2.465-12.686l.084-.042a6.103 6.103 0 012.558-.637c.105-.003.21-.004.316-.004 6.437 0 11.657 5.224 11.648 11.663z" fill="#e71600" fill-rule="nonzero"/><path d="M23.644 29.259L21.872 32.1c-.193.312-.376.525-.554.643-.183.12-.401.179-.664.179-.138 0-.272-.02-.405-.065a.866.866 0 01-.317-.168l.356-.554a.61.61 0 00.426.163.448.448 0 00.257-.074.82.82 0 00.223-.252l.025-.045-.614-2.668h.772l.396 1.812 1.109-1.812h.762zm2.52.876h.733l-.288 1.426a1.962 1.962 0 01-.608.311c-.233.075-.47.11-.718.11a2.07 2.07 0 01-.906-.189 1.378 1.378 0 01-.594-.53 1.444 1.444 0 01-.213-.787c0-.39.09-.747.273-1.064.182-.317.435-.564.767-.747a2.356 2.356 0 011.138-.267c.332 0 .619.049.861.153.243.104.436.252.584.45l-.574.466a1.115 1.115 0 00-.39-.297 1.35 1.35 0 00-.516-.09 1.4 1.4 0 00-.697.174 1.216 1.216 0 00-.466.485 1.387 1.387 0 00-.168.688c0 .267.09.48.262.639.173.153.421.232.743.232.203 0 .396-.04.574-.123l.203-1.04zm-5.861.257c0 .124-.015.258-.045.406h-2.04c.026.362.258.545.689.545.134 0 .267-.02.39-.065a.994.994 0 00.323-.183l.321.51a1.52 1.52 0 01-.51.267c-.192.06-.39.09-.603.09-.273 0-.515-.05-.718-.144a1.068 1.068 0 01-.475-.42 1.16 1.16 0 01-.169-.63c0-.292.065-.559.198-.796a1.5 1.5 0 01.56-.55c.237-.138.51-.203.812-.203.257 0 .48.05.673.144.188.094.336.232.44.41.104.179.154.387.154.62zm-8.188 1.57c-.267 0-.5-.05-.702-.15a1.08 1.08 0 01-.47-.42 1.13 1.13 0 01-.169-.623c0-.293.07-.56.208-.792.138-.233.332-.421.574-.555a1.69 1.69 0 01.827-.203c.272 0 .505.05.708.149.203.099.356.237.47.415.109.184.163.392.163.63 0 .291-.07.559-.203.791a1.501 1.501 0 01-.574.555 1.724 1.724 0 01-.832.203zm20.434-2.703l-.53 2.663h-.732l.05-.262a1.167 1.167 0 01-.818.302c-.208 0-.4-.05-.574-.144a1.05 1.05 0 01-.416-.416 1.241 1.241 0 01-.158-.633c0-.293.064-.56.198-.797a1.45 1.45 0 01.53-.55c.222-.138.47-.203.742-.203.411 0 .698.134.866.401l.07-.361h.772zm-21.909-.802l-.688 3.465H9.2l.406-2.06-1.322 1.694h-.356l-.713-1.713-.416 2.079h-.752l.693-3.465h.653l.867 2.158 1.692-2.158h.688zm17.786 1.119c.114-.124.257-.218.416-.273.168-.054.356-.084.579-.084l-.139.713c-.094-.005-.153-.01-.178-.01-.233 0-.42.06-.564.173-.139.114-.233.297-.282.54L28 31.922h-.772l.53-2.663h.732l-.064.317zm-12.385-.357c.297 0 .534.08.708.233.173.158.262.381.262.673 0 .109-.01.218-.035.322l-.297 1.475h-.772l.287-1.426a.72.72 0 00.02-.183.427.427 0 00-.114-.317c-.074-.074-.188-.109-.341-.109a.734.734 0 00-.496.169c-.128.114-.217.287-.262.515l-.267 1.35h-.772l.53-2.662h.732l-.06.287a1.25 1.25 0 01.877-.327zm20.562 0c.292 0 .52.08.693.233.174.158.258.381.258.668 0 .104-.01.213-.035.327l-.292 1.475h-.772l.282-1.42a.915.915 0 00.02-.204c0-.133-.035-.237-.104-.307-.074-.069-.178-.104-.317-.104-.371 0-.604.223-.698.669l-.272 1.366h-.773l.283-1.42a.9.9 0 00.02-.199.44.44 0 00-.104-.312.448.448 0 00-.317-.104c-.371 0-.61.228-.703.679l-.267 1.356h-.773l.53-2.663h.733l-.06.277a1.19 1.19 0 01.837-.317c.183 0 .346.035.495.11a.749.749 0 01.321.326 1.35 1.35 0 01.45-.327c.174-.074.362-.109.565-.109zm-24.438 2.104a.79.79 0 00.401-.109.769.769 0 00.277-.312c.064-.133.099-.282.099-.455a.583.583 0 00-.158-.43c-.104-.105-.253-.16-.446-.16a.79.79 0 00-.406.11.741.741 0 00-.277.312 1.026 1.026 0 00-.099.455c0 .183.055.327.164.43.103.104.252.16.445.16zm18.592 0a.79.79 0 00.406-.109.77.77 0 00.277-.312 1.03 1.03 0 00.1-.455.583.583 0 00-.16-.43c-.108-.105-.257-.16-.45-.16a.79.79 0 00-.406.11.742.742 0 00-.277.312 1.03 1.03 0 00-.099.455c0 .183.055.327.163.43.104.104.253.16.446.16zM19 29.798a.74.74 0 00-.46.144.815.815 0 00-.268.406h1.322a.533.533 0 00-.159-.406.641.641 0 00-.435-.144z" fill="#030404" fill-rule="nonzero"/></svg>