<svg viewBox="0 0 43 43" xmlns="http://www.w3.org/2000/svg" fill-rule="evenodd" clip-rule="evenodd" stroke-linejoin="round" stroke-miterlimit="2"><g transform="translate(-11.926 -8735.152) scale(.30202)"><circle cx="110.644" cy="28993.6" r="70.644" fill="#5440d7"/><path d="M106.997 28999.227c.017.022.338.452.865.562 1.018.231 2.014.143 2.791 0a1.602 1.602 0 001.214-1.102c.06-.209.123-.418.187-.627a1.594 1.594 0 00-1.036-1.971c-1.235-.386-2.638-.837-3.806-1.212a5.003 5.003 0 01-3.463-5.154l.007-.077a5.002 5.002 0 012.377-3.887c.063-.033.127-.077.186-.11a6.463 6.463 0 016.198-.308c.407.198.76.363.955.462a1.712 1.712 0 01.764 2.29 1.708 1.708 0 01-2.29.771c-.184-.099-.514-.253-.91-.44a3.032 3.032 0 00-2.937.143l-.186.11a1.573 1.573 0 00-.754 1.234l-.006.077a1.597 1.597 0 001.098 1.64c1.168.375 2.571.815 3.805 1.212a5.003 5.003 0 013.269 6.2c-.064.21-.127.418-.188.628a5.01 5.01 0 01-3.838 3.468c-1.178.22-2.664.33-4.184-.01-2.644-.595-3.3-2.655-3.3-2.655a1.705 1.705 0 011.017-2.191c.867-.32 1.827.11 2.165.947zm-52.411-8.468c.408-4.064 3.838-7.235 8.003-7.235 4.439 0 8.044 3.6 8.044 8.039a8.047 8.047 0 01-12.674 6.585v3.744c0 .947-.765 1.707-1.706 1.707-.943 0-1.707-.76-1.707-1.707v-10.77c0-.121.014-.242.04-.363zm8.003-3.822c2.556 0 4.63 2.07 4.63 4.626a4.63 4.63 0 11-4.63-4.626zm16.29-2.257h.028a1.655 1.655 0 011.193.495c.15.155.274.33.362.54l6.445 15.076a1.702 1.702 0 01-.898 2.235 1.707 1.707 0 01-2.24-.892l-4.876-11.408-4.876 11.408a1.707 1.707 0 01-2.24.892 1.702 1.702 0 01-.899-2.235l6.445-15.076c.088-.21.213-.385.362-.54.15-.154.33-.275.537-.363a1.73 1.73 0 01.657-.132zm15.381 8.446l4.531-7.246a1.696 1.696 0 012.353-.54 1.7 1.7 0 01.542 2.346l-5.79 9.273v4.933c0 .947-.765 1.707-1.707 1.707-.943 0-1.707-.76-1.707-1.707v-5.165l-5.648-9.04a1.7 1.7 0 01.543-2.346 1.696 1.696 0 012.352.54l4.531 7.245zm24.243-6.475a1.705 1.705 0 011.702-1.828h7.172c.942 0 1.706.76 1.706 1.707 0 .936-.764 1.707-1.706 1.707h-5.465v3.535h5.465c.942 0 1.706.77 1.706 1.707 0 .947-.764 1.707-1.706 1.707h-5.465v5h5.465c.942 0 1.706.77 1.706 1.706 0 .947-.764 1.707-1.706 1.707h-7.314l-.01-.011h-.086l-.011-.011h-.053l-.01-.011h-.042l-.01-.011h-.042l-.01-.011h-.03l-.01-.011h-.031l-.01-.011h-.03l-.01-.011h-.02l-.01-.011h-.02l-.01-.011h-.019l-.01-.011h-.019l-.01-.011h-.009l-.01-.011h-.019l-.009-.011h-.019l-.01-.011h-.009l-.009-.011h-.018l-.01-.011h-.009l-.009-.011h-.01l-.008-.011h-.01l-.008-.011h-.018l-.01-.011h-.008l-.009-.011h-.009l-.008-.011h-.01l-.008-.011h-.009l-.008-.011h-.009l-.008-.011h-.009l-.008-.011h-.009l-.008-.011-.009-.011h-.008l-.008-.011h-.009l-.008-.011h-.008l-.008-.011h-.008l-.008-.011-.008-.011h-.008l-.008-.011h-.008l-.016-.023h-.008l-.008-.01h-.007l-.008-.012-.008-.01h-.007l-.008-.012h-.007l-.008-.01-.007-.012h-.008l-.007-.01-.007-.012h-.008l-.014-.022h-.007l-.014-.022h-.007l-.014-.022h-.007l-.014-.022-.006-.01h-.007l-.013-.023h-.007l-.013-.022-.006-.01h-.007l-.012-.023h-.006l-.007-.01-.012-.023h-.006l-.012-.022-.011-.022h-.006l-.006-.01-.005-.012-.006-.01h-.006l-.01-.023-.011-.022h-.006l-.005-.011-.005-.011-.005-.011-.006-.011h-.005l-.005-.011-.005-.011-.014-.033h-.005l-.014-.033-.009-.022h-.004l-.013-.033-.008-.022-.005-.011-.004-.011h-.003l-.004-.011-.004-.011-.008-.022-.01-.033h-.004l-.007-.022-.003-.011-.004-.011-.003-.011-.01-.033-.002-.011-.003-.011h-.003l-.005-.022-.006-.022-.002-.012-.007-.033-.003-.01-.002-.012-.006-.033-.002-.01-.002-.012h-.002l-.003-.022-.002-.01-.003-.023-.003-.022-.001-.01-.003-.023-.002-.022-.002-.022-.002-.033v-.01l-.002-.023v-.022l-.001-.01v-15.154c0-.044 0-.088.004-.132zm26.193 10.054v-10.175c0-.947.765-1.707 1.707-1.707.942 0 1.707.76 1.707 1.707v15.362a1.71 1.71 0 01-1.16 1.619h-.017l-.003.01h-.007a2.005 2.005 0 01-.52.078 1.65 1.65 0 01-.77-.187 1.648 1.648 0 01-.603-.507l-8.259-11.188v10.175c0 .947-.764 1.707-1.706 1.707-.943 0-1.707-.76-1.707-1.707v-15.362a1.71 1.71 0 011.16-1.619h.01l.007-.01h.01a1.789 1.789 0 011.29.1c.23.12.439.296.603.516l8.258 11.188zm7.312-9.933v-.242c0-.947.765-1.707 1.707-1.707.228 0 .446.044.645.121a13.08 13.08 0 011.752-.121c5.936 0 10.631 4.262 10.631 9.338 0 5.066-4.695 9.328-10.63 9.328-.6 0-1.196.022-1.781.055h-.173c-.141.033-.29.055-.444.055-.942 0-1.707-.76-1.707-1.707v-15.12zm3.414 13.314c.23 0 .46-.011.69-.011 3.917 0 7.217-2.566 7.217-5.914 0-3.358-3.3-5.924-7.217-5.924-.232 0-.463.01-.69.022v11.827z" fill="#fff"/></g></svg>