<svg viewBox="0 0 44 44" xmlns="http://www.w3.org/2000/svg" fill-rule="evenodd" clip-rule="evenodd" stroke-linejoin="round" stroke-miterlimit="2"><g transform="translate(-11.306 -8734.634) scale(.30202)"><circle cx="110.644" cy="28993.6" r="70.644" fill="#030404"/><path d="M77.129 28981.771c2.842 0 5.133.849 6.83 2.503 1.655 1.697 2.503 4.243 2.503 7.594v13.067h-6.618v-12.049c0-1.824-.382-3.182-1.103-4.072-.764-.891-1.824-1.316-3.224-1.316-1.57 0-2.8.51-3.691 1.485-.891 1.018-1.358 2.503-1.358 4.497v11.455H63.85v-12.049c0-3.606-1.442-5.388-4.327-5.388-1.527 0-2.758.51-3.649 1.485-.89 1.018-1.357 2.503-1.357 4.497v11.455h-6.619v-22.825h6.322v2.63c.848-.975 1.909-1.696 3.14-2.205 1.23-.51 2.545-.764 4.03-.764 1.612 0 3.054.297 4.37.933 1.314.68 2.333 1.57 3.139 2.8a9.19 9.19 0 013.563-2.757c1.4-.637 2.97-.976 4.667-.976zm26.388 23.503c-2.418 0-4.54-.509-6.491-1.527-1.867-.976-3.394-2.376-4.455-4.158-1.06-1.781-1.612-3.818-1.612-6.066 0-2.249.552-4.285 1.612-6.067 1.061-1.782 2.588-3.182 4.455-4.158 1.951-1.018 4.073-1.527 6.49-1.527 2.42 0 4.54.51 6.45 1.527 1.909.976 3.393 2.376 4.454 4.158 1.06 1.782 1.612 3.818 1.612 6.067 0 2.248-.551 4.285-1.612 6.066-1.06 1.782-2.545 3.182-4.455 4.158-1.909 1.018-4.03 1.527-6.448 1.527zm0-5.43c1.697 0 3.097-.594 4.2-1.74 1.06-1.145 1.612-2.672 1.612-4.581 0-1.91-.551-3.437-1.612-4.625-1.103-1.145-2.503-1.697-4.2-1.697s-3.097.552-4.2 1.697c-1.103 1.188-1.655 2.716-1.655 4.625 0 1.909.552 3.436 1.655 4.581 1.103 1.146 2.503 1.74 4.2 1.74zm30.8-18.073c2.843 0 5.133.849 6.873 2.546 1.74 1.696 2.588 4.2 2.588 7.551v13.067h-6.618v-12.049c0-1.824-.382-3.182-1.188-4.072-.806-.891-1.952-1.316-3.437-1.316-1.654 0-3.012.51-3.988 1.528-.975 1.06-1.484 2.588-1.484 4.624v11.285h-6.619v-22.825h6.322v2.673c.89-.976 1.951-1.697 3.266-2.248 1.315-.51 2.715-.764 4.285-.764zm26.558 23.503c-2.419 0-4.54-.509-6.491-1.527-1.867-.976-3.394-2.376-4.455-4.158-1.06-1.781-1.612-3.818-1.612-6.066 0-2.249.551-4.285 1.612-6.067 1.06-1.782 2.588-3.182 4.455-4.158 1.951-1.018 4.072-1.527 6.49-1.527 2.419 0 4.54.51 6.45 1.527 1.908.976 3.393 2.376 4.454 4.158 1.06 1.782 1.612 3.818 1.612 6.067 0 2.248-.552 4.285-1.612 6.066-1.06 1.782-2.546 3.182-4.455 4.158-1.909 1.018-4.03 1.527-6.448 1.527zm0-5.43c1.697 0 3.097-.594 4.2-1.74 1.06-1.145 1.612-2.672 1.612-4.581 0-1.91-.552-3.437-1.612-4.625-1.103-1.145-2.503-1.697-4.2-1.697s-3.097.552-4.2 1.697c-1.103 1.188-1.655 2.716-1.655 4.625 0 1.909.552 3.436 1.655 4.581 1.103 1.146 2.503 1.74 4.2 1.74z" fill="#fff" fill-rule="nonzero"/></g></svg>