<svg viewBox="0 0 44 44" xmlns="http://www.w3.org/2000/svg" fill-rule="evenodd" clip-rule="evenodd" stroke-linejoin="round" stroke-miterlimit="2"><g fill-rule="nonzero"><path d="M43.512 21.97c0 11.784-9.552 21.336-21.335 21.336C10.393 43.306.84 33.754.84 21.97.84 10.187 10.393.634 22.177.634c11.783 0 21.335 9.553 21.335 21.336z" fill="#3c80ad"/><path d="M15.202 11.615c-5.384.034-9.744 4.424-9.744 9.827 0 5.424 4.393 9.826 9.806 9.826 2.54 0 4.855-.97 6.598-2.56.358-.326.691-.679.997-1.053H20.85a9.482 9.482 0 01-.731-1.013h3.464c.212-.337.402-.688.572-1.051h-4.607a9.55 9.55 0 01-.41-1.033h5.427a9.908 9.908 0 00.279-5.222H18.85c.075-.349.168-.693.279-1.031h5.43a9.775 9.775 0 00-.423-1.052h-4.59c.166-.355.354-.699.564-1.032h3.462a9.74 9.74 0 00-.761-1.052h-1.93c.298-.353.626-.684.982-.992a9.752 9.752 0 00-6.598-2.562h-.063z" fill="#931b1d"/><path d="M38.223 21.445c0 5.426-4.387 9.826-9.804 9.828-5.414.002-9.805-4.397-9.807-9.824v-.004c-.002-5.428 4.388-9.829 9.803-9.83 5.415-.002 9.807 4.397 9.808 9.825v.005z" fill="#f16622"/><path d="M38.223 21.553c0 5.427-4.387 9.828-9.804 9.829-5.414.002-9.805-4.397-9.807-9.824v-.005c-.002-5.427 4.388-9.828 9.803-9.829 5.415-.002 9.807 4.397 9.808 9.824v.005z" fill="#f7981d"/><path d="M15.202 11.726c-5.384.035-9.744 4.424-9.744 9.827 0 5.425 4.393 9.827 9.806 9.827 2.54 0 4.855-.97 6.598-2.56v-.002c.358-.325.691-.676.997-1.052H20.85a9.37 9.37 0 01-.731-1.012h3.464a9.88 9.88 0 00.572-1.052h-4.607a9.65 9.65 0 01-.41-1.031h5.427a9.903 9.903 0 00.279-5.222H18.85c.075-.35.168-.695.279-1.032h5.43a9.825 9.825 0 00-.423-1.053h-4.59c.166-.353.354-.699.564-1.032h3.462a9.926 9.926 0 00-.761-1.052h-1.93c.298-.352.626-.684.982-.992a9.754 9.754 0 00-6.598-2.562h-.063z" fill="#cb2026"/><path d="M18.79 24.055l.131-.889c-.071 0-.176.03-.269.03-.363 0-.404-.193-.38-.336l.293-1.815h.553l.133-.984h-.52l.106-.611h-1.045c-.022.022-.616 3.44-.616 3.856 0 .616.344.89.832.886.38-.003.678-.109.782-.137zm.331-1.695c0 1.478.974 1.83 1.804 1.83.765 0 1.102-.172 1.102-.172l.184-1.01s-.582.259-1.108.259c-1.121 0-.925-.838-.925-.838H22.3s.137-.679.137-.955c0-.689-.343-1.53-1.489-1.53-1.05.001-1.827 1.134-1.827 2.416zm1.831-1.479c.59 0 .48.664.48.718h-1.158c0-.069.109-.718.678-.718zm6.611 3.174l.187-1.142s-.513.26-.864.26c-.74 0-1.037-.57-1.037-1.177 0-1.236.637-1.916 1.347-1.916.531 0 .959.3.959.3l.17-1.107s-.633-.258-1.176-.258c-1.205 0-2.378 1.047-2.378 3.017 0 1.303.633 2.166 1.88 2.166.352 0 .912-.143.912-.143zm-14.515-4.094c-.716 0-1.265.23-1.265.23l-.15.902s.452-.184 1.137-.184c.389 0 .673.043.673.36 0 .192-.035.263-.035.263s-.306-.025-.448-.025c-.903 0-1.852.385-1.852 1.55 0 .918.622 1.129 1.008 1.129.737 0 1.054-.48 1.071-.481l-.034.4h.919l.41-2.882c0-1.223-1.064-1.262-1.434-1.262zm.224 2.346c.02.176-.11 1.001-.739 1.001-.324 0-.409-.248-.409-.395 0-.286.156-.63.92-.63.179 0 .198.02.228.024zm2.188 1.857c.234 0 1.578.06 1.578-1.33 0-1.3-1.244-1.044-1.244-1.566 0-.259.203-.342.573-.342.148 0 .714.048.714.048l.132-.924s-.366-.082-.963-.082c-.773 0-1.556.308-1.556 1.365 0 1.2 1.307 1.078 1.307 1.583 0 .336-.366.364-.647.364-.487 0-.925-.167-.927-.16l-.139.915c.024.008.295.129 1.171.129zm20.75-5.032l-.224 1.4s-.393-.543-1.008-.543c-.957 0-1.754 1.156-1.754 2.484 0 .857.425 1.696 1.295 1.696.625 0 .971-.436.971-.436l-.045.372h1.015l.798-4.975-1.047.002zm-.484 2.731c0 .552-.273 1.29-.84 1.29-.375 0-.55-.316-.55-.812 0-.81.363-1.347.821-1.347.376 0 .57.26.57.87zM7.395 24.11l.636-3.757.093 3.757h.72l1.341-3.757-.594 3.757h1.068l.824-4.981H9.83L8.8 22.184l-.053-3.055H7.224l-.835 4.98h1.006zm16.085.007c.305-1.732.36-3.138 1.087-2.882.127-.67.249-.929.387-1.213 0 0-.065-.013-.201-.013-.467 0-.814.64-.814.64l.093-.588h-.973l-.65 4.056h1.072zm6.492-4.156a3.6 3.6 0 00-1.264.23l-.151.902s.452-.184 1.137-.184c.388 0 .673.043.673.36 0 .192-.035.263-.035.263s-.306-.025-.45-.025c-.902 0-1.85.385-1.85 1.55 0 .918.622 1.129 1.008 1.129.736 0 1.053-.48 1.07-.481l-.034.4h.92l.41-2.882c0-1.223-1.064-1.262-1.434-1.262zm.224 2.346c.02.176-.11 1.001-.74 1.001-.323 0-.407-.248-.407-.395 0-.286.155-.63.92-.63.178 0 .196.02.227.024zm2.049 1.81c.305-1.732.36-3.138 1.087-2.882.126-.67.249-.929.388-1.213 0 0-.066-.013-.202-.013-.468 0-.814.64-.814.64l.093-.588h-.972l-.651 4.056h1.072z" fill="#fff"/></g></svg>