<svg viewBox="0 0 43 44" xmlns="http://www.w3.org/2000/svg" fill-rule="evenodd" clip-rule="evenodd" stroke-linejoin="round" stroke-miterlimit="2"><g transform="translate(-11.929 -8734.634) scale(.30202)"><circle cx="110.644" cy="28993.6" r="70.644" fill="#21b52b"/><path d="M76.876 29022.106h.67c.527 0 .897-.091 1.11-.275a.886.886 0 00.32-.703.983.983 0 00-.278-.706c-.185-.193-.533-.29-1.044-.29h-.778v1.974zm-2.745-3.771h4.543c.99 0 1.73.235 2.223.706.493.47.74 1.14.74 2.009 0 .893-.27 1.591-.806 2.094-.537.502-1.357.754-2.459.754h-1.496v3.282h-2.745v-8.845zm8.796 2.437h2.299v1.05c.22-.454.45-.767.684-.938.236-.17.527-.257.873-.257.361 0 .758.113 1.188.338l-.76 1.75c-.29-.12-.52-.18-.688-.18a.848.848 0 00-.748.397c-.253.374-.38 1.074-.38 2.1v2.148h-2.468v-6.408zm5.551 0h2.455v6.408h-2.455v-6.408zm0-2.437h2.455v1.671h-2.455v-1.671zm3.3 2.437h2.555l1.243 4.061 1.29-4.06h2.478l-2.723 6.407h-2.178l-2.665-6.408zm12.64 3.368c-.338.12-.69.226-1.056.319-.499.132-.815.264-.947.392a.615.615 0 00-.205.452c0 .193.067.351.202.474.134.123.332.184.594.184.273 0 .528-.066.763-.2.236-.132.402-.294.501-.485.098-.19.148-.439.148-.745v-.392zm-2.13-1.292l-2.347-.247c.088-.41.216-.733.383-.969a2.11 2.11 0 01.721-.612c.225-.125.535-.221.93-.29a7.52 7.52 0 011.278-.103c.736 0 1.328.042 1.774.124.446.083.818.255 1.116.516.21.181.374.438.495.77.12.331.18.648.18.95v2.83c0 .3.02.537.058.708.039.171.122.39.25.655h-2.304a2.329 2.329 0 01-.18-.377 2.708 2.708 0 01-.085-.408c-.322.31-.642.531-.96.664-.434.177-.939.266-1.514.266-.764 0-1.344-.177-1.74-.532a1.686 1.686 0 01-.595-1.308c0-.487.143-.888.428-1.201.286-.314.813-.547 1.581-.7.921-.185 1.518-.315 1.792-.39.273-.074.563-.171.869-.292 0-.301-.063-.513-.187-.633-.125-.12-.344-.181-.658-.181-.402 0-.704.064-.905.193-.157.1-.283.29-.38.567zm8.754-4.513v2.437h1.352v1.798h-1.352v2.27c0 .273.026.454.079.542.08.137.221.205.422.205.181 0 .435-.052.76-.157l.182 1.695c-.608.133-1.175.2-1.702.2-.611 0-1.062-.079-1.351-.235a1.435 1.435 0 01-.643-.714c-.139-.32-.208-.837-.208-1.552v-2.254h-.905v-1.798h.905v-1.176l2.461-1.261zm5.448 6.945h1.394c.47 0 .802-.084.995-.251.193-.167.29-.391.29-.673a.78.78 0 00-.287-.63c-.19-.16-.525-.239-1.004-.239h-1.388v1.793zm0-3.476h1.189c.426 0 .723-.073.89-.22.166-.147.25-.36.25-.637 0-.257-.084-.458-.25-.603-.167-.145-.458-.217-.872-.217h-1.207v1.677zm-2.757-3.469h5.117c.852 0 1.506.21 1.963.634.456.422.685.945.685 1.568 0 .523-.163.971-.489 1.345-.217.25-.534.447-.953.592.635.153 1.103.415 1.403.787.3.372.45.84.45 1.403 0 .458-.108.871-.32 1.237a2.357 2.357 0 01-.875.868c-.23.133-.576.23-1.038.29-.616.08-1.024.12-1.225.12h-4.718v-8.844zm13.81 5.805c-.337.12-.69.226-1.056.319-.498.132-.814.264-.947.392a.616.616 0 00-.205.452c0 .193.068.351.202.474.135.123.333.184.594.184.274 0 .528-.066.764-.2.235-.132.402-.294.5-.485.099-.19.148-.439.148-.745v-.392zm-2.13-1.292l-2.346-.247c.088-.41.216-.733.383-.969.167-.235.407-.44.72-.612.226-.125.536-.221.93-.29a7.49 7.49 0 011.28-.103c.735 0 1.326.042 1.773.124.446.083.818.255 1.116.516.209.181.374.438.494.77.121.331.182.648.182.95v2.83c0 .3.018.537.057.708.038.171.121.39.25.655h-2.305a2.329 2.329 0 01-.18-.377 2.708 2.708 0 01-.085-.408c-.322.31-.642.531-.96.664-.434.177-.938.266-1.514.266-.764 0-1.344-.177-1.74-.532a1.686 1.686 0 01-.595-1.308c0-.487.143-.888.429-1.201.286-.314.812-.547 1.58-.7.921-.185 1.519-.315 1.793-.39a8.4 8.4 0 00.868-.292c0-.301-.062-.513-.187-.633-.124-.12-.344-.181-.657-.181-.403 0-.704.064-.905.193-.157.1-.284.29-.38.567zm6.004-2.076h2.287v1.044c.341-.426.687-.73 1.037-.914.35-.183.776-.275 1.28-.275.679 0 1.21.203 1.595.607.384.404.576 1.029.576 1.873v4.073h-2.468v-3.524c0-.402-.074-.687-.223-.854-.148-.166-.358-.25-.627-.25a.894.894 0 00-.724.338c-.185.226-.278.63-.278 1.213v3.077h-2.455v-6.408zm8.241-2.437h2.51v4.565l1.834-2.128h3.023l-2.299 2.245 2.431 4.163h-2.766l-1.298-2.569-.925.904v1.665h-2.51v-8.845z" fill="#fff" fill-rule="nonzero"/><path fill="#221e1f" d="M83.174 28992.43h20.935v20.932H83.174z"/><path d="M125.67 28970.901v31.4h-4.268c-1.842-15.53-11.606-25.285-27.133-27.126v-4.274h31.402zm-42.472-11.068v26.047h5.538c14.564 0 21.954 7.39 21.954 21.952v5.537h26.05v-53.536H83.197z" fill="#fff" fill-rule="nonzero"/></g></svg>