<svg viewBox="0 0 44 44" xmlns="http://www.w3.org/2000/svg" fill-rule="evenodd" clip-rule="evenodd" stroke-linejoin="round" stroke-miterlimit="2"><circle cx="182.102" cy="13048.9" r="38.081" fill="#e11491" transform="translate(-80.328 -7288.775) scale(.56027)"/><path d="M21.995 37.21h-.3c-2.36.005-4.54-.055-6.661-.184-1.945-.118-3.72-.79-5.133-1.943-1.364-1.112-2.296-2.616-2.769-4.47-.411-1.613-.433-3.197-.454-4.73-.015-1.098-.03-2.4-.034-3.725.003-1.33.019-2.633.034-3.732.02-1.532.043-3.116.454-4.73.473-1.853 1.405-3.357 2.769-4.47 1.414-1.152 3.188-1.824 5.133-1.943a104.61 104.61 0 016.667-.183c2.361-.005 4.541.054 6.662.183 1.945.119 3.72.79 5.133 1.943 1.365 1.113 2.296 2.617 2.769 4.47.411 1.614.433 3.198.454 4.73.015 1.099.031 2.401.034 3.726v.006a323.323 323.323 0 01-.034 3.726c-.02 1.532-.042 3.116-.454 4.73-.473 1.853-1.404 3.357-2.769 4.47-1.414 1.152-3.188 1.824-5.133 1.942-2.03.124-4.117.184-6.368.184zm-.3-2.353a102.65 102.65 0 006.525-.179c1.47-.09 2.745-.566 3.79-1.418.965-.787 1.63-1.873 1.975-3.228.343-1.343.363-2.786.382-4.18.015-1.092.03-2.385.034-3.697a330.19 330.19 0 00-.034-3.697c-.019-1.395-.039-2.837-.382-4.18-.345-1.355-1.01-2.442-1.975-3.229-1.045-.851-2.32-1.328-3.79-1.418a102.757 102.757 0 00-6.519-.179 102.47 102.47 0 00-6.524.18c-1.47.089-2.745.566-3.79 1.417-.965.787-1.63 1.874-1.975 3.229-.343 1.343-.363 2.785-.382 4.18-.015 1.093-.03 2.387-.034 3.7.003 1.307.019 2.6.034 3.694.019 1.394.039 2.837.382 4.18.345 1.355 1.01 2.44 1.975 3.228 1.045.851 2.32 1.329 3.79 1.418 2.07.126 4.203.185 6.519.18zm-.055-5.351c-4.054 0-7.352-3.298-7.352-7.351 0-4.054 3.298-7.351 7.352-7.351 4.053 0 7.35 3.297 7.35 7.35 0 4.054-3.297 7.352-7.35 7.352zm0-12.35a5.005 5.005 0 00-5 4.999 5.005 5.005 0 005 4.999 5.004 5.004 0 004.998-5 5.004 5.004 0 00-4.998-4.998zm8.174-4.705a1.764 1.764 0 100 3.529 1.764 1.764 0 000-3.529z" fill="#fff" fill-rule="nonzero"/></svg>