<svg viewBox="0 0 44 44" xmlns="http://www.w3.org/2000/svg" fill-rule="evenodd" clip-rule="evenodd" stroke-linejoin="round" stroke-miterlimit="2"><circle cx="182.102" cy="13048.9" r="38.081" fill="#cd0013" transform="translate(-80.282 -7288.775) scale(.56027)"/><path d="M22.154 7.1C13.9 7.1 9.512 12.389 9.512 18.155c0 2.674 1.494 6.01 3.887 7.067.682.308.592-.067 1.18-2.313a.533.533 0 00-.129-.523c-3.42-3.956-.667-12.088 7.216-12.088 11.408 0 9.276 15.785 1.984 15.785-1.879 0-3.28-1.475-2.836-3.3.537-2.175 1.588-4.512 1.588-6.08 0-3.949-5.884-3.363-5.884 1.87 0 1.617.572 2.709.572 2.709s-1.893 7.648-2.244 9.077c-.595 2.419.08 6.334.139 6.672.036.185.244.244.361.091.187-.244 2.475-3.509 3.117-5.869.233-.86 1.19-4.347 1.19-4.347.631 1.14 2.45 2.093 4.389 2.093 5.766 0 9.934-5.069 9.934-11.358-.02-6.03-5.18-10.541-11.822-10.541z" fill="#fff" fill-rule="nonzero"/></svg>