<svg viewBox="0 0 44 44" xmlns="http://www.w3.org/2000/svg" fill-rule="evenodd" clip-rule="evenodd" stroke-linejoin="round" stroke-miterlimit="2"><circle cx="182.102" cy="13048.9" r="38.081" fill="#f70000" transform="translate(-80.196 -7288.775) scale(.56027)"/><g fill="#fff" fill-rule="nonzero"><path d="M26.465 20.805l-6.652-3.64a1.211 1.211 0 00-1.21.021 1.211 1.211 0 00-.598 1.052v7.217c0 .434.222.826.595 1.048a1.22 1.22 0 001.205.028l6.653-3.577a1.222 1.222 0 00.007-2.149zm-6.696 3.742v-5.394l4.972 2.72-4.972 2.674z"/><path d="M36.664 16.132l-.001-.014c-.025-.242-.28-2.398-1.327-3.494-1.212-1.29-2.585-1.447-3.245-1.522a7.588 7.588 0 01-.15-.018l-.053-.005c-3.98-.29-9.992-.33-10.052-.33h-.011c-.06 0-6.071.04-10.088.33l-.053.005-.141.017c-.653.076-2.012.233-3.226 1.569C7.319 13.755 7.03 15.864 7 16.1l-.003.031a62.388 62.388 0 00-.222 4.912v2.253c0 2.41.213 4.811.222 4.912l.002.016c.025.238.279 2.354 1.322 3.451 1.139 1.247 2.579 1.412 3.354 1.5.122.014.227.026.3.039l.069.01c2.298.218 9.505.326 9.81.33h.018c.06 0 6.072-.04 10.053-.329l.052-.005c.05-.007.107-.013.17-.02.648-.068 2-.212 3.198-1.53.998-1.085 1.287-3.194 1.316-3.431l.003-.03c.01-.102.222-2.503.222-4.913v-2.253c0-2.41-.213-4.81-.222-4.912zm-1.543 7.165a61.5 61.5 0 01-.213 4.74c-.075.58-.38 1.915-.865 2.444-.75.825-1.52.906-2.083.966a9.644 9.644 0 00-.188.021c-3.85.278-9.635.321-9.901.323-.299-.005-7.4-.113-9.628-.32a7.774 7.774 0 00-.368-.048c-.66-.075-1.562-.179-2.256-.942l-.017-.018c-.477-.498-.773-1.746-.848-2.42a61.68 61.68 0 01-.214-4.746v-2.253c0-2.228.194-4.523.213-4.738.09-.685.4-1.939.866-2.445.773-.85 1.587-.945 2.126-1.007l.144-.017c3.906-.28 9.733-.321 9.942-.323.209.001 6.033.043 9.904.323l.156.018c.554.064 1.392.16 2.16.98l.008.007c.478.498.773 1.767.849 2.455.013.15.213 2.48.213 4.747v2.253z"/></g></svg>