<svg viewBox="0 0 103 63" xmlns="http://www.w3.org/2000/svg" fill-rule="evenodd" clip-rule="evenodd" stroke-linejoin="round" stroke-miterlimit="2"><path d="M30.378 44.964a8.555 8.555 0 00-8.553 8.553 8.555 8.555 0 008.553 8.553 8.555 8.555 0 008.553-8.553 8.555 8.555 0 00-8.553-8.553zm0 2.66a5.895 5.895 0 015.893 5.893 5.904 5.904 0 01-5.893 5.893 5.895 5.895 0 01-5.893-5.893 5.887 5.887 0 015.893-5.893z" fill="#08e0c1"/><path d="M18.767 54.85c.731 0 1.33-.599 1.33-1.33 0-5.667 4.602-10.27 10.269-10.27 5.666 0 10.269 4.603 10.269 10.27 0 .731.599 1.33 1.33 1.33h20.552c.744 0 1.33-.599 1.33-1.33V11.047c0-.745-.586-1.33-1.33-1.33H12.834c-.732 0-1.33.585-1.33 1.33V53.52c0 .731.598 1.33 1.33 1.33h5.933zm-1.264-2.66h-3.339V12.377h47.022V52.19H43.23c-.665-6.518-6.172-11.6-12.863-11.6s-12.198 5.082-12.863 11.6z" fill="#08e0c1"/><path d="M67.358 54.85c.732 0 1.33-.599 1.33-1.33 0-5.667 4.603-10.27 10.27-10.27 5.68 0 10.282 4.603 10.282 10.27 0 .731.585 1.33 1.33 1.33h10.482c.745 0 1.33-.599 1.33-1.33V36.64c0-.32-.106-.626-.306-.865L87.205 18.084a1.352 1.352 0 00-1.024-.466H62.517c-.732 0-1.33.585-1.33 1.33V53.52c0 .731.598 1.33 1.33 1.33h4.841zm-1.263-2.66h-2.248V20.278h21.722l14.153 16.84V52.19h-7.888c-.678-6.518-6.185-11.6-12.876-11.6-6.678 0-12.198 5.082-12.863 11.6z" fill="#08e0c1"/><path d="M93.863 38.05c.52 0 .985-.306 1.198-.772a1.3 1.3 0 00-.187-1.41L84.126 23.085a1.313 1.313 0 00-1.01-.479H69.733c-.732 0-1.33.599-1.33 1.33V36.72c0 .731.598 1.33 1.33 1.33h24.13zm-2.86-2.66H71.065V25.266H82.49l8.514 10.122zm-12.035 9.574a8.555 8.555 0 00-8.553 8.553 8.555 8.555 0 008.553 8.553 8.555 8.555 0 008.553-8.553 8.555 8.555 0 00-8.553-8.553zm0 2.66a5.895 5.895 0 015.893 5.893 5.904 5.904 0 01-5.893 5.893 5.895 5.895 0 01-5.893-5.893 5.887 5.887 0 015.893-5.893z" fill="#08e0c1"/><circle cx="3728.16" cy="2062.3" r="5.43" fill="#fff" transform="translate(-9234.973 -5101.707) scale(2.48119)"/><path d="M15.3.448C7.112.448.488 7.098.488 15.261S7.112 30.049 15.3 30.049c8.163 0 14.788-6.625 14.788-14.788S23.463.448 15.3.448zm0 2.68c6.7 0 12.133 5.434 12.133 12.133 0 6.7-5.433 12.133-12.133 12.133-6.699 0-12.158-5.434-12.158-12.133 0-6.7 5.46-12.133 12.158-12.133z" fill="#08e0c1"/><path d="M14.407 21.805s-3.565-6.664-3.565-9.524a3.574 3.574 0 013.565-3.565 3.574 3.574 0 013.565 3.565c0 2.86-3.565 9.524-3.565 9.524z" fill="#fff"/><path d="M13.237 22.43c.24.426.691.705 1.17.705.493 0 .945-.28 1.184-.705 0 0 1.783-3.365 2.873-6.385.506-1.423.838-2.793.838-3.764a4.9 4.9 0 00-4.895-4.895 4.9 4.9 0 00-4.895 4.895c0 .97.346 2.34.852 3.764 1.077 3.02 2.873 6.385 2.873 6.385zm1.17-3.618c-.505-1.077-1.09-2.394-1.543-3.658-.385-1.09-.691-2.128-.691-2.873a2.248 2.248 0 012.234-2.235 2.24 2.24 0 012.235 2.235c0 .745-.293 1.782-.692 2.873a39.304 39.304 0 01-1.543 3.658z" fill="#08e0c1"/></svg>