<svg viewBox="0 0 78 63" xmlns="http://www.w3.org/2000/svg" fill-rule="evenodd" clip-rule="evenodd" stroke-linejoin="round" stroke-miterlimit="2"><text x="3689.39" y="1902.02" font-family="'Arial-BoldMT','Arial',sans-serif" font-weight="700" font-size="21.431" fill="#08e0c1" transform="translate(-4285.385 -2180.828) scale(1.16647)">24</text><text x="3689.39" y="1902.02" font-family="'Arial-BoldMT','Arial',sans-serif" font-weight="700" font-size="21.431" fill="#08e0c1" transform="matrix(.55966 0 0 .55965 -2012.797 -1026.65)">h</text><path d="M38.827.44c-15.712 0-28.482 12.77-28.482 28.48 0 15.736 12.77 28.482 28.482 28.482 15.736 0 28.481-12.746 28.481-28.482C67.308 13.21 54.563.44 38.827.44zm0 2.646c14.265 0 25.834 11.57 25.834 25.835 0 14.266-11.569 25.835-25.834 25.835-14.266 0-25.835-11.57-25.835-25.835S24.562 3.086 38.827 3.086z" fill="#08e0c1"/><path d="M11.405 36.322L1.202 46.525a1.324 1.324 0 00.532 2.208l8.913 2.846 3.498 9.604a1.3 1.3 0 00.958.838c.439.093.904-.04 1.224-.359l8.899-8.899a1.325 1.325 0 000-1.875 1.325 1.325 0 00-1.876 0l-7.422 7.422-3.007-8.26a1.357 1.357 0 00-.851-.812L4.62 46.87l8.66-8.672a1.325 1.325 0 000-1.876 1.325 1.325 0 00-1.875 0zm53.245 1.876l8.66 8.672-7.45 2.368a1.357 1.357 0 00-.85.812l-3.007 8.26-7.422-7.422a1.325 1.325 0 00-1.876 0 1.325 1.325 0 000 1.875l8.9 8.9c.318.318.784.451 1.223.358.439-.093.811-.412.958-.838l3.498-9.604 8.912-2.846a1.324 1.324 0 00.532-2.208L66.526 36.322a1.325 1.325 0 00-1.876 0 1.325 1.325 0 000 1.876z" fill="#08e0c1"/></svg>