<svg viewBox="0 0 50 61" xmlns="http://www.w3.org/2000/svg" fill-rule="evenodd" clip-rule="evenodd" stroke-linejoin="round" stroke-miterlimit="2"><path d="M41.6 31.993c-2.084 6.654-8.313 11.483-15.65 11.483-7.339 0-13.557-4.829-15.64-11.483a1.326 1.326 0 00-1.67-.874 1.344 1.344 0 00-.873 1.67c2.43 7.73 9.657 13.353 18.182 13.353 8.537 0 15.763-5.624 18.183-13.354a1.326 1.326 0 00-.874-1.669 1.314 1.314 0 00-1.658.874z" fill="#08e0c1"/><path d="M25.577 40.303c-8.396 0-15.22 6.824-15.22 15.22 0 .738.597 1.335 1.334 1.335.73 0 1.327-.597 1.327-1.335 0-6.93 5.63-12.559 12.559-12.559.738 0 1.335-.597 1.335-1.326 0-.738-.597-1.335-1.335-1.335z" fill="#08e0c1"/><path d="M25.433 42.964c6.93 0 12.56 5.63 12.56 12.56 0 .737.597 1.334 1.326 1.334.738 0 1.335-.597 1.335-1.335 0-8.396-6.824-15.22-15.22-15.22-.738 0-1.336.597-1.336 1.335 0 .729.598 1.326 1.335 1.326z" fill="#08e0c1"/><path d="M32.38 58.746H18.779v-9.378a6.81 6.81 0 016.801-6.801 6.805 6.805 0 016.802 6.801v9.378z" fill="#fff"/><path d="M32.38 60.078a1.33 1.33 0 001.333-1.332v-9.378c0-4.486-3.647-8.125-8.134-8.125-4.486 0-8.133 3.639-8.133 8.125v9.378c0 .737.603 1.332 1.332 1.332H32.38zm-1.33-2.656H20.11v-8.054a5.47 5.47 0 0110.94 0v8.054zM1.262 29.926c-.026.48.2.918.599 1.171 2.554 1.663 5.707 2.634 9.098 2.634 8.54 0 15.457-6.12 15.737-13.661.026-.466-.2-.905-.599-1.17-2.554-1.65-5.706-2.621-9.098-2.621-8.54 0-15.457 6.105-15.737 13.647zm2.714-.651c.665-5.853 6.278-10.336 13.023-10.336 2.567 0 4.961.652 6.983 1.796-.665 5.84-6.278 10.335-13.023 10.335-2.567 0-4.961-.651-6.983-1.795z" fill="#08e0c1"/><path d="M48.883 31.097c.4-.253.625-.692.599-1.17-.28-7.543-7.197-13.648-15.736-13.648-3.392 0-6.545.97-9.099 2.62a1.313 1.313 0 00-.598 1.17c.279 7.543 7.196 13.662 15.736 13.662 3.392 0 6.544-.971 9.098-2.634zm-2.115-1.822c-2.022 1.144-4.416 1.795-6.983 1.795-6.744 0-12.358-4.496-13.023-10.335 2.022-1.144 4.416-1.796 6.984-1.796 6.744 0 12.357 4.483 13.022 10.336z" fill="#08e0c1"/><path d="M32.282 3.024l-4.22 1.468-2.425-2.747-2.956 2.747-4.221-1.468v10.852c0 3.56 3.101 6.457 6.911 6.457 3.818 0 6.911-2.897 6.911-6.457V3.024z" fill="#fff"/><path d="M33.611 3.024c0-.429-.209-.835-.555-1.083a1.33 1.33 0 00-1.209-.173l-3.383 1.174L26.636.864a1.334 1.334 0 00-.927-.451 1.362 1.362 0 00-.974.354l-2.369 2.205-3.471-1.204a1.314 1.314 0 00-1.2.173 1.325 1.325 0 00-.564 1.083v10.852c0 4.275 3.673 7.79 8.24 7.79 4.575 0 8.24-3.515 8.24-7.79V3.024zm-2.658 1.867v8.985c0 2.852-2.521 5.125-5.582 5.125-3.053 0-5.582-2.273-5.582-5.125V4.891l2.457.858c.467.158.982.045 1.345-.286l1.957-1.814 1.515 1.716c.354.406.926.557 1.433.384l2.457-.858z" fill="#08e0c1"/><path d="M14.107 5.106l-2.922 3.382L7.712 7.32l-1.187 3.857-4.389.84 3.533 6.12c1.78 3.082 5.911 4.034 9.21 2.13 3.307-1.91 4.541-5.96 2.761-9.042l-3.533-6.12z" fill="#fff"/><path d="M15.258 4.442a1.339 1.339 0 00-1.023-.661 1.33 1.33 0 00-1.133.454l-2.343 2.709-2.622-.885a1.334 1.334 0 00-1.028.072 1.362 1.362 0 00-.667.794l-.949 3.093-3.608.694a1.31 1.31 0 00-.953.75c-.183.392-.161.849.053 1.22l3.533 6.12c2.134 3.695 7.072 4.902 11.028 2.619 3.962-2.288 5.379-7.164 3.245-10.86l-3.533-6.12zm-1.369 2.945l2.6 4.504c1.426 2.47.38 5.699-2.272 7.229-2.644 1.526-5.97.823-7.396-1.647l-2.6-4.504 2.556-.485a1.354 1.354 0 001.022-.92l.788-2.55 2.17.729c.51.175 1.08.02 1.433-.385l1.7-1.971z" fill="#08e0c1"/><path d="M36.624 5.106l2.922 3.382 3.473-1.167 1.187 3.857 4.389.84-3.534 6.12c-1.78 3.082-5.91 4.034-9.21 2.13-3.306-1.91-4.54-5.96-2.76-9.042l3.533-6.12z" fill="#fff"/><path d="M37.63 4.235a1.33 1.33 0 00-1.134-.454c-.424.042-.809.29-1.023.66l-3.533 6.12c-2.134 3.696-.717 8.572 3.245 10.86 3.956 2.283 8.894 1.076 11.027-2.62l3.534-6.119c.214-.371.236-.828.053-1.22a1.314 1.314 0 00-.953-.75l-3.608-.694-.949-3.093a1.362 1.362 0 00-.667-.794 1.334 1.334 0 00-1.028-.072l-2.622.885-2.343-2.709zm-.788 3.152l1.699 1.971c.352.404.923.56 1.433.385l2.17-.729.788 2.55c.148.468.538.823 1.022.92l2.556.485-2.6 4.504c-1.426 2.47-4.753 3.173-7.396 1.647-2.651-1.53-3.698-4.76-2.272-7.23l2.6-4.503z" fill="#08e0c1"/></svg>