<svg viewBox="0 0 63 62" xmlns="http://www.w3.org/2000/svg" fill-rule="evenodd" clip-rule="evenodd" stroke-linejoin="round" stroke-miterlimit="2"><path d="M31.311 2.934c15.537 0 28.147 12.61 28.147 28.147 0 15.537-12.61 28.147-28.147 28.147-15.537 0-28.147-12.61-28.147-28.147 0-.731-.598-1.33-1.33-1.33-.732 0-1.33.599-1.33 1.33 0 17 13.807 30.807 30.807 30.807 17.013 0 30.807-13.807 30.807-30.807C62.118 14.068 48.324.274 31.311.274c-.731 0-1.33.585-1.33 1.33 0 .732.599 1.33 1.33 1.33z" fill="#08e0c1"/><text x="3689.39" y="1902.02" font-family="'Arial-BoldMT','Arial',sans-serif" font-weight="700" font-size="21.431" fill="#08e0c1" transform="translate(-4303 -2195.39) scale(1.16647)">24</text><text x="3689.39" y="1902.02" font-family="'Arial-BoldMT','Arial',sans-serif" font-weight="700" font-size="21.431" fill="#08e0c1" transform="translate(-4269.23 -2169.262) scale(1.16647)">7</text><path d="M43.363 15.969L14.205 44.5a1.313 1.313 0 00-.027 1.876 1.337 1.337 0 001.876.026l29.17-28.532a1.325 1.325 0 00.028-1.876 1.34 1.34 0 00-1.89-.026z" fill="#08e0c1"/></svg>