<svg viewBox="0 0 139 139" xmlns="http://www.w3.org/2000/svg" fill-rule="evenodd" clip-rule="evenodd" stroke-linejoin="round" stroke-miterlimit="2"><circle cx="110.644" cy="28993.6" r="70.644" fill="#f0f0f0" transform="translate(-38.08 -28152.004) scale(.97337)"/><path d="M107.165 49.677c-.012 9.171-3.278 17.55-8.71 24.05-7.532 7.093-17.676 11.438-28.836 11.438-11.054 0-21.112-4.262-28.62-11.236a37.38 37.38 0 01-8.928-24.301 37.448 37.448 0 012.886-14.463c-3.949 16.1 2.166 29.227 16.23 30.069 19.419 1.156 28.35-12.87 28.35-12.87l.98-1.506-.39 6.824a4.407 4.407 0 004.152 4.65c.084.011.176.011.26.011a4.417 4.417 0 004.401-4.161l.88-15.451a4.373 4.373 0 00-1.194-3.276 4.407 4.407 0 00-3.21-1.385H70.064c-2.474 0-4.558 2.026-4.508 4.5a4.418 4.418 0 004.41 4.33h6.722c-3.413 3.884-11.614 10.977-24.542 8.275-15.435-3.216-11.562-30.458 7.946-40.886.074-.04.164-.085.268-.137a19.668 19.668 0 018.244-2.052c.339-.01.679-.014 1.019-.014 20.747 0 37.57 16.836 37.542 37.59z" fill="#e71600" fill-rule="nonzero"/><path d="M75.56 94.753l-5.71 9.157c-.623 1.006-1.213 1.691-1.787 2.074-.59.384-1.292.575-2.138.575a4.07 4.07 0 01-1.308-.207c-.431-.144-.781-.32-1.021-.543l1.149-1.787c.383.351.845.526 1.372.526.319 0 .59-.079.83-.239.238-.159.478-.43.717-.813l.08-.144-1.978-8.599h2.488l1.276 5.84 3.574-5.84h2.457zm8.122 2.824h2.361l-.925 4.595a6.323 6.323 0 01-1.963 1.004 7.504 7.504 0 01-2.313.352c-1.116 0-2.09-.208-2.92-.607-.829-.399-1.467-.973-1.914-1.707-.462-.733-.686-1.579-.686-2.536 0-1.26.288-2.41.878-3.43a6.292 6.292 0 012.473-2.409c1.068-.575 2.281-.861 3.67-.861 1.068 0 1.993.159 2.775.494.781.335 1.404.814 1.882 1.452l-1.85 1.5a3.592 3.592 0 00-1.26-.957c-.463-.192-1.022-.288-1.66-.288-.846 0-1.595.191-2.249.559a3.92 3.92 0 00-1.5 1.563c-.367.654-.542 1.404-.542 2.218 0 .861.287 1.547.845 2.057.558.495 1.356.75 2.393.75.654 0 1.277-.127 1.85-.399l.655-3.35zm-18.89.83c0 .398-.048.83-.144 1.308h-6.572c.08 1.165.829 1.755 2.217 1.755.431 0 .862-.064 1.26-.207a3.312 3.312 0 001.037-.59l1.037 1.643a4.9 4.9 0 01-1.643.86 6.526 6.526 0 01-1.946.288c-.878 0-1.66-.16-2.314-.463-.67-.319-1.18-.765-1.53-1.356-.368-.59-.543-1.26-.543-2.026 0-.941.207-1.803.638-2.568a4.817 4.817 0 011.803-1.771c.765-.447 1.643-.654 2.616-.654.83 0 1.547.16 2.17.462.605.304 1.084.75 1.42 1.325.335.574.494 1.244.494 1.993zm-26.387 5.057c-.861 0-1.61-.16-2.265-.479-.654-.319-1.165-.766-1.516-1.356-.367-.574-.542-1.244-.542-2.01 0-.941.224-1.803.67-2.552a4.86 4.86 0 011.85-1.787c.783-.43 1.676-.654 2.665-.654.877 0 1.627.16 2.281.478a3.65 3.65 0 011.516 1.34c.35.59.526 1.26.526 2.026 0 .942-.223 1.803-.654 2.553a4.86 4.86 0 01-1.85 1.787c-.798.43-1.692.654-2.68.654zm65.855-8.71l-1.707 8.582h-2.361l.16-.845c-.718.654-1.596.973-2.633.973-.67 0-1.292-.16-1.85-.463a3.382 3.382 0 01-1.34-1.34c-.336-.574-.51-1.26-.51-2.042 0-.941.206-1.803.637-2.568a4.67 4.67 0 011.707-1.771c.718-.447 1.516-.654 2.393-.654 1.324 0 2.25.43 2.791 1.292l.224-1.165h2.489zm-70.61-2.586l-2.217 11.167h-2.425l1.308-6.636-4.259 5.456H24.91l-2.297-5.52-1.34 6.7h-2.425l2.234-11.167h2.106l2.791 6.955 5.456-6.955h2.217zm57.321 3.606c.367-.4.83-.703 1.34-.878a5.99 5.99 0 011.867-.271l-.447 2.297c-.303-.016-.495-.031-.575-.031-.75 0-1.356.19-1.818.558-.447.366-.75.956-.91 1.738l-.829 4.148H87.11l1.707-8.583h2.362l-.208 1.022zm-39.916-1.15c.957 0 1.723.256 2.281.75.559.511.846 1.229.846 2.17 0 .351-.032.702-.112 1.037l-.957 4.754h-2.489l.926-4.594c.047-.176.064-.383.064-.59 0-.447-.129-.782-.368-1.021-.239-.24-.606-.352-1.1-.352-.638 0-1.165.176-1.596.543-.414.367-.702.925-.846 1.66l-.86 4.354h-2.49l1.708-8.583h2.36l-.191.926c.766-.702 1.707-1.053 2.824-1.053zm66.27 0c.942 0 1.676.256 2.234.75.559.511.83 1.229.83 2.154 0 .336-.032.686-.112 1.053l-.941 4.754h-2.489l.91-4.578c.047-.208.063-.43.063-.654 0-.43-.112-.766-.335-.99-.239-.222-.574-.335-1.02-.335-1.197 0-1.948.718-2.25 2.154l-.878 4.403h-2.489l.91-4.578c.048-.208.064-.43.064-.638 0-.431-.112-.766-.335-1.006-.24-.222-.574-.335-1.022-.335-1.196 0-1.962.734-2.265 2.186l-.861 4.371h-2.49l1.708-8.583h2.361l-.191.894c.75-.686 1.643-1.021 2.696-1.021.59 0 1.117.112 1.595.35.463.256.798.591 1.037 1.054a4.304 4.304 0 011.452-1.053 4.57 4.57 0 011.818-.351zm-78.76 6.781a2.54 2.54 0 001.291-.35 2.48 2.48 0 00.893-1.006c.208-.43.32-.91.32-1.468 0-.59-.176-1.053-.511-1.388-.335-.335-.814-.51-1.436-.51-.494 0-.925.128-1.308.35-.383.24-.686.575-.893 1.006-.208.43-.32.91-.32 1.468 0 .59.176 1.052.527 1.387.335.335.814.511 1.436.511zm59.918 0c.495 0 .926-.128 1.309-.35a2.48 2.48 0 00.894-1.006c.206-.43.319-.91.319-1.468 0-.59-.177-1.053-.512-1.388-.35-.335-.829-.51-1.45-.51-.496 0-.926.128-1.309.35a2.39 2.39 0 00-.894 1.006c-.207.43-.319.91-.319 1.468 0 .59.176 1.052.527 1.387.335.335.814.511 1.435.511zm-37.888-4.913c-.59 0-1.085.159-1.484.462-.399.32-.685.75-.861 1.308h4.26c0-.558-.176-.989-.51-1.308-.352-.303-.815-.462-1.405-.462z" fill="#030404" fill-rule="nonzero"/></svg>