<svg viewBox="0 0 139 139" xmlns="http://www.w3.org/2000/svg" fill-rule="evenodd" clip-rule="evenodd" stroke-linejoin="round" stroke-miterlimit="2"><g transform="translate(-38.08 -28152.187) scale(.97337)"><circle cx="110.644" cy="28993.6" r="70.644" fill="#fbd800"/><path d="M52.135 28980.868h4.118l.978 7.298h.03l1.08-7.298h4.757l1.079 7.298h.03l.984-7.298h4.114l-2.51 11.608h-4.982l-1.078-7.524h-.033l-1.075 7.524h-4.983l-2.509-11.608zm19.985 0h8.825v3.022h-4.42v1.238h4.084v3.023h-4.084v1.3h4.566v3.025h-8.97v-11.608zm18.375 3.296c-.016-.725-.417-.965-1.014-.965-.738 0-1.06.321-1.06.678 0 .415.274.593.755.736.886.256 2.507.582 3.683 1.08 1.463.61 2.104 1.654 2.104 3.053 0 2.847-2.316 4.035-5.595 4.035-2.795 0-5.369-.868-5.369-3.891h4.406c0 .323.064.646.242.885.173.227.465.367.897.367.678 0 1.11-.43 1.11-.947 0-.433-.336-.66-.771-.785l-3.264-.966c-1.786-.53-2.41-1.608-2.41-3.101 0-2.413 1.944-3.778 5.335-3.778 2.895 0 5.065.9 5.065 3.6h-4.114m9.953-.18h-2.862v-3.117h10.321v3.117h-2.859v8.491h-4.6v-8.491zm10.577-3.117h8.83v3.022h-4.42v1.238h4.081v3.023h-4.082v1.3h4.564v3.025h-8.973v-11.608zm12.383 0h6.866c2.49 0 3.952.756 3.952 2.94 0 1.338-.56 2.348-2.3 2.768v.031c1.127.096 1.74.596 1.966 1.48.256.998.225 2.636.754 4.39h-4.504c-.272-.87-.415-2.335-.575-3.329-.1-.577-.388-.806-1.127-.806h-.53v4.136h-4.5v-11.61m4.885 4.84c.881 0 1.526-.306 1.526-1.174 0-.854-.596-1.03-1.494-1.03h-.418v2.204h.386zm9.547-4.84h5.514l2.46 7.026h.033v-7.026h3.73v11.608h-5.513l-2.46-7.074h-.032v7.074h-3.732v-11.608zm-42.972 21.595c0 2.798-2.011 4.196-5.515 4.196-3.504 0-5.514-1.398-5.514-4.196v-7.717h4.598v7.526c0 .914.435 1.268.916 1.268.484 0 .917-.354.917-1.268v-7.526h4.598v7.717zm3.81-7.717h5.514l2.459 7.026h.032v-7.026h3.73v11.607H104.9l-2.461-7.073h-.028v7.073h-3.732v-11.607zm15.625.004h4.595v11.608h-4.595v-11.609zm14.069-.308c4.005 0 5.996 2.49 5.996 6.108 0 3.617-1.991 6.109-5.996 6.109-4.005 0-5.997-2.492-5.997-6.109-.001-3.617 1.99-6.108 5.997-6.108zm0 9.195c.706 0 1.237-.402 1.237-3.087 0-2.622-.5-3.088-1.237-3.088-.74 0-1.239.466-1.239 3.088 0 2.685.533 3.087 1.24 3.087zm9.468-8.891h5.514l2.46 7.026h.033v-7.026h3.73v11.607h-5.513l-2.46-7.073h-.032v7.073h-3.732v-11.607zm15.08-14.107h1.468v25.757h-1.468v-25.757zm10.402.244h1.467v25.494h-1.467v-25.494zm2.736 1.377c0-.85.694-1.544 1.549-1.544s1.544.694 1.544 1.544a1.547 1.547 0 11-3.093 0zm2.849 0c0-.753-.546-1.338-1.3-1.338-.752 0-1.303.585-1.303 1.338 0 .759.551 1.347 1.303 1.347.754 0 1.3-.588 1.3-1.347zm-.528.865h-.253l-.494-.798h-.387v.798h-.21v-1.727h.75c.46 0 .616.172.616.457 0 .337-.238.464-.543.472l.521.798zm-.812-.964c.247 0 .606.04.606-.309 0-.27-.221-.303-.433-.303h-.497v.612h.324z" fill-rule="nonzero"/></g></svg>