<svg viewBox="0 0 139 139" xmlns="http://www.w3.org/2000/svg" fill-rule="evenodd" clip-rule="evenodd" stroke-linejoin="round" stroke-miterlimit="2"><circle cx="110.644" cy="28993.6" r="70.644" fill="#00c0ff" transform="translate(-38.194 -28235.24) scale(.97625)"/><path d="M104.678 57.614L71.054 29.777a1 1 0 00-1.265 0L36.164 57.614c-.676.56-.262 1.62.632 1.62h67.25c.894 0 1.308-1.06.632-1.62z" fill="#d3dbde" fill-rule="nonzero"/><path d="M70.421 39.75a7.84 7.84 0 110 15.681 7.84 7.84 0 010-15.681z" fill="#54798a" fill-rule="nonzero"/><path d="M70.421 42.979a4.612 4.612 0 110 9.223 4.612 4.612 0 010-9.223z" fill="#d3dbde" fill-rule="nonzero"/><path fill="#54798a" d="M42.747 59.23h9.862v4.17h-9.862zm15.163 0h9.861v4.17H57.91zm15.162 0h9.861v4.17h-9.861zm15.166 0H98.1v4.17h-9.862zM42.747 96.56h9.862v4.17h-9.862zm15.163 0h9.861v4.17H57.91zm15.162 0h9.861v4.17h-9.861zm15.166 0H98.1v4.17h-9.862z"/><path fill="#d3dbde" d="M43.988 63.403h7.38V96.56h-7.38zm15.162 0h7.379V96.56h-7.38zm15.166 0h7.38V96.56h-7.38zm15.156 0h7.38V96.56h-7.38z"/><path d="M35.703 105.384h67.04c.592 0 1.072.48 1.072 1.072v3.54H34.63v-3.54c0-.592.48-1.072 1.073-1.072z" fill="#cbccd0" fill-rule="nonzero"/><path d="M38.931 100.771h60.583c.592 0 1.072.48 1.072 1.073v3.54H37.86v-3.54c0-.592.48-1.073 1.072-1.073z" fill="#d3dbde" fill-rule="nonzero"/></svg>