<svg viewBox="0 0 139 138" xmlns="http://www.w3.org/2000/svg" fill-rule="evenodd" clip-rule="evenodd" stroke-linejoin="round" stroke-miterlimit="2"><g transform="translate(-38.08 -28152.422) scale(.97337)"><circle cx="110.644" cy="28993.6" r="70.644" fill="#21b52b"/><path d="M91.6 29004.262a1.786 1.786 0 00-.413-.216c-1.181-.451-2.905-1.647-3.865-2.266-.744-.48-.629-.86-.528-1.018l.062-.077.005-.004c1.632-2.003 2.578-4.855 2.578-8.456 0-6.366-2.722-11.527-10.111-11.527-6.799 0-10.064 5.16-10.064 11.527 0 6.367 2.195 11.816 10.064 11.816 1.598 0 3.068-.307 4.36-.902h.004c.38-.164.75-.159 1.258.211 3.65 2.703 5.46 3.697 6.755 3.697.625 0 .514-1.92.514-1.92s-.091-.485-.62-.865zm83.09-12.108l-14.163-11.865a.26.26 0 00-.356.02l-2.093 2.18 11.566 9.665-11.566 9.664 2.093 2.18c.097.101.25.106.356.02l14.164-11.864zm-10.178-.097l-14.164-11.864a.26.26 0 00-.355.02l-2.094 2.18 11.567 9.664-11.567 9.665 2.094 2.18c.096.1.25.106.355.02l14.164-11.865zm-22.556-10.995c-.202-.076-1.369-.067-1.369-.067-.782.02-1.282 0-1.632.485a1.465 1.465 0 00-.13.226l-4.672 10.107-4.81-10.102a1.504 1.504 0 00-.13-.226c-.35-.485-.85-.47-1.632-.485 0 0-1.167-.01-1.369.067-.48.183-.163.773.062 1.258l5.901 11.773c.27.538.408 1.128.408 1.728v7.106c0 .48.39.87.87.87h1.233c.48 0 .87-.39.87-.87v-7.072c0-.6.139-1.19.407-1.729l5.925-11.81c.23-.486.548-1.076.068-1.259zm-22.038 1.138c-.216-.633-.5-1.171-1.11-1.195h-1.526a1.27 1.27 0 00-.14-.01h-.489a1.27 1.27 0 00-.14.01c-.508.077-.763.586-.955 1.181l-7.538 21.063c0 .279.226.504.504.504h1.575c.624 0 .946-.513 1.133-1.133l1.503-4.388a.75.75 0 01.71-.504h8.384c.316 0 .6.201.705.5l1.566 4.435c.192.62.528 1.133 1.18 1.133h1.648a.516.516 0 00.528-.504l-7.538-21.092zm-14.236.039c-.994-.672-2.367-1.148-4.993-1.148h-5.085a1.1 1.1 0 00-1.1 1.1v20.434c0 .624.505 1.133 1.134 1.133h.874c.624 0 1.133-.504 1.133-1.133v-7.677h4.58c.447 0 6.18-.898 6.18-7.14-.006-2.717-1.398-4.667-2.723-5.57zm-41.747-1.258h-1.786a.671.671 0 00-.672.672v21.39c0 .388.317.71.71.71h1.72c.388 0 .71-.317.71-.71v-21.385a.684.684 0 00-.682-.677zm-6.39 20.06H49.57v-19.383a.671.671 0 00-.672-.672H47.27a.671.671 0 00-.672.672v21.16c0 .44.355.796.797.796h10.154a.688.688 0 00.691-.691v-1.191a.702.702 0 00-.696-.692zm14.946-8.768v-.048c.01-4.32 1.584-8.906 6.846-8.906 5.964 0 6.876 4.585 6.88 8.906v.048c0 5.143-1.665 9.05-6.88 9.05-5.987 0-6.846-4.714-6.846-9.05zm48.987 2.963h-8.11l4.255-11.917 3.855 11.917zm-20.295-2.64H97.64v-9.152h2.525c1.734 0 2.64.312 3.299.758.878.596 1.795 1.882 1.795 3.678.005 4.125-3.778 4.715-4.076 4.715z" fill="#fff" fill-rule="nonzero"/></g></svg>