<svg viewBox="0 0 61 61" xmlns="http://www.w3.org/2000/svg" fill-rule="evenodd" clip-rule="evenodd" stroke-linejoin="round" stroke-miterlimit="2"><path d="M42.299 60.161c10.019 0 18.17-8.153 18.17-18.177V18.432C60.468 8.42 52.317.266 42.298.266h-23.55C8.73.266.578 8.42.578 18.432v23.552c0 10.024 8.152 18.177 18.17 18.177h23.55zm0-3.686H18.748c-7.986 0-14.482-6.498-14.482-14.49V18.431c0-7.982 6.496-14.48 14.482-14.48h23.55c7.986 0 14.483 6.498 14.483 14.48v23.552c0 7.993-6.497 14.49-14.482 14.49zm-11.775-39.72c-7.426 0-13.454 6.037-13.454 13.453 0 7.427 6.028 13.454 13.454 13.454 7.424 0 13.452-6.027 13.452-13.454 0-7.416-6.028-13.453-13.452-13.453zm0 3.686c5.39 0 9.766 4.382 9.766 9.767 0 5.397-4.376 9.767-9.766 9.767s-9.767-4.37-9.767-9.767c0-5.385 4.377-9.767 9.767-9.767zm14.427-8.687a4.034 4.034 0 100 8.068 4.038 4.038 0 004.037-4.04 4.035 4.035 0 00-4.037-4.028z" fill="#fff"/></svg>