<svg viewBox="0 0 54 55" xmlns="http://www.w3.org/2000/svg" fill-rule="evenodd" clip-rule="evenodd" stroke-linejoin="round" stroke-miterlimit="2"><g fill-rule="nonzero"><path d="M33.032 39.148l-5.818-1.325a20.8 20.8 0 0110.268-10.27l1.325 5.818a13.074 13.074 0 00-5.775 5.777zm4.976-12.6l-19.802-19.8a24.282 24.282 0 00-12 11.598L26.221 38.36l7.41 1.743 7.81 1.68-1.68-7.822-1.753-7.414z" fill="#365d8f"/><path d="M33.63 40.103l-7.409-1.743L6.206 18.346a24.283 24.283 0 0112-11.598l19.802 19.8 1.752 7.413 1.681 7.822-7.81-1.68zM28.043 3.786c-3.335 0-6.575.647-9.635 1.917L13.19.485a.44.44 0 00-.543-.063A38.895 38.895 0 00.08 12.988a.44.44 0 00.063.543l5.002 5A24.923 24.923 0 002.889 28.94c0 13.868 11.284 25.151 25.154 25.151 13.869 0 25.152-11.283 25.152-25.151 0-13.87-11.283-25.153-25.152-25.153z" fill="#7c9bd0"/><path d="M27.214 37.823l5.818 1.325a13.073 13.073 0 015.775-5.777l-1.325-5.818a20.798 20.798 0 00-10.268 10.27z" fill="#fff"/></g></svg>