<svg viewBox="0 0 56 56" xmlns="http://www.w3.org/2000/svg" fill-rule="evenodd" clip-rule="evenodd" stroke-linejoin="round" stroke-miterlimit="2"><path d="M27.706.247C12.622.247.366 12.502.366 27.587c0 11.218 6.694 20.834 16.404 25.077-.094-1.886 0-4.243.471-6.317.566-2.262 3.489-14.895 3.489-14.895s-.849-1.791-.849-4.337c0-4.054 2.357-7.07 5.28-7.07 2.45 0 3.676 1.885 3.676 4.148 0 2.45-1.602 6.222-2.45 9.71-.66 2.922 1.413 5.28 4.336 5.28 5.185 0 8.673-6.694 8.673-14.52 0-6.033-4.054-10.464-11.407-10.464-8.296 0-13.482 6.223-13.482 13.105 0 2.357.66 4.053 1.792 5.373.471.566.565.849.377 1.509-.095.471-.472 1.697-.566 2.168-.188.66-.754.943-1.414.66-3.865-1.603-5.562-5.75-5.562-10.465 0-7.73 6.505-17.063 19.515-17.063 10.464 0 17.347 7.542 17.347 15.65 0 10.747-5.94 18.76-14.707 18.76-2.923 0-5.751-1.603-6.694-3.394 0 0-1.603 6.317-1.886 7.542-.565 2.074-1.697 4.243-2.734 5.845 2.452.755 5.091 1.132 7.731 1.132 15.084 0 27.34-12.256 27.34-27.34S42.79.247 27.706.247z" fill="#cc2027" fill-rule="nonzero"/></svg>