<svg viewBox="0 0 55 33" xmlns="http://www.w3.org/2000/svg" fill-rule="evenodd" clip-rule="evenodd" stroke-linejoin="round" stroke-miterlimit="2"><path d="M45.644 18.957c-.876-1.107-.626-1.6 0-2.589.011-.012 7.246-10.009 7.991-13.4l.005-.001c.37-1.236 0-2.144-1.79-2.144h-5.928c-1.509 0-2.205.78-2.577 1.651 0 0-3.018 7.224-7.288 11.906-1.377 1.353-2.014 1.787-2.766 1.787-.37 0-.947-.434-.947-1.67V2.967c0-1.482-.422-2.144-1.671-2.144h-9.32c-.947 0-1.51.691-1.51 1.335 0 1.405 2.136 1.728 2.357 5.68v8.577c0 1.88-.341 2.225-1.098 2.225-2.015 0-6.905-7.253-9.803-15.554-.585-1.61-1.157-2.26-2.677-2.26h-5.93C1.002.825.66 1.603.66 2.475c0 1.541 2.015 9.2 9.37 19.32 4.901 6.907 11.804 10.65 18.084 10.65 3.774 0 4.235-.831 4.235-2.261 0-6.6-.342-7.224 1.55-7.224.876 0 2.385.434 5.908 3.766 4.028 3.95 4.69 5.719 6.944 5.719h5.927c1.69 0 2.546-.831 2.053-2.471-1.127-3.45-8.744-10.544-9.087-11.018z" fill="#4b729f" fill-rule="nonzero"/></svg>