<svg viewBox="0 0 20 19" xmlns="http://www.w3.org/2000/svg" fill-rule="evenodd" clip-rule="evenodd" stroke-linejoin="round" stroke-miterlimit="2"><path d="M9.828.576c.696 0 1.266.57 1.266 1.266V6.55a1.27 1.27 0 01-1.266 1.266A1.27 1.27 0 018.562 6.55V1.842c0-.696.57-1.266 1.266-1.266zM.268 7.522a1.27 1.27 0 011.595-.813L6.34 8.164a1.27 1.27 0 01.813 1.595 1.27 1.27 0 01-1.595.813L1.081 9.117a1.27 1.27 0 01-.813-1.595zM3.92 18.76a1.27 1.27 0 01-.28-1.768l2.766-3.807a1.27 1.27 0 011.769-.28 1.27 1.27 0 01.28 1.768L5.688 18.48a1.27 1.27 0 01-1.768.28zm11.817 0a1.27 1.27 0 01-1.769-.28l-2.766-3.807a1.27 1.27 0 01.28-1.769 1.27 1.27 0 011.768.28l2.767 3.808a1.27 1.27 0 01-.28 1.769zm3.651-11.238a1.27 1.27 0 01-.813 1.595L14.1 10.572a1.27 1.27 0 01-1.595-.813 1.27 1.27 0 01.813-1.596l4.476-1.454a1.27 1.27 0 011.595.813z" fill="#0096db"/></svg>