<svg viewBox="0 0 20 21" xmlns="http://www.w3.org/2000/svg" fill-rule="evenodd" clip-rule="evenodd" stroke-linejoin="round" stroke-miterlimit="2"><path d="M17.905 5.071c-.716-1.128-1.582-2.053-2.596-2.77-1.013-.719-2.172-1.23-3.472-1.536-2.135-.5-4.21-.274-6.211.621A9.386 9.386 0 002.7 3.431C1.648 4.515.888 5.743.425 7.114l-.012.037-.046.146c-.475 1.585-.03 2.461.667 1.727l.084-.093.031-.038C1.966 7.866 3.265 7.01 3.265 7.01c.331-.23.675-.445 1.033-.645a8.188 8.188 0 011.233-.607s.37-.17.47-.684a.803.803 0 01.005-.029l.003-.015c.066-.429.526-1.607 1.825-1.685.408-.056.811.017 1.168.186.627.298 1.107.895 1.205 1.614a2.18 2.18 0 01-.404 1.61l-.017.023a2.09 2.09 0 01-.977.697 2.227 2.227 0 01-.715.14c-.147.02-.308 0-.47-.04a1.7 1.7 0 01-.496-.18 2.483 2.483 0 01-.53-.319.411.411 0 00-.184-.1.585.585 0 00-.332.04H6.08a.559.559 0 00-.106.062c-.312.26-.608.531-.888.816-.737.775-1.356 1.655-1.646 2.09a12.405 12.405 0 00-.794 1.485 12.9 12.9 0 00-.48 1.255l-.02.062c-.01.028-.018.057-.027.085l-.025.084c-.894 3.062.716 4.83 2.065 2.983.073-.117.149-.233.225-.348l.002-.004C5.8 13.14 8.7 11.374 8.7 11.374h.002c.177-.113.356-.222.538-.326v-.001l.034-.019c.497-.285 1.008-.54 1.535-.763.468-.208.964-.402 1.377-.502 0 0 .483-.126.613-.72a2.033 2.033 0 011.1-1.386 2.127 2.127 0 011.067-.234c.12-.002.22.011.305.037.886.17 1.613.898 1.718 1.856.127 1.162-.68 2.21-1.835 2.355-.576.073-1.097-.053-1.542-.39-.5-.208-.883-.074-1.02-.01-.437.238-.854.501-1.254.79a14.205 14.205 0 00-1.568 1.366 11.832 11.832 0 00-1.363 1.696l-.063.098c-.006.01-.01.018-.017.027a12.62 12.62 0 00-1.193 2.477l-.08.235c-.38 1.286.445 1.798 1.398 1.984 0 0 .747.144 1.823.066l.167-.016c.272-.034.544-.062.814-.109 1.856-.316 3.496-1.09 4.897-2.35 1.764-1.585 2.827-3.56 3.157-5.905.33-2.35-.133-4.552-1.405-6.559" fill="#ffc40c" fill-rule="nonzero"/></svg>