<svg viewBox="0 0 30 32" xmlns="http://www.w3.org/2000/svg" fill-rule="evenodd" clip-rule="evenodd" stroke-linejoin="round" stroke-miterlimit="2"><path d="M26.236 19.498c-.474 1.938-2.909 4.348-4.842 4.794-2.53.498-5.083.71-7.632.638a.178.178 0 00-.135.056l-2.373 2.518-2.524 2.679c-.184.2-.509.064-.509-.21v-5.495a.188.188 0 00-.149-.185l-.001-.001c-1.934-.446-4.366-2.856-4.841-4.794a27.197 27.197 0 010-11.304C3.705 6.257 6.137 3.846 8.07 3.4c4.422-.87 8.905-.87 13.324 0 1.934.445 4.368 2.856 4.842 4.793a27.197 27.197 0 010 11.304m2.572-11.906l-.008-.035c-.712-2.972-3.916-6.16-6.86-6.824l-.033-.006a36.85 36.85 0 00-14.348 0l-.034.006c-2.942.663-6.148 3.852-6.86 6.824l-.007.035a29.96 29.96 0 000 12.508l.008.036c.68 2.845 3.648 5.887 6.48 6.723v3.318c0 1.2 1.416 1.788 2.22.923l3.252-3.493c.704.04 1.41.064 2.115.064a37.15 37.15 0 007.174-.703l.032-.009c2.945-.663 6.15-3.85 6.86-6.823l.009-.036c.879-4.15.879-8.357 0-12.508" fill="#b9529f" fill-rule="nonzero"/><path d="M18.947 22.345c-.298-.09-.581-.15-.843-.26-2.727-1.13-5.236-2.59-7.224-4.827-1.129-1.272-2.014-2.709-2.763-4.228-.353-.72-.653-1.47-.957-2.214-.278-.678.132-1.38.562-1.89.405-.48.925-.847 1.488-1.118.44-.212.873-.09 1.194.283.694.805 1.332 1.653 1.848 2.586.318.575.23 1.277-.345 1.668-.14.095-.267.206-.398.313-.113.095-.221.19-.3.317a.868.868 0 00-.057.762c.71 1.95 1.906 3.466 3.868 4.282.314.13.63.283.992.241.605-.07.802-.736 1.227-1.083.414-.339.944-.343 1.391-.06.449.283.882.587 1.312.893.423.301.843.596 1.235.94.375.33.504.764.292 1.212-.387.822-.949 1.504-1.76 1.94-.23.124-.504.164-.762.243-.298-.09.258-.08 0 0M14.744 6.869c3.566.1 6.494 2.467 7.122 5.991.107.601.144 1.216.192 1.825.021.257-.124.5-.402.504-.285.003-.414-.236-.433-.492-.036-.508-.061-1.017-.131-1.521-.37-2.656-2.487-4.854-5.132-5.326-.398-.07-.805-.09-1.208-.131-.255-.027-.588-.042-.645-.359-.048-.265.177-.477.43-.491.068-.004.138 0 .207 0 3.566.1-.069 0 0 0" fill="#b9529f" fill-rule="nonzero"/><path d="M20.158 13.894c-.006.044-.01.15-.035.248-.094.358-.638.403-.763.042a1.099 1.099 0 01-.043-.345c0-.755-.165-1.51-.546-2.166a4.02 4.02 0 00-1.69-1.588 4.853 4.853 0 00-1.349-.414c-.202-.033-.408-.054-.612-.083-.248-.033-.38-.19-.368-.435a.382.382 0 01.427-.379c.818.047 1.608.223 2.336.608 1.48.784 2.324 2.022 2.572 3.673.01.074.029.149.034.223.014.185.023.372.037.616-.006.044-.014-.244 0 0" fill="#b9529f" fill-rule="nonzero"/><path d="M17.946 13.808c-.298.006-.46-.16-.49-.433-.02-.191-.038-.385-.083-.57-.09-.365-.284-.704-.592-.929a1.558 1.558 0 00-.48-.232c-.22-.063-.448-.045-.665-.099-.238-.058-.368-.25-.331-.472a.428.428 0 01.452-.345c1.382.099 2.37.814 2.511 2.443.01.114.022.235-.003.346-.045.187-.183.281-.32.29-.297.007.137-.009 0 0" fill="#b9529f" fill-rule="nonzero"/></svg>