<svg viewBox="0 0 20 20" xmlns="http://www.w3.org/2000/svg" fill-rule="evenodd" clip-rule="evenodd" stroke-linejoin="round" stroke-miterlimit="2"><path d="M6.256 1.22c2.425-.966 5.249-.899 7.609.223-.673-.102-1.357-.025-2.022.088a9.79 9.79 0 00-4.869 2.456C5.687 5.252 4.784 6.93 4.53 8.728c-.168 1.273-.012 2.608.56 3.767a5.614 5.614 0 002.873 2.727c1.203.51 2.6.504 3.818.05 1.83-.672 3.143-2.484 3.294-4.42.094-1.27-.215-2.62-1.067-3.593-.814-.953-2.004-1.477-3.196-1.776-.064-1.175.49-2.336 1.368-3.1.487-.44 1.092-.72 1.718-.899l.047-.016a9.765 9.765 0 014.282 4.014 9.554 9.554 0 011.221 4.885c-.008 2.197-.83 4.373-2.237 6.053a9.628 9.628 0 01-5.223 3.216 9.679 9.679 0 01-6.129-.598 9.686 9.686 0 01-4.446-4.058 9.578 9.578 0 01-1.24-4.886 9.586 9.586 0 012.07-5.88 9.684 9.684 0 014.014-2.993z" fill="#e60000" fill-rule="nonzero"/><path d="M11.843 1.53c.665-.112 1.35-.189 2.022-.087l.096.017-.064.024c-.626.18-1.23.46-1.718.9-.878.763-1.432 1.924-1.368 3.099 1.192.299 2.382.823 3.196 1.776.852.974 1.161 2.324 1.067 3.593-.15 1.936-1.465 3.748-3.294 4.42-1.219.454-2.615.46-3.818-.05a5.614 5.614 0 01-2.874-2.727c-.57-1.159-.727-2.494-.559-3.767.255-1.797 1.158-3.476 2.445-4.741a9.79 9.79 0 014.869-2.456z" fill="#fff" fill-rule="nonzero"/></svg>