<svg viewBox="0 0 32 32" xmlns="http://www.w3.org/2000/svg" fill-rule="evenodd" clip-rule="evenodd" stroke-linejoin="round" stroke-miterlimit="2"><path d="M8.843 26.578l.48.293a13.014 13.014 0 006.787 1.903c7.191 0 13.043-5.851 13.043-13.043 0-7.192-5.852-13.043-13.043-13.043-7.192 0-13.043 5.85-13.043 13.043 0 2.505.711 4.938 2.059 7.036l.324.504-1.268 4.507 4.661-1.2zm-8.48 4.935l2.202-7.825a15.662 15.662 0 01-2.162-7.957C.403 7.069 7.45.022 16.11.022s15.707 7.047 15.707 15.709c0 8.66-7.047 15.707-15.707 15.707-2.7 0-5.342-.692-7.679-2.002L.363 31.513z" fill="#23b573" fill-rule="nonzero"/><path d="M11.7 8.42l-1.019-.055a1.231 1.231 0 00-.876.299c-.495.429-1.285 1.259-1.527 2.34-.362 1.611.197 3.585 1.644 5.56 1.448 1.972 4.146 5.13 8.915 6.479 1.537.434 2.746.141 3.68-.455a3.296 3.296 0 001.431-2.089l.162-.76a.528.528 0 00-.295-.59l-3.444-1.588a.53.53 0 00-.64.157l-1.351 1.754a.388.388 0 01-.436.13c-.925-.327-4.029-1.626-5.73-4.905a.39.39 0 01.049-.435l1.292-1.496a.526.526 0 00.086-.553L12.157 8.74a.53.53 0 00-.457-.32" fill="#23b573" fill-rule="nonzero"/></svg>