<svg viewBox="0 0 47 42" xmlns="http://www.w3.org/2000/svg" fill-rule="evenodd" clip-rule="evenodd" stroke-linejoin="round" stroke-miterlimit="2"><path d="M37.5 41.366c-.36 0-.72-.106-1.027-.316L24.85 33.166l-6.234 4.486a1.83 1.83 0 01-2.838-1.018l-3.131-11.863-11.185-4.277a1.83 1.83 0 01-.023-3.41L43.968.163a1.807 1.807 0 01.824-.142 1.82 1.82 0 011.269.622 1.821 1.821 0 01.416 1.571l-7.18 37.666a1.828 1.828 0 01-1.797 1.487zm-11.63-11.93l10.354 7.023L41.81 7.152 21.635 26.564l4.187 2.839.049.033zm-8.619-1.562l1.386 5.254 2.988-2.15-3.911-2.653a1.784 1.784 0 01-.463-.45zm-10.1-9.124l7.68 2.937c.55.21.965.673 1.116 1.242l.973 3.692c.045-.426.238-.827.552-1.128L36.695 6.995 7.15 18.75z" fill="#fff" fill-rule="nonzero"/></svg>