<svg viewBox="0 0 48 42" xmlns="http://www.w3.org/2000/svg" fill-rule="evenodd" clip-rule="evenodd" stroke-linejoin="round" stroke-miterlimit="2"><g fill="#fff" fill-rule="nonzero"><path d="M28.535 9.818a1.378 1.378 0 11-2.756 0 1.378 1.378 0 012.756 0zm5.513 0a1.378 1.378 0 11-2.756 0 1.378 1.378 0 012.756 0zm5.513 0a1.378 1.378 0 11-2.756 0 1.378 1.378 0 012.756 0zm-7.698 31.701c2.269 0 4.115-1.855 4.115-4.135v-5.513c0-.593-.38-1.12-.942-1.308l-8.25-2.756a1.38 1.38 0 00-1.201.16l-3.509 2.34c-3.765-1.787-8.216-6.198-9.985-9.897l2.337-3.507a1.38 1.38 0 00.161-1.202l-2.756-8.25a1.379 1.379 0 00-1.308-.941H5.012c-2.28 0-4.135 1.846-4.135 4.115 0 7.615 3.463 15.432 9.5 21.444 6.031 6.006 13.862 9.45 21.486 9.45zM5.012 9.266h4.52l2.229 6.67-2.382 3.573a1.38 1.38 0 00-.134 1.276c.917 2.291 2.751 4.869 5.165 7.257 2.398 2.372 4.988 4.187 7.292 5.108.422.169.9.12 1.277-.133l3.574-2.382 6.668 2.228v4.521c0 .773-.597 1.378-1.358 1.378-14.51 0-28.23-13.674-28.23-28.137 0-.762.606-1.359 1.379-1.359z"/><path d="M26.63 24.874a1.38 1.38 0 001.502-.298l5.109-5.11h4.942c5.37 0 9.74-4.328 9.74-9.648 0-5.32-4.37-9.648-9.74-9.648H27.157c-5.32 0-9.648 4.328-9.648 9.648 0 4.852 3.6 8.879 8.27 9.55V23.6c0 .557.335 1.06.85 1.273zM20.264 9.818a6.9 6.9 0 016.892-6.892h11.026c3.85 0 6.984 3.092 6.984 6.892 0 3.8-3.133 6.891-6.984 6.891H32.67c-.366 0-.716.145-.974.404l-3.161 3.16v-2.185c0-.762-.617-1.379-1.378-1.379a6.9 6.9 0 01-6.892-6.891z"/></g></svg>