<svg viewBox="0 0 39 43" xmlns="http://www.w3.org/2000/svg" fill-rule="evenodd" clip-rule="evenodd" stroke-linejoin="round" stroke-miterlimit="2"><path d="M31.47 15.532c4.045 0 7.336-3.291 7.336-7.336A7.343 7.343 0 0031.47.86c-4.045 0-7.336 3.29-7.336 7.336 0 .577.07 1.138.196 1.678L12.656 16.36a7.317 7.317 0 00-5.195-2.161c-4.045 0-7.336 3.29-7.336 7.336 0 4.045 3.29 7.336 7.336 7.336a7.317 7.317 0 005.195-2.161l11.674 6.485a7.348 7.348 0 00-.196 1.679c0 4.045 3.29 7.336 7.336 7.336 4.045 0 7.336-3.291 7.336-7.336 0-4.046-3.29-7.337-7.336-7.337a7.316 7.316 0 00-5.195 2.162l-11.674-6.485a7.35 7.35 0 00.196-1.679 7.35 7.35 0 00-.196-1.678l11.674-6.485a7.316 7.316 0 005.195 2.16zm0 16.006a3.338 3.338 0 013.335 3.335 3.338 3.338 0 01-3.335 3.334 3.338 3.338 0 01-3.334-3.334 3.338 3.338 0 013.334-3.335zm-24.009-6.67a3.338 3.338 0 01-3.335-3.334A3.338 3.338 0 017.461 18.2a3.338 3.338 0 013.335 3.335A3.338 3.338 0 017.46 24.87zm24.01-20.007a3.338 3.338 0 013.334 3.335 3.338 3.338 0 01-3.335 3.334 3.338 3.338 0 01-3.334-3.334A3.338 3.338 0 0131.47 4.86z" fill="#fff" fill-rule="nonzero"/></svg>