<svg viewBox="0 0 47 47" xmlns="http://www.w3.org/2000/svg" fill-rule="evenodd" clip-rule="evenodd" stroke-linejoin="round" stroke-miterlimit="2"><g fill="#fff" fill-rule="nonzero"><path d="M20.576 41.496c1.161 0 2.295-.101 3.4-.29l-.23-.728-.535-1.714-.23-.732a5.242 5.242 0 01-1.15.49v-4.145l-1.848-5.887-.5-1.591h-3.596a2.914 2.914 0 01-2.127-.925h-1.686a32.685 32.685 0 01-.356-4.775c0-1.648.131-3.248.356-4.774h7.246v4.61h2.32c.065 0 .13.01.196.013v-4.623h7.241c.23 1.526.356 3.126.356 4.774 0 .884-.045 1.751-.11 2.603h2.533c.057-.852.093-1.719.093-2.603 0-1.648-.11-3.248-.314-4.774h6.05c.426 1.522.672 3.121.672 4.774 0 .888-.086 1.751-.214 2.603h2.558c.106-.852.172-1.719.172-2.603C40.873 9.993 31.786.906 20.576.906 9.37.906.283 9.993.283 21.2c0 11.211 9.087 20.297 20.293 20.297zM19.32 28.49v10.032c-2.966-.875-5.503-4.783-6.759-10.032h6.759zm-9.8-2.516H3.467a17.698 17.698 0 01-.671-4.775c0-1.653.246-3.252.671-4.774h6.055a36.044 36.044 0 00-.314 4.774c0 1.654.11 3.25.314 4.775zm3.041-12.061c1.256-5.249 3.793-9.156 6.759-10.036v10.036h-6.759zm9.27 0V3.877c2.97.88 5.508 4.787 6.763 10.036h-6.762zm14.947 0h-5.58c-.816-3.789-2.256-6.992-4.113-9.242a17.875 17.875 0 019.693 9.242zM14.066 4.67c-1.852 2.25-3.293 5.453-4.112 9.242h-5.58a17.889 17.889 0 019.692-9.242zM9.954 28.49c.82 3.79 2.26 6.992 4.112 9.239a17.863 17.863 0 01-9.689-9.24h5.577z"/><path d="M44.513 25.479H23.456c-.008 0-.017.004-.024.004l-.594-1.894a1.245 1.245 0 00-1.006-.847c-.065-.013-.127-.033-.192-.033h-5.756a1.259 1.259 0 000 2.516h4.831l.237.75.79 2.515.09.295 2.561 8.15.47 1.5.353 1.122.4 1.28c.004.009.012.013.012.021.164.479.594.803 1.093.843.52-.31 1.117-.5 1.763-.5.66 0 1.273.194 1.797.516h7.458a3.4 3.4 0 011.792-.515c.659 0 1.273.193 1.796.515h.793a1.26 1.26 0 001.257-1.256 1.26 1.26 0 00-1.257-1.26H27.74l-.483-1.534-.033-.107-.368-1.17h15.817c1.1 0 2.106-.81 2.344-1.885l1.449-6.6a1.99 1.99 0 00-.382-1.693 1.986 1.986 0 00-1.57-.733zm-1.918 8.4h-6.178l-3.4.004H26.26c-.017-.004-.041-.021-.054-.021-.004 0-.004 0-.004.008l-.552-1.678h17.31l-.364 1.687zm1.276-5.888l-.363 1.686h-18.68l-.394-1.187-.164-.499h19.6zM27.232 43.39a1.782 1.782 0 001.253 3.052 1.783 1.783 0 10-1.253-3.051zm11.046 0a1.782 1.782 0 001.253 3.052 1.783 1.783 0 10-1.253-3.051z"/></g></svg>