<svg viewBox="0 0 131 131" xmlns="http://www.w3.org/2000/svg" fill-rule="evenodd" clip-rule="evenodd" stroke-linejoin="round" stroke-miterlimit="2"><g fill="#09e0c1"><path d="M81.832 36.243a15.968 15.968 0 10-30.719 6.113 15.966 15.966 0 0014.752 9.856c8.814-.01 15.957-7.154 15.967-15.969zm-28.153 0a12.184 12.184 0 0120.803-8.613 12.185 12.185 0 01-8.617 20.8c-6.728-.007-12.178-5.459-12.186-12.187z" fill-rule="nonzero"/><path d="M129.97 127.058l-15.414-40.41a1.893 1.893 0 00-1.768-1.218H83.614c.18-.29.357-.572.534-.864 11.226-18.585 16.874-34.842 16.794-48.314.003-19.372-15.7-35.08-35.073-35.083-19.372-.004-35.08 15.698-35.083 35.072-.082 13.483 5.567 29.743 16.793 48.325.179.295.356.577.535.864H18.94a1.89 1.89 0 00-1.767 1.217L1.76 127.058a1.888 1.888 0 001.767 2.565h124.676a1.888 1.888 0 001.767-2.565zm-95.4-90.815a31.295 31.295 0 0131.3-31.29c17.284.003 31.293 14.017 31.29 31.302.164 26.859-24.949 59.986-31.295 67.93-6.347-7.941-31.46-41.06-31.296-67.942zm29.854 72.155a1.891 1.891 0 002.881 0A200.746 200.746 0 0081.244 89.21h30.24l2.42 6.348-59.093 21.018-21.065-27.368h16.738a200.431 200.431 0 0013.94 19.191zm-9.68 12.211h.01l35.255-12.534 13.674 17.766H40.04l14.703-5.232zm-34.5-31.402h8.73l22.087 28.7-22.304 7.933H6.27l13.974-36.633zm88.215 36.634l-14.703-19.106 21.502-7.646 10.203 26.752h-17.002z" fill-rule="nonzero"/><path d="M46.723 84.653C35.532 66.05 29.927 49.755 30.008 36.24 30.011 16.438 46.068.387 65.87.39c19.803.003 35.853 16.06 35.85 35.856.08 13.506-5.523 29.797-16.716 48.406h27.785a2.67 2.67 0 012.494 1.717l15.414 40.411c.67 1.747-.622 3.624-2.493 3.62H3.529a2.666 2.666 0 01-2.496-3.62l15.413-40.41a2.668 2.668 0 012.494-1.718h27.783zm82.52 42.682v.001a1.11 1.11 0 01-1.039 1.51H3.525a1.11 1.11 0 01-1.039-1.51l15.413-40.412a1.113 1.113 0 011.04-.716h29.175a.777.777 0 00.66-1.188c-.177-.285-.353-.566-.531-.858-11.132-18.427-16.76-34.544-16.68-47.917.003-18.948 15.364-34.303 34.306-34.298 18.944.003 34.298 15.362 34.296 34.305.079 13.366-5.55 29.48-16.683 47.912-.175.289-.352.57-.53.86a.778.778 0 00.662 1.184h29.174c.462 0 .876.285 1.042.717l15.413 40.41zm-74.692-7.48l35.198-12.513a.778.778 0 01.876.258l13.674 17.767a.778.778 0 01-.616 1.252H40.04a.777.777 0 01-.26-1.51l14.703-5.233a.733.733 0 01.067-.02zm53.292 6.46a.778.778 0 00.616.304h17.002a.778.778 0 00.726-1.055l-10.203-26.752a.778.778 0 00-.987-.456l-21.502 7.647a.779.779 0 00-.355 1.207l14.703 19.106zM20.244 88.43a.78.78 0 00-.727.5L5.544 125.564a.778.778 0 00.726 1.054h22.487a.774.774 0 00.26-.045l22.304-7.932a.779.779 0 00.356-1.207l-22.087-28.7a.778.778 0 00-.616-.304h-8.73zm74.78 18.68l13.818 17.955h15.49l-9.53-24.988-19.777 7.033zm-5.287 1.887l-34.722 12.346a.719.719 0 01-.067.02l-10.403 3.702h57.558l-12.366-16.068zM20.78 89.984L7.4 125.062h21.223l21.17-7.528-21.202-27.55H20.78zm44.238 17.912c.446.521 1.25.52 1.686.009A199.96 199.96 0 0080.59 88.79a.778.778 0 01.655-.36h30.24c.323 0 .612.2.727.501l2.42 6.348a.777.777 0 01-.466 1.01L55.07 117.308a.778.778 0 01-.877-.258L33.13 89.68a.778.778 0 01.616-1.251h16.738c.265 0 .513.135.656.359a199.646 199.646 0 0013.878 19.108zM50.06 89.984H35.326l19.756 25.67 57.812-20.563-1.945-5.104h-29.28a201.44 201.44 0 01-13.771 18.915 2.669 2.669 0 01-4.066 0l-.009-.01A201.175 201.175 0 0150.06 89.984zM33.79 36.24A32.071 32.071 0 0165.87 4.177c17.713.003 32.07 14.365 32.067 32.074.164 27.045-25.075 60.422-31.466 68.42a.779.779 0 01-1.214 0c-6.391-7.995-31.63-41.364-31.467-68.43zm32.074 66.695c7.152-9.064 30.675-40.79 30.518-66.68C96.385 19.4 82.725 5.735 65.87 5.732a30.515 30.515 0 00-30.524 30.512v.005c-.158 25.906 23.365 57.625 30.518 66.686zM33.79 36.238v.005-.005z"/></g></svg>