<svg viewBox="0 0 132 163" xmlns="http://www.w3.org/2000/svg" fill-rule="evenodd" clip-rule="evenodd" stroke-linejoin="round" stroke-miterlimit="2"><path d="M124.593 115.405c4.15-4.978 6.655-11.372 6.655-18.343 0-15.817-12.87-28.686-28.686-28.686-9.522 0-17.948 4.68-23.169 11.838l-3.275-.892-1.976-9.887a23.571 23.571 0 008.87-11.684c3.816-.644 7.227-2.97 9.173-6.38l5.17-9.045a19.79 19.79 0 002.599-9.795c0-4.372-1.476-8.678-4.161-12.122L86.546 8.522C82.619 3.468 76.693.572 70.298.572c-3.182 0-6.364.75-9.21 2.17l-.252.13-.253-.126a20.657 20.657 0 00-9.21-2.175c-6.395 0-12.32 2.897-16.247 7.95l-9.247 11.886a19.813 19.813 0 00-4.161 12.124c0 3.43.9 6.817 2.603 9.795l5.168 9.046c1.945 3.41 5.356 5.735 9.175 6.379a23.544 23.544 0 008.87 11.684l-1.977 9.887-15.637 4.263a41.217 41.217 0 00-20.54 13 35.41 35.41 0 00-8.525 23.038v29.596c0 7.19 5.849 13.04 13.04 13.04h49.549a5.222 5.222 0 005.215-5.216h5.216v5.216h57.373v-34.797a12.96 12.96 0 00-3.82-9.22l-2.835-2.837zm-22.031-41.814c12.942 0 23.47 10.53 23.47 23.471s-10.528 23.47-23.47 23.47c-12.943 0-23.471-10.529-23.471-23.47 0-12.94 10.528-23.47 23.47-23.47zm-28.575 53.531l-.067 3.842h-.478l-5.066-27.878a7.809 7.809 0 002.153-2.754l4.139 3.313a28.58 28.58 0 005.862 11.76l-2.724 2.726a12.966 12.966 0 00-3.819 8.991zM60.836 92.58l5.216 4.171v.311a2.61 2.61 0 01-2.608 2.608h-5.216a2.61 2.61 0 01-2.608-2.608v-.31l5.216-4.172zm-2.565 12.306h5.134l4.74 26.078H53.529l4.742-26.078zM76.633 84.87a28.451 28.451 0 00-2.27 7.04l-1.535 3.582-7.437-5.948 8.87-5.32 2.372.646zm18.105-52.34c0 2.525-.662 5.014-1.913 7.207l-5.17 9.05c-.795 1.396-2.024 2.438-3.437 3.117.041-.593.089-1.182.089-1.784V38.745c0-1.786-.4-3.518-1.09-5.13 3.703-1.6 6.305-5.286 6.305-9.573 0-1.708-.453-3.299-1.183-4.725l3.338 4.292a14.61 14.61 0 013.061 8.922zm-60.72 16.255l-5.168-9.048a14.529 14.529 0 01-1.916-7.207 14.61 14.61 0 013.06-8.922l9.245-11.887a15.277 15.277 0 0112.135-5.935c2.373 0 4.752.56 6.878 1.625l2.584 1.29 2.584-1.294a15.483 15.483 0 016.878-1.621c4.778 0 9.2 2.164 12.134 5.935l3.515 4.522c-1.836-1.618-4.22-2.633-6.856-2.633-5.752 0-10.432 4.679-10.432 10.431h5.216a5.222 5.222 0 015.216-5.216 5.222 5.222 0 015.216 5.216 5.222 5.222 0 01-5.216 5.216h-7.662a12.976 12.976 0 01-12.107-8.197l-1.283-3.204-4.842 1.934 1.218 3.046-9.145 3.92a13.024 13.024 0 00-7.905 11.988V50.12c0 .602.047 1.191.092 1.784-1.415-.68-2.642-1.725-3.439-3.119zm8.563 1.335V38.745a7.82 7.82 0 014.74-7.192l9.695-4.154a18.143 18.143 0 0014.416 7.074H77.8a7.802 7.802 0 011.29 4.272v11.376c0 10.066-8.191 18.255-18.254 18.255S42.58 60.186 42.58 50.12zm18.255 23.47c2.997 0 5.854-.587 8.49-1.614l1.63 8.147-10.12 6.074-10.12-6.074 1.63-8.147a23.332 23.332 0 008.49 1.614zM47.41 84.223l8.87 5.321-7.437 5.948-4.474-10.439 3.041-.83zm-33.517 72.82c-4.314 0-7.823-3.51-7.823-7.824v-29.596c0-7.2 2.579-14.177 7.268-19.642a36.003 36.003 0 0117.95-11.36l7.998-2.18 7.462 17.407 4.394-3.516a7.809 7.809 0 002.153 2.754l-5.067 27.878H26.934v-13.039h-5.216v13.04h-5.216v5.215h46.942v20.863h-49.55zM68.66 136.18h7.824c4.314 0 7.824 3.51 7.824 7.824s-3.51 7.823-7.824 7.823H68.66V136.18zm19.468 2.073v-2.073H115.6v10.431H89.259c.172-.842.263-1.716.263-2.607 0-2.074-.531-4.01-1.395-5.75zm37.905 18.79H79.091v-.263c3.163-.645 5.876-2.467 7.756-4.953h33.97v-20.863H82.91v1.763c-1.168-.67-2.42-1.21-3.777-1.491l.07-4.024a7.773 7.773 0 012.29-5.396l2.724-2.724c4.975 4.15 11.37 6.657 18.344 6.657 6.971 0 13.368-2.507 18.343-6.656l2.836 2.837a7.873 7.873 0 012.291 5.532v29.58z" fill="#93288e" fill-rule="nonzero"/><path d="M102.683 99.14h12.338c1.582 0 2.87 1.311 2.87 2.869 0 1.64-1.288 2.87-2.87 2.87H99.814c-1.582 0-2.87-1.23-2.87-2.87V86.35c0-1.558 1.288-2.87 2.87-2.87s2.87 1.312 2.87 2.87v12.79z" fill="#93288e"/></svg>