<svg viewBox="0 0 132 131" xmlns="http://www.w3.org/2000/svg" fill-rule="evenodd" clip-rule="evenodd" stroke-linejoin="round" stroke-miterlimit="2"><g fill="#f15a26" fill-rule="nonzero"><path d="M60.795 88.684a2.55 2.55 0 000-3.605 2.551 2.551 0 00-3.602 0 2.552 2.552 0 000 3.605 2.551 2.551 0 003.602 0zm-12.06-60.452c0 15.447 12.568 28.015 28.015 28.015 15.447 0 28.015-12.568 28.015-28.015C104.765 12.784 92.197.216 76.75.216c-15.447 0-28.015 12.568-28.015 28.016zm50.936 0c0 12.638-10.282 22.921-22.921 22.921-12.64 0-22.922-10.283-22.922-22.921S64.11 5.31 76.75 5.31s22.92 10.284 22.92 22.922z"/><path d="M30.19 129.897a2.546 2.546 0 003.594.02l12.348-12.163c2.097-2.099 2.736-5.205 1.812-7.904l2.656-2.561a7.597 7.597 0 015.304-2.144h33.857a22.803 22.803 0 0015.988-6.494c.177-.173-1.345 1.62 23.098-27.594 3.625-4.289 3.083-10.728-1.21-14.358-4.267-3.595-10.657-3.079-14.293 1.137L98.317 73.28c-1.898-2.335-4.792-3.791-7.919-3.791h-28.4a32.866 32.866 0 00-12.754-2.546c-12.263 0-22.972 5.664-28.719 16.284a7.61 7.61 0 00-6.812 2.11L1.598 97.49a2.547 2.547 0 00-.004 3.593l28.596 28.814zm19.053-57.86c3.901 0 7.673.785 11.213 2.334.322.14.67.214 1.02.214h28.922c2.762 0 5.094 2.252 5.094 5.092a5.1 5.1 0 01-5.094 5.095h-20.78a2.547 2.547 0 000 5.093h20.78c5.617 0 10.188-4.57 10.188-10.188 0-.447-.033-.891-.09-1.33 14.538-14.945 16.588-17.045 16.675-17.15 1.814-2.14 5.037-2.413 7.18-.606a5.104 5.104 0 01.598 7.188l-22.843 27.31a17.735 17.735 0 01-12.345 4.964H55.904a12.665 12.665 0 00-8.841 3.57l-2.165 2.09L24.946 85.76c4.663-8.747 13.414-13.723 24.297-13.723zM17.318 88.938a2.54 2.54 0 013.154-.358c.44.269-.825-.884 22.058 21.97a2.55 2.55 0 01.015 3.588l-10.527 10.37L6.994 99.293l10.324-10.355zm56.376-75.987v2.985c-2.965 1.05-5.094 3.882-5.094 7.202 0 4.213 3.427 7.641 7.64 7.641a2.55 2.55 0 012.547 2.547 2.55 2.55 0 01-2.547 2.546c-1.087 0-2.263-.684-3.307-1.927a2.548 2.548 0 00-3.898 3.278c1.36 1.62 2.962 2.748 4.659 3.317v2.972a2.547 2.547 0 105.093 0v-2.984c2.964-1.051 5.094-3.882 5.094-7.202 0-4.214-3.427-7.642-7.641-7.642a2.55 2.55 0 01-2.546-2.546 2.55 2.55 0 012.546-2.547c.903 0 1.856.461 2.755 1.332a2.548 2.548 0 003.543-3.661c-1.293-1.25-2.586-1.958-3.75-2.345v-2.966a2.547 2.547 0 10-5.094 0z"/></g></svg>