<svg viewBox="0 0 131 83" xmlns="http://www.w3.org/2000/svg" fill-rule="evenodd" clip-rule="evenodd" stroke-linejoin="round" stroke-miterlimit="2"><g fill="#54a4db" fill-rule="nonzero"><path d="M124.496 52.303a2.31 2.31 0 01-2.307-2.307v-2.308h4.614v4.615h-2.307zm-15.2 26.058c-4.865 0-8.822-3.957-8.822-8.822 0-4.864 3.957-8.822 8.821-8.822 4.865 0 8.822 3.958 8.822 8.822 0 4.865-3.957 8.822-8.822 8.822zm-71.66 0c-4.865 0-8.823-3.957-8.823-8.822 0-4.864 3.958-8.822 8.822-8.822 4.864 0 8.822 3.958 8.822 8.822 0 4.865-3.958 8.822-8.822 8.822zm73.83-65.417c2.47 0 4.48 2.01 4.48 4.479v.136H96.13v-4.615h15.336zM96.132 21.63h18.09l3.325 13.3H96.13v-13.3zm25.642 13.423l-3.367-13.468a2.036 2.036 0 001.611-1.99v-2.172c0-4.715-3.835-8.55-8.55-8.55H96.13v-4.48A4.212 4.212 0 0091.923.187H13.748a4.212 4.212 0 00-4.207 4.208V41.31a2.036 2.036 0 104.072 0V4.394c0-.075.06-.136.135-.136h78.175c.075 0 .136.06.136.136V41.31a2.036 2.036 0 004.072 0v-2.308h24.026c2.955.002 5.464 1.942 6.326 4.615h-6.33a2.036 2.036 0 00-2.036 2.036v4.343a6.386 6.386 0 006.379 6.379h2.307v8.957h-5.323c-1.749-5.049-6.549-8.686-12.185-8.686s-10.436 3.637-12.184 8.686h-.98V49.996a2.036 2.036 0 00-4.072 0v15.336h-42.24c-1.748-5.05-6.548-8.686-12.184-8.686-5.636 0-10.436 3.637-12.185 8.686H13.748a.135.135 0 01-.135-.136v-4.479h8.821a2.036 2.036 0 000-4.071H2.891a2.036 2.036 0 000 4.071h6.65v4.48a4.212 4.212 0 004.207 4.207h10.997l-.003.135c0 7.11 5.784 12.894 12.893 12.894 7.11 0 12.894-5.784 12.894-12.894 0-.045-.003-.09-.004-.135h45.88l-.003.135c0 7.11 5.784 12.894 12.893 12.894 7.11 0 12.893-5.784 12.893-12.894l-.003-.135h6.654a2.036 2.036 0 002.036-2.036V45.653c0-5.362-3.956-9.817-9.102-10.6z"/><path d="M37.635 65.332a4.212 4.212 0 00-4.207 4.207 4.212 4.212 0 004.207 4.208 4.212 4.212 0 004.207-4.208 4.212 4.212 0 00-4.207-4.207zm71.66 0a4.212 4.212 0 00-4.207 4.207 4.212 4.212 0 004.207 4.208 4.212 4.212 0 004.208-4.208 4.212 4.212 0 00-4.208-4.207zm-56.323-6.65c0 1.124.911 2.035 2.035 2.035H85.41a2.036 2.036 0 100-4.071H55.007a2.036 2.036 0 00-2.035 2.036zM7.234 52.031h26.058a2.036 2.036 0 000-4.071H7.234a2.036 2.036 0 000 4.071zm61.535-31.705L50.664 38.43l-9.418-9.418a2.036 2.036 0 10-2.879 2.879l10.858 10.858a2.033 2.033 0 002.879 0l19.544-19.544a2.036 2.036 0 00-2.88-2.879z"/></g></svg>