<svg viewBox="0 0 131 83" xmlns="http://www.w3.org/2000/svg" fill-rule="evenodd" clip-rule="evenodd" stroke-linejoin="round" stroke-miterlimit="2"><path d="M7.234 52.483a2.31 2.31 0 002.307-2.307v-2.307H4.927v4.614h2.307zm15.2 26.058c4.865 0 8.822-3.957 8.822-8.821 0-4.865-3.957-8.822-8.821-8.822-4.865 0-8.822 3.957-8.822 8.822 0 4.864 3.957 8.821 8.822 8.821zm71.66 0c4.865 0 8.823-3.957 8.823-8.821 0-4.865-3.958-8.822-8.822-8.822-4.864 0-8.822 3.957-8.822 8.822 0 4.864 3.958 8.821 8.822 8.821zm-73.83-65.417a4.484 4.484 0 00-4.48 4.48v.135H35.6v-4.615H20.263zm15.335 8.687H17.51l-3.325 13.3H35.6v-13.3zM9.957 35.233l3.367-13.467a2.036 2.036 0 01-1.611-1.991v-2.172c0-4.714 3.835-8.55 8.55-8.55H35.6V4.574A4.212 4.212 0 0139.807.367h78.175a4.212 4.212 0 014.207 4.207V41.49a2.036 2.036 0 11-4.072 0V4.574a.136.136 0 00-.135-.136H39.807a.136.136 0 00-.136.136v36.917a2.036 2.036 0 01-4.072 0v-2.308H11.573c-2.955.002-5.464 1.942-6.326 4.614h6.33c1.124 0 2.036.912 2.036 2.036v4.343a6.386 6.386 0 01-6.379 6.379H4.927v8.957h5.323c1.749-5.048 6.549-8.685 12.185-8.685s10.436 3.637 12.184 8.685h.98V50.176a2.036 2.036 0 014.072 0v15.336h42.24c1.748-5.049 6.548-8.686 12.184-8.686 5.636 0 10.436 3.637 12.185 8.686h11.702c.075 0 .135-.06.135-.135v-4.48h-8.821a2.036 2.036 0 010-4.07h19.543a2.036 2.036 0 010 4.07h-6.65v4.48a4.212 4.212 0 01-4.207 4.207h-10.997c0 .045.003.09.003.136 0 7.11-5.784 12.893-12.893 12.893-7.11 0-12.894-5.784-12.894-12.893 0-.046.003-.09.004-.136h-45.88c0 .045.003.09.003.136 0 7.11-5.784 12.893-12.893 12.893-7.11 0-12.893-5.784-12.893-12.893 0-.046.002-.09.003-.136H2.891a2.036 2.036 0 01-2.036-2.036V45.833c0-5.362 3.956-9.816 9.102-10.6z" fill="#54a4db" fill-rule="nonzero"/><path d="M94.095 65.512a4.212 4.212 0 014.207 4.208 4.212 4.212 0 01-4.207 4.207 4.212 4.212 0 01-4.207-4.207 4.212 4.212 0 014.207-4.208zm-71.66 0a4.212 4.212 0 014.207 4.208 4.212 4.212 0 01-4.207 4.207 4.212 4.212 0 01-4.208-4.207 4.212 4.212 0 014.208-4.208zm56.323-6.65a2.036 2.036 0 01-2.035 2.036H46.32a2.036 2.036 0 110-4.072h30.402c1.124 0 2.035.912 2.035 2.036zm45.738-6.65H98.438a2.036 2.036 0 010-4.072h26.058a2.036 2.036 0 010 4.072z" fill="#54a4db" fill-rule="nonzero"/><path d="M65.699 10.824c-11.03 0-19.99 8.977-19.99 20.016 0 10.995 8.96 19.973 19.99 19.973 11.034 0 19.99-8.978 19.99-19.973 0-11.039-8.956-20.016-19.99-20.016zm0 4.553c8.526 0 15.45 6.915 15.45 15.463 0 8.504-6.924 15.42-15.45 15.42s-15.446-6.916-15.446-15.42c0-8.548 6.92-15.463 15.446-15.463z" fill="#54a4db"/><path d="M66.199 30.754h7.955c1.255 0 2.271.966 2.271 2.272a2.274 2.274 0 01-2.271 2.271H63.96c-1.243 0-2.254-1.022-2.27-2.271l-.166-10.335a2.235 2.235 0 012.238-2.27c1.255-.058 2.288.964 2.305 2.214l.13 8.12z" fill="#54a4db"/></svg>