<svg viewBox="0 0 22 29" xmlns="http://www.w3.org/2000/svg" fill-rule="evenodd" clip-rule="evenodd" stroke-linejoin="round" stroke-miterlimit="2"><path d="M18.21 16.182c-.013-1.169-.822-1.484-1.805-1.476h-4.911c-.217-.478-.435-1.352-1.062-1.85-1.116-.887-2.047-.478-2.749-.059-1.586.947-3.38 2.93-4.47 3.298-1.343.452-2.967.335-2.967.335v6.833c2.782 0 4.48.978 5.897 1.559 3.21 1.316 5.454 1.294 6.628 1.25 2.434-.09 2.639-2.077 2.704-2.473.632-.25 1.047-.635 1.238-1.143.074-.198.112-.414.112-.641 0-.382-.105-.725-.198-.956.553-.305.896-.711 1.021-1.21.035-.137.051-.282.053-.43.01-1.011-.498-1.257-.498-1.257s1.02-.612 1.007-1.78zm-6.127 10.935l-1.49.013c.006.357.018.717.035 1.068a.373.373 0 00.395.353l.744-.045a.373.373 0 00.35-.39 32.444 32.444 0 01-.034-1z" fill="#53d7b8" fill-rule="nonzero"/><path d="M19.627 6.69a2.426 2.426 0 00-.172-.068 2.58 2.58 0 00.154-.103c1.36-.991 2.072-2.33 1.394-3.261-.678-.931-2.171-.664-3.531.327-.05.037-.099.075-.146.115a2.316 2.316 0 00-.012-.185 5.304 5.304 0 00-.394-1.547c-.377-.844-.982-1.37-1.733-1.29a1.39 1.39 0 00-.137.02c-.684.142-1.12.777-1.294 1.647a5.218 5.218 0 00-.024 1.738A2.465 2.465 0 0013.565 4c-1.538-.683-3.054-.63-3.52.423-.468 1.052.51 2.212 2.048 2.894.057.026.115.048.173.069a2.355 2.355 0 00-.155.103c-1.36.99-2.071 2.33-1.394 3.261.58.795 1.754.715 2.932.057a41.95 41.95 0 00-1.025 2.862h1.568c.207-.623.408-1.181.593-1.666.376.865.986 1.408 1.749 1.327 1.145-.122 1.66-1.548 1.482-3.222a2.27 2.27 0 00-.027-.183c.054.029.11.057.166.082 1.539.682 3.054.63 3.522-.423.466-1.053-.511-2.212-2.05-2.895zm-3.623 1.665a1.359 1.359 0 11-.287-2.702 1.359 1.359 0 01.287 2.702z" fill="#53d7b8" fill-rule="nonzero"/></svg>