<svg viewBox="0 0 34 23" xmlns="http://www.w3.org/2000/svg" fill-rule="evenodd" clip-rule="evenodd" stroke-linejoin="round" stroke-miterlimit="2"><path d="M18.95 8.096c.645.327 1.378.62 2.209.852.584-.78.974-1.79 1.073-2.909a6.653 6.653 0 01-3.282 2.057zm3.255-3.366c-.124-.837-.469-1.384-1.013-1.734.092.248.134.52.118.806-.062 1.108-1.12 1.7-2.139 1.795-.255.023-.531.04-.81.04-.763 0-1.544-.122-1.955-.543a1.078 1.078 0 01-.308-.768c0-.307.111-.578.321-.783.665-.647 2.211-.451 2.515-.406.21.032.359.25.33.485-.028.235-.222.4-.434.369-1.014-.152-1.724.026-1.903.2a.164.164 0 00-.057.135c0 .045.01.084.058.134.208.213.89.398 2.179.278.343-.031.703-.145.962-.304.447-.275.465-.584.47-.686.032-.57-.407-1.193-1.46-1.298a14.66 14.66 0 00-.887-.025c-1.802 0-3.072.246-3.673 1.27a8.602 8.602 0 001.282 1.96 9.974 9.974 0 002.02 1.78c.541-.052 2.926-.413 4.384-2.706zm1.316 7.99c-.042-.021-1.047-.51-2.16-.51-.612 0-1.153.148-1.593.439-.556.367-.917.946-1.206 1.539v-3.653c.723-.084 1.384-.4 1.943-.889-2.672-.847-4.342-2.31-5.297-3.431a9.88 9.88 0 01-1.034-1.465 5.13 5.13 0 00-.056.73c0 2.638 1.645 4.812 3.672 5.055v3.652c-.242-.592-.634-1.171-1.19-1.539-.44-.29-.97-.438-1.581-.438-1.113 0-2.116.488-2.159.51a.438.438 0 00-.227.43c.008.109.224 2.692 1.744 3.696.44.291.974.437 1.585.437.752 0 1.442-.222 1.828-.373v5.17c0 .238.173.431.386.431.213 0 .386-.193.386-.43v-5.169c.386.152 1.1.374 1.851.374.612 0 1.149-.147 1.59-.438 1.519-1.004 1.736-3.588 1.745-3.698a.438.438 0 00-.227-.43zm9.95 4.632c-.61-.61-2.826.616-3.437 1.226-.039.04-.074.09-.111.135l.003-6.286c1.025 0 2.1-.307 2.579-1.274.427-.862.5-4.181.513-5.43a.234.234 0 00-.377-.186 54.99 54.99 0 00-1.981 1.614 53.491 53.491 0 00-1.153-2.547.233.233 0 00-.42 0c-.266.55-.739 1.554-1.152 2.547a55.738 55.738 0 00-1.982-1.614.233.233 0 00-.376.186c.012 1.249.086 4.568.513 5.43.487.985 1.595 1.284 2.634 1.284l.001 3.153c-.764-.637-2.714-1.653-3.28-1.086-.611.61.614 2.826 1.225 3.437.462.461 1.374.806 2.055.683v3.289a.599.599 0 101.198 0v-.522c.688.297 1.796-.076 2.322-.601.611-.612 1.837-2.827 1.226-3.438zM12.631 5.983c0-.86-.57-1.73-1.66-1.76.395-.417.56-.924.452-1.463-.168-.844-.954-1.505-1.79-1.505-.284 0-.724.08-1.145.476a1.703 1.703 0 00-.279-.909C7.898.356 7.344.078 6.726.078c-.617 0-1.171.278-1.482.744-.14.209-.266.507-.279.909a1.651 1.651 0 00-1.145-.476c-.836 0-1.622.661-1.79 1.505-.107.539.057 1.046.451 1.463-.619.017-1.12.304-1.413.813a1.952 1.952 0 000 1.895c.294.509.794.796 1.413.813-.394.416-.558.924-.451 1.462.168.844.954 1.505 1.79 1.505.284 0 .724-.08 1.145-.475.013.402.14.7.279.908a1.69 1.69 0 001.031.693v4.39c-.626-.483-1.724-.734-2.197-.734-.176 0-.287.032-.36.106-.198.197-.062.86.037 1.237.1.381.328 1.08.734 1.486.448.448 1.094.515 1.44.515.031 0 .18-.001.346-.023v3.247a.451.451 0 00.903 0v-.29c.148.017.275.018.303.018.346 0 .992-.067 1.44-.515.406-.405.634-1.105.734-1.486.099-.377.235-1.04.038-1.237-.074-.073-.185-.106-.361-.106-.463 0-1.522.24-2.154.701v-3.284c.167.022.315.023.346.023.346 0 .992-.067 1.44-.515.406-.405.634-1.105.734-1.486.099-.377.235-1.04.038-1.237-.074-.074-.185-.106-.361-.106-.474 0-1.571.251-2.197.733v-1.437c.43-.1.798-.344 1.031-.692.14-.21.266-.507.279-.909.421.396.86.475 1.145.475.836 0 1.622-.66 1.79-1.505.107-.538-.057-1.046-.451-1.462 1.09-.03 1.66-.901 1.66-1.761zm-3.876 2.35c-.198 0-.503-.054-.849-.306.046.425-.06.717-.16.888a1.16 1.16 0 01-1.02.578 1.16 1.16 0 01-1.02-.578c-.099-.171-.205-.463-.16-.888-.345.252-.65.306-.848.306a1.16 1.16 0 01-1.01-.595 1.16 1.16 0 01-.01-1.172c.098-.171.297-.409.686-.582A1.742 1.742 0 014.04 5.8c-.333-.245-.516-.588-.516-.969 0-.66.526-1.196 1.173-1.196.199 0 .504.054.85.306-.046-.425.06-.717.16-.889a1.16 1.16 0 011.02-.577c.43 0 .811.216 1.02.577.099.172.205.464.16.889.345-.252.65-.306.848-.306.648 0 1.174.536 1.174 1.196 0 .38-.183.724-.516.968a1.737 1.737 0 01-.326.187c.604.269.842.733.842 1.151 0 .66-.526 1.197-1.174 1.197z" fill="#53d7b8" fill-rule="nonzero"/><path d="M8.008 5.983a1.283 1.283 0 00-2.563 0c0 .707.575 1.282 1.281 1.282.707 0 1.282-.575 1.282-1.282z" fill="#53d7b8" fill-rule="nonzero"/></svg>