<svg viewBox="0 0 20 26" xmlns="http://www.w3.org/2000/svg" fill-rule="evenodd" clip-rule="evenodd" stroke-linejoin="round" stroke-miterlimit="2"><path d="M14.899 24.796l-1.556-3.945h-6.75l-1.556 3.945a.736.736 0 00.136.758c.188.22.488.35.809.35h7.972c.32 0 .62-.13.808-.35a.736.736 0 00.137-.758zm5.033-19.104v-4.21c0-.311-.202-.596-.526-.743a1.156 1.156 0 00-1.023.042l-2.436 1.373L13.51.78a1.222 1.222 0 00-1.106 0L9.968 2.154 7.53.78a1.22 1.22 0 00-1.106 0L3.99 2.154 1.552.78A1.156 1.156 0 00.53.739c-.324.147-.526.432-.526.743v4.21c0 1.567 1.273 2.883 2.99 3.258v1.795h-.997c-.359 0-.69.163-.867.427a.732.732 0 00.012.849l5.074 7.146h7.506l5.073-7.146a.732.732 0 00.013-.849c-.177-.264-.509-.427-.868-.427h-.996V8.95c1.716-.375 2.99-1.691 2.99-3.258zm-6.975 2.221c.52.499 1.21.866 1.993 1.037v1.795h-3.986V8.95a4.154 4.154 0 001.993-1.037zM10.52 3.867l1.44-.812v2.637c0 .93-.893 1.685-1.992 1.685-1.1 0-1.993-.756-1.993-1.685V3.055l1.44.812c.335.188.77.188 1.105 0zM6.978 7.913c.52.499 1.21.866 1.993 1.037v1.795H4.985V8.95a4.154 4.154 0 001.993-1.037zm-4.982-2.22V3.054l1.44.812c.335.188.77.188 1.106 0l1.44-.812v2.637c0 .93-.894 1.685-1.993 1.685-1.1 0-1.993-.756-1.993-1.685zm13.385 7.861a3.406 3.406 0 00-1.347-.282c-.798 0-1.55.263-2.114.74l-1.167.987c-.377.318-1.033.318-1.41 0l-1.167-.987c-.564-.477-1.315-.74-2.114-.74-.525 0-1.024.124-1.468.338l-.838-1.18h12.423l-.798 1.124zm.566-6.177c-1.1 0-1.993-.756-1.993-1.685V3.055l1.44.812c.335.188.77.188 1.105 0l1.44-.812v2.637c0 .93-.894 1.685-1.992 1.685z" fill="#53d7b8" fill-rule="nonzero"/></svg>