<svg viewBox="0 0 23 31" xmlns="http://www.w3.org/2000/svg" fill-rule="evenodd" clip-rule="evenodd" stroke-linejoin="round" stroke-miterlimit="2"><path d="M6.809 11.024H4.85a1.088 1.088 0 011.959 0zm3.134-.619c0-.254.019-.507.056-.759a1.09 1.09 0 00-.87 1.378h.852a5.273 5.273 0 01-.036-.619h-.002zM5.545 6.403c-.728-.728-1.705-1.497-2.567-1.497h-.071l.045.896c.415-.02 1.083.386 1.837 1.119l.14.138a1.97 1.97 0 01.375-.044 1.97 1.97 0 01.243-.613h-.002zm1.133-.881a3.313 3.313 0 00.779-2.047 3.151 3.151 0 00-.275-1.357 2.493 2.493 0 00-.088-.173c-.01-.02-.022-.037-.028-.047l-.01-.017-.017.009-.048.025a2.428 2.428 0 00-.392.27 3.152 3.152 0 00-.72.844c-.14.24-.249.498-.324.766a3.19 3.19 0 00-.049 1.598 3.085 3.085 0 00.26.71 2 2 0 01.915-.582h-.003zM22.61 3.479l-.047-.027a3.133 3.133 0 00-.766-.267 3.151 3.151 0 00-.773-.059 3.311 3.311 0 00-1.58.49c-.22.137-.423.3-.605.486l-.025.026c.258.305.457.655.587 1.032a3.195 3.195 0 001.347-.124c.267-.082.522-.197.76-.343a3.15 3.15 0 00.99-.97c.043-.07.076-.127.098-.168l.024-.05.008-.017-.018-.009zM18.625.406c-.02-.08-.04-.154-.046-.187l-.883.162c.011.065.032.142.059.248.13.507.433 1.676.069 2.71.275.142.528.324.752.539.595-1.346.21-2.84.046-3.472h.003zM2.455 13.288c0 1.463 8.736 16.877 8.736 16.877s8.403-15.358 8.403-16.878l2.153-1.368H.301l2.154 1.369zm17.122-2.883a4.354 4.354 0 00-1.211-3.017c.206-.356.314-.76.314-1.172a2.356 2.356 0 00-2.345-2.345 2.356 2.356 0 00-2.345 2.342 4.38 4.38 0 00-3.105 4.813h8.646c.03-.206.045-.413.046-.62zm-11.385.314c0-.48.175-.946.493-1.306a1.09 1.09 0 00-2.026.28c.543.251.945.735 1.093 1.315a1.07 1.07 0 00.447-.112 2.053 2.053 0 01-.007-.177zm-3.694-.696a1.09 1.09 0 00-.955-.568 1.088 1.088 0 00-.976 1.568H3.9c.094-.386.302-.734.597-1zM8.213 6.92a1.089 1.089 0 00-2.026.263c.386.181.705.482.908.857.172-.058.35-.091.532-.1.088-.391.292-.747.585-1.02zm1.35.364a1.09 1.09 0 00-1.056.816c.376.163.694.438.908.787.241-.1.5-.152.76-.152h.04a5.18 5.18 0 01.343-.799 1.09 1.09 0 00-.996-.652zM6.326 8.512a1.088 1.088 0 00-2.023.195c.416.175.76.486.976.881a1.98 1.98 0 01.504-.077c.08-.379.268-.726.543-.998z" fill="#53d7b8" fill-rule="nonzero"/></svg>