<svg viewBox="0 0 17 21" xmlns="http://www.w3.org/2000/svg" fill-rule="evenodd" clip-rule="evenodd" stroke-linejoin="round" stroke-miterlimit="2"><path d="M9.706 6.278c.954.327 2.038.62 3.267.852.865-.78 1.442-1.79 1.587-2.908-1.585 1.24-3.488 1.802-4.854 2.056zm4.814-3.366c-.182-.837-.693-1.384-1.497-1.733.136.248.197.519.174.806-.092 1.108-1.655 1.7-3.163 1.794-.377.024-.787.04-1.2.04-1.127 0-2.282-.121-2.89-.543-.298-.207-.455-.472-.455-.768 0-.307.164-.577.475-.782.982-.648 3.27-.452 3.718-.406.313.032.532.249.49.484-.043.236-.33.4-.643.37-1.5-.153-2.549.026-2.814.2-.07.047-.085.085-.085.134 0 .046.015.084.087.134.307.214 1.315.399 3.222.28.507-.033 1.04-.147 1.423-.306.661-.274.687-.583.695-.685.047-.57-.602-1.193-2.159-1.298A31.3 31.3 0 008.585.608c-2.665 0-4.543.246-5.431 1.27.274.401.859 1.144 1.896 1.96.696.548 1.673 1.185 2.987 1.78.8-.053 4.327-.413 6.483-2.706zm1.947 7.99c-.062-.02-1.549-.51-3.195-.51-.904 0-1.705.148-2.355.44-.823.367-1.357.946-1.785 1.538V8.718a6.68 6.68 0 002.874-.89c-3.95-.847-6.421-2.31-7.833-3.43a10.974 10.974 0 01-1.53-1.465 3.51 3.51 0 00-.083.73c0 2.637 2.434 4.811 5.43 5.055v3.652a3.905 3.905 0 00-1.76-1.539c-.65-.29-1.433-.438-2.338-.438-1.646 0-3.129.488-3.191.509-.224.074-.358.247-.337.43.012.11.332 2.693 2.58 3.697.65.29 1.44.436 2.344.436 1.112 0 2.132-.222 2.703-.372v5.17c0 .238.255.43.57.43.316 0 .571-.192.571-.43v-5.168c.571.151 1.627.374 2.739.374.904 0 1.699-.148 2.35-.438 2.247-1.005 2.569-3.589 2.581-3.698.021-.183-.112-.356-.335-.43z" fill="#53d7b8" fill-rule="nonzero"/></svg>