<svg viewBox="0 0 23 26" xmlns="http://www.w3.org/2000/svg" fill-rule="evenodd" clip-rule="evenodd" stroke-linejoin="round" stroke-miterlimit="2"><path d="M21.407 9.01a2.436 2.436 0 00-.719-1.751 2.445 2.445 0 00-1.75-.72 2.436 2.436 0 00-2.118-.701v-.01c0-.778-.319-1.5-.873-2.019a2.752 2.752 0 00-.81-2.045 2.75 2.75 0 00-2.046-.81 2.751 2.751 0 00-2.02-.873c-.778 0-1.501.318-2.02.872a2.75 2.75 0 00-2.044.811 2.752 2.752 0 00-.81 2.045 2.751 2.751 0 00-.874 2.02v.009a2.437 2.437 0 00-2.118.702 2.44 2.44 0 00-1.75.719 2.436 2.436 0 00-.72 1.75 2.436 2.436 0 00-.729 1.747c0 .669.266 1.291.73 1.747-.006.65.246 1.278.719 1.75a2.44 2.44 0 001.75.719c.455.464 1.078.73 1.747.73.67 0 1.292-.266 1.748-.73h.015c.333 0 .655-.066.952-.191.988 1.39 1.695 2.801 2.116 4.221-.724-.524-1.42-.89-2.08-1.093-1.553-.477-2.506.07-2.936.437-1.09.934-1.236 2.684-.325 3.902.603.807 1.564 1.25 2.71 1.25h.038c.924-.009 1.95-.297 3.06-.856v2.622h1.643v-2.622c1.11.56 2.136.847 3.06.855h.038c1.146 0 2.107-.442 2.71-1.249.91-1.218.765-2.968-.325-3.902-.43-.368-1.383-.914-2.937-.437-.66.203-1.355.569-2.08 1.093.422-1.42 1.13-2.831 2.117-4.222.302.127.63.194.967.192.456.464 1.079.73 1.748.73s1.292-.266 1.747-.73a2.449 2.449 0 001.75-.719c.473-.472.725-1.1.72-1.75.463-.456.729-1.078.729-1.747s-.266-1.291-.73-1.747zM4.952 11.888a1.133 1.133 0 110-2.266 1.133 1.133 0 010 2.266zm.805 9.376c-.39-.521-.353-1.302.078-1.671.194-.166.435-.24.711-.24.862 0 2.06.73 3.175 1.715-2.145 1.147-3.443.893-3.964.196zm10.55-1.671c.432.369.468 1.15.079 1.671-.52.697-1.819.952-3.964-.196 1.473-1.3 3.089-2.158 3.886-1.475zM10.25 15.84a18.112 18.112 0 00-1.363-2.177c.188-.357.286-.754.282-1.16.337-.331.569-.75.67-1.212.133.065.27.12.411.163v4.386zm.822-8.658a1.353 1.353 0 110-2.706 1.353 1.353 0 010 2.706zm.82 8.658v-4.386c.142-.044.28-.098.411-.163.102.461.334.88.671 1.212-.003.406.094.803.282 1.16a18.143 18.143 0 00-1.363 2.177zm5.299-3.951a1.133 1.133 0 110-2.266 1.133 1.133 0 010 2.266z" fill="#53d7b8" fill-rule="nonzero"/></svg>