<svg viewBox="0 0 31 28" xmlns="http://www.w3.org/2000/svg" fill-rule="evenodd" clip-rule="evenodd" stroke-linejoin="round" stroke-miterlimit="2"><path d="M15.7 7.348c.832.379 1.78.719 2.853.987a6.192 6.192 0 001.386-3.368c-1.384 1.436-3.047 2.087-4.24 2.381zm4.204-3.898c-.16-.969-.605-1.603-1.307-2.007.118.287.172.6.151.933-.08 1.283-1.445 1.969-2.763 2.078a12.45 12.45 0 01-1.047.047c-.985 0-1.994-.14-2.525-.63a1.184 1.184 0 01-.398-.889c0-.355.144-.669.415-.906.859-.75 2.857-.523 3.248-.47a.499.499 0 01-.133.988c-1.31-.176-2.227.03-2.459.233-.061.054-.073.098-.073.155 0 .053.012.098.075.156.269.247 1.149.461 2.815.322a3.277 3.277 0 001.242-.353c.578-.317.6-.676.608-.793.041-.661-.526-1.382-1.886-1.504-.361-.02-.743-.029-1.147-.029-2.328 0-3.968.285-4.744 1.47.24.466.75 1.326 1.656 2.271a12.542 12.542 0 002.61 2.062c.699-.061 3.779-.479 5.662-3.134zm-4.706 20.094v-13.37a4.883 4.883 0 002.51-1.03c-3.45-.982-5.609-2.675-6.842-3.974A11.525 11.525 0 019.53 3.474a5.34 5.34 0 00-.072.846c0 3.054 2.126 5.571 4.744 5.853v13.37a.499.499 0 00.997 0zm-8.732-9.876c.79.033 1.658-.001 2.603-.135a5.347 5.347 0 00.018-3.145c-.643 1.598-1.762 2.658-2.621 3.28zm2.102-4.483C8.126 8.462 7.564 8.1 6.87 8.003c.188.191.333.425.424.698.352 1.053-.519 2.044-1.538 2.558-.254.13-.534.26-.822.377-.789.32-1.642.534-2.226.315a1.022 1.022 0 01-.606-.583 1.013 1.013 0 01.038-.86c.444-.878 2.117-1.344 2.448-1.429a.43.43 0 01.213.835c-1.106.284-1.772.746-1.892.983-.032.063-.027.102-.009.148.017.042.042.074.111.1.295.11 1.069-.003 2.357-.654a2.83 2.83 0 00.88-.686c.36-.441.262-.735.23-.832-.182-.542-.87-.935-1.997-.592a17.63 17.63 0 00-.928.349C1.69 9.484.47 10.244.233 11.444c.342.295 1.03.818 2.061 1.281.693.31 1.615.625 2.757.804.54-.276 2.87-1.608 3.517-4.344z" fill="#53d7b8" fill-rule="nonzero"/><path d="M12.928 16.04c-.052-.002-1.274-.034-2.425.432-.632.256-1.136.62-1.482 1.074-.437.573-.593 1.261-.67 1.931l-1.37-3.385a4.217 4.217 0 001.675-1.638c-3.08.333-5.357-.323-6.765-.963a9.952 9.952 0 01-1.62-.924c.051.22.117.455.217.7.99 2.445 3.507 3.77 5.694 3.148l1.37 3.385c-.47-.447-1.094-.82-1.808-.928-.564-.085-1.166 0-1.799.256-1.15.466-2.004 1.338-2.04 1.375a.429.429 0 00-.074.495c.05.098 1.243 2.401 3.191 2.696.565.085 1.171-.003 1.803-.26.778-.314 1.407-.809 1.75-1.11l1.94 4.792a.43.43 0 00.799-.323l-1.94-4.79c.456-.022 1.278-.114 2.055-.429.632-.256 1.132-.618 1.478-1.071 1.194-1.568.45-4.054.417-4.159a.429.429 0 00-.396-.304zm10.925-2.372c-.79.033-1.658-.001-2.603-.135a5.347 5.347 0 01-.019-3.145c.643 1.598 1.763 2.658 2.622 3.28zm-2.102-4.483c.442-.723 1.004-1.086 1.697-1.182a1.803 1.803 0 00-.423.698c-.352 1.053.518 2.044 1.537 2.558.255.13.535.26.823.377.789.32 1.642.534 2.225.315.286-.107.496-.309.607-.583a1.013 1.013 0 00-.039-.86c-.444-.878-2.116-1.344-2.447-1.429a.43.43 0 00-.213.835c1.106.284 1.772.746 1.892.983.032.063.027.102.009.148-.018.042-.042.074-.111.1-.295.11-1.07-.003-2.357-.654a2.83 2.83 0 01-.88-.686c-.36-.441-.262-.735-.23-.832.182-.542.87-.935 1.997-.592.296.101.605.218.927.349 1.864.754 3.084 1.514 3.321 2.714-.342.295-1.03.818-2.062 1.281a10.83 10.83 0 01-2.756.804c-.54-.276-2.87-1.608-3.517-4.344zM17.39 16.04c.052-.002 1.275-.034 2.426.432.632.256 1.136.62 1.482 1.074.437.573.593 1.261.67 1.931l1.37-3.385a4.217 4.217 0 01-1.675-1.638c3.08.333 5.357-.323 6.764-.963a9.952 9.952 0 001.62-.924 4.61 4.61 0 01-.216.7c-.99 2.445-3.508 3.77-5.694 3.148L22.766 19.8c.472-.447 1.095-.82 1.808-.928.565-.085 1.167 0 1.8.256 1.15.466 2.004 1.338 2.04 1.375a.43.43 0 01.073.495c-.05.098-1.242 2.401-3.19 2.696-.565.085-1.171-.003-1.804-.26-.777-.314-1.407-.809-1.75-1.11l-1.94 4.792a.43.43 0 01-.798-.323l1.94-4.79c-.456-.022-1.278-.114-2.055-.429-.632-.256-1.132-.618-1.478-1.071-1.195-1.568-.45-4.054-.417-4.159a.429.429 0 01.396-.304z" fill="#53d7b8" fill-rule="nonzero"/></svg>