<svg viewBox="0 0 15 26" xmlns="http://www.w3.org/2000/svg" fill-rule="evenodd" clip-rule="evenodd" stroke-linejoin="round" stroke-miterlimit="2"><path d="M10.388 12.636c2.894.604 4.906-2.857 2.92-5.068 1.989-2.23-.041-5.665-2.92-5.062-.925-2.811-4.926-2.815-5.849 0C1.64 1.902-.36 5.364 1.615 7.57c-1.967 2.186.01 5.679 2.925 5.067a3.046 3.046 0 002.088 2v1.649L5.413 15.14a.836.836 0 10-1.147 1.217l1.091 1.029H1.755a.836.836 0 00-.837.836v2.404c0 .462.375.836.837.836h.288l.666 3.179c0 .461.374.836.836.836h7.504a.836.836 0 00.836-.836l1-3.179h.288a.836.836 0 00.836-.836v-2.404a.836.836 0 00-.836-.836H9.57l1.091-1.029a.836.836 0 10-1.146-1.217L8.3 16.285v-1.648a3.04 3.04 0 002.088-2.001zm1.949 6.422v.732H2.59v-.732h9.746zm-6.3-7.568a.837.837 0 00-1.254-.724c-1.85 1.067-3.254-1.414-1.426-2.471a.837.837 0 000-1.448c-1.852-1.07-.4-3.524 1.426-2.47a.837.837 0 001.254-.725c0-2.117 2.853-2.117 2.853 0a.837.837 0 001.254.724c1.857-1.07 3.249 1.418 1.427 2.471a.837.837 0 000 1.448c1.851 1.07.4 3.524-1.427 2.471a.837.837 0 00-1.254.724c0 2.118-2.853 2.117-2.853 0z" fill="#53d7b8" fill-rule="nonzero"/><path d="M10.341 7.571a2.88 2.88 0 00-2.877-2.877A2.88 2.88 0 004.586 7.57a2.88 2.88 0 002.878 2.878A2.88 2.88 0 0010.34 7.57zM7.464 8.776a1.206 1.206 0 11.001-2.411 1.206 1.206 0 01-.001 2.411z" fill="#53d7b8" fill-rule="nonzero"/></svg>