<svg viewBox="0 0 29 27" xmlns="http://www.w3.org/2000/svg" fill-rule="evenodd" clip-rule="evenodd" stroke-linejoin="round" stroke-miterlimit="2"><path d="M12.053 20.925l-4.54-4.54a.708.708 0 00-.793-.144l-3.077 1.398-.017.01a.92.92 0 00-.242.167l-.014.013-.01.01a.912.912 0 00-.04.044l-.022.028a.937.937 0 00-.055.077l-.022.036a.907.907 0 00-.024.045l-.015.032a.873.873 0 00-.022.05l-.012.034-.016.05-.01.04-.01.046-.006.047-.005.04a.884.884 0 00-.002.053l-.001.035.002.055.003.035a.912.912 0 00.007.051l.007.04a.934.934 0 00.025.092c.003.012.008.024.012.035a.974.974 0 00.021.055l.006.013.013.026.015.03a.94.94 0 00.04.068l.008.012a.922.922 0 00.122.146l1.125 1.125-3.107 1.448a.93.93 0 10.786 1.687l1.208-.562-.207.184c-.378.336-.442.916-.12 1.306a.929.929 0 001.337.103l.66-.587-.734 1.219c-.266.441-.144 1.027.295 1.297a.927.927 0 001.285-.313l1.647-2.732 1.727 1.727.012.011a.926.926 0 00.657.274.931.931 0 00.848-.546l1.399-3.077a.708.708 0 00-.144-.793zm16.477-9.838a2.704 2.704 0 00-2.482-2.482 2.7 2.7 0 00-2.887 2.982l-1.095.51-1.78-1.78.789-.702.014-.013c.409.181.87.265 1.356.218a2.704 2.704 0 002.421-2.45 2.7 2.7 0 00-2.936-2.92 2.703 2.703 0 00-2.438 2.462c-.04.5.056.975.257 1.391L18.967 9l-1.733-1.733.626-1.038c.012-.02.022-.04.032-.06a2.7 2.7 0 002.819-2.9A2.704 2.704 0 0018.228.784a2.7 2.7 0 00-2.904 2.69c0 .768.324 1.463.842 1.955l-.29.48-1.621-1.622-.003-.004-.01-.01-.016-.014a.894.894 0 00-.049-.044l-.03-.023-.042-.031-.045-.028-.032-.019a.917.917 0 00-.06-.029l-.019-.01-.004-.001a.916.916 0 00-.064-.023l-.025-.01-.054-.013-.038-.01-.033-.004-.058-.009h-.006a.927.927 0 00-.344.033h-.002a.92.92 0 00-.157.063l-.009.004-.049.029-.03.018-.032.022-.045.033-.02.018a.914.914 0 00-.05.045l-.004.004-.014.015a.936.936 0 00-.044.05l-.023.029-.032.043c-.01.014-.018.029-.027.044l-.02.033a.91.91 0 00-.028.058l-.01.02-.005.013-.002.004-4.117 9.63a.708.708 0 00.15.78l4.69 4.69a.708.708 0 00.78.15l9.63-4.117.004-.002.013-.006.019-.009c.02-.009.04-.018.06-.029l.031-.019.045-.028.042-.03.03-.024a.964.964 0 00.049-.044l.016-.014.004-.004a.92.92 0 00.045-.05l.018-.02.032-.045.023-.032.018-.03a.49.49 0 00.028-.05l.004-.008a.929.929 0 00.097-.502v-.007l-.009-.058-.005-.034-.01-.038-.013-.053-.01-.026a.944.944 0 00-.022-.062l-.002-.006-.01-.02a.93.93 0 00-.028-.058l-.02-.033-.027-.044-.031-.042-.024-.03a.911.911 0 00-.043-.049l-.015-.016-.01-.01-.003-.003-.683-.683.525-.245a2.686 2.686 0 001.85.737 2.7 2.7 0 002.688-2.904z" fill="#53d7b8" fill-rule="nonzero"/></svg>