<svg viewBox="0 0 26 26" xmlns="http://www.w3.org/2000/svg" fill-rule="evenodd" clip-rule="evenodd" stroke-linejoin="round" stroke-miterlimit="2"><path d="M25.827 13.293c0-.736-.325-1.415-.865-1.874a2.463 2.463 0 00-.716-1.875 2.44 2.44 0 00-1.873-.715 2.468 2.468 0 00-.813-.608C19.143 2.788 16.253.033 12.968.033S6.793 2.788 4.376 8.22a2.46 2.46 0 00-.817.612 2.444 2.444 0 00-1.926.713A2.458 2.458 0 00.92 11.47a2.465 2.465 0 00-.812 1.823c0 .704.305 1.364.812 1.823a2.457 2.457 0 002.182 2.63 14.854 14.854 0 012.004 2.096c1.353 1.723 1.293 4.513 1.292 4.54a.889.889 0 00.889.916h11.362a.89.89 0 00.889-.915c-.001-.028-.061-2.818 1.292-4.54a14.86 14.86 0 012.02-2.108 2.436 2.436 0 001.397-.693 2.462 2.462 0 00.715-1.875c.54-.46.865-1.138.865-1.874zm-5.302 1.469a1.47 1.47 0 01-1.469-1.469 1.47 1.47 0 012.938 0 1.47 1.47 0 01-1.469 1.469zm-15.115 0a1.47 1.47 0 01-1.469-1.469 1.47 1.47 0 012.938 0 1.47 1.47 0 01-1.469 1.469zm7.648-1.197a1.756 1.756 0 01-1.754-1.754c0-.967.787-1.754 1.754-1.754s1.754.787 1.754 1.754-.787 1.754-1.754 1.754zm2.224-6.655c-.066 0-.133.003-.2.008a2.647 2.647 0 00-4.053.004 2.632 2.632 0 00-2.128.764 2.646 2.646 0 00-.708 1.274 2.458 2.458 0 00-.935-.131 2.467 2.467 0 00-.902-.647c1.637-3.399 3.881-6.37 6.612-6.37 2.73 0 4.974 2.97 6.61 6.37a2.46 2.46 0 00-.904.649 2.443 2.443 0 00-.826.08 2.643 2.643 0 00-2.566-2z" fill="#53d7b8" fill-rule="nonzero"/></svg>