<svg viewBox="0 0 23 26" xmlns="http://www.w3.org/2000/svg" fill-rule="evenodd" clip-rule="evenodd" stroke-linejoin="round" stroke-miterlimit="2"><path d="M20.547 20.401l-6.598 2.013-4.93-3.354 1.34-.626 2.88 1.258a1.253 1.253 0 001.004-2.297l-3.86-1.686a1.254 1.254 0 00-.796-.07l-5.041 1.219H1.812c-.669 0-1.214.524-1.25 1.185L.56 20.825c0 .693.561 1.254 1.253 1.254h2.526l6.946 2.653c1.335.454 2.129.413 2.966.199.242-.062 1.894-.565 7.028-2.132a1.253 1.253 0 00-.73-2.398z" fill="#53d7b8" fill-rule="nonzero"/><path d="M22.576 12.43a.597.597 0 00-.646-.05c-.046.015-.249.076-.632.076-.123 0-.309-.025-.505-.051a6.955 6.955 0 00-.937-.082c-.584 0-1.042.139-1.4.424-.583.463-.87 1.231-1 1.714l-.23.073V10.7a2.006 2.006 0 001.045-.815 1.983 1.983 0 001.839-.539l.019-.02a1.983 1.983 0 00.539-1.838c.551-.355.918-.975.918-1.679v-.027a2 2 0 00-.918-1.68 1.983 1.983 0 00-.539-1.839l-.02-.018a1.983 1.983 0 00-1.838-.539 1.996 1.996 0 00-1.68-.918h-.027c-.704 0-1.323.366-1.679.918a1.984 1.984 0 00-1.839.539l-.019.02a1.983 1.983 0 00-.539 1.838 1.996 1.996 0 00-.918 1.679v.027a2 2 0 00.918 1.68 1.983 1.983 0 00.539 1.839l.02.018a1.983 1.983 0 001.838.54c.252.39.635.686 1.088.827v2.675l-.243-.128c-.143-.583-.495-1.63-1.26-2.239-.43-.341-.984-.508-1.695-.508-.415 0-.824.056-1.185.104-.26.036-.506.069-.676.069-.557 0-.842-.097-.89-.114a.604.604 0 00-.648.054.63.63 0 00-.232.631c.023.122.595 3.003 2.924 3.701.428.129.85.194 1.25.194h.001c.981 0 1.656-.386 2.026-.678l.628.33v3.523a.627.627 0 101.253 0V15.85l.576-.185c.31.24.849.534 1.633.534.324 0 .664-.052 1.01-.156 1.884-.566 2.344-2.878 2.363-2.976a.631.631 0 00-.232-.636zM15.23 5.797a1.37 1.37 0 011.37-1.369 1.37 1.37 0 011.368 1.368A1.37 1.37 0 0116.6 7.163a1.37 1.37 0 01-1.368-1.367z" fill="#53d7b8" fill-rule="nonzero"/></svg>