<svg viewBox="0 0 20 28" xmlns="http://www.w3.org/2000/svg" fill-rule="evenodd" clip-rule="evenodd" stroke-linejoin="round" stroke-miterlimit="2"><path d="M18.559 10.874c-.187-.107-.493-.176-.85-.218.357-.042.663-.11.85-.218A1.627 1.627 0 1016.93 7.62c-.186.108-.399.34-.614.627.142-.33.236-.63.236-.845a1.628 1.628 0 00-2.809-1.116 1.628 1.628 0 00-.413-.342c-.186-.108-.492-.176-.849-.218.357-.042.663-.11.849-.218a1.628 1.628 0 00-1.627-2.82c-.187.109-.4.34-.614.628.142-.33.236-.63.236-.845a1.628 1.628 0 00-3.255 0c0 .215.094.514.236.844-.215-.288-.427-.519-.614-.626a1.627 1.627 0 10-1.627 2.819c.187.107.493.175.85.218-.357.042-.664.11-.85.218-.16.092-.298.21-.413.342a1.628 1.628 0 00-2.81 1.117c0 .215.094.514.236.844-.214-.288-.427-.519-.613-.627a1.627 1.627 0 10-1.628 2.82c.187.107.493.175.85.217-.357.042-.663.11-.85.218a1.627 1.627 0 001.628 2.819c.186-.108.398-.339.613-.627-.142.33-.236.63-.236.845a1.628 1.628 0 002.596 1.306l2.895 5.837-4.17 4.16 1.655.026v1.69l2.789-2.778-.586 3.364 1.676-1.26 1.677 1.26-.619-3.364 2.756 2.779v-1.69l1.688-.026-4.149-4.16 2.901-5.838a1.627 1.627 0 002.6-1.306c0-.215-.093-.514-.235-.845.215.289.427.52.614.627a1.628 1.628 0 001.628-2.819zM8.07 5.724a1.628 1.628 0 113.255 0 1.628 1.628 0 01-3.255 0zm-5.228 4.932a1.628 1.628 0 113.256 0 1.628 1.628 0 01-3.256 0zm12.083 1.628a1.628 1.628 0 110-3.255 1.628 1.628 0 010 3.255z" fill="#53d7b8" fill-rule="nonzero"/></svg>