<svg viewBox="0 0 23 25" xmlns="http://www.w3.org/2000/svg" fill-rule="evenodd" clip-rule="evenodd" stroke-linejoin="round" stroke-miterlimit="2"><path d="M20.482.816H10.07c-.708 0-1.333.38-1.704.869h6.295c2.123 0 3.835 1.756 3.835 3.88v14.656h1.986a2.1 2.1 0 002.091-2.082V2.88c0-1.141-.95-2.063-2.09-2.063z" fill="#53d7b8" fill-rule="nonzero"/><path d="M14.405 3.045H3.5C1.891 3.045.56 4.33.56 5.94v15.98c0 1.61 1.332 2.922 2.942 2.922h10.904c1.61 0 2.895-1.311 2.895-2.922V5.94a2.881 2.881 0 00-2.895-2.896zm.396 18.85a.392.392 0 01-.393.392H3.505a.392.392 0 01-.392-.393V5.937c0-.217.176-.392.392-.392h10.903c.216 0 .392.175.392.392v15.957z" fill="#53d7b8" fill-rule="nonzero"/><path d="M8.031 17.11l-.466 1.43h2.729l-.467-1.43H8.031zm.588-5.274v1.585h.62v-1.585c.524-.126.953-.565.953-1.184V9.349H7.667v1.303c0 .62.428 1.058.952 1.184zm2.967-1.942l-.825 1.011c-.392.48-.34 1.088-.016 1.516l-.816 1h.802l.495-.607c.484.233 1.09.161 1.482-.319l.826-1.01-1.948-1.59zM6.343 14.62l1.525 1.869H9.99l1.526-1.87v-.577H6.343v.578zm.785-1.199h.802l-.817-1c.326-.428.377-1.036-.015-1.516l-.825-1.01-1.948 1.59.825 1.01c.392.48.998.552 1.482.319l.496.607z" fill="#53d7b8" fill-rule="nonzero"/></svg>