<svg viewBox="0 0 197 170" xmlns="http://www.w3.org/2000/svg" fill-rule="evenodd" clip-rule="evenodd" stroke-linejoin="round" stroke-miterlimit="2"><circle cx="5690.14" cy="20498.7" r="124.992" fill="#f6eb14" transform="translate(-2576.074 -9533.814) scale(.46984)"/><path d="M90.893 127.703c-29.439 3.19-55.812-18.053-59-47.463 29.409-3.187 55.81 18.027 59 47.463z" fill="#8cc152" fill-rule="nonzero"/><path d="M92.278 169.493a2.676 2.676 0 01-2.677-2.677V81.127a2.675 2.675 0 012.677-2.677 2.674 2.674 0 012.677 2.677v85.689a2.675 2.675 0 01-2.677 2.677z" fill="#a0d468" fill-rule="nonzero"/><path d="M92.63 43.695a7.812 7.812 0 013.961 1.228c1.175.753 2.169 1.795 2.812 3.056a7.89 7.89 0 01.91 3.72c0 .105 0 .241-.027.346-.057 1.448-.484 2.813-1.232 3.961-.75 1.177-1.793 2.172-3.053 2.815a7.92 7.92 0 01-3.72.91c-.106 0-.24 0-.348-.026a8.093 8.093 0 01-3.962-1.234c-1.175-.748-2.168-1.795-2.811-3.055-.59-1.093-.91-2.378-.91-3.716 0-.11 0-.24.026-.35a8.084 8.084 0 011.232-3.962c.75-1.177 1.794-2.167 3.054-2.81 1.096-.59 2.38-.91 3.72-.91.105 0 .24 0 .348.027z" fill="#ffce54" fill-rule="nonzero"/><path d="M106.496 37.481c-4.015 2.6-7.416 5.168-9.903 7.416v.026a7.813 7.813 0 00-3.961-1.228v-.027c1.017-3.215 2.677-7.148 4.848-11.404.88-1.716 1.844-3.484 2.888-5.277 7.012-12.152 14.775-20.825 17.346-19.355 2.57 1.502-1.044 12.558-8.085 24.709a90.664 90.664 0 01-3.133 5.14zM84.25 51.7c0 1.338.32 2.623.91 3.72-3.29.724-7.549 1.26-12.314 1.474 0 0-.028 0-.028.026-1.927.08-3.907.134-5.97.134-14.054 0-25.432-2.386-25.432-5.354 0-2.946 11.378-5.355 25.433-5.355 2.062 0 4.07.054 5.997.159l.026-.028c4.23 2.196 8.166 3.859 11.378 4.873h.026c-.026.11-.026.241-.026.35zm13.225 19.435c-.244-4.762-.777-9.023-1.474-12.314 1.26-.643 2.3-1.636 3.053-2.815 2.276 2.49 4.846 5.888 7.44 9.904a124.655 124.655 0 013.135 5.145c7.015 12.155 10.656 23.21 8.085 24.707-2.571 1.475-10.334-7.198-17.347-19.353a94.474 94.474 0 01-2.862-5.276h-.03v.002zm-5.542-11.404c-1.017 3.21-2.704 7.148-4.872 11.404a122.166 122.166 0 01-2.861 5.278c-7.018 12.151-14.78 20.824-17.351 19.35-2.571-1.498 1.044-12.553 8.085-24.708 1.02-1.799 2.088-3.483 3.134-5.112v-.033c4.016-2.594 7.416-5.166 9.903-7.439a8.112 8.112 0 003.962 1.234v.026zm8.38-7.686h-.027c.027-.105.027-.24.027-.345a7.915 7.915 0 00-.91-3.725c3.29-.722 7.548-1.26 12.314-1.474 0 0 .027 0 .027-.027a152.64 152.64 0 015.97-.129c14.055 0 25.433 2.409 25.433 5.355 0 2.968-11.378 5.354-25.433 5.354-2.062 0-4.07-.054-5.997-.136-4.256-2.168-8.192-3.853-11.404-4.873zM87.061 32.264c.24 4.79.776 9.018 1.5 12.314-1.26.643-2.3 1.631-3.053 2.81-2.276-2.49-4.845-5.888-7.44-9.903h-.03a166.048 166.048 0 01-3.104-5.14C67.893 20.19 64.278 9.135 66.849 7.658c2.57-1.496 10.333 7.18 17.347 19.332a94.52 94.52 0 012.865 5.274z" fill="#fc6e51" fill-rule="nonzero"/><path d="M78.066 37.481c2.597 4.016 5.166 7.416 7.439 9.903a8.096 8.096 0 00-1.23 3.962h-.025c-3.212-1.014-7.148-2.677-11.378-4.872a95.949 95.949 0 01-5.3-2.86c-12.155-7.017-20.828-14.78-19.357-17.347 1.501-2.573 12.556 1.042 24.708 8.085 1.797 1.02 3.484 2.085 5.113 3.133h.03v-.004zm18.525 7.416c2.49-2.248 5.888-4.816 9.904-7.416 1.609-1.046 3.346-2.084 5.141-3.132 12.152-7.043 23.21-10.655 24.683-8.086 1.5 2.568-7.177 10.332-19.328 17.35-1.796 1.04-3.533 2.007-5.25 2.858 0 .028-.026.028-.026.028-4.764.212-9.021.75-12.316 1.474-.64-1.262-1.633-2.3-2.811-3.055v-.02h.003zm20.399 14.888c12.152 7.012 20.827 14.776 19.33 17.347-1.473 2.568-12.532-1.047-24.684-8.085a92.716 92.716 0 01-5.141-3.137c-2.597-4.016-5.168-7.416-7.44-9.904.747-1.15 1.174-2.513 1.231-3.961h.027c3.212 1.02 7.148 2.705 11.404 4.873 1.713.884 3.48 1.82 5.274 2.867zm-29.019-1.314c-2.489 2.274-5.887 4.847-9.903 7.439v.033a169.779 169.779 0 01-5.142 3.104c-12.151 7.038-23.21 10.653-24.683 8.085-1.499-2.572 7.178-10.335 19.329-17.347a92.263 92.263 0 015.25-2.865c0-.026.026-.026.026-.026 4.763-.215 9.021-.748 12.315-1.475.64 1.257 1.63 2.304 2.808 3.052zm9.504-26.207c-2.172 4.256-3.83 8.189-4.849 11.404v.027c-.106-.027-.24-.027-.348-.027-1.339 0-2.623.32-3.721.91-.726-3.292-1.26-7.524-1.501-12.314a153.03 153.03 0 01-.129-5.997c0-14.055 2.383-25.433 5.354-25.433 2.946 0 5.355 11.378 5.355 25.433 0 2.062-.054 4.094-.16 5.997zm-1.472 26.557c.698 3.291 1.232 7.549 1.474 12.314.105 1.928.159 3.936.159 5.997 0 14.055-2.409 25.433-5.355 25.433-2.971 0-5.354-11.378-5.354-25.433 0-2.061.054-4.1.134-5.997 2.17-4.256 3.855-8.194 4.872-11.404v-.026c.108.026.242.026.348.026a7.932 7.932 0 003.722-.91z" fill="#e9573f" fill-rule="nonzero"/><path d="M67.56 136.515a14.29 14.29 0 015.05-5.639 33.179 33.179 0 002.612-1.874l3.318 4.172a37.989 37.989 0 01-3.037 2.18c-3.496 2.263-4.92 6.335-3.452 9.893a66.44 66.44 0 014.235 15.217c.002.002.001.005.001.005l.55 3.739-5.275.773c-.334-2.27.48 3.277-.518-3.528 0-.003.002-.005-.001-.006a60.321 60.321 0 00-1.044-5.318c-1.02-3.838-5.023-6.36-9.014-5.641a33.813 33.813 0 00-4.672 1.189l-1.683-5.06a39.274 39.274 0 015.414-1.377c2.175-.391 4.32-.203 6.3.412-3.348-7.477-8.188-14.351-14.197-19.912l3.617-3.911c4.614 4.267 8.551 9.277 11.795 14.686z" fill="#5ab267" fill-rule="nonzero"/><path d="M42.954 148.69c-1.38 4.189.85 8.887 5.038 10.266 4.188 1.38 8.773-1.074 10.153-5.262 1.379-4.188-.906-8.718-5.094-10.097-4.188-1.38-8.718.906-10.097 5.094zm30.26-23.71c-1.379 4.188.906 8.718 5.094 10.097 4.188 1.38 8.718-.906 10.097-5.094 1.38-4.188-.906-8.717-5.094-10.097-4.188-1.379-8.717.906-10.097 5.094z" fill="#8cd96b" fill-rule="nonzero"/><path d="M73.028 101.355c3.265 5.008 4.614 10.18 3.522 13.498-1.092 3.314-5.242 6.669-10.831 8.755-4.19 1.562-15.086 4.514-25.732-1.84l-1.833-1.092 5.467-16.668 5.462-16.656 2.125.206c12.354 1.2 19.375 10.048 21.82 13.797z" fill="#c567ea" fill-rule="nonzero"/><path d="M51.208 87.558c12.354 1.2 19.374 10.049 21.82 13.797 3.265 5.008 4.614 10.18 3.522 13.498l-32.93-10.845 5.463-16.656 2.125.206z" fill="#a24bdb" fill-rule="nonzero"/><path d="M45.17 81.228l-6.833 21.04-6.736 20.739c-4.73 3.397-11.232 4.213-17.39 2.185-9.772-3.218-15.817-12.762-13.058-21.139 1.74-5.284 6.614-8.835 12.3-9.98-3.892-4.3-5.702-10.053-3.961-15.337 2.759-8.377 13.292-12.461 23.063-9.243 10.088 3.323 12.23 11.194 12.615 11.735z" fill="#c567ea" fill-rule="nonzero"/><path d="M9.492 78.736c2.759-8.377 13.292-12.461 23.063-9.243 10.088 3.323 12.23 11.194 12.615 11.735l-6.833 21.04-24.884-8.196c-3.892-4.3-5.702-10.052-3.961-15.336z" fill="#a24bdb" fill-rule="nonzero"/><path d="M48.765 109.542c7.073 4.106 9.626 9.32 7.591 15.499-3.334 10.124-24.025 17.345-30.29 15.281-6.266-2.063-18.616-20.166-15.282-30.29 2.035-6.179 7.187-8.856 15.315-7.955a19.52 19.52 0 006.838-.467l10.607 3.493a19.514 19.514 0 005.221 4.439z" fill="#e681fa" fill-rule="nonzero"/><path d="M66.362 94.66c-2.035 6.178-7.186 8.855-15.315 7.954a19.514 19.514 0 00-6.837.467l-10.608-3.493a19.508 19.508 0 00-5.222-4.439c-7.072-4.106-9.625-9.32-7.59-15.499 3.335-10.124 24.081-17.513 30.346-15.45 6.266 2.064 18.56 20.335 15.226 30.46zM33.6 125.965l5.837-17.722-5.064-1.668-5.836 17.723 5.063 1.667z" fill="#c567ea" fill-rule="nonzero"/><path d="M42.773 98.116l5.836-17.723-5.063-1.667-5.837 17.722 5.064 1.668z" fill="#a24bdb" fill-rule="nonzero"/><path d="M41.075 94.75a7.996 7.996 0 00-10.097 5.094 7.996 7.996 0 005.094 10.097 7.996 7.996 0 0010.096-5.094 7.996 7.996 0 00-5.093-10.097z" fill="#fed843" fill-rule="nonzero"/><path d="M41.075 94.75a7.996 7.996 0 015.093 10.097l-15.19-5.003a7.996 7.996 0 0110.097-5.094z" fill="#fabe2c" fill-rule="nonzero"/><g fill-rule="nonzero"><path d="M177.443 95.86v7.847h-12.53V95.86a6.26 6.26 0 016.265-6.25 6.26 6.26 0 016.265 6.25z" fill="#a0d468"/><path d="M174.53 137.321c-1.003 1.55-2.129 2.412-3.352 2.412-1.207 0-2.35-.877-3.352-2.412 1.174-1.253 2.317-3.117 3.352-5.42 1.049 2.303 2.192 4.167 3.352 5.42z" fill="#ccd1d9"/><path d="M167.528 103.786c-.909 3.978-.909 10.165.204 16.43.783 4.465 2.005 8.49 3.446 11.685-1.034 2.303-2.178 4.167-3.352 5.42-1.27 1.363-2.554 2.02-3.76 1.817-3.868-.673-5.42-10.26-3.446-21.396.955-5.404 2.57-10.636 4.418-14.035h2.49v.079z" fill="#e6e9ed"/><path d="M174.53 137.321c-1.158-1.253-2.303-3.117-3.352-5.42-1.441-3.194-2.663-7.22-3.446-11.685-1.113-6.265-1.113-12.452-.204-16.43v-.079h9.806c1.85 3.4 3.46 8.63 4.416 14.035 1.958 11.137.407 20.723-3.46 21.396-1.21.219-2.492-.454-3.76-1.817z" fill="#e4f7fa"/><path d="M171.18 91.169c-.867 0-1.567-.7-1.567-1.567v-6.274a1.566 1.566 0 113.133 0v6.274c0 .867-.7 1.567-1.566 1.567z" fill="#a0d468"/><path d="M113.088 134.698a1.565 1.565 0 01-1.429-2.204c14.585-32.712 47.168-53.848 83.01-53.848a1.566 1.566 0 110 3.133c-34.606 0-66.067 20.406-80.149 51.99-.26.582-.832.929-1.432.929zm33.28-4.614c-1.003 20.551-18.858 38.422-39.408 39.41 2.443-5.404 4.322-11.654 5.606-18.343 7.018-11.856 19.783-20.377 33.802-21.067z" fill="#8cc152"/><path d="M106.96 84.911c8.004 17.715 9.867 44.343 5.606 66.24-1.284 6.689-3.165 12.939-5.606 18.343-10.449-23.12-10.449-61.464 0-84.583z" fill="#a0d468"/></g></svg>