<svg viewBox="0 0 201 224" xmlns="http://www.w3.org/2000/svg" fill-rule="evenodd" clip-rule="evenodd" stroke-linejoin="round" stroke-miterlimit="2"><circle cx="5690.14" cy="20498.7" r="124.992" fill="#f6eb14" transform="translate(-3235.648 -11895.357) scale(.58512)"/><circle cx="5690.14" cy="20498.7" r="124.992" fill="#f6eb14" transform="translate(-300.546 -1477.718) scale(.08039)"/><circle cx="5690.14" cy="20498.7" r="124.992" fill="#ff6473" transform="translate(-225.995 -1014.05) scale(.04986)"/><circle cx="5690.14" cy="20498.7" r="124.992" fill="#f6eb14" transform="translate(-285.09 -1491.756) scale(.07358)"/><circle cx="5690.14" cy="20498.7" r="124.992" fill="#64afff" transform="translate(-93.995 -941.195) scale(.04986)"/><circle cx="5690.14" cy="20498.7" r="124.992" fill="#5f6e9b" transform="translate(-83.898 -355.59) scale(.02743)"/><g fill-rule="nonzero"><path d="M68.12 129.742a7.431 7.431 0 01-5.27-2.198 7.433 7.433 0 01-1.786-7.724l5.242-15.256a40.99 40.99 0 01-3.898-17.362c-.016-10.77 4.15-20.952 11.73-28.67 7.584-7.72 17.69-12.066 28.456-12.237 11.163-.18 21.657 4.07 29.546 11.958 7.888 7.889 12.136 18.382 11.959 29.545-.171 10.767-4.517 20.873-12.237 28.456-7.703 7.566-17.86 11.73-28.606 11.73h-.064a40.99 40.99 0 01-17.362-3.897l-15.257 5.242a7.546 7.546 0 01-2.453.413z" fill="#5f6e9b"/><path d="M80.573 186.19c-16.478 0-36.04-9.31-51.525-24.888-17.435-17.542-26.89-40.2-24.089-57.723 1.503-9.4 6.38-16.448 14.101-20.383 4.454-2.27 9.86-1.37 13.45 2.242l12.307 12.37a11.651 11.651 0 013.358 9.324 11.462 11.462 0 01-4.935 8.407 4.15 4.15 0 01-.262.166l-3.42 1.989c1.23 4.632 4.488 14.223 11.722 21.501 7.282 7.326 16.829 10.624 21.442 11.869l2.023-3.412a4.1 4.1 0 01.163-.253 11.462 11.462 0 018.436-4.883c3.454-.305 6.846.94 9.303 3.412l12.308 12.37c3.59 3.613 4.459 9.023 2.162 13.464-3.982 7.698-11.062 12.531-20.474 13.978-1.965.301-3.993.45-6.07.45z" fill="#ff6473"/></g><g fill-rule="nonzero"><path d="M27.637 6.771c.013.178.02.352.02.52 0 1.627-1.027 3.731-3.138 6.432a41.515 41.515 0 01-2.97 3.388 1.274 1.274 0 01-1.804 0 41.515 41.515 0 01-2.97-3.388c-2.11-2.7-3.137-4.805-3.136-6.433a6.985 6.985 0 012.228-5.125 6.983 6.983 0 014.78-1.884c1.782 0 3.48.67 4.781 1.885a6.987 6.987 0 012.21 4.605zM6.749 13.68c.177-.012.351-.019.52-.019 1.626 0 3.73 1.027 6.431 3.137a41.515 41.515 0 013.389 2.971 1.274 1.274 0 01-.001 1.804 41.515 41.515 0 01-3.388 2.97c-2.7 2.11-4.805 3.137-6.432 3.136a6.985 6.985 0 01-5.125-2.228 6.983 6.983 0 01-1.885-4.78c0-1.782.67-3.48 1.885-4.782a6.987 6.987 0 014.606-2.208zm6.909 20.89a7.218 7.218 0 01-.02-.52c0-1.627 1.027-3.731 3.138-6.432a41.515 41.515 0 012.97-3.388 1.274 1.274 0 011.804 0 41.515 41.515 0 012.97 3.388c2.11 2.7 3.137 4.805 3.136 6.432a6.985 6.985 0 01-2.228 5.125 6.984 6.984 0 01-4.78 1.885 6.99 6.99 0 01-4.781-1.885 6.987 6.987 0 01-2.21-4.606zm20.888-6.91c-.177.013-.351.02-.52.02-1.626 0-3.73-1.027-6.431-3.138a41.515 41.515 0 01-3.388-2.97 1.274 1.274 0 010-1.804 41.515 41.515 0 013.388-2.97c2.7-2.11 4.805-3.137 6.432-3.136a6.985 6.985 0 015.125 2.228 6.984 6.984 0 011.885 4.78 6.99 6.99 0 01-1.885 4.781 6.987 6.987 0 01-4.606 2.209z" fill="#e3889b"/><path d="M18.768 17.515a1.274 1.274 0 01-1.274 1.276h-.002c-.087 0-2.135-.007-4.495-.296-3.403-.417-5.617-1.18-6.767-2.33a6.99 6.99 0 01-2.048-5.2 6.988 6.988 0 012.047-4.712 6.987 6.987 0 014.714-2.049 6.982 6.982 0 015.2 2.048c1.15 1.151 1.912 3.365 2.33 6.767.288 2.36.295 4.41.295 4.496zm0 6.311c0 .087-.007 2.135-.296 4.495-.417 3.403-1.18 5.617-2.33 6.767a6.984 6.984 0 01-5.2 2.048A6.986 6.986 0 016.23 35.09a6.988 6.988 0 01-2.048-4.714 6.987 6.987 0 012.048-5.2c1.15-1.15 3.364-1.912 6.767-2.33a41.783 41.783 0 014.495-.295h.002a1.274 1.274 0 011.274 1.276zm18.345 6.549a6.988 6.988 0 01-2.047 4.713 6.987 6.987 0 01-4.959 2.052 6.98 6.98 0 01-4.954-2.051c-1.15-1.151-1.913-3.365-2.33-6.768a41.59 41.59 0 01-.296-4.495 1.274 1.274 0 011.274-1.276h.002c.087 0 2.136.007 4.495.296 3.403.417 5.617 1.179 6.767 2.33a6.99 6.99 0 012.048 5.2zm-1.695-14.591a7.18 7.18 0 01-.353.381c-1.15 1.15-3.364 1.913-6.767 2.33a41.34 41.34 0 01-4.495.296h-.002a1.274 1.274 0 01-1.274-1.276c0-.087.007-2.136.296-4.496.417-3.402 1.18-5.616 2.33-6.766a6.987 6.987 0 015.2-2.048 6.986 6.986 0 014.712 2.047 6.988 6.988 0 012.048 4.714 6.987 6.987 0 01-1.695 4.818z" fill="#f79caf"/><path d="M26.382 20.67a5.704 5.704 0 01-1.679 4.055 5.703 5.703 0 01-4.055 1.68 5.703 5.703 0 01-4.055-1.679h-.001a5.703 5.703 0 01-1.679-4.056c0-1.53.597-2.97 1.679-4.055a5.703 5.703 0 014.056-1.68 5.7 5.7 0 014.054 1.68 5.703 5.703 0 011.68 4.055z" fill="#f8e9d2"/></g><g fill-rule="nonzero"><path d="M136.996 189.062c.013.177.02.352.02.52 0 1.626-1.027 3.73-3.138 6.432a41.515 41.515 0 01-2.97 3.387v.001a1.274 1.274 0 01-1.804 0 41.515 41.515 0 01-2.97-3.388c-2.11-2.701-3.137-4.806-3.136-6.433a6.985 6.985 0 012.228-5.125 6.983 6.983 0 014.78-1.884c1.782 0 3.48.67 4.781 1.884a6.987 6.987 0 012.21 4.606zm-20.888 6.909c.177-.013.351-.02.52-.02 1.626 0 3.73 1.027 6.431 3.138a41.515 41.515 0 013.389 2.971 1.274 1.274 0 01-.001 1.803 41.515 41.515 0 01-3.388 2.97c-2.7 2.11-4.805 3.138-6.432 3.137a6.985 6.985 0 01-5.125-2.228 6.983 6.983 0 01-1.885-4.78c0-1.783.67-3.48 1.885-4.782a6.987 6.987 0 014.606-2.209zm6.909 20.889a7.218 7.218 0 01-.02-.52c0-1.626 1.027-3.73 3.138-6.432a41.515 41.515 0 012.97-3.387v-.001a1.274 1.274 0 011.804 0 41.515 41.515 0 012.97 3.388c2.11 2.701 3.137 4.806 3.136 6.433a6.985 6.985 0 01-2.228 5.125 6.984 6.984 0 01-4.78 1.884 6.99 6.99 0 01-4.781-1.884 6.987 6.987 0 01-2.21-4.606zm20.888-6.91c-.177.014-.351.02-.52.02-1.626 0-3.73-1.026-6.431-3.137a41.515 41.515 0 01-3.388-2.97v-.001a1.274 1.274 0 010-1.803 41.515 41.515 0 013.388-2.97c2.7-2.11 4.805-3.138 6.432-3.137a6.985 6.985 0 015.125 2.228 6.984 6.984 0 011.885 4.78 6.99 6.99 0 01-1.885 4.782 6.987 6.987 0 01-4.606 2.209z" fill="#e3889b"/><path d="M128.127 199.805a1.274 1.274 0 01-1.274 1.276h-.002c-.087 0-2.135-.006-4.495-.295-3.403-.418-5.617-1.18-6.767-2.33a6.99 6.99 0 01-2.048-5.2 6.988 6.988 0 012.047-4.713 6.987 6.987 0 014.714-2.048 6.982 6.982 0 015.2 2.048c1.15 1.15 1.912 3.365 2.33 6.767.288 2.36.295 4.409.295 4.495zm0 6.312c0 .086-.007 2.135-.296 4.495-.417 3.402-1.18 5.616-2.33 6.767a6.984 6.984 0 01-5.2 2.048 6.986 6.986 0 01-4.712-2.048 6.988 6.988 0 01-2.048-4.713 6.987 6.987 0 012.048-5.2c1.15-1.15 3.364-1.912 6.767-2.33a41.484 41.484 0 014.495-.295h.002a1.274 1.274 0 011.274 1.276zm18.345 6.549a6.988 6.988 0 01-2.047 4.713 6.987 6.987 0 01-4.959 2.052 6.98 6.98 0 01-4.954-2.052c-1.15-1.15-1.913-3.365-2.33-6.767a41.59 41.59 0 01-.296-4.495 1.274 1.274 0 011.274-1.276h.002c.087 0 2.135.006 4.495.295 3.403.418 5.617 1.18 6.767 2.33a6.99 6.99 0 012.048 5.2zm-1.695-14.591a7.18 7.18 0 01-.353.381c-1.15 1.15-3.364 1.912-6.767 2.33-2.36.289-4.408.295-4.495.295h-.002a1.274 1.274 0 01-1.274-1.276c0-.086.007-2.135.296-4.495.417-3.402 1.18-5.616 2.33-6.767a6.987 6.987 0 015.2-2.048 6.986 6.986 0 014.712 2.048 6.988 6.988 0 012.048 4.713 6.987 6.987 0 01-1.695 4.819z" fill="#f79caf"/><path d="M135.741 202.961c0 1.53-.597 2.971-1.679 4.055a5.703 5.703 0 01-4.055 1.68 5.703 5.703 0 01-4.055-1.68h-.001a5.703 5.703 0 01-1.679-4.055c0-1.53.597-2.971 1.679-4.055a5.703 5.703 0 014.056-1.68 5.7 5.7 0 014.054 1.68 5.703 5.703 0 011.68 4.055z" fill="#f8e9d2"/></g><g fill-rule="nonzero"><path d="M180.2 16.009c.009.122.014.241.014.357 0 1.117-.705 2.561-2.154 4.416a28.505 28.505 0 01-2.04 2.326.875.875 0 01-1.238 0 28.505 28.505 0 01-2.04-2.326c-1.449-1.855-2.154-3.3-2.153-4.417a4.796 4.796 0 011.53-3.519 4.795 4.795 0 013.281-1.293c1.224 0 2.39.46 3.284 1.294a4.798 4.798 0 011.516 3.162zm-14.342 4.744c.121-.009.241-.014.357-.014 1.117 0 2.561.705 4.416 2.155a28.505 28.505 0 012.327 2.04.875.875 0 01-.001 1.238 28.505 28.505 0 01-2.326 2.039c-1.855 1.449-3.3 2.154-4.417 2.153a4.796 4.796 0 01-3.519-1.53 4.795 4.795 0 01-1.293-3.281c0-1.224.46-2.39 1.293-3.284a4.797 4.797 0 013.163-1.516zm4.744 14.342a4.956 4.956 0 01-.014-.357c0-1.116.705-2.561 2.155-4.416a28.505 28.505 0 012.039-2.326.875.875 0 011.239 0c.042.042 1.033 1.04 2.039 2.326 1.449 1.855 2.154 3.3 2.153 4.417a4.796 4.796 0 01-1.53 3.519 4.795 4.795 0 01-3.281 1.294 4.8 4.8 0 01-3.284-1.294 4.797 4.797 0 01-1.516-3.163zm14.342-4.744a4.914 4.914 0 01-.357.014c-1.116 0-2.561-.705-4.416-2.154a28.505 28.505 0 01-2.326-2.04.875.875 0 010-1.238 28.505 28.505 0 012.326-2.04c1.855-1.449 3.3-2.154 4.417-2.153a4.796 4.796 0 013.519 1.53 4.795 4.795 0 011.294 3.281 4.8 4.8 0 01-1.294 3.284 4.797 4.797 0 01-3.163 1.516z" fill="#e3889b"/><path d="M174.11 23.385a.875.875 0 01-.875.876c-.06 0-1.467-.004-3.087-.202-2.336-.287-3.856-.81-4.646-1.6a4.8 4.8 0 01-1.406-3.57 4.798 4.798 0 011.405-3.236 4.797 4.797 0 013.237-1.407 4.794 4.794 0 013.57 1.406c.79.79 1.313 2.31 1.6 4.647.198 1.62.203 3.027.203 3.086zm0 4.334c0 .06-.004 1.466-.203 3.086-.286 2.336-.81 3.856-1.6 4.646a4.795 4.795 0 01-3.57 1.406 4.797 4.797 0 01-3.235-1.405 4.798 4.798 0 01-1.407-3.237 4.797 4.797 0 011.407-3.57c.79-.79 2.31-1.313 4.646-1.6a28.556 28.556 0 013.086-.202h.002a.875.875 0 01.875.876zm12.597 4.496a4.798 4.798 0 01-1.406 3.236 4.797 4.797 0 01-3.405 1.41 4.793 4.793 0 01-3.402-1.41c-.79-.79-1.313-2.31-1.6-4.646a28.556 28.556 0 01-.202-3.086.875.875 0 01.875-.876c.06 0 1.467.004 3.087.203 2.336.286 3.856.81 4.646 1.6a4.8 4.8 0 011.406 3.57zm-1.164-10.018a4.93 4.93 0 01-.243.262c-.79.79-2.31 1.313-4.646 1.6-1.62.198-3.027.203-3.086.203h-.001a.875.875 0 01-.875-.877c0-.06.004-1.466.203-3.086.286-2.336.81-3.856 1.6-4.646a4.798 4.798 0 013.57-1.406 4.797 4.797 0 013.235 1.405 4.798 4.798 0 011.407 3.237 4.797 4.797 0 01-1.164 3.308z" fill="#f79caf"/><path d="M179.338 25.552c0 1.051-.41 2.04-1.152 2.784a3.916 3.916 0 01-2.785 1.153 3.92 3.92 0 01-2.784-1.152 3.916 3.916 0 01-1.153-2.785c0-1.05.41-2.04 1.152-2.784a3.916 3.916 0 012.785-1.153c1.051 0 2.04.41 2.784 1.152a3.916 3.916 0 011.153 2.785z" fill="#f8e9d2"/></g><g fill-rule="nonzero"><path d="M28.047 175.299c.01.14.015.278.015.41 0 1.285-.81 2.947-2.478 5.08a32.787 32.787 0 01-2.345 2.675l-.001.001a1.006 1.006 0 01-1.424 0 32.787 32.787 0 01-2.345-2.676c-1.667-2.133-2.478-3.795-2.478-5.08a5.516 5.516 0 011.76-4.047 5.515 5.515 0 013.775-1.489c1.407 0 2.748.529 3.776 1.488a5.518 5.518 0 011.745 3.638zm-16.497 5.456a5.7 5.7 0 01.41-.015c1.285 0 2.947.81 5.08 2.478a32.787 32.787 0 012.676 2.346 1.006 1.006 0 010 1.424 32.787 32.787 0 01-2.676 2.345c-2.133 1.667-3.795 2.478-5.08 2.478a5.516 5.516 0 01-4.047-1.76 5.515 5.515 0 01-1.489-3.775c0-1.407.529-2.748 1.488-3.776a5.518 5.518 0 013.638-1.745zm5.456 16.497a5.7 5.7 0 01-.015-.41c0-1.285.81-2.947 2.478-5.08a32.787 32.787 0 012.345-2.675 1.006 1.006 0 011.425 0 32.787 32.787 0 012.345 2.675c1.667 2.133 2.478 3.795 2.478 5.08a5.517 5.517 0 01-1.76 4.047 5.516 5.516 0 01-3.775 1.489 5.52 5.52 0 01-3.776-1.488 5.518 5.518 0 01-1.745-3.638zm16.497-5.456c-.14.01-.278.015-.41.015-1.285 0-2.947-.81-5.08-2.478a32.787 32.787 0 01-2.675-2.345h-.001a1.006 1.006 0 010-1.425 32.787 32.787 0 012.676-2.345c2.133-1.667 3.795-2.478 5.08-2.478a5.516 5.516 0 014.047 1.76 5.516 5.516 0 011.489 3.775 5.52 5.52 0 01-1.488 3.776 5.518 5.518 0 01-3.638 1.745z" fill="#e3889b"/><path d="M21.042 183.783a1.006 1.006 0 01-1.006 1.008h-.002a32.85 32.85 0 01-3.55-.233c-2.687-.33-4.435-.932-5.344-1.84a5.52 5.52 0 01-1.618-4.106 5.519 5.519 0 011.618-3.723 5.518 5.518 0 013.722-1.617 5.514 5.514 0 014.106 1.617c.91.909 1.51 2.657 1.84 5.344.229 1.864.234 3.482.234 3.55zm0 4.985c0 .068-.005 1.686-.233 3.55-.33 2.687-.932 4.435-1.84 5.344a5.516 5.516 0 01-4.106 1.618 5.517 5.517 0 01-3.723-1.618 5.519 5.519 0 01-1.618-3.722 5.518 5.518 0 011.618-4.107c.909-.908 2.657-1.51 5.344-1.84a32.845 32.845 0 013.55-.233h.002a1.006 1.006 0 011.006 1.008zm14.488 5.172a5.519 5.519 0 01-1.617 3.722 5.518 5.518 0 01-3.916 1.62 5.512 5.512 0 01-3.912-1.62c-.91-.909-1.511-2.657-1.84-5.344a32.845 32.845 0 01-.234-3.55 1.006 1.006 0 011.006-1.008h.002c.068 0 1.686.005 3.55.233 2.687.33 4.435.932 5.344 1.84a5.52 5.52 0 011.618 4.106zm-1.338-11.523a5.67 5.67 0 01-.28.3c-.908.91-2.656 1.511-5.343 1.84a32.845 32.845 0 01-3.55.234h-.002a1.006 1.006 0 01-1.006-1.008c0-.068.005-1.686.233-3.55.33-2.687.932-4.435 1.84-5.344a5.518 5.518 0 014.106-1.618 5.517 5.517 0 013.723 1.618 5.519 5.519 0 011.617 3.722 5.518 5.518 0 01-1.338 3.806z" fill="#f79caf"/><path d="M27.055 186.276a4.504 4.504 0 01-1.326 3.202 4.504 4.504 0 01-3.203 1.326 4.504 4.504 0 01-3.202-1.326 4.504 4.504 0 01-1.326-3.202c0-1.21.47-2.347 1.325-3.203a4.504 4.504 0 013.203-1.326c1.21 0 2.347.47 3.203 1.326a4.504 4.504 0 011.326 3.203z" fill="#f8e9d2"/></g><g fill-rule="nonzero"><path d="M189.657 123.143c.01.14.015.277.015.41 0 1.285-.81 2.947-2.478 5.08a32.787 32.787 0 01-2.345 2.675 1.006 1.006 0 01-1.425 0 32.787 32.787 0 01-2.345-2.675c-1.667-2.133-2.478-3.795-2.478-5.08a5.516 5.516 0 011.76-4.047 5.515 5.515 0 013.775-1.49 5.518 5.518 0 013.776 1.49 5.518 5.518 0 011.745 3.637zM173.16 128.6a5.7 5.7 0 01.41-.016c1.285 0 2.947.81 5.08 2.477a32.787 32.787 0 012.676 2.347 1.006 1.006 0 010 1.424 32.787 32.787 0 01-2.676 2.345c-2.133 1.667-3.795 2.478-5.08 2.478a5.516 5.516 0 01-4.047-1.76 5.515 5.515 0 01-1.489-3.775c0-1.408.529-2.748 1.488-3.776a5.518 5.518 0 013.638-1.745zm5.456 16.496a5.7 5.7 0 01-.015-.41c0-1.285.81-2.947 2.478-5.08a32.787 32.787 0 012.345-2.675l.001-.001a1.006 1.006 0 011.424 0 32.787 32.787 0 012.345 2.676c1.667 2.133 2.478 3.795 2.478 5.08a5.517 5.517 0 01-1.76 4.047 5.516 5.516 0 01-3.775 1.489 5.52 5.52 0 01-3.776-1.489 5.518 5.518 0 01-1.745-3.637zm16.497-5.456c-.14.01-.278.015-.41.015-1.285 0-2.947-.811-5.08-2.478a32.787 32.787 0 01-2.675-2.345v-.001a1.006 1.006 0 010-1.424 32.787 32.787 0 012.675-2.346c2.133-1.666 3.795-2.478 5.08-2.477a5.516 5.516 0 014.047 1.76 5.516 5.516 0 011.489 3.775 5.52 5.52 0 01-1.488 3.776 5.518 5.518 0 01-3.638 1.744z" fill="#e3889b"/><path d="M182.652 131.627a1.006 1.006 0 01-1.006 1.008h-.002c-.068 0-1.686-.005-3.55-.234-2.687-.33-4.435-.931-5.344-1.84a5.52 5.52 0 01-1.618-4.106 5.519 5.519 0 011.618-3.722 5.518 5.518 0 013.722-1.618 5.514 5.514 0 014.106 1.617c.91.91 1.511 2.658 1.84 5.345.229 1.864.234 3.482.234 3.55zm0 4.984c0 .069-.005 1.687-.233 3.55-.33 2.688-.932 4.436-1.84 5.345a5.516 5.516 0 01-4.106 1.618 5.517 5.517 0 01-3.723-1.618 5.519 5.519 0 01-1.617-3.722 5.518 5.518 0 011.617-4.107c.909-.908 2.657-1.51 5.344-1.84a32.845 32.845 0 013.55-.233h.002a1.006 1.006 0 011.006 1.007zm14.488 5.173a5.519 5.519 0 01-1.617 3.722 5.518 5.518 0 01-3.916 1.62 5.512 5.512 0 01-3.912-1.62c-.91-.909-1.51-2.657-1.84-5.344a32.845 32.845 0 01-.234-3.55 1.006 1.006 0 011.006-1.008h.002c.068 0 1.686.005 3.55.233 2.687.33 4.435.932 5.344 1.84a5.52 5.52 0 011.618 4.106zm-1.338-11.524a5.67 5.67 0 01-.28.302c-.908.908-2.656 1.51-5.343 1.84a32.845 32.845 0 01-3.55.233h-.002a1.006 1.006 0 01-1.006-1.008c0-.068.005-1.686.233-3.55.33-2.687.932-4.435 1.84-5.344a5.518 5.518 0 014.106-1.618 5.517 5.517 0 013.723 1.617 5.519 5.519 0 011.617 3.723 5.518 5.518 0 01-1.338 3.805z" fill="#f79caf"/><path d="M188.665 134.12a4.504 4.504 0 01-1.326 3.202 4.504 4.504 0 01-3.202 1.326 4.504 4.504 0 01-3.203-1.326 4.504 4.504 0 01-1.326-3.203c0-1.209.47-2.346 1.326-3.202a4.504 4.504 0 013.203-1.326c1.208 0 2.346.47 3.202 1.325a4.504 4.504 0 011.326 3.203z" fill="#f8e9d2"/></g><g fill-rule="nonzero"><path d="M17.4 56.85c.008.098.012.195.012.288 0 .9-.569 2.066-1.737 3.561a22.985 22.985 0 01-1.644 1.876h-.001a.706.706 0 01-.998 0 22.985 22.985 0 01-1.645-1.876c-1.168-1.495-1.737-2.66-1.736-3.561a3.867 3.867 0 011.233-2.837 3.866 3.866 0 012.647-1.044c.986 0 1.926.37 2.647 1.043a3.868 3.868 0 011.223 2.55zM5.836 60.676a4.07 4.07 0 01.288-.011c.9 0 2.065.568 3.56 1.737a22.985 22.985 0 011.877 1.645.706.706 0 010 .998c-.035.034-.84.833-1.876 1.644-1.496 1.169-2.66 1.737-3.562 1.737a3.867 3.867 0 01-2.837-1.233 3.866 3.866 0 01-1.043-2.647c0-.987.37-1.927 1.043-2.647a3.868 3.868 0 012.55-1.223zM9.661 72.24a3.996 3.996 0 01-.01-.287c0-.9.568-2.066 1.736-3.561a22.985 22.985 0 011.645-1.876.706.706 0 01.999 0c.034.034.833.839 1.644 1.876 1.168 1.495 1.737 2.66 1.736 3.561a3.867 3.867 0 01-1.233 2.837 3.867 3.867 0 01-2.646 1.044 3.87 3.87 0 01-2.648-1.044 3.868 3.868 0 01-1.223-2.55zm11.565-3.825a4.07 4.07 0 01-.288.011c-.9 0-2.065-.568-3.56-1.737a22.985 22.985 0 01-1.876-1.644.706.706 0 010-1c.034-.033.838-.833 1.875-1.643 1.496-1.169 2.66-1.737 3.562-1.737a3.867 3.867 0 012.837 1.233 3.867 3.867 0 011.043 2.647 3.87 3.87 0 01-1.043 2.647 3.868 3.868 0 01-2.55 1.223z" fill="#e3889b"/><path d="M12.49 62.798a.703.703 0 01-.705.707h-.001c-.048 0-1.182-.004-2.489-.164-1.883-.231-3.11-.653-3.746-1.29a3.87 3.87 0 01-1.134-2.879 3.869 3.869 0 011.134-2.609 3.868 3.868 0 012.61-1.134 3.866 3.866 0 012.878 1.134c.637.637 1.059 1.863 1.29 3.747.16 1.306.164 2.44.164 2.488zm0 3.494c0 .048-.003 1.183-.163 2.49-.231 1.883-.653 3.109-1.29 3.745a3.867 3.867 0 01-2.879 1.134 3.868 3.868 0 01-2.609-1.133 3.869 3.869 0 01-1.134-2.61 3.868 3.868 0 011.134-2.878c.637-.637 1.863-1.06 3.746-1.29a23.083 23.083 0 012.489-.164h.001a.706.706 0 01.706.706zm10.157 3.626a3.869 3.869 0 01-1.133 2.61 3.868 3.868 0 01-2.746 1.136 3.864 3.864 0 01-2.743-1.136c-.637-.637-1.059-1.863-1.29-3.747a23.025 23.025 0 01-.163-2.489.703.703 0 01.705-.706h.001c.048 0 1.182.004 2.489.164 1.884.23 3.11.653 3.746 1.29a3.87 3.87 0 011.134 2.879zm-.938-8.078c-.064.075-.13.146-.196.211-.637.637-1.862 1.059-3.746 1.29a23.07 23.07 0 01-2.489.164.706.706 0 01-.706-.707c0-.048.003-1.182.163-2.488.231-1.884.653-3.11 1.29-3.747a3.869 3.869 0 012.879-1.134 3.868 3.868 0 012.61 1.134 3.869 3.869 0 011.133 2.61c.034.98-.3 1.927-.938 2.667z" fill="#f79caf"/><path d="M16.706 64.545c0 .848-.33 1.645-.93 2.245-.6.6-1.397.93-2.245.93-.847 0-1.645-.33-2.245-.93-.6-.6-.93-1.397-.93-2.245 0-.847.33-1.644.93-2.245.6-.6 1.398-.93 2.245-.93.848 0 1.645.33 2.245.93.6.6.93 1.398.93 2.245z" fill="#f8e9d2"/></g><path d="M67.601 101.156h10.512c1.031 0 1.856.206 2.392.619.535.453.824 1.03.824 1.772 0 .66-.206 1.196-.66 1.65-.412.453-1.071.7-1.978.7h-14.8c-1.03 0-1.814-.288-2.35-.824-.577-.577-.866-1.237-.866-1.98 0-.494.206-1.112.536-1.937.371-.783.784-1.401 1.196-1.855a128.219 128.219 0 014.823-4.782c1.443-1.32 2.474-2.185 3.092-2.597 1.113-.783 2.02-1.567 2.762-2.35.7-.783 1.278-1.566 1.649-2.39a5.384 5.384 0 00.577-2.433c0-.866-.206-1.65-.618-2.309a4.02 4.02 0 00-1.65-1.566c-.7-.413-1.483-.577-2.308-.577-1.772 0-3.133.783-4.164 2.308-.123.206-.33.742-.66 1.65-.329.906-.659 1.607-1.071 2.06-.412.495-.99.742-1.731.742-.701 0-1.237-.206-1.69-.66-.413-.453-.66-1.071-.66-1.813 0-.948.206-1.896.618-2.886.412-1.03 1.03-1.937 1.855-2.762.825-.824 1.897-1.484 3.175-1.979 1.236-.494 2.72-.742 4.452-.742 2.061 0 3.793.33 5.235.948.949.454 1.773 1.031 2.474 1.773.742.742 1.278 1.608 1.69 2.597.371.99.577 2.02.577 3.092 0 1.65-.412 3.174-1.236 4.535-.825 1.36-1.69 2.432-2.515 3.215-.866.742-2.309 1.98-4.329 3.628-2.02 1.65-3.421 2.927-4.163 3.834-.33.371-.66.783-.99 1.32zm29.735 2.185V99.59h-10.1c-1.278 0-2.226-.289-2.886-.866-.618-.577-.948-1.36-.948-2.35 0-.247.041-.494.165-.783.082-.247.206-.536.412-.825.165-.288.371-.577.577-.824.207-.289.454-.618.742-.99L95.976 78.69c.7-.948 1.278-1.608 1.731-2.062.454-.412.99-.618 1.608-.618 2.02 0 3.05 1.154 3.05 3.504v15.583h.866c1.03 0 1.855.124 2.474.413.66.288.948.906.948 1.855 0 .783-.247 1.36-.742 1.69-.536.37-1.278.536-2.309.536h-1.236v3.751c0 1.03-.207 1.814-.66 2.309-.495.495-1.072.742-1.855.742-.742 0-1.36-.247-1.814-.783-.454-.495-.7-1.278-.7-2.268zm-8.657-8.245h8.657V83.388L88.68 95.096zm29.364-15.129l-5.648 23.21c-.165.783-.33 1.36-.495 1.813-.123.454-.33.784-.618 1.03-.289.248-.742.372-1.278.372-1.36 0-2.061-.577-2.061-1.773 0-.288.123-1.072.412-2.308l5.607-23.21c.288-1.237.577-2.061.865-2.515.248-.453.784-.7 1.567-.7.66 0 1.195.164 1.525.494.371.33.536.742.536 1.32 0 .412-.124 1.154-.412 2.267zm7.377-3.298h13.398c1.278 0 2.226.206 2.804.618.577.371.865 1.072.865 1.979 0 .577-.33 1.32-1.03 2.226-.66.948-1.443 1.938-2.309 3.092-.866 1.113-1.773 2.515-2.68 4.164-.906 1.649-1.772 3.71-2.514 6.1-.33 1.073-.577 1.938-.701 2.64-.124.7-.289 1.607-.454 2.72a25.584 25.584 0 01-.412 2.556c-.288 1.36-.66 2.309-1.195 2.845-.495.536-1.196.783-2.062.783-.824 0-1.484-.289-1.978-.866-.495-.536-.742-1.401-.742-2.515 0-.865.206-2.02.536-3.504.37-1.484.948-3.215 1.772-5.276a49.713 49.713 0 013.092-6.35 51.014 51.014 0 014.37-6.471h-10.76c-1.154 0-1.979-.207-2.556-.619-.536-.412-.824-1.072-.824-1.937 0-.907.288-1.526.907-1.773.577-.289 1.401-.412 2.473-.412z" fill="#414b82" fill-rule="nonzero"/><path d="M65.056 97.263h10.512c1.031 0 1.856.206 2.391.618.536.453.825 1.03.825 1.773 0 .66-.206 1.195-.66 1.649-.412.453-1.072.7-1.978.7h-14.8c-1.03 0-1.814-.288-2.35-.824-.577-.577-.866-1.237-.866-1.979 0-.495.206-1.113.536-1.937.371-.784.783-1.402 1.196-1.856a128.219 128.219 0 014.823-4.782c1.443-1.319 2.473-2.185 3.092-2.597 1.113-.783 2.02-1.566 2.762-2.35.7-.783 1.278-1.566 1.649-2.39a5.384 5.384 0 00.577-2.433c0-.866-.206-1.649-.618-2.309a4.02 4.02 0 00-1.65-1.566c-.7-.412-1.483-.577-2.308-.577-1.773 0-3.133.783-4.164 2.308-.123.206-.33.742-.66 1.65-.329.906-.659 1.607-1.071 2.06-.412.495-.99.743-1.732.743-.7 0-1.236-.207-1.69-.66-.412-.453-.66-1.072-.66-1.814 0-.948.207-1.896.619-2.886.412-1.03 1.03-1.937 1.855-2.762.825-.824 1.897-1.484 3.174-1.978 1.237-.495 2.721-.743 4.453-.743 2.061 0 3.792.33 5.235.949.949.453 1.773 1.03 2.474 1.772.742.742 1.278 1.608 1.69 2.597.371.99.577 2.02.577 3.092 0 1.65-.412 3.175-1.237 4.535-.824 1.36-1.69 2.432-2.514 3.216-.866.742-2.309 1.978-4.329 3.627-2.02 1.65-3.422 2.927-4.164 3.834-.33.371-.66.784-.989 1.32zm29.735 2.184v-3.751h-10.1c-1.278 0-2.226-.289-2.886-.866-.618-.577-.948-1.36-.948-2.35 0-.247.041-.494.165-.783.082-.247.206-.536.412-.824.165-.289.371-.577.577-.825.206-.288.454-.618.742-.99l10.678-14.263c.7-.948 1.278-1.608 1.731-2.061a2.31 2.31 0 011.608-.619c2.02 0 3.05 1.155 3.05 3.504v15.583h.866c1.03 0 1.855.124 2.474.413.66.288.948.907.948 1.855 0 .783-.247 1.36-.742 1.69-.536.371-1.278.536-2.309.536H99.82v3.751c0 1.031-.206 1.814-.66 2.31-.494.494-1.071.741-1.854.741-.742 0-1.36-.247-1.814-.783-.454-.495-.701-1.278-.701-2.268zm-8.657-8.245h8.657V79.495l-8.657 11.707zm29.364-15.129l-5.648 23.21c-.165.783-.33 1.36-.495 1.813-.123.454-.33.784-.618 1.031-.289.247-.742.371-1.278.371-1.36 0-2.061-.577-2.061-1.773 0-.288.123-1.071.412-2.308l5.606-23.21c.29-1.237.578-2.061.866-2.515.248-.453.783-.7 1.567-.7.66 0 1.195.165 1.525.494.371.33.536.742.536 1.32 0 .412-.124 1.154-.412 2.267zm7.377-3.298h13.398c1.278 0 2.226.206 2.804.618.577.371.865 1.072.865 1.98 0 .576-.33 1.318-1.03 2.225-.66.948-1.443 1.938-2.309 3.092-.866 1.113-1.773 2.515-2.68 4.164-.907 1.649-1.772 3.71-2.514 6.101-.33 1.072-.577 1.938-.701 2.639-.124.7-.289 1.607-.454 2.72a25.584 25.584 0 01-.412 2.556c-.288 1.36-.66 2.309-1.195 2.845-.495.536-1.196.783-2.062.783-.824 0-1.484-.288-1.978-.866-.495-.536-.743-1.401-.743-2.514 0-.866.207-2.02.536-3.504.371-1.485.949-3.216 1.773-5.277a49.713 49.713 0 013.092-6.349 51.014 51.014 0 014.37-6.472h-10.76c-1.154 0-1.979-.206-2.556-.619-.536-.412-.824-1.071-.824-1.937 0-.907.288-1.525.907-1.773.577-.288 1.401-.412 2.473-.412z" fill="#fff" fill-rule="nonzero"/></svg>