<svg viewBox="0 0 201 202" xmlns="http://www.w3.org/2000/svg" fill-rule="evenodd" clip-rule="evenodd" stroke-linejoin="round" stroke-miterlimit="2"><path d="M27.694 50.286l.006.131a6.238 6.238 0 1012.233-2.052l-.035-.126-12.204 2.047zm15.409-20.24c1.207 7.191-3.645 13.999-10.838 15.205-7.19 1.207-13.998-3.644-15.205-10.836-1.206-7.19 3.645-13.998 10.836-15.205 7.193-1.206 14 3.645 15.207 10.836z" fill="#ffb69e" fill-rule="nonzero"/><path d="M63.607 175.875a7.644 7.644 0 01-8.805-6.274l-10.11-60.263a7.644 7.644 0 016.274-8.804c4.164-.698 8.126 2.107 8.824 6.271l10.11 60.262c.7 4.165-2.13 8.11-6.293 8.808zm-18.05 2.984a7.644 7.644 0 01-8.804-6.275l-10.11-60.262a7.644 7.644 0 016.274-8.804c4.164-.699 8.125 2.107 8.824 6.27l10.11 60.263c.7 4.164-2.13 8.11-6.294 8.808z" fill="#67b9ef" fill-rule="nonzero"/><path d="M57.248 75.274l5.345 31.855a6.37 6.37 0 1012.566-2.108l-5.345-31.855-6.59-.802-5.976 2.91zM7.847 78.189L.541 109.653a6.37 6.37 0 1012.411 2.882l6.562-31.07-5.032-3.666-6.635.39z" fill="#ffb69e" fill-rule="nonzero"/><path d="M49.827 46.573l-9.929 1.666.002.011c.702 3.272-1.887 6.593-5.078 7.128-3.421.574-6.423-1.798-7.126-5.08l-.002-.012-6.14 1.03-3.381 12.318 8.184 48.78 33.433-5.609-7.993-47.643c1.315-.22 2.841.64 3.055 1.83l2.396 14.282 12.564-2.108-2.405-14.333c-1.408-8.15-9.295-13.65-17.58-12.26z" fill="#f79320" fill-rule="nonzero"/><path d="M17.151 51.998l9.929-1.666.002.012c.405 3.322 3.935 5.616 7.126 5.08 3.421-.574 5.485-3.796 5.078-7.127l-.002-.012 6.14-1.03 7.216 10.54 8.184 48.78-33.433 5.609-7.993-47.643c-1.316.22-2.478 1.532-2.29 2.728l2.395 14.28L6.94 83.658 4.535 69.325c-1.33-8.163 4.33-15.937 12.616-17.327z" fill="#f79320" fill-rule="nonzero"/><circle cx="5690.14" cy="20498.7" r="124.992" fill="#f6eb14" transform="matrix(.50109 0 0 .5011 -2728.927 -10181.8)"/><path d="M70.504 79.851l-.1.582c-.562 3.275 1.962 6.269 5.286 6.269H76c3.574 0 6.148-3.432 5.147-6.865l-10.643.014zm59.304-23.409a5.947 5.947 0 00-8.314-1.26l-23.142 17.41 2.202 5.101 4.749 4.167s18.004-13.289 23.244-17.101a5.947 5.947 0 001.261-8.317z" fill="#ffb69e" fill-rule="nonzero"/><path d="M47.88 104.555l-9.737 26.927a5.948 5.948 0 0011.171 4.084c.063-.168 9.407-26.001 9.407-26.001l-4.057-7.304-6.785 2.294z" fill="#ffa587" fill-rule="nonzero"/><path d="M67.607 201.476a7.137 7.137 0 01-7.138-7.137v-57.047a7.138 7.138 0 0114.274 0v57.047a7.136 7.136 0 01-7.136 7.137zm20.163 0a7.137 7.137 0 01-7.138-7.137v-57.047a7.138 7.138 0 0114.275 0v57.047a7.136 7.136 0 01-7.137 7.137zM81.044 52.45c6.289 2.608 9.275 9.82 6.669 16.11-2.609 6.292-9.821 9.276-16.112 6.67-6.29-2.607-9.275-9.821-6.668-16.111 2.606-6.29 9.82-9.276 16.11-6.67z" fill="#ffb69e" fill-rule="nonzero"/><path d="M91.917 91.773s5.956-4.418 13.386-9.913l-6.95-9.267-9.98 7.507h-6.95l.002.014c.129 2.875-2.539 5.323-5.323 5.323-2.983 0-5.193-2.44-5.321-5.323V80.1h-4.8c-6.367 0-10.993 4.07-13.753 12.1-1.153 3.357-4.349 12.355-4.349 12.355l10.842 5.01-6.125 37.855a3.31 3.31 0 003.255 3.873h40.865a3.306 3.306 0 003.255-3.873l-8.054-55.647z" fill="#09e0c1" fill-rule="nonzero"/><g fill-rule="nonzero"><path d="M150.49 35.793l-.016.13a6.238 6.238 0 1012.404 0l-.014-.13H150.49zm18.545-17.412c0 7.292-5.91 13.203-13.204 13.203-7.292 0-13.203-5.91-13.203-13.203 0-7.291 5.911-13.202 13.203-13.202 7.293 0 13.204 5.91 13.204 13.202z" fill="#ffb69e"/><path d="M165.127 165.593a7.644 7.644 0 01-7.645-7.645V96.843a7.644 7.644 0 017.645-7.644c4.222 0 7.664 3.422 7.664 7.644v61.105c0 4.223-3.442 7.645-7.664 7.645zm-18.302 0a7.644 7.644 0 01-7.645-7.645V96.843a7.644 7.644 0 017.645-7.644c4.222 0 7.665 3.422 7.665 7.644v61.105c0 4.223-3.443 7.645-7.665 7.645z" fill="#414b82"/><path d="M129.904 30.451L124.27 28.2l-8.12-23.005a6.372 6.372 0 00-12.016 4.241l9.105 25.79a6.373 6.373 0 003.746 3.835l8.421 3.199 4.103-6.059.395-5.749zm45.597 34.875v32.301a6.37 6.37 0 1012.741 0v-32.3l-6.366-1.881-6.375 1.88z" fill="#ffb69e"/><path d="M172.932 35.793h-10.068v.012c.15 3.343-2.951 6.19-6.187 6.19-3.47 0-6.038-2.837-6.188-6.19v-.012h-6.225l-14.36-5.342-4.498 11.808 13.485 5.123v49.461h33.9V48.535c1.334 0 2.697 1.1 2.71 2.31v14.481h12.74V50.793c-.04-8.27-6.908-15-15.31-15z" fill="#64afff"/></g><g fill-rule="nonzero"><path d="M75.4 24.57c.005.085.009.168.009.247 0 .771-.487 1.77-1.488 3.05a19.684 19.684 0 01-1.408 1.606.604.604 0 01-.855 0c-.03-.03-.714-.718-1.408-1.606-1.001-1.28-1.488-2.279-1.488-3.05a3.312 3.312 0 011.056-2.43 3.31 3.31 0 012.267-.893c.845 0 1.65.317 2.267.893a3.313 3.313 0 011.047 2.184zm-9.904 3.277c.083-.006.166-.01.246-.01.771 0 1.769.487 3.05 1.488a19.684 19.684 0 011.606 1.409.604.604 0 010 .855c-.03.029-.718.713-1.607 1.408-1.28 1-2.278 1.487-3.05 1.487a3.312 3.312 0 01-2.43-1.056 3.31 3.31 0 01-.893-2.267c0-.845.318-1.65.894-2.267a3.313 3.313 0 012.184-1.047zm3.275 9.903a3.422 3.422 0 01-.009-.246c0-.771.487-1.769 1.488-3.05a19.684 19.684 0 011.408-1.606.604.604 0 01.855 0c.03.03.714.718 1.408 1.607 1 1.28 1.488 2.278 1.487 3.05a3.312 3.312 0 01-1.056 2.43 3.311 3.311 0 01-2.266.893c-.845 0-1.65-.318-2.267-.894a3.313 3.313 0 01-1.048-2.183zm9.904-3.275a3.475 3.475 0 01-.246.009c-.771 0-1.77-.487-3.05-1.487a19.684 19.684 0 01-1.606-1.408v-.001a.604.604 0 010-.855c.03-.03.718-.714 1.606-1.408 1.28-1 2.279-1.488 3.05-1.487a3.312 3.312 0 012.43 1.056 3.31 3.31 0 01.893 2.266 3.31 3.31 0 01-.893 2.267 3.313 3.313 0 01-2.184 1.048z" fill="#e3889b"/><path d="M71.194 29.665a.602.602 0 01-.604.605c-.042 0-1.013-.004-2.132-.14-1.613-.198-2.663-.56-3.208-1.105a3.314 3.314 0 01-.971-2.465 3.313 3.313 0 01.97-2.235 3.313 3.313 0 012.235-.971 3.31 3.31 0 012.465.97c.546.546.907 1.596 1.105 3.21.137 1.118.14 2.09.14 2.13zm0 2.992c0 .041-.003 1.012-.14 2.131-.198 1.613-.56 2.663-1.105 3.208a3.311 3.311 0 01-2.465.971 3.312 3.312 0 01-2.234-.97 3.313 3.313 0 01-.972-2.235 3.313 3.313 0 01.972-2.465c.545-.546 1.595-.907 3.208-1.105 1.119-.137 2.09-.14 2.131-.14h.001a.604.604 0 01.604.605zm8.698 3.105a3.313 3.313 0 01-.97 2.234 3.313 3.313 0 01-2.352.974 3.31 3.31 0 01-2.348-.973c-.546-.546-.907-1.596-1.105-3.209a19.719 19.719 0 01-.14-2.131.602.602 0 01.604-.605c.042 0 1.013.003 2.132.14 1.613.198 2.663.56 3.208 1.105a3.314 3.314 0 01.971 2.465zm-.803-6.918a3.404 3.404 0 01-.168.18c-.545.546-1.595.908-3.208 1.105-1.119.137-2.09.14-2.131.14h-.001a.604.604 0 01-.604-.604c0-.041.003-1.013.14-2.132.198-1.613.559-2.663 1.105-3.208a3.313 3.313 0 012.465-.971 3.318 3.318 0 013.205 3.205 3.311 3.311 0 01-.803 2.285z" fill="#f79caf"/><path d="M74.804 31.16c0 .726-.283 1.41-.796 1.923a2.704 2.704 0 01-1.923.797 2.704 2.704 0 01-1.922-.796 2.704 2.704 0 01-.796-1.923c0-.726.282-1.409.795-1.923a2.704 2.704 0 011.923-.796c.726 0 1.409.283 1.923.796.513.514.796 1.197.796 1.923z" fill="#f8e9d2"/></g><g fill-rule="nonzero"><path d="M123.545 160.698c.011.152.017.302.017.445 0 1.393-.879 3.196-2.687 5.509a35.553 35.553 0 01-2.543 2.9v.001a1.091 1.091 0 01-1.545 0 35.553 35.553 0 01-2.543-2.901c-1.808-2.313-2.687-4.116-2.687-5.51a5.982 5.982 0 011.908-4.389 5.98 5.98 0 014.094-1.613c1.526 0 2.98.574 4.095 1.614a5.984 5.984 0 011.891 3.944zm-17.888 5.917a6.81 6.81 0 01.445-.016c1.393 0 3.195.879 5.508 2.686a35.553 35.553 0 012.902 2.545 1.091 1.091 0 010 1.544 35.553 35.553 0 01-2.902 2.543c-2.313 1.808-4.115 2.687-5.509 2.686a5.982 5.982 0 01-4.389-1.908 5.98 5.98 0 01-1.613-4.093c0-1.527.573-2.98 1.614-4.095a5.983 5.983 0 013.944-1.892zm5.917 17.889a6.182 6.182 0 01-.017-.445c0-1.393.88-3.195 2.687-5.508a35.553 35.553 0 012.543-2.901l.001-.001a1.091 1.091 0 011.544 0c.053.053 1.29 1.298 2.543 2.902 1.808 2.313 2.688 4.115 2.687 5.509a5.982 5.982 0 01-1.908 4.389 5.981 5.981 0 01-4.094 1.613 5.986 5.986 0 01-4.095-1.614 5.983 5.983 0 01-1.891-3.944zm17.888-5.917a6.13 6.13 0 01-.445.017c-1.393 0-3.195-.88-5.508-2.687a35.553 35.553 0 01-2.901-2.543v-.001a1.091 1.091 0 010-1.544 35.553 35.553 0 012.901-2.544c2.313-1.807 4.115-2.687 5.509-2.686a5.982 5.982 0 014.389 1.908 5.981 5.981 0 011.614 4.093 5.987 5.987 0 01-1.614 4.095 5.983 5.983 0 01-3.945 1.892z" fill="#e3889b"/><path d="M115.95 169.899a1.091 1.091 0 01-1.091 1.093h-.002a35.61 35.61 0 01-3.85-.254c-2.913-.357-4.81-1.01-5.794-1.995a5.986 5.986 0 01-1.754-4.453 5.984 5.984 0 011.753-4.036 5.983 5.983 0 014.037-1.754 5.98 5.98 0 014.452 1.754c.986.985 1.638 2.881 1.996 5.795.247 2.021.253 3.776.253 3.85zm0 5.405c0 .074-.006 1.828-.253 3.85-.358 2.913-1.01 4.809-1.996 5.794a5.981 5.981 0 01-4.453 1.754 5.983 5.983 0 01-4.035-1.753 5.985 5.985 0 01-1.754-4.037 5.983 5.983 0 011.754-4.453c.985-.985 2.88-1.638 5.795-1.995a35.616 35.616 0 013.85-.253 1.091 1.091 0 011.092 1.093zm15.71 5.608a5.984 5.984 0 01-1.753 4.036 5.983 5.983 0 01-4.246 1.758 5.977 5.977 0 01-4.243-1.757c-.985-.986-1.638-2.882-1.995-5.796a35.617 35.617 0 01-.254-3.85 1.091 1.091 0 011.091-1.093h.002c.074 0 1.829.006 3.85.254 2.913.357 4.81 1.01 5.795 1.996a5.986 5.986 0 011.754 4.453zm-1.45-12.495c-.1.115-.202.225-.303.326-.986.985-2.882 1.638-5.795 1.995a35.616 35.616 0 01-3.85.254h-.001a1.091 1.091 0 01-1.092-1.093c0-.074.006-1.829.254-3.85.357-2.914 1.01-4.81 1.995-5.795a5.984 5.984 0 014.453-1.754 5.983 5.983 0 014.036 1.754 5.985 5.985 0 011.754 4.036 5.983 5.983 0 01-1.452 4.127z" fill="#f79caf"/><path d="M122.47 172.601c0 1.311-.51 2.544-1.437 3.473a4.884 4.884 0 01-3.473 1.438 4.88 4.88 0 01-3.473-1.438 4.884 4.884 0 01-1.438-3.473c0-1.31.51-2.544 1.437-3.472a4.884 4.884 0 013.474-1.439c1.31 0 2.544.511 3.472 1.438a4.884 4.884 0 011.439 3.473z" fill="#f8e9d2"/></g><g fill-rule="nonzero"><path d="M46.226 163.128c.009.12.013.237.013.351 0 1.1-.694 2.523-2.122 4.35a28.078 28.078 0 01-2.008 2.291.862.862 0 01-1.22 0 28.078 28.078 0 01-2.009-2.29c-1.427-1.828-2.122-3.25-2.122-4.351a4.724 4.724 0 011.507-3.466 4.723 4.723 0 013.233-1.275c1.206 0 2.354.453 3.234 1.275a4.726 4.726 0 011.494 3.115zM32.098 167.8c.12-.008.238-.013.352-.013 1.1 0 2.523.695 4.35 2.122a28.078 28.078 0 012.292 2.01.862.862 0 010 1.219 28.078 28.078 0 01-2.292 2.009c-1.827 1.427-3.25 2.122-4.35 2.121a4.724 4.724 0 01-3.466-1.507 4.723 4.723 0 01-1.275-3.233c0-1.205.453-2.353 1.274-3.234a4.725 4.725 0 013.115-1.493zm4.673 14.128a4.882 4.882 0 01-.013-.351c0-1.1.695-2.524 2.122-4.35a28.078 28.078 0 012.009-2.292.862.862 0 011.22 0 28.078 28.078 0 012.008 2.292c1.428 1.826 2.123 3.25 2.122 4.35a4.724 4.724 0 01-1.507 3.466 4.724 4.724 0 01-3.233 1.275 4.727 4.727 0 01-3.234-1.275 4.725 4.725 0 01-1.494-3.115zm14.128-4.673a4.84 4.84 0 01-.352.013c-1.1 0-2.523-.694-4.35-2.121a28.078 28.078 0 01-2.29-2.009h-.001a.862.862 0 010-1.22 28.078 28.078 0 012.291-2.009c1.827-1.427 3.25-2.122 4.351-2.121a4.724 4.724 0 013.466 1.507 4.724 4.724 0 011.275 3.232 4.728 4.728 0 01-1.275 3.234 4.725 4.725 0 01-3.115 1.494z" fill="#e3889b"/><path d="M40.228 170.394a.862.862 0 01-.862.863h-.001c-.06 0-1.445-.005-3.04-.2-2.302-.283-3.8-.798-4.577-1.576a4.728 4.728 0 01-1.385-3.516 4.726 4.726 0 011.384-3.188 4.725 4.725 0 013.188-1.386 4.722 4.722 0 013.517 1.385c.778.779 1.293 2.276 1.576 4.577.195 1.596.2 2.982.2 3.04zm0 4.268c0 .059-.005 1.444-.2 3.04-.283 2.302-.798 3.799-1.576 4.577a4.723 4.723 0 01-3.516 1.385 4.725 4.725 0 01-3.188-1.385 4.726 4.726 0 01-1.386-3.188 4.725 4.725 0 011.386-3.516c.778-.778 2.275-1.294 4.576-1.576 1.596-.195 2.982-.2 3.04-.2h.002a.862.862 0 01.862.863zm12.407 4.429a4.726 4.726 0 01-1.385 3.188 4.725 4.725 0 01-3.354 1.388 4.72 4.72 0 01-3.35-1.388c-.778-.778-1.294-2.275-1.576-4.577a28.128 28.128 0 01-.2-3.04.862.862 0 01.862-.863c.06 0 1.445.005 3.041.2 2.301.282 3.799.798 4.577 1.576a4.728 4.728 0 011.385 3.516zm-1.146-9.868c-.079.091-.16.178-.24.258-.777.778-2.275 1.293-4.576 1.576-1.596.195-2.981.2-3.04.2h-.001a.862.862 0 01-.862-.863c0-.059.004-1.445.2-3.04.282-2.302.798-3.8 1.576-4.577a4.726 4.726 0 013.516-1.385 4.725 4.725 0 013.188 1.384 4.726 4.726 0 011.385 3.188 4.725 4.725 0 01-1.146 3.26z" fill="#f79caf"/><path d="M45.377 172.528c0 1.035-.403 2.01-1.135 2.742a3.857 3.857 0 01-2.743 1.136 3.857 3.857 0 01-2.743-1.135 3.857 3.857 0 01-1.136-2.743c0-1.035.404-2.01 1.136-2.743a3.857 3.857 0 012.743-1.136c1.035 0 2.01.404 2.742 1.136a3.857 3.857 0 011.136 2.743z" fill="#f8e9d2"/></g><g fill-rule="nonzero"><path d="M122.287 96.436c.008.12.013.238.013.351 0 1.1-.694 2.524-2.122 4.35a28.078 28.078 0 01-2.008 2.292h-.001a.862.862 0 01-1.22 0 28.078 28.078 0 01-2.008-2.292c-1.428-1.826-2.122-3.25-2.122-4.35a4.724 4.724 0 011.507-3.466 4.723 4.723 0 013.233-1.275c1.205 0 2.353.453 3.234 1.275a4.726 4.726 0 011.494 3.115zm-14.127 4.673c.119-.009.237-.013.35-.013 1.1 0 2.524.694 4.35 2.121a28.078 28.078 0 012.293 2.01.862.862 0 01-.001 1.22 28.078 28.078 0 01-2.291 2.008c-1.827 1.427-3.25 2.122-4.35 2.121a4.724 4.724 0 01-3.466-1.507 4.723 4.723 0 01-1.275-3.232 4.72 4.72 0 011.274-3.234 4.725 4.725 0 013.115-1.494zm4.672 14.128a4.882 4.882 0 01-.013-.352c0-1.1.694-2.523 2.122-4.35a28.078 28.078 0 012.008-2.291h.001a.862.862 0 011.22 0 28.078 28.078 0 012.008 2.291c1.428 1.827 2.122 3.25 2.122 4.35a4.724 4.724 0 01-1.507 3.466 4.724 4.724 0 01-3.233 1.275 4.727 4.727 0 01-3.234-1.274 4.725 4.725 0 01-1.494-3.115zm14.128-4.673a4.84 4.84 0 01-.352.013c-1.1 0-2.523-.695-4.35-2.122a28.078 28.078 0 01-2.291-2.009.862.862 0 010-1.22 28.078 28.078 0 012.291-2.009c1.827-1.427 3.25-2.122 4.35-2.121a4.724 4.724 0 013.466 1.507 4.724 4.724 0 011.275 3.233 4.728 4.728 0 01-1.274 3.234 4.725 4.725 0 01-3.115 1.494z" fill="#e3889b"/><path d="M116.288 103.702a.862.862 0 01-.862.863c-.06 0-1.445-.004-3.041-.2-2.301-.282-3.799-.798-4.577-1.576a4.728 4.728 0 01-1.385-3.516 4.726 4.726 0 011.385-3.188 4.725 4.725 0 013.188-1.385 4.722 4.722 0 013.516 1.385c.779.778 1.294 2.276 1.576 4.577.196 1.596.2 2.981.2 3.04zm0 4.268c0 .059-.004 1.445-.2 3.04-.282 2.302-.797 3.8-1.576 4.577a4.723 4.723 0 01-3.516 1.385 4.725 4.725 0 01-3.188-1.384 4.726 4.726 0 01-1.385-3.188 4.725 4.725 0 011.385-3.517c.778-.778 2.276-1.293 4.577-1.576 1.596-.195 2.982-.2 3.04-.2h.001a.862.862 0 01.862.863zm12.408 4.43a4.726 4.726 0 01-1.385 3.187 4.725 4.725 0 01-3.354 1.388 4.72 4.72 0 01-3.35-1.387c-.779-.779-1.294-2.276-1.576-4.577a28.128 28.128 0 01-.2-3.04.862.862 0 01.862-.863c.06 0 1.445.004 3.041.2 2.301.282 3.798.797 4.576 1.575a4.728 4.728 0 011.385 3.516zm-1.146-9.868c-.08.09-.16.177-.24.257-.778.778-2.275 1.294-4.576 1.576-1.596.196-2.982.2-3.04.2h-.002a.862.862 0 01-.861-.863c0-.059.004-1.444.2-3.04.282-2.301.797-3.799 1.576-4.577a4.726 4.726 0 013.516-1.385 4.725 4.725 0 013.187 1.385 4.726 4.726 0 011.386 3.188 4.725 4.725 0 01-1.147 3.259z" fill="#f79caf"/><path d="M121.438 105.836c0 1.035-.404 2.01-1.136 2.743a3.857 3.857 0 01-2.743 1.136 3.857 3.857 0 01-2.742-1.136 3.857 3.857 0 01-1.136-2.743c0-1.035.403-2.01 1.135-2.742a3.857 3.857 0 012.743-1.136c1.036 0 2.01.403 2.743 1.135a3.857 3.857 0 011.136 2.743z" fill="#f8e9d2"/></g><g fill-rule="nonzero"><path d="M192.353 119.38c.008.104.012.207.012.306 0 .956-.604 2.194-1.845 3.782a24.411 24.411 0 01-1.746 1.992.75.75 0 01-1.061 0c-.036-.036-.885-.89-1.746-1.992-1.241-1.588-1.845-2.826-1.845-3.783a4.107 4.107 0 011.31-3.013 4.106 4.106 0 012.81-1.108c1.049 0 2.047.394 2.813 1.108a4.109 4.109 0 011.298 2.708zm-12.283 4.063a4.05 4.05 0 01.306-.012c.957 0 2.194.604 3.782 1.845a24.411 24.411 0 011.993 1.747.75.75 0 010 1.06c-.037.036-.891.886-1.993 1.747-1.588 1.24-2.825 1.845-3.782 1.844a4.107 4.107 0 01-3.013-1.31 4.106 4.106 0 01-1.108-2.81c0-1.049.393-2.047 1.108-2.812a4.108 4.108 0 012.708-1.3zm4.063 12.282a4.244 4.244 0 01-.011-.305c0-.957.604-2.194 1.845-3.782a24.411 24.411 0 011.746-1.992.75.75 0 011.06 0c.037.036.886.89 1.747 1.992 1.241 1.588 1.845 2.825 1.845 3.782a4.107 4.107 0 01-1.31 3.013 4.107 4.107 0 01-2.811 1.109 4.11 4.11 0 01-2.812-1.108 4.108 4.108 0 01-1.299-2.709zm12.283-4.062a4.209 4.209 0 01-.306.011c-.956 0-2.193-.603-3.782-1.844a24.411 24.411 0 01-1.992-1.747.75.75 0 010-1.06c.037-.037.89-.886 1.992-1.747 1.589-1.24 2.826-1.845 3.783-1.844a4.107 4.107 0 013.013 1.31 4.107 4.107 0 011.108 2.81 4.11 4.11 0 01-1.108 2.812 4.108 4.108 0 01-2.708 1.299z" fill="#e3889b"/><path d="M187.138 125.697a.746.746 0 01-.75.75c-.051 0-1.256-.003-2.643-.173-2.001-.246-3.303-.694-3.98-1.37a4.11 4.11 0 01-1.204-3.057 4.109 4.109 0 011.204-2.772 4.108 4.108 0 012.772-1.204 4.106 4.106 0 013.057 1.204c.677.677 1.125 1.978 1.37 3.98.17 1.387.174 2.591.174 2.642zm0 3.711c0 .051-.004 1.256-.174 2.644-.245 2-.693 3.302-1.37 3.978a4.107 4.107 0 01-3.057 1.204 4.108 4.108 0 01-2.771-1.203 4.11 4.11 0 01-1.205-2.772 4.108 4.108 0 011.205-3.057c.676-.677 1.978-1.125 3.979-1.37a24.454 24.454 0 012.643-.174.75.75 0 01.75.75zm10.787 3.852a4.109 4.109 0 01-1.204 2.77 4.108 4.108 0 01-2.915 1.207 4.104 4.104 0 01-2.913-1.206c-.677-.677-1.125-1.979-1.37-3.98a24.455 24.455 0 01-.174-2.643.746.746 0 01.749-.75c.052 0 1.257.004 2.644.174 2 .245 3.303.693 3.979 1.37a4.11 4.11 0 011.204 3.057zm-.996-8.58a4.543 4.543 0 01-.208.224c-.676.676-1.978 1.124-3.979 1.37-1.387.17-2.592.174-2.643.174h-.001a.75.75 0 01-.75-.75c0-.052.004-1.256.174-2.644.246-2 .694-3.302 1.37-3.979a4.109 4.109 0 013.057-1.204 4.108 4.108 0 012.772 1.204 4.11 4.11 0 011.204 2.771 4.108 4.108 0 01-.996 2.834z" fill="#f79caf"/><path d="M191.615 127.553c0 .9-.35 1.747-.987 2.384a3.354 3.354 0 01-2.385.988c-.9 0-1.747-.351-2.384-.987a3.353 3.353 0 01-.987-2.385c0-.9.35-1.747.987-2.384a3.354 3.354 0 012.384-.988c.9 0 1.747.35 2.385.987.637.638.987 1.485.987 2.385z" fill="#f8e9d2"/></g></svg>