<svg viewBox="0 0 201 197" xmlns="http://www.w3.org/2000/svg" fill-rule="evenodd" clip-rule="evenodd" stroke-linejoin="round" stroke-miterlimit="2"><g fill-rule="nonzero"><path d="M4.551 100.596c0-52.849 42.843-95.694 95.694-95.694 52.821 0 95.834 43.131 95.694 95.954-.11 40.746-25.681 75.502-61.644 89.199-1.46.557-3.07.59-4.558.11a95.61 95.61 0 00-29.492-4.632 95.636 95.636 0 00-29.434 4.611 7.034 7.034 0 01-4.675-.112c-36.007-13.741-61.585-48.601-61.585-89.436z" fill="#f6eb14"/><path d="M149.774 147.985c.825-3.771 7.753-8.017 11.95-9.118 3.627-.952 6.14 1.38 6.807 4.195.801 2.783-.243 6.046-3.87 6.998-4.196 1.103-12.317.804-14.887-2.075z" fill="#89e9d9"/><path d="M49.658 91.169L6.342 68.383 85.714 5.655a23.437 23.437 0 0129.062 0l79.372 62.728-43.316 22.786a108.655 108.655 0 01-101.174 0z" fill="#a62b2b"/><path d="M8.067 16.23c7.958 1.521 23.05 12.004 38.082 27.035C61.18 58.297 71.663 73.39 73.185 81.347c-7.958-1.521-23.051-12.004-38.082-27.035C20.07 39.28 9.588 24.187 8.067 16.229zm108.192 17.54C104.03 51.158 96.29 67.825 96.156 75.926c7.58-2.862 20.65-15.778 32.883-33.165 12.23-17.387 19.969-34.054 20.103-42.155-7.58 2.864-20.653 15.778-32.883 33.165zm39.838 32.94c-18.647 10.21-32.944 21.755-36.638 28.966 8.066.773 25.494-5.053 44.14-15.261 18.647-10.21 32.944-21.755 36.636-28.965-8.064-.773-25.494 5.051-44.138 15.26z" fill="#008a80"/><path d="M187.737 39.665c-.967 8.043-10.375 23.827-24.329 39.866-13.951 16.039-28.28 27.542-36.114 29.613.966-8.045 10.374-23.83 24.327-39.868 13.954-16.037 28.283-27.542 36.116-29.611zm-83.5 3.023c-5.886 20.426-7.761 38.706-5.245 46.406 6.23-5.18 14.37-21.653 20.258-42.082 5.885-20.426 7.76-38.706 5.244-46.406-6.229 5.179-14.37 21.655-20.258 42.082zm-71.9 25.847c16.98 12.79 33.386 21.066 41.478 21.462-2.615-7.667-15.1-21.153-32.08-33.94C24.754 43.267 8.346 34.992.254 34.595c2.616 7.667 15.1 21.153 32.081 33.94z" fill="#006e66"/><path d="M110.34 57.371c-5.058-5.057-3.636-11.437.361-15.245 3.809-3.997 10.188-5.42 15.246-.362 5.852 5.853 13.176 19.51 10.905 26.513-7.001 2.27-20.66-5.053-26.513-10.906zm26.512 12.71c-7-2.27-20.66 5.054-26.513 10.907-5.057 5.057-3.635 11.437.362 15.244 3.811 3.998 10.188 5.422 15.246.364 5.852-5.852 13.178-19.512 10.905-26.515zm1.805 0c-2.27 7.003 5.055 20.663 10.906 26.515 5.057 5.058 11.437 3.634 15.247-.364 3.997-3.807 5.42-10.187.362-15.244-5.852-5.853-19.513-13.177-26.515-10.907zm10.906-28.317c-5.85 5.853-13.177 19.51-10.906 26.513 7.002 2.27 20.663-5.053 26.515-10.906 5.057-5.057 3.635-11.437-.362-15.245-3.81-3.997-10.19-5.42-15.247-.362z" fill="#d73131"/><path d="M116.658 90.276c3.17 3.326 8.119 4.87 12.603 2.382-1.11 1.518-2.236 2.86-3.314 3.938-5.058 5.058-11.437 3.634-15.246-.364-3.997-3.807-5.419-10.187-.362-15.244 1.078-1.079 2.421-2.206 3.939-3.315-2.488 4.486-.946 9.434 2.38 12.603zm26.348-20.552c-.506 3.136-1.826 6.66-3.53 10.012 2.075 6.3 6.376 13.15 10.087 16.86 5.057 5.058 11.437 3.634 15.247-.361a12.192 12.192 0 002.529-3.428c-3.613 1.77-8.079 1.574-11.82-2.167-4.49-4.49-9.844-13.575-11.07-20.723-.49-.084-.97-.149-1.443-.193zm-28.877-30.127a12.095 12.095 0 00-3.428 2.53c-3.997 3.807-5.419 10.187-.362 15.244 3.711 3.71 10.558 8.013 16.859 10.086 3.352-1.702 6.876-3.022 10.012-3.53-.042-.47-.108-.951-.19-1.442-7.15-1.224-16.235-6.58-20.724-11.07-3.741-3.741-3.936-8.207-2.167-11.818z" fill="#c92222"/><path d="M137.756 67.903c-6.557-3.345-11.036-18.183-11.036-26.46 0-7.15 5.515-10.656 11.036-10.524 5.519-.132 11.036 3.373 11.036 10.523 0 8.278-4.48 23.116-11.036 26.46zM126.72 96.916c0 7.15 5.515 10.658 11.036 10.524 5.519.132 11.036-3.373 11.036-10.524 0-8.278-4.48-23.116-11.036-26.46-6.557 3.344-11.036 18.182-11.036 26.46zm12.31-27.736c3.344 6.557 18.185 11.036 26.46 11.036 7.153 0 10.658-5.517 10.524-11.036.134-5.52-3.37-11.036-10.524-11.036-8.275 0-23.116 4.48-26.46 11.036zm-39.536 0c-.133 5.52 3.372 11.036 10.523 11.036 8.277 0 23.116-4.479 26.462-11.036-3.346-6.556-18.185-11.036-26.462-11.036-7.15 0-10.656 5.515-10.523 11.036z" fill="#fd4343"/><path d="M132.255 63.68a7.777 7.777 0 0111.002 0 7.78 7.78 0 010 11 7.78 7.78 0 01-11.002 0 7.777 7.777 0 010-11z" fill="#fd73c4"/><path d="M68.913 11.133C68.913 3.98 74.428.476 79.949.61c5.519-.134 11.036 3.37 11.036 10.523 0 8.278-4.48 23.116-11.036 26.46-6.556-3.344-11.036-18.184-11.036-26.46zm9.76 27.736c-3.346-6.556-18.184-11.036-26.462-11.036-7.15 0-10.655 5.517-10.523 11.036-.132 5.521 3.372 11.036 10.523 11.036 8.278 0 23.116-4.48 26.462-11.036zm1.276 1.276c-6.556 3.346-11.036 18.184-11.036 26.462 0 7.15 5.515 10.655 11.036 10.523 5.519.132 11.036-3.372 11.036-10.523 0-8.278-4.48-23.116-11.036-26.462zm27.736-12.312c-8.278 0-23.116 4.48-26.46 11.036 3.344 6.557 18.182 11.036 26.46 11.036 7.152 0 10.657-5.515 10.523-11.036.134-5.519-3.37-11.036-10.523-11.036z" fill="#804ba1"/><path d="M80.85 37.968c-2.27-7.002 5.055-20.663 10.908-26.515 5.055-5.058 11.435-3.635 15.245.362 3.997 3.81 5.42 10.188.362 15.245-5.852 5.853-19.513 13.178-26.515 10.908zm-28.317 12.71c-5.058 5.057-3.636 11.437.362 15.245 3.808 3.998 10.188 5.42 15.245.362 5.853-5.852 13.178-19.51 10.906-26.513-7.002-2.272-20.66 5.053-26.513 10.906zM80.85 39.772c-2.27 7.002 5.055 20.66 10.908 26.513 5.055 5.058 11.435 3.636 15.245-.362 3.997-3.808 5.42-10.188.362-15.245-5.852-5.853-19.513-13.178-26.515-10.906zM52.895 11.815c-3.998 3.81-5.42 10.19-.362 15.247 5.852 5.85 19.51 13.176 26.513 10.906 2.272-7.002-5.053-20.663-10.906-26.515-5.057-5.058-11.437-3.635-15.245.362z" fill="#a174be"/><path d="M79.949 31.09a7.78 7.78 0 110 15.559 7.78 7.78 0 010-15.56z" fill="#91cefb"/><path d="M114.553 166.076c9.998 11.915 1.61 30.155-13.946 30.214h-.362c-12.102 0-23.68-2.246-34.337-6.345L87.093 164.7l-16.532-19.578-18.588-12.39a23.42 23.42 0 01-7.618-8.36L28.133 94.347 6.342 68.383l93.903 29.87 21.092 11.717-14.185 47.288 7.4 8.818z" fill="#fd3d96"/><path d="M57.274 49.95c0-7.152 5.518-10.658 11.036-10.526 5.522-.132 11.039 3.374 11.039 10.526 0 8.276-4.48 23.114-11.039 26.46-6.556-3.346-11.036-18.184-11.036-26.46zm9.76 27.736c-3.343-6.557-18.182-11.037-26.459-11.037-7.152 0-10.656 5.515-10.523 11.037-.133 5.519 3.372 11.036 10.523 11.036 8.277 0 23.116-4.48 26.46-11.036zm1.276 1.275c-6.556 3.345-11.036 18.183-11.036 26.46 0 7.153 5.518 10.658 11.036 10.524 5.522.134 11.039-3.37 11.039-10.523 0-8.278-4.48-23.116-11.039-26.46zM96.048 66.65c-8.277 0-23.115 4.48-26.46 11.037 3.345 6.556 18.183 11.036 26.46 11.036 7.151 0 10.656-5.517 10.524-11.036.132-5.522-3.373-11.037-10.524-11.037z" fill="#fdf385"/><path d="M69.214 76.782c-2.27-7.002 5.053-20.66 10.906-26.513 5.057-5.057 11.436-3.635 15.247.363 3.995 3.808 5.42 10.187.362 15.245-5.853 5.852-19.513 13.178-26.515 10.905zm-28.32 12.713c-5.055 5.055-3.633 11.435.364 15.245 3.809 3.998 10.188 5.42 15.246.362 5.852-5.853 13.176-19.513 10.905-26.515-7.002-2.27-20.662 5.055-26.515 10.908zm28.32-10.908c-2.27 7.002 5.053 20.662 10.906 26.515 5.057 5.057 11.436 3.636 15.247-.362 3.995-3.81 5.42-10.188.362-15.245-5.853-5.853-19.513-13.178-26.515-10.908zM41.258 50.632c-3.997 3.81-5.421 10.187-.364 15.245 5.853 5.852 19.513 13.178 26.515 10.907 2.27-7.002-5.053-20.662-10.905-26.515-5.058-5.057-11.437-3.635-15.246.363z" fill="#fde803"/><path d="M68.31 69.906a7.78 7.78 0 017.782 7.78 7.78 7.78 0 01-15.56 0 7.78 7.78 0 017.778-7.78z" fill="#d98800"/><path d="M194.148 68.383L173.57 96.28a23.41 23.41 0 01-3.29 3.603l-31.401 27.913a23.383 23.383 0 00-3.422 3.784l-23.075 31.912 22.2 26.454c-10.657 4.099-22.235 6.345-34.337 6.345v-16.014l-2.343-31.247-6.132-18.392a23.448 23.448 0 01-1.02-10.318l3.246-25.972-2.811-14.053c-.532-2.661 1.743-5.04 4.424-4.628l35.531 5.466a46.8 46.8 0 0019.232-1.046l43.776-11.703z" fill="#fd92d2"/><path d="M70.078 162.754c0-4.402.66-8.603 1.854-12.443.968-3.119 3.285-5.182 5.86-5.188h.043c9.714 0 18.152 7.145 22.404 17.631-4.252 10.487-12.69 17.63-22.404 17.63h-.042c-2.576-.004-4.893-2.07-5.861-5.186-1.194-3.843-1.854-8.043-1.854-12.444zm59.07 0c0 4.4-.657 8.601-1.85 12.444-.969 3.117-3.288 5.182-5.863 5.186h-.041c-9.716 0-18.154-7.143-22.404-17.63 4.25-10.486 12.688-17.631 22.404-17.631h.04c2.576.006 4.895 2.07 5.863 5.188 1.194 3.84 1.852 8.041 1.852 12.443z" fill="#e12929"/><path d="M104.936 162.551a5.321 5.321 0 11-10.643 0 5.321 5.321 0 1110.643 0zm48.099-75.688c5.408-1.754 15.958 3.901 20.478 8.422 3.904 3.906 2.805 8.83-.281 11.772-2.942 3.088-7.869 4.187-11.775.28-4.518-4.52-10.175-15.067-8.422-20.474z" fill="#fd4343"/><path d="M128.927 98.474c1.19 3.672-2.651 10.833-5.718 13.903-2.651 2.65-5.998 1.904-7.993-.191-2.096-1.996-2.842-5.343-.192-7.993 3.07-3.068 10.23-6.909 13.903-5.719z" fill="#fdf385"/></g></svg>