<svg viewBox="0 0 201 226" xmlns="http://www.w3.org/2000/svg" fill-rule="evenodd" clip-rule="evenodd" stroke-linejoin="round" stroke-miterlimit="2"><circle cx="5690.14" cy="20498.7" r="124.992" fill="#f6eb14" transform="matrix(.591 0 0 .591 -3260.914 -12022.49)"/><g fill-rule="nonzero"><path d="M125.008 82.452l-.117.687c-.663 3.863 2.313 7.393 6.234 7.393h.364c4.216 0 7.253-4.047 6.072-8.096l-12.553.016zm69.618-27.918a7.013 7.013 0 00-9.806-1.488l-27.294 20.535 2.597 6.016 5.601 4.914s21.234-15.672 27.415-20.169a7.013 7.013 0 001.487-9.808z" fill="#ffb69e"/><path d="M97.998 111.279s-11.42 31.584-11.484 31.757a7.015 7.015 0 0013.176 4.817c.074-.199 11.095-30.666 11.095-30.666L106 108.573l-8.002 2.706z" fill="#ffa587"/><path d="M55.354 72.5l-.018.154c-.458 4.343 2.947 8.127 7.316 8.127 4.366 0 7.771-3.784 7.313-8.127l-.016-.154H55.354zm21.873-20.535c0 8.6-6.97 15.571-15.573 15.571-8.6 0-15.571-6.971-15.571-15.571s6.971-15.571 15.571-15.571c8.602 0 15.573 6.971 15.573 15.57z" fill="#ffb69e"/><path d="M72.618 225.588a9.016 9.016 0 01-9.017-9.017v-72.067a9.016 9.016 0 019.017-9.016c4.98 0 9.04 4.036 9.04 9.016v72.067c0 4.98-4.06 9.017-9.04 9.017z" fill="#414b82"/><path d="M6.253 184a9.013 9.013 0 018.287-9.69l27.135-2.113v-27.693a9.017 9.017 0 0118.034 0v36.035a9.015 9.015 0 01-8.316 8.988l-35.451 2.76c-4.95.386-9.303-3.31-9.69-8.287z" fill="#5f6e9b"/><path d="M121.264 225.588a8.417 8.417 0 01-8.418-8.417v-67.283a8.418 8.418 0 0116.835 0v67.283a8.416 8.416 0 01-8.417 8.417zm47.063-28.455l-28.16-5.332a8.418 8.418 0 01-6.852-8.271v-33.642a8.418 8.418 0 0116.836 0v26.668l21.308 4.036a8.416 8.416 0 016.704 9.837 8.417 8.417 0 01-9.836 6.704zM137.112 49.825c7.418 3.076 10.94 11.582 7.866 19.001-3.076 7.42-11.583 10.94-19.002 7.866-7.42-3.075-10.94-11.583-7.865-19.002 3.074-7.417 11.583-10.94 19.001-7.865z" fill="#ffb69e"/><path d="M149.936 96.203s7.025-5.21 15.788-11.692l-8.198-10.93-11.77 8.855h-8.195l.002.016c.15 3.391-2.995 6.278-6.279 6.278-3.518 0-6.125-2.877-6.276-6.278v-.016h-5.66c-7.51 0-12.966 4.8-16.221 14.271-1.36 3.959-5.13 14.572-5.13 14.572l12.788 5.908-7.224 44.646a3.905 3.905 0 003.839 4.568h48.197a3.899 3.899 0 003.839-4.568l-9.5-65.63z" fill="#ff6473"/><path d="M31.075 66.2l-6.644-2.656-9.578-27.132A7.515 7.515 0 00.682 41.414L11.42 71.83a7.516 7.516 0 004.419 4.522l9.931 3.773 4.84-7.146.465-6.78zm53.779 41.132v38.096a7.514 7.514 0 1015.027 0v-38.096l-7.509-2.218-7.518 2.218z" fill="#ffb69e"/><path d="M81.823 72.5H69.949v.014c.178 3.943-3.48 7.3-7.297 7.3-4.092 0-7.121-3.346-7.298-7.3V72.5h-7.342l-16.937-6.3-5.305 13.926 15.905 6.042v58.336h39.983V87.528c1.573 0 3.18 1.298 3.196 2.726v17.078h15.025v-17.14C99.832 80.437 91.731 72.5 81.823 72.5z" fill="#64afff"/></g><g fill-rule="nonzero"><path d="M46.548 14.993c.007.099.011.196.011.29 0 .91-.574 2.087-1.754 3.597a23.215 23.215 0 01-1.66 1.894h-.002a.713.713 0 01-1.008 0 23.215 23.215 0 01-1.66-1.894c-1.18-1.51-1.755-2.687-1.755-3.597a3.906 3.906 0 011.246-2.866 3.905 3.905 0 012.673-1.054c.997 0 1.946.375 2.674 1.054a3.907 3.907 0 011.235 2.576zm-11.681 3.863c.1-.007.197-.01.291-.01.91 0 2.086.573 3.597 1.754a23.215 23.215 0 011.895 1.661.713.713 0 010 1.008c-.035.035-.848.842-1.895 1.661-1.51 1.18-2.687 1.755-3.597 1.754a3.906 3.906 0 01-2.866-1.246 3.905 3.905 0 01-1.054-2.673 3.91 3.91 0 011.054-2.674 3.907 3.907 0 012.575-1.235zm3.864 11.681a4.134 4.134 0 01-.01-.29c0-.91.573-2.087 1.753-3.597a23.215 23.215 0 011.661-1.895.713.713 0 011.01 0c.033.035.84.847 1.66 1.895 1.18 1.51 1.754 2.687 1.754 3.597a3.906 3.906 0 01-1.246 2.866 3.905 3.905 0 01-2.673 1.053 3.909 3.909 0 01-2.674-1.053 3.907 3.907 0 01-1.235-2.576zm11.681-3.864c-.1.008-.197.011-.29.011-.91 0-2.087-.574-3.597-1.754a23.215 23.215 0 01-1.895-1.66v-.001a.713.713 0 010-1.009c.034-.034.847-.841 1.895-1.66 1.51-1.18 2.687-1.755 3.597-1.754a3.906 3.906 0 012.866 1.246 3.905 3.905 0 011.053 2.672c0 .997-.375 1.946-1.054 2.674a3.907 3.907 0 01-2.575 1.235z" fill="#e3889b"/><path d="M41.589 21a.71.71 0 01-.713.714c-.05 0-1.195-.004-2.515-.166-1.902-.233-3.14-.659-3.784-1.302a3.909 3.909 0 01-1.145-2.907 3.907 3.907 0 011.145-2.636 3.907 3.907 0 012.636-1.146 3.904 3.904 0 012.907 1.145c.644.644 1.07 1.882 1.303 3.785.162 1.32.166 2.465.166 2.513zm0 3.53c0 .048-.004 1.194-.166 2.513-.233 1.903-.66 3.14-1.303 3.784a3.905 3.905 0 01-2.907 1.145 3.907 3.907 0 01-2.636-1.145 3.908 3.908 0 01-1.145-2.635 3.907 3.907 0 011.145-2.908c.644-.643 1.882-1.07 3.784-1.303a23.256 23.256 0 012.514-.165h.001a.713.713 0 01.713.713zm10.258 3.662a3.907 3.907 0 01-1.145 2.635 3.907 3.907 0 01-2.773 1.148 3.903 3.903 0 01-2.77-1.148c-.643-.643-1.07-1.881-1.303-3.784a23.256 23.256 0 01-.165-2.514.71.71 0 01.712-.713h.001c.049 0 1.194.004 2.514.165 1.903.234 3.14.66 3.784 1.303a3.909 3.909 0 011.145 2.907zm-.947-8.159a4.015 4.015 0 01-.198.213c-.643.643-1.881 1.07-3.784 1.302-1.32.162-2.465.166-2.514.166A.713.713 0 0143.69 21c0-.048.003-1.194.165-2.513.233-1.903.66-3.141 1.303-3.784a3.907 3.907 0 012.907-1.145 3.907 3.907 0 012.636 1.144 3.908 3.908 0 011.145 2.636 3.907 3.907 0 01-.948 2.695z" fill="#f79caf"/><path d="M45.846 22.765c0 .856-.333 1.661-.938 2.267a3.19 3.19 0 01-2.268.94 3.189 3.189 0 01-2.268-.94 3.189 3.189 0 01-.94-2.267c0-.856.335-1.661.94-2.268a3.19 3.19 0 012.268-.939c.856 0 1.661.334 2.267.939a3.19 3.19 0 01.94 2.268z" fill="#f8e9d2"/></g><g fill-rule="nonzero"><path d="M186.698 113.031c.013.18.02.356.02.525 0 1.643-1.037 3.769-3.17 6.497a41.932 41.932 0 01-2.999 3.421v.001a1.287 1.287 0 01-1.822 0 41.932 41.932 0 01-3-3.422c-2.131-2.728-3.169-4.854-3.168-6.497a7.055 7.055 0 012.25-5.176 7.053 7.053 0 014.828-1.904c1.8 0 3.515.676 4.83 1.903a7.057 7.057 0 012.23 4.652zM165.6 120.01a7.29 7.29 0 01.525-.02c1.643 0 3.768 1.037 6.496 3.169a41.932 41.932 0 013.423 3 1.287 1.287 0 01-.001 1.822 42.16 42.16 0 01-3.422 3c-2.728 2.131-4.853 3.169-6.497 3.168a7.055 7.055 0 01-5.176-2.25 7.053 7.053 0 01-1.903-4.828c0-1.8.676-3.515 1.903-4.83a7.057 7.057 0 014.652-2.231zm6.978 21.098a7.29 7.29 0 01-.02-.525c0-1.643 1.038-3.768 3.17-6.496a41.932 41.932 0 012.999-3.422h.001a1.287 1.287 0 011.821 0 42.16 42.16 0 013 3.422c2.132 2.728 3.17 4.853 3.168 6.497a7.055 7.055 0 01-2.25 5.176 7.054 7.054 0 01-4.828 1.903 7.06 7.06 0 01-4.83-1.903 7.057 7.057 0 01-2.23-4.652zm21.098-6.978a7.23 7.23 0 01-.525.02c-1.642 0-3.768-1.038-6.496-3.17a41.932 41.932 0 01-3.422-2.999v-.001a1.287 1.287 0 010-1.822 42.04 42.04 0 013.422-2.999c2.728-2.132 4.854-3.17 6.497-3.168a7.055 7.055 0 015.176 2.25 7.054 7.054 0 011.904 4.828 7.06 7.06 0 01-1.904 4.83 7.057 7.057 0 01-4.652 2.23z" fill="#e3889b"/><path d="M177.74 123.883a1.287 1.287 0 01-1.287 1.289h-.002c-.088 0-2.157-.007-4.54-.3-3.437-.42-5.673-1.19-6.835-2.353a7.06 7.06 0 01-2.069-5.252 7.058 7.058 0 012.068-4.76 7.057 7.057 0 014.761-2.068 7.052 7.052 0 015.252 2.068c1.162 1.162 1.932 3.399 2.353 6.835.292 2.384.299 4.453.299 4.54zm0 6.374c0 .087-.007 2.157-.299 4.54-.421 3.437-1.191 5.673-2.353 6.835a7.054 7.054 0 01-5.251 2.069 7.056 7.056 0 01-4.76-2.068 7.058 7.058 0 01-2.07-4.761 7.057 7.057 0 012.07-5.252c1.16-1.162 3.397-1.932 6.833-2.353a42.006 42.006 0 014.541-.299h.002a1.287 1.287 0 011.287 1.289zm18.53 6.615a7.058 7.058 0 01-2.07 4.76 7.057 7.057 0 01-5.007 2.073 7.05 7.05 0 01-5.004-2.072c-1.163-1.163-1.932-3.4-2.354-6.836a42.006 42.006 0 01-.298-4.54 1.287 1.287 0 011.287-1.289h.001c.088 0 2.157.007 4.54.299 3.437.421 5.673 1.191 6.835 2.353a7.06 7.06 0 012.069 5.252zm-1.713-14.737a7.252 7.252 0 01-.357.385c-1.162 1.161-3.398 1.931-6.834 2.353a42.006 42.006 0 01-4.54.298h-.002a1.287 1.287 0 01-1.287-1.288c0-.088.006-2.157.298-4.54.422-3.437 1.191-5.674 2.354-6.835a7.057 7.057 0 015.251-2.069 7.056 7.056 0 014.76 2.068 7.058 7.058 0 012.07 4.76 7.057 7.057 0 01-1.713 4.868z" fill="#f79caf"/><path d="M185.43 127.07c0 1.546-.602 3-1.696 4.095a5.76 5.76 0 01-4.096 1.697c-1.546 0-3-.603-4.095-1.696h-.001a5.76 5.76 0 01-1.696-4.096c0-1.546.603-3.001 1.696-4.096a5.76 5.76 0 014.096-1.696c1.546 0 3 .602 4.096 1.695a5.76 5.76 0 011.696 4.097z" fill="#f8e9d2"/></g><g fill-rule="nonzero"><path d="M23.85 102.856c.01.141.015.28.015.415 0 1.297-.819 2.976-2.502 5.13a33.116 33.116 0 01-2.37 2.702v.001a1.016 1.016 0 01-1.438 0 33.116 33.116 0 01-2.37-2.703c-1.683-2.154-2.502-3.833-2.502-5.131a5.571 5.571 0 011.777-4.088 5.57 5.57 0 013.814-1.503c1.421 0 2.775.534 3.814 1.503a5.574 5.574 0 011.762 3.674zm-16.663 5.511c.142-.01.281-.015.415-.015 1.297 0 2.976.819 5.13 2.502a33.116 33.116 0 012.703 2.37 1.016 1.016 0 010 1.438c-.05.05-1.208 1.201-2.703 2.37-2.154 1.683-3.833 2.502-5.13 2.502a5.571 5.571 0 01-4.088-1.777 5.57 5.57 0 01-1.504-3.814 5.57 5.57 0 011.504-3.814 5.573 5.573 0 013.673-1.762zm5.512 16.663a5.758 5.758 0 01-.016-.415c0-1.297.82-2.976 2.503-5.13a33.116 33.116 0 012.369-2.703 1.016 1.016 0 011.439 0c.049.05 1.2 1.208 2.369 2.703 1.683 2.154 2.503 3.833 2.502 5.13a5.572 5.572 0 01-1.777 4.088 5.571 5.571 0 01-3.813 1.504 5.576 5.576 0 01-3.814-1.504 5.573 5.573 0 01-1.762-3.673zm16.662-5.512a5.71 5.71 0 01-.415.016c-1.297 0-2.976-.82-5.13-2.503a33.116 33.116 0 01-2.702-2.369h-.001a1.016 1.016 0 010-1.439c.05-.049 1.209-1.2 2.703-2.369 2.154-1.683 3.833-2.503 5.131-2.502a5.571 5.571 0 014.088 1.777 5.571 5.571 0 011.503 3.813 5.576 5.576 0 01-1.503 3.814 5.573 5.573 0 01-3.674 1.762z" fill="#e3889b"/><path d="M16.775 111.426a1.017 1.017 0 01-1.016 1.018h-.002c-.069 0-1.703-.006-3.586-.236-2.714-.333-4.48-.941-5.397-1.859a5.576 5.576 0 01-1.634-4.147 5.574 5.574 0 011.633-3.76 5.573 5.573 0 013.76-1.634 5.57 5.57 0 014.147 1.634c.918.918 1.526 2.684 1.859 5.398.23 1.882.236 3.517.236 3.586zm0 5.034c0 .069-.005 1.703-.236 3.586-.333 2.714-.94 4.48-1.859 5.397a5.571 5.571 0 01-4.147 1.634 5.573 5.573 0 01-3.76-1.633 5.574 5.574 0 01-1.633-3.76 5.573 5.573 0 011.634-4.148c.917-.917 2.683-1.525 5.397-1.858a33.174 33.174 0 013.586-.236h.001a1.017 1.017 0 011.017 1.018zm14.634 5.224a5.574 5.574 0 01-1.634 3.76 5.573 5.573 0 01-3.955 1.636 5.568 5.568 0 01-3.952-1.636c-.918-.918-1.526-2.684-1.859-5.398a33.175 33.175 0 01-.236-3.586 1.017 1.017 0 011.016-1.018h.002c.07 0 1.704.005 3.586.236 2.714.333 4.48.94 5.398 1.859a5.576 5.576 0 011.634 4.147zm-1.352-11.639c-.093.107-.188.21-.282.304-.918.918-2.684 1.526-5.398 1.859-1.882.23-3.517.236-3.586.236h-.001a1.017 1.017 0 01-1.017-1.018c0-.07.006-1.704.236-3.586.333-2.714.941-4.48 1.859-5.398a5.574 5.574 0 014.147-1.634 5.573 5.573 0 013.76 1.634 5.574 5.574 0 011.634 3.76 5.573 5.573 0 01-1.352 3.843z" fill="#f79caf"/><path d="M22.848 113.943c0 1.22-.475 2.37-1.339 3.234a4.55 4.55 0 01-3.235 1.34 4.549 4.549 0 01-3.234-1.34 4.549 4.549 0 01-1.34-3.234c0-1.221.476-2.37 1.34-3.235a4.55 4.55 0 013.234-1.34c1.221 0 2.37.476 3.235 1.34a4.55 4.55 0 011.34 3.235z" fill="#f8e9d2"/></g><g fill-rule="nonzero"><path d="M107.074 5.88c.01.142.016.281.016.415 0 1.297-.82 2.976-2.503 5.13a33.116 33.116 0 01-2.369 2.703 1.016 1.016 0 01-1.439 0 33.116 33.116 0 01-2.369-2.703c-1.683-2.154-2.503-3.833-2.502-5.13a5.571 5.571 0 011.777-4.088 5.57 5.57 0 013.813-1.504c1.422 0 2.776.534 3.814 1.504a5.574 5.574 0 011.762 3.673zm-16.662 5.512c.141-.01.28-.016.414-.016 1.298 0 2.977.82 5.13 2.503a33.116 33.116 0 012.704 2.37 1.016 1.016 0 010 1.438c-.05.049-1.209 1.2-2.703 2.369-2.154 1.683-3.833 2.503-5.131 2.502a5.571 5.571 0 01-4.088-1.777 5.57 5.57 0 01-1.503-3.813 5.57 5.57 0 011.503-3.814 5.573 5.573 0 013.674-1.762zm5.511 16.662a5.758 5.758 0 01-.015-.415c0-1.297.819-2.976 2.502-5.13a33.116 33.116 0 012.369-2.702l.001-.001a1.016 1.016 0 011.438 0c.05.05 1.201 1.209 2.37 2.703 1.683 2.154 2.502 3.833 2.501 5.131a5.572 5.572 0 01-1.777 4.088 5.571 5.571 0 01-3.813 1.503 5.576 5.576 0 01-3.814-1.503 5.573 5.573 0 01-1.762-3.674zm16.662-5.511a5.71 5.71 0 01-.414.015c-1.298 0-2.976-.819-5.13-2.502a33.116 33.116 0 01-2.703-2.37 1.016 1.016 0 010-1.438 33.02 33.02 0 012.702-2.37c2.155-1.683 3.833-2.502 5.131-2.502a5.571 5.571 0 014.088 1.777 5.571 5.571 0 011.504 3.814 5.576 5.576 0 01-1.504 3.814 5.573 5.573 0 01-3.674 1.762z" fill="#e3889b"/><path d="M100 14.45a1.017 1.017 0 01-1.016 1.018h-.002c-.07 0-1.704-.005-3.586-.236-2.714-.333-4.48-.94-5.398-1.859a5.576 5.576 0 01-1.634-4.147 5.574 5.574 0 011.634-3.76 5.573 5.573 0 013.76-1.633 5.57 5.57 0 014.147 1.633c.918.918 1.526 2.684 1.858 5.398.231 1.883.236 3.517.236 3.586zm0 5.034c0 .07-.006 1.704-.237 3.586-.332 2.714-.94 4.48-1.858 5.398a5.571 5.571 0 01-4.147 1.634 5.573 5.573 0 01-3.76-1.634 5.574 5.574 0 01-1.634-3.76 5.573 5.573 0 011.634-4.147c.918-.918 2.684-1.526 5.398-1.859a33.174 33.174 0 013.586-.236A1.017 1.017 0 01100 19.484zm14.633 5.224a5.574 5.574 0 01-1.633 3.76 5.573 5.573 0 01-3.956 1.637 5.568 5.568 0 01-3.952-1.637c-.917-.918-1.525-2.684-1.858-5.398a33.175 33.175 0 01-.236-3.586 1.017 1.017 0 011.016-1.018h.002c.069 0 1.703.006 3.586.236 2.714.333 4.48.941 5.397 1.859a5.576 5.576 0 011.634 4.147zm-1.352-11.638c-.093.107-.187.21-.282.304-.917.917-2.683 1.525-5.397 1.858-1.883.23-3.517.236-3.586.236h-.002a1.017 1.017 0 01-1.016-1.018c0-.069.005-1.703.236-3.586.333-2.714.94-4.48 1.858-5.397a5.574 5.574 0 014.147-1.634A5.573 5.573 0 01113 5.466a5.574 5.574 0 011.634 3.76 5.573 5.573 0 01-1.352 3.844z" fill="#f79caf"/><path d="M106.073 16.967c0 1.221-.476 2.37-1.34 3.235a4.55 4.55 0 01-3.234 1.34 4.549 4.549 0 01-3.235-1.34 4.549 4.549 0 01-1.34-3.235c0-1.22.476-2.37 1.34-3.234a4.55 4.55 0 013.235-1.34c1.22 0 2.37.476 3.234 1.34a4.55 4.55 0 011.34 3.234z" fill="#f8e9d2"/></g><g fill-rule="nonzero"><path d="M167.024 27.352c.01.123.014.244.014.36 0 1.129-.712 2.588-2.176 4.461a28.79 28.79 0 01-2.06 2.35.884.884 0 01-1.25 0 28.79 28.79 0 01-2.06-2.35c-1.464-1.873-2.176-3.332-2.175-4.46a4.844 4.844 0 011.545-3.554 4.843 4.843 0 013.315-1.308c1.236 0 2.413.465 3.316 1.307a4.846 4.846 0 011.531 3.194zm-14.486 4.792c.123-.009.244-.014.36-.014 1.129 0 2.588.712 4.461 2.176a28.79 28.79 0 012.35 2.06.884.884 0 010 1.251 28.79 28.79 0 01-2.35 2.06c-1.873 1.463-3.332 2.175-4.46 2.175a4.844 4.844 0 01-3.554-1.545 4.843 4.843 0 01-1.308-3.315c0-1.236.465-2.413 1.307-3.316a4.845 4.845 0 013.194-1.532zm4.792 14.486a5.006 5.006 0 01-.014-.36c0-1.128.712-2.588 2.176-4.46a28.79 28.79 0 012.06-2.35.884.884 0 011.25 0 28.79 28.79 0 012.06 2.35c1.464 1.872 2.176 3.332 2.176 4.46a4.844 4.844 0 01-1.545 3.554 4.844 4.844 0 01-3.315 1.307 4.847 4.847 0 01-3.316-1.307 4.845 4.845 0 01-1.532-3.194zm14.486-4.791a4.964 4.964 0 01-.36.013c-1.128 0-2.588-.712-4.46-2.176a28.79 28.79 0 01-2.35-2.059.884.884 0 010-1.251 28.79 28.79 0 012.35-2.06c1.872-1.464 3.332-2.176 4.46-2.175a4.844 4.844 0 013.554 1.545 4.844 4.844 0 011.307 3.315 4.848 4.848 0 01-1.307 3.316 4.845 4.845 0 01-3.194 1.532z" fill="#e3889b"/><path d="M160.874 34.803a.884.884 0 01-.884.885h-.001c-.06 0-1.481-.005-3.118-.205-2.36-.29-3.895-.818-4.692-1.616a4.848 4.848 0 01-1.42-3.606 4.846 4.846 0 011.42-3.268 4.845 4.845 0 013.268-1.42 4.842 4.842 0 013.606 1.42c.798.797 1.326 2.333 1.616 4.692.2 1.637.205 3.058.205 3.118zm0 4.377c0 .06-.005 1.48-.205 3.117-.29 2.36-.818 3.895-1.616 4.693a4.843 4.843 0 01-3.606 1.42 4.845 4.845 0 01-3.268-1.42 4.846 4.846 0 01-1.421-3.269 4.845 4.845 0 011.42-3.606c.798-.797 2.334-1.326 4.693-1.615 1.637-.2 3.058-.205 3.118-.205a.884.884 0 01.885.885zm12.722 4.541a4.846 4.846 0 01-1.42 3.269 4.845 4.845 0 01-3.439 1.423 4.84 4.84 0 01-3.435-1.423c-.798-.798-1.327-2.333-1.616-4.693a28.842 28.842 0 01-.205-3.117.884.884 0 01.884-.885c.06 0 1.481.004 3.118.205 2.36.29 3.895.818 4.693 1.616a4.848 4.848 0 011.42 3.606zm-1.176-10.118c-.08.093-.162.182-.244.264-.798.798-2.333 1.326-4.693 1.616-1.637.2-3.057.205-3.118.205a.884.884 0 01-.884-.885c0-.06.004-1.481.205-3.118.29-2.36.818-3.895 1.616-4.692a4.846 4.846 0 013.606-1.42 4.845 4.845 0 013.268 1.42 4.846 4.846 0 011.42 3.268 4.845 4.845 0 01-1.175 3.342z" fill="#f79caf"/><path d="M166.154 36.991c0 1.062-.414 2.06-1.164 2.812a3.955 3.955 0 01-2.813 1.165 3.955 3.955 0 01-2.812-1.164 3.955 3.955 0 01-1.165-2.813c0-1.061.414-2.06 1.165-2.812a3.955 3.955 0 012.812-1.165c1.062 0 2.06.414 2.812 1.165a3.955 3.955 0 011.165 2.812z" fill="#f8e9d2"/></g></svg>