<svg viewBox="0 0 189 167" xmlns="http://www.w3.org/2000/svg" fill-rule="evenodd" clip-rule="evenodd" stroke-linejoin="round" stroke-miterlimit="2"><circle cx="5690.14" cy="20498.7" r="124.992" fill="#a3ff13" transform="translate(-3206.825 -11807.202) scale(.58057)"/><path d="M148.855 103.606c-5.858 1.519-17.08 1.741-28.014-12.973l-51.144.89c-8.451 14.491-20.605 13.328-26.426 11.708a2.406 2.406 0 01-1.328-3.7c1.927-2.73 4.32-7.343 2.783-11.954-2.406-7.216-9.622-7.216-4.812-19.245 4.812-12.028-9.622-14.433-4.81-31.274A27.136 27.136 0 0154.01 18.463a7.084 7.084 0 004.067-3.296C66.328.974 86.15.974 95.245.974a21.068 21.068 0 0114.433 4.812 35.5 35.5 0 014.812-1.612c6.952-1.756 19.677-3.03 26.462 8.828 9.623 16.84 0 16.84 9.623 28.868 9.622 12.029 4.81 28.868 0 36.085-7.535 11.307-3.801 18.307-.58 21.665a2.405 2.405 0 01-1.14 3.986z" fill="#f0c419" fill-rule="nonzero"/><g fill-rule="nonzero"><path d="M9.486 120.021l44.156-25.305 15.573 27.173-44.157 25.306L9.486 120.02z" fill="#a2dae7"/><path d="M9.486 120.021l44.156-25.305 1.947 3.397-44.157 25.305-1.946-3.397z" fill="#8dd3e7"/><path d="M2.072 112.99l49.251-28.226 4.867 8.492-49.252 28.225-4.866-8.492z" fill="#a2dae7"/><path d="M23.3 100.823l6.794-3.893 20.44 35.665-6.794 3.893-20.44-35.665z" fill="#fc5b68"/><path d="M23.3 100.823l2.215 23.549-4.494-1.937-4.246 2.433-1.117-19.665 7.643-4.38z" fill="#fc5b68"/><path d="M20.48 89.798a7.83 7.83 0 00-8.559-.502L5.128 93.19a7.904 7.904 0 018.558.502l9.615 7.132 6.793-3.893-9.614-7.132z" fill="#f04855"/><path d="M8.369 100.356a7.822 7.822 0 01.247-8.179 7.81 7.81 0 00-3.488 1.012l-.653.374a7.83 7.83 0 007.787 13.587l6.793-3.893a7.83 7.83 0 01-10.686-2.9zm13.639-11.434a7.83 7.83 0 013.893-7.638l6.794-3.893A7.904 7.904 0 0028.8 85.03l1.293 11.901-6.793 3.893-1.293-11.9z" fill="#fc5b68"/><path d="M37.24 83.81a7.822 7.822 0 00-7.182-3.92 7.81 7.81 0 012.637-2.499l.652-.374a7.83 7.83 0 017.786 13.587l-6.793 3.893a7.83 7.83 0 002.9-10.686z" fill="#fc5b68"/><path d="M30.094 96.93l19.198 13.816.6-4.857 4.247-2.433L37.737 92.55l-7.643 4.38z" fill="#fc5b68"/><path d="M23.3 100.823l6.794-3.893 2.433 4.246-6.793 3.893-2.433-4.246z" fill="#f04855"/></g><g fill-rule="nonzero"><path d="M179.033 120.021l-44.157-25.305-15.573 27.173 44.157 25.306 15.573-27.174z" fill="#a2dae7"/><path d="M179.033 120.021l-44.157-25.305-1.947 3.397 44.157 25.305 1.947-3.397z" fill="#8dd3e7"/><path d="M186.446 112.99l-49.251-28.226-4.867 8.492 49.252 28.225 4.866-8.492z" fill="#a2dae7"/><path d="M165.217 100.823l-6.793-3.893-20.439 35.665 6.793 3.893 20.44-35.665z" fill="#fc5b68"/><path d="M165.217 100.823l-2.214 23.549 4.494-1.937 4.246 2.433 1.117-19.665-7.643-4.38z" fill="#fc5b68"/><path d="M168.038 89.798a7.83 7.83 0 018.56-.502l6.792 3.893a7.904 7.904 0 00-8.558.502l-9.615 7.132-6.793-3.893 9.614-7.132z" fill="#f04855"/><path d="M180.15 100.356a7.822 7.822 0 00-.248-8.179 7.81 7.81 0 013.488 1.012l.653.374a7.83 7.83 0 01-7.786 13.587l-6.794-3.893a7.83 7.83 0 0010.687-2.9zm-13.64-11.434a7.83 7.83 0 00-3.893-7.638l-6.794-3.893a7.904 7.904 0 013.894 7.638l-1.293 11.901 6.793 3.893 1.294-11.9z" fill="#fc5b68"/><path d="M151.278 83.81a7.822 7.822 0 017.182-3.92 7.81 7.81 0 00-2.637-2.499l-.652-.374a7.83 7.83 0 00-7.786 13.587l6.793 3.893a7.83 7.83 0 01-2.9-10.686z" fill="#fc5b68"/><path d="M158.424 96.93l-19.198 13.816-.6-4.857-4.247-2.433 16.403-10.905 7.642 4.38z" fill="#fc5b68"/><path d="M165.217 100.823l-6.793-3.893-2.433 4.246 6.793 3.893 2.433-4.246z" fill="#f04855"/></g><path d="M117.16 116.341c1.464 7.476 2.185 15.271 2.141 23.1-.001 4.373-1.178 8.534-3.233 11.438-2.054 2.901-4.79 4.27-7.52 3.755-4.882-1.077-8.512-7.734-8.492-15.576.027-4.804-1.135-11.864-2.087-16.422l19.192-6.295zm-44.477 2.265c-.98 6.4-1.48 12.972-1.495 19.57-.138 7.71 3.046 14.507 7.602 16.233 2.844.993 5.808-.185 8.068-3.204 2.258-3.018 3.572-7.557 3.575-12.355-.051-5.57.51-11.109 1.655-16.35l-19.405-3.894z" fill="#285680" fill-rule="nonzero"/><path d="M76 106.822c0 1.805-2.707 6.316-6.09 10.488a2.407 2.407 0 001.843 3.947H76c9.622 0 12.027 2.405 19.245 2.405 7.217 0 9.623-2.405 19.245-2.405h4.246a2.406 2.406 0 001.842-3.947c-3.382-4.172-6.088-8.683-6.088-10.488V94.794l7.986 12.847a7.219 7.219 0 0010.898 2.454 7.37 7.37 0 001.876-9.142l-5.508-11.042a21.594 21.594 0 00-19.327-11.956H80.113a21.65 21.65 0 00-19.383 11.99l-5.491 11.008a7.408 7.408 0 001.876 9.165 7.218 7.218 0 0010.898-2.477L76 94.794v12.028z" fill="#3b97d3" fill-rule="nonzero"/><path d="M69.215 105.692l-1.202 1.949a7.218 7.218 0 01-10.898 2.477 7.408 7.408 0 01-1.876-9.165l1.25-2.527 12.726 7.266zm64.159 4.403a7.216 7.216 0 01-10.898-2.454l-1.202-1.949L134 98.426l1.25 2.527a7.37 7.37 0 01-1.876 9.142zm.361-65.819a48.109 48.109 0 01-1.901 14.434c-5.003 16.334-19.485 19.245-36.59 19.245-17.104 0-31.586-2.91-36.589-19.245a48.109 48.109 0 01-1.9-14.434c0-2.55 4.834-5.052 11.065-5.052a23.57 23.57 0 013.368.24c16.84 2.406 19.245-4.81 24.057-12.028a10.7 10.7 0 0112.027-4.811 11.69 11.69 0 009.623 12.029c8.011 1.996 14.121 5.677 16.84 9.622z" fill="#fdd7ad" fill-rule="nonzero"/><path d="M131.834 58.71h4.306a7.218 7.218 0 000-14.434h-2.405l-1.901 14.434zM56.755 44.276h-2.406a7.218 7.218 0 000 14.434h4.306l-1.9-14.434zm28.867 33.679s0 9.622 9.623 9.622 9.623-9.622 9.623-9.622H85.622z" fill="#f9c795" fill-rule="nonzero"/><path d="M114.49 4.174v6.423a2.405 2.405 0 01-4.812 0V5.786a35.5 35.5 0 014.812-1.612z" fill="#f29c1f" fill-rule="nonzero"/><path d="M133.735 44.276a48.109 48.109 0 01-1.901 14.434 32.64 32.64 0 01-.552 1.635l-.024.025a20.59 20.59 0 01-16.768 7.962c-9.622 0-9.622-7.217-19.245-7.217-9.623 0-9.623 7.217-19.245 7.217a20.59 20.59 0 01-16.768-7.962l-.025-.025a33.048 33.048 0 01-.552-1.635 48.109 48.109 0 01-1.9-14.434c0-2.55 4.834-5.052 11.065-5.052a23.57 23.57 0 013.368.24 36.39 36.39 0 008.95.314h.047c8.492 1.395 10.85 6.903 15.06 6.903 4.811 0 7.217-7.217 19.245-7.217h14a18.383 18.383 0 015.245 4.812z" fill="#3f5c6c" fill-rule="nonzero"/><path d="M80.811 53.899a4.812 4.812 0 11-9.623 0 4.812 4.812 0 019.623 0zm38.49 0a4.812 4.812 0 11-9.624-.001 4.812 4.812 0 019.624 0z" fill="#ecf0f1" fill-rule="nonzero"/><path d="M88.027 97.2h14.435l2.406 4.812-9.623 7.216-9.623-7.216 2.405-4.812z" fill="#f0c419" fill-rule="nonzero"/></svg>