<svg viewBox="0 0 201 221" xmlns="http://www.w3.org/2000/svg" fill-rule="evenodd" clip-rule="evenodd" stroke-linejoin="round" stroke-miterlimit="2"><circle cx="5690.14" cy="20498.7" r="124.992" fill="#f6eb14" transform="translate(-3870.645 -14203.081) scale(.69827)"/><path d="M110.593 11.844c0 5.156-4.381 9.333-9.783 9.333-5.402 0-9.783-4.177-9.783-9.333 0-5.154 4.381-11 9.783-11 5.404 0 9.783 5.846 9.783 11z" fill="#fbe29f" fill-rule="nonzero"/><path d="M86.503 9.074c-2.27 0-4.492.197-6.648.573-3.06.537-5.315 3.003-5.465 5.969a33.63 33.63 0 00-.043 1.714c0 6.606 1.921 12.783 5.257 18.052l21.206-23.543a38.045 38.045 0 00-14.307-2.765z" fill="#ff8997" fill-rule="nonzero"/><path d="M127.23 15.616c-.15-2.966-2.405-5.432-5.466-5.969a38.5 38.5 0 00-6.647-.573c-12.086 0-22.803 5.582-29.478 14.19v13.672h34.178l7.108-14.775a33.843 33.843 0 00.305-6.545z" fill="#fc5c70" fill-rule="nonzero"/><path d="M142.786 74.72c-.482-2.908-2.864-5.179-5.91-5.639-8.57-1.297-18.248 1.64-25.52 8.578-8.634 8.237-11.357 19.714-7.758 28.81 9.534 3.432 21.561.836 30.197-7.402 7.272-6.937 10.35-16.172 8.991-24.347z" fill="#00d6bc" fill-rule="nonzero"/><path d="M101.745 108.237a2.42 2.42 0 010-3.537l25.615-24.44c1.025-.977 2.684-.977 3.708 0a2.422 2.422 0 010 3.537l-25.617 24.441c-1.025.976-2.684.976-3.707 0z" fill="#50e1cd" fill-rule="nonzero"/><path d="M59.426 74.72c.482-2.908 2.864-5.179 5.91-5.639 8.57-1.297 18.248 1.64 25.52 8.578 8.634 8.237 11.357 19.714 7.758 28.81-9.534 3.432-21.563.836-30.197-7.402-7.272-6.937-10.35-16.172-8.991-24.347z" fill="#00d6bc" fill-rule="nonzero"/><path d="M96.76 108.237L71.143 83.796a2.418 2.418 0 010-3.537c1.024-.977 2.683-.977 3.708 0l25.616 24.441a2.418 2.418 0 010 3.537c-1.023.976-2.683.976-3.707 0z" fill="#50e1cd" fill-rule="nonzero"/><path d="M100.81 116.57l-48.875 6.784 5.27 26.466c1.936 9.723 10.842 16.76 21.217 16.76h44.776c10.375 0 19.283-7.037 21.218-16.76l5.27-26.466-48.876-6.785z" fill="#ed1f24" fill-rule="nonzero"/><path d="M92.033 53.39h17.555v51.894H92.033V53.39z" fill="#50e1cd" fill-rule="nonzero"/><path d="M63.234 121.786l-11.3 1.57 5.27 26.464c1.937 9.724 10.843 16.76 21.218 16.76h14.132c-16.572-9.379-27.97-25.815-29.32-44.794z" fill="#b82024" fill-rule="nonzero"/><path d="M149.685 95.276h-97.75c-6.332 0-11.464 4.896-11.464 10.935v6.208c0 6.039 5.132 10.937 11.464 10.937h97.75c6.332 0 11.464-4.898 11.464-10.937v-6.208c0-6.04-5.134-10.935-11.464-10.935z" fill="#b82024" fill-rule="nonzero"/><path d="M73.239 112.839c-1.449 0-2.622-1.12-2.622-2.501v-5.055c0-1.382 1.173-2.501 2.622-2.501 1.448 0 2.621 1.119 2.621 2.501v5.055c0 1.381-1.173 2.5-2.621 2.5zm55.141 0c-1.447 0-2.62-1.12-2.62-2.501v-5.055c0-1.382 1.173-2.501 2.62-2.501 1.45 0 2.623 1.119 2.623 2.501v5.055c0 1.381-1.173 2.5-2.622 2.5zm-36.816-1.009a2.422 2.422 0 01.255-3.528c1.092-.908 2.748-.8 3.699.242 2.797 3.064 7.778 3.072 10.584 0 .953-1.042 2.607-1.15 3.7-.242a2.422 2.422 0 01.254 3.528c-4.894 5.357-13.604 5.351-18.492 0z" fill="#fff" fill-rule="nonzero"/><path d="M76.321 22.124c-2.269 0-4.49.199-6.646.574-3.063.536-5.316 3.003-5.466 5.969-.028.568-.044 1.14-.044 1.714 0 15.467 10.527 28.587 25.121 33.194l11.524-32.496c-6.489-5.57-15.073-8.955-24.489-8.955z" fill="#ff6f7f" fill-rule="nonzero"/><path d="M137.422 28.88a16.465 16.465 0 00-.015-.304c-.157-2.932-2.437-5.348-5.462-5.878a38.673 38.673 0 00-6.646-.574c-20.239 0-36.645 15.65-36.645 34.958 0 2.22.217 4.388.632 6.493a38.148 38.148 0 0011.82 1.767c20.602-.156 37.186-16.821 36.316-36.461z" fill="#ff8997" fill-rule="nonzero"/><path d="M63.094 117.989c0-8.076 1.82-15.755 5.097-22.713H51.935c-6.332 0-11.464 4.896-11.464 10.935v6.208c0 6.039 5.132 10.935 11.464 10.935h11.433a53.377 53.377 0 01-.274-5.365z" fill="#ed1f24" fill-rule="nonzero"/><path d="M28.208 155.725c-3.26-5.861-1.387-13.285 4.263-16.902 5.892-3.77 13.768-2.055 17.557 3.83l18.76 29.134a30.224 30.224 0 014.826 16.405v27.58a4.783 4.783 0 01-4.784 4.784H20.987a4.783 4.783 0 01-4.785-4.784v-21.37L.255 159.316v-51.192c0-6.607 5.354-11.96 11.96-11.96 6.607 0 11.961 5.353 11.961 11.96v40.385l18.408 33.134" fill="#ffd5b2" fill-rule="nonzero"/><path d="M24.176 133.195v15.314l18.767 33.78a4.784 4.784 0 01-8.595 4.167l-14.503-26.08c-5.055-9.093-3.06-20.327 4.331-27.18z" fill="#fac394" fill-rule="nonzero"/><path d="M172.282 155.725c3.259-5.861 1.387-13.285-4.263-16.902-5.892-3.77-13.768-2.055-17.558 3.83l-18.76 29.134a30.224 30.224 0 00-4.826 16.405v27.58a4.783 4.783 0 004.785 4.784h47.843a4.783 4.783 0 004.784-4.784v-21.37l15.948-35.086v-51.192c0-6.607-5.354-11.96-11.96-11.96-6.607 0-11.962 5.353-11.962 11.96v40.385l-18.408 33.134" fill="#ffd5b2" fill-rule="nonzero"/><path d="M176.313 133.195v15.314l-18.767 33.78a4.784 4.784 0 008.596 4.167l14.502-26.08c5.055-9.093 3.06-20.327-4.33-27.18z" fill="#fac394" fill-rule="nonzero"/></svg>