<svg viewBox="0 0 72 77" xmlns="http://www.w3.org/2000/svg" fill-rule="evenodd" clip-rule="evenodd" stroke-linejoin="round" stroke-miterlimit="2"><path d="M5.923 5.932a10.528 10.528 0 00.447 5.98 8.909 8.909 0 00-1.125.834l-.937.83A2.5 2.5 0 004.1 17.11l4.153 4.676a8.741 8.741 0 006.56 2.943 8.62 8.62 0 001.064-.096 12.402 12.402 0 001.674 2.803 2.464 2.464 0 00-1.296 3.423l8.396 16.804a2.45 2.45 0 00-.713.665 2.504 2.504 0 00-.287 2.304l2.815 7.506a2.5 2.5 0 001.779 1.532l-4.48 8.97a2.504 2.504 0 002.228 3.628h1.583l-.066.132a2.501 2.501 0 002.236 3.621h12.51a2.504 2.504 0 002.239-3.628l-.067-.125h1.582a2.503 2.503 0 002.232-3.628l-4.484-8.97a2.502 2.502 0 001.777-1.536l.092-.25a12.81 12.81 0 014.188 2.44c.46.439 1.07.684 1.706.685a2.53 2.53 0 001.539-.528l1.994-1.556a2.518 2.518 0 00.24-3.74 19.856 19.856 0 00-7.032-4.318l.09-.24a2.504 2.504 0 00-.287-2.303 2.448 2.448 0 00-.713-.665l8.393-16.8a2.466 2.466 0 00-1.293-3.43 12.437 12.437 0 001.674-2.802 8.32 8.32 0 007.619-2.843l4.158-4.674a2.502 2.502 0 00-.21-3.533l-.936-.83a8.76 8.76 0 00-1.12-.834 10.54 10.54 0 00.449-5.985 2.257 2.257 0 00-1.83-1.626c-1.993-.194-4 .183-5.787 1.088-.047-.046-.079-.083-.125-.126l-1.876-1.643a2.424 2.424 0 00-1.812-.637 2.511 2.511 0 00-1.725.834l-1.752 1.975a9.535 9.535 0 00-3.696-4.449A2.547 2.547 0 0045.8.98a9.77 9.77 0 00-5.093 2.342 5.87 5.87 0 00-9.413 0A9.78 9.78 0 0026.197.979a2.536 2.536 0 00-1.679.367 9.526 9.526 0 00-3.693 4.447l-1.76-1.982a2.5 2.5 0 00-1.718-.827 2.402 2.402 0 00-1.801.626l-1.907 1.677c-.036.035-.065.069-.101.103a10.546 10.546 0 00-5.779-1.088 2.26 2.26 0 00-1.836 1.63zm4.207 14.192L5.976 15.45l.936-.833a6.21 6.21 0 014.521-1.567 6.214 6.214 0 014.308 2.09l4.154 4.677-.935.83a6.263 6.263 0 01-8.83-.523zm31.314-8.918c.464-.153.95-.234 1.438-.24a4.108 4.108 0 014.38 3.754 4.109 4.109 0 01-4.38 3.754 4.818 4.818 0 01-1.44-.24 6.368 6.368 0 00-.932-1.376 4.839 4.839 0 000-4.263c.37-.42.685-.888.934-1.39zm3.91 13.596a2.51 2.51 0 00-.595-.073h-3.192a7.41 7.41 0 00.69-3.128c0-.236-.045-.462-.067-.693.23.021.456.067.692.067a7.184 7.184 0 005.034-2.001c.34.533.739 1.027 1.186 1.475a30.61 30.61 0 00-3.747 4.353zm-18.11-.073c-.2 0-.4.025-.596.073a30.525 30.525 0 00-3.753-4.357 8.78 8.78 0 001.186-1.475 7.186 7.186 0 005.04 2.005c.226 0 .441-.045.663-.063a7.39 7.39 0 00-.038.69 7.389 7.389 0 00.69 3.127h-3.192zm5.005-3.128a4.751 4.751 0 01.883-2.794 4.946 4.946 0 005.754-.007c.209.293.38.611.51.946a4.76 4.76 0 01.358 1.855 4.106 4.106 0 01-3.753 4.378 4.106 4.106 0 01-3.752-4.378zm6.255-6.881a2.502 2.502 0 11-5.004 0 2.502 2.502 0 015.004 0zm-7.006-2.138a4.836 4.836 0 000 4.276 6.65 6.65 0 00-.936 1.377 4.794 4.794 0 01-1.441.239 4.109 4.109 0 01-4.38-3.754 4.108 4.108 0 014.38-3.753c.489.005.974.086 1.438.239.255.496.57.958.939 1.376zm-10.873 9.936l.411-.366a27.87 27.87 0 013.806 4.42 2.495 2.495 0 00-.1.658h-3.494a6.277 6.277 0 01-2.928-3.27 8.674 8.674 0 002.302-1.442h.003zm5.368 27.232H46.01l-2.815 7.506H28.808l-2.815-7.506zm17.183 20.016l-1.53-3.061a1.252 1.252 0 10-2.238 1.119l2.849 5.695h-12.51l2.847-5.696a1.252 1.252 0 10-2.238-1.118l-1.53 3.061H26l4.998-10.008h10.01l5.003 10.008h-2.834zm10.34-12.81l-1.969 1.56a15.2 15.2 0 00-5.036-2.968l.875-2.34a17.187 17.187 0 016.13 3.748zm-8.757-9.709H27.244l-8.758-17.515h6.806l2.89 11.564a1.251 1.251 0 002.426-.608L27.244 27.23h5.172a5.763 5.763 0 007.171 0h5.172l-3.364 13.458a1.251 1.251 0 002.426.608l2.89-11.564h6.806l-8.758 17.515zm5.996-20.017h-3.494a2.487 2.487 0 00-.095-.657 27.9 27.9 0 013.805-4.42l.412.365a8.683 8.683 0 002.302 1.441 6.276 6.276 0 01-2.93 3.271zm11.116-7.106a6.262 6.262 0 01-8.832.524l-.934-.831 4.153-4.676a6.255 6.255 0 018.83-.524l.936.831-4.153 4.676zm1.84-13.372c.231 1.386.1 2.81-.384 4.129a8.776 8.776 0 00-2.894-.324 6.362 6.362 0 00-.448-3.093 7.781 7.781 0 013.726-.712zm-8.906-1.263l1.846 1.626c.164.154.317.305.442.442a3.87 3.87 0 01.776 3.535 8.71 8.71 0 00-3.48 2.39l-4.059 4.57a6.055 6.055 0 01-.848-1.571 5.617 5.617 0 00-.145-3.904c.25-.893.7-1.719 1.312-2.416l4.156-4.672zm-8.643-2.02a7.635 7.635 0 013.134 4.446l-.52.584a8.699 8.699 0 00-1.164 1.69 7.237 7.237 0 00-4.73-1.725c-.236 0-.461.047-.693.069.021-.232.068-.457.068-.694a7.49 7.49 0 00-.345-2.233 7.491 7.491 0 014.25-2.137zm-10.16-.008a4.106 4.106 0 013.752 4.378 4.783 4.783 0 01-.374 1.886 4.183 4.183 0 01-.501.916 4.948 4.948 0 00-5.755-.008 4.754 4.754 0 01-.875-2.794A4.106 4.106 0 0136 3.461zm-10.118 0a7.521 7.521 0 014.207 2.145 7.434 7.434 0 00-.345 2.233c0 .232.016.462.038.69-.222-.02-.437-.065-.663-.065a7.237 7.237 0 00-4.73 1.725 8.779 8.779 0 00-1.165-1.692l-.518-.584a7.591 7.591 0 013.176-4.452zM17.201 5.48l4.153 4.678a6.235 6.235 0 011.312 2.417 5.616 5.616 0 00-.145 3.903 6.054 6.054 0 01-.848 1.573l-4.061-4.572a8.713 8.713 0 00-3.478-2.387 3.865 3.865 0 01.772-3.53c.125-.142.282-.293.416-.42L17.2 5.48zM8.292 6.752a7.826 7.826 0 013.725.71 6.376 6.376 0 00-.447 3.09 8.803 8.803 0 00-2.894.324 8.099 8.099 0 01-.384-4.124z" fill="#ffa495" fill-rule="nonzero"/><path d="M33.5 54.753h5.004a1.25 1.25 0 100-2.502h-5.005a1.251 1.251 0 000 2.502z" fill="#ffa495" fill-rule="nonzero"/><path d="M65.064 23.05a32.083 32.083 0 013.278 14.172c0 12.023-6.597 22.52-16.365 28.061a1.54 1.54 0 00-.579 2.098 1.54 1.54 0 002.098.579c10.7-6.07 17.923-17.568 17.923-30.738 0-5.57-1.292-10.839-3.592-15.526a1.538 1.538 0 10-2.763 1.355zM20.633 65.51c-9.99-5.48-16.769-16.1-16.769-28.287 0-5.082 1.18-9.894 3.278-14.171a1.538 1.538 0 10-2.762-1.355A35.132 35.132 0 00.787 37.222c0 13.35 7.424 24.984 18.366 30.985a1.54 1.54 0 002.089-.608 1.54 1.54 0 00-.61-2.09z" fill="#09e0c1" stroke="#09e0c1" stroke-width="1.001"/></svg>