<svg viewBox="0 0 131 119" xmlns="http://www.w3.org/2000/svg" fill-rule="evenodd" clip-rule="evenodd" stroke-linejoin="round" stroke-miterlimit="2"><g fill-rule="nonzero"><path d="M62 63.1l-.6.6c-.2.2-.4.4-.7.6-1.9 1.8-4.9 4.3-9.2 6.7-.5.3-1.1.6-1.6.9l-1.8.9c-.6.3-1.2.6-1.9.9-.6.3-1.3.6-2 .9-2.7 1.1-5.8 2.1-9.1 2.8-3.3.7-6.9 1.2-10.7 1.3-3.8.1-7.8-.2-11.9-1-4.1-.8-8.3-2.1-12.4-3.9-.5-.2-1-.5-1.5-.7-.5-.3-1-.5-1.5-.8-.5-.3-1-.6-1.5-.8-.3-.1-.5-.3-.8-.4-.2-.1-.5-.3-.7-.5l-1.5-.9c-.5-.3-1-.7-1.4-1l-.7-.5-.4-.2-.4-.3c-.5-.4-.9-.7-1.4-1.1-.5-.4-.9-.7-1.4-1.1-.5-.4-.9-.8-1.4-1.2-.4-.4-.9-.8-1.3-1.3l-.7-.6-.7-.7c-.4-.4-.8-.9-1.3-1.3-.4-.4-.8-.9-1.2-1.4-.8-.9-1.6-1.9-2.3-2.9-1.5-2-2.9-4.1-4.1-6.3-.6-1.1-1.2-2.2-1.8-3.4-.3-.6-.5-1.2-.8-1.8l-.4-.9-1.2.6c-.2-.5-1.9-1.3-2-1.8-1.2-.6 0-2.4-1.1-3.1.5 1.5 1 2.9 1.6 4.4l.8 1.8.9 1.8c.6 1.2 1.2 2.4 1.9 3.5 1.3 2.3 2.9 4.4 4.4 6.4.8 1 1.6 2 2.5 2.9.4.5.9.9 1.3 1.4.5.4.9.9 1.3 1.3l.7.7.7.6c.5.4.9.8 1.4 1.2l1.5 1.2c.5.4 1 .8 1.5 1.1.5.4 1 .7 1.5 1.1l.4.3.4.2c.3.2.5.3.8.5.5.3 1 .7 1.5 1l1.5.9c.3.1.5.3.8.4.3.1.5.3.8.4.5.3 1 .5 1.6.8.5.3 1.1.5 1.6.7.5.2 1 .5 1.6.7 4.2 1.7 8.5 2.9 12.7 3.6 8.4 1.4 16.2.8 22.9-.8 3.3-.8 6.4-1.8 9.1-3 .7-.3 1.3-.6 2-.9.6-.3 1.3-.6 1.9-.9l1.8-.9c.6-.3 1.1-.6 1.6-1 4.2-2.5 7.2-5 9.1-6.8.2-.2.5-.4.7-.6.2.1.4-.1.6-.3.4-.3.7-.6.9-.9l.7-.7-.7.7c-.3.2-.6.5-.9.9z" fill="url(#_Linear1)" transform="translate(49.807 51.074) scale(.56824)"/><path d="M82.2-1.1s-.1-.4-.3-1.1c-.1-.4-.2-.8-.4-1.3-.1-.3-.1-.5-.2-.8-.1-.3-.2-.6-.3-1-.9-2.7-2.3-6.7-5-11.3-.3-.6-.7-1.2-1-1.8l-1.2-1.8c-.4-.6-.8-1.2-1.3-1.9-.5-.6-.9-1.3-1.4-1.9-1.9-2.6-4.3-5.1-7-7.6s-5.9-4.9-9.4-7.1c-3.5-2.2-7.5-4.1-11.8-5.6-4.3-1.5-8.9-2.6-13.8-3.1-.6-.1-1.2-.1-1.8-.2-.6 0-1.2-.1-1.8-.1h-3.7c-.6 0-1.3 0-1.9.1-.6 0-1.3.1-1.9.1-.3 0-.6.1-1 .1h-1c-.6.1-1.3.2-1.9.2-.6.1-1.3.2-1.9.3-.6.1-1.3.2-1.9.4-.7.2-1.3.3-2 .5l-1 .2h-.2l-.2.1-.5.1c-.6.2-1.3.4-1.9.6-.6.2-1.3.4-1.9.6-1.3.4-2.5.9-3.8 1.4-2.5 1.1-4.9 2.3-7.3 3.7-1.2.7-2.3 1.5-3.5 2.2-.6.4-1.1.8-1.7 1.2l-.8.6-.8.7C-24.1-27.5-31.2-17.8-35-6.8c-.2.7-.5 1.4-.7 2.1l-.6 2.1c-.1.4-.2.7-.3 1.1L-37 .7c-.1.4-.2.7-.2 1.1l-.4 2.2c-.2.6-.3 1.3-.4 2 0 .4-.1.7-.1 1.1l-.2 2.2c0 .4-.1.7-.1 1.1l-.1 2.2v3.3l.1 1.1c.1.7.1 1.5.2 2.2l.3 2.2c0 .4.1.7.2 1.1l.4 2.2c.1.4.2.7.2 1.1l.5 2.1.6 2.2c.1.4.2.7.3 1.1l.6 2c.1.3.2.7.4 1l.8 2.1c.3.7.6 1.4.9 2l.4 1 .5 1c.3.7.6 1.3 1 2l1.1 1.9 2.4 3.6c.4.6.8 1.2 1.3 1.8l1.4 1.7c1.9 2.3 3.8 4.5 6 6.4.3.3.5.5.8.7l1.6 1.4.9.7c.6.4 1.1.9 1.7 1.3.6.4 1.2.8 1.8 1.3 2.4 1.6 4.9 3.1 7.4 4.4C.4 70.1 5.8 72 11.3 73l2 .4 2.1.3c1.4.1 2.8.3 4.1.4 2.8.2 5.5.1 8.2-.1 1.3-.1 2.7-.2 4-.5.7-.1 1.3-.2 2-.3.7-.1 1.3-.3 2-.4l.5-.1h.4l1-.2c.6-.2 1.3-.3 1.9-.5.6-.2 1.2-.4 1.9-.6l1.8-.6c.6-.2 1.2-.4 1.8-.7l.5-.2.4-.2c.3-.1.6-.3.9-.4.6-.3 1.2-.5 1.8-.8.6-.3 1.1-.6 1.7-.8.3-.1.6-.3.8-.4.3-.2.5-.3.8-.5.5-.3 1.1-.6 1.6-.9.5-.3 1.1-.6 1.6-1 .5-.3 1.1-.6 1.6-1 4.1-2.7 7.7-5.8 10.8-9.1 3.1-3.3 5.7-6.8 7.8-10.4 2.1-3.6 3.8-7.2 5.1-10.6 1.3-3.5 2.2-6.9 2.7-10 .2-.8.3-1.6.4-2.3.1-.8.2-1.5.3-2.2.1-.7.1-1.5.2-2.1 0-.7.1-1.4.1-2.1 0-4.9-.6-9.1-1.1-11.9-.1-.4-.1-.7-.2-1 0-.3-.1-.6-.2-.9-.1-.5-.2-1-.3-1.3 0-.7-.1-1.1-.1-1.1zm0 0s.1.4.2 1.1c.1.4.2.8.3 1.3.1.3.1.6.2.9.1.3.1.6.2 1 .5 2.8 1 7 .9 12.3 0 .7 0 1.4-.1 2.1-.1.7-.1 1.4-.2 2.2 0 .7-.2 1.5-.3 2.2-.1.8-.2 1.5-.3 2.3-.5 3.2-1.3 6.6-2.6 10.1-2.4 7-6.5 14.6-12.6 21.5-3.1 3.4-6.7 6.7-10.7 9.5-.5.4-1 .7-1.6 1.1-.5.3-1 .7-1.6 1-.5.3-1.1.6-1.6 1-.3.2-.6.3-.8.5-.3.2-.6.3-.9.4-.6.3-1.1.6-1.7.9-.6.3-1.2.6-1.8.8-.3.1-.6.3-.9.4l-.4.2-.4.3c-.6.2-1.2.5-1.8.7-.6.3-1.3.5-1.9.7-.6.2-1.3.4-1.9.7-.6.2-1.3.4-1.9.6l-1 .3h-.6l-.5.1c-.7.2-1.3.3-2 .5-.7.1-1.4.3-2 .4-1.4.3-2.7.4-4.1.6-2.8.3-5.6.5-8.5.4-1.4 0-2.9-.1-4.3-.2-.7-.1-1.4-.2-2.2-.3l-1.1-.1-1.1-.2c-5.8-.9-11.5-2.7-16.9-5.3-.7-.3-1.3-.7-2-1-.7-.3-1.3-.7-2-1.1-.3-.2-.7-.4-1-.6l-3-1.8c-.6-.4-1.3-.9-1.9-1.3-.6-.4-1.2-.9-1.8-1.4l-2.7-2.1c-.3-.2-.6-.5-.9-.8-.6-.5-1.1-1.1-1.7-1.6-.6-.5-1.1-1.1-1.6-1.7-.3-.3-.5-.6-.8-.8l-1.6-1.8c-.3-.3-.5-.6-.7-.9l-1.4-1.8c-.5-.6-.9-1.3-1.4-1.9-.2-.3-.5-.6-.7-1l-1.2-2c-.2-.3-.4-.7-.6-1-1.6-2.7-3-5.5-4.2-8.4l-.8-2.2c-.1-.4-.3-.7-.4-1.1l-.8-2.2c-.1-.4-.2-.7-.3-1.1l-.6-2.2-.5-2.3c-.1-.4-.2-.8-.2-1.2l-.4-2.4c-.1-.4-.1-.8-.2-1.2l-.3-2.3c-.3-3.1-.4-6.3-.2-9.4 0-.4 0-.8.1-1.2l.2-2.4c0-.4.1-.8.2-1.2.1-.8.2-1.5.3-2.3l.4-2.3c.1-.4.2-.8.3-1.1l.6-2.2c.1-.4.2-.7.3-1.1.2-.7.4-1.5.7-2.2.3-.7.5-1.5.8-2.2.1-.4.3-.7.4-1.1l.8-2.2.5-1c.3-.7.6-1.4 1-2.1.4-.7.7-1.4 1.1-2 .2-.3.4-.7.6-1l1.8-3c.4-.6.8-1.3 1.3-1.9.4-.6.9-1.2 1.3-1.8 3.6-4.8 7.9-9.1 12.5-12.6l.9-.7 2.7-1.8c1.2-.7 2.4-1.5 3.7-2.2 2.5-1.4 5.1-2.6 7.7-3.6 1.3-.5 2.6-1 3.9-1.4.7-.2 1.3-.4 2-.6.7-.2 1.3-.3 2-.5l.5-.1.2-.1h.2l1-.2c.7-.1 1.3-.3 2-.4.7-.1 1.3-.2 2-.3.7-.1 1.3-.2 2-.3.7-.1 1.3-.1 2-.2h2c.7 0 1.3-.1 2-.1h3.9c.6 0 1.3.1 1.9.1.6 0 1.3.1 1.9.2.6.1 1.2.1 1.9.2 4.9.7 9.6 1.9 13.9 3.5C51.9-41.8 59-37 64.4-31.9c2.7 2.6 5 5.2 6.9 7.8.5.6.9 1.3 1.4 1.9.4.6.9 1.2 1.3 1.9l1.2 1.8c.3.6.7 1.2 1 1.8C78.7-12 80.1-8 81-5.3c.1.3.2.7.3 1 .1.3.2.6.2.8.1.5.3 1 .4 1.3.2.7.3 1.1.3 1.1z" fill="url(#_Linear2)" transform="translate(49.807 51.074) scale(.56824)"/><path d="M78.4 1.3s-.1-.4-.3-1c-.1-.3-.2-.8-.4-1.3-.1-.3-.1-.5-.2-.8l-.3-.9c-.8-2.6-2.2-6.5-4.8-11-.3-.6-.7-1.1-1-1.7-.4-.6-.7-1.2-1.1-1.8L69.1-19c-.4-.6-.9-1.2-1.4-1.8-1.9-2.5-4.2-5-6.8-7.4-2.6-2.4-5.7-4.8-9.1-6.9-3.4-2.1-7.2-4-11.4-5.4-4.2-1.4-8.6-2.5-13.3-3-.6-.1-1.2-.1-1.8-.2-.6 0-1.2-.1-1.8-.1h-3.6c-.6 0-1.2 0-1.8.1-.6 0-1.2.1-1.8.1l-.9.1h-.5l-.5.1c-.6.1-1.2.2-1.9.2-.6.1-1.2.2-1.9.3-.6.1-1.2.2-1.9.3-.6.1-1.2.3-1.9.4l-.8.3h-.2l-.2.1-.5.1c-.6.2-1.3.4-1.9.5l-1.8.6c-1.2.4-2.4.9-3.6 1.4-2.4 1-4.8 2.2-7.1 3.6-1.2.7-2.3 1.4-3.4 2.2-.5.4-1.1.8-1.6 1.2l-1.6 1.2c-4.2 3.4-8.1 7.4-11.3 11.9-1.6 2.3-3.1 4.7-4.4 7.1-.3.6-.6 1.3-.9 1.9-.3.6-.6 1.3-.9 1.9l-1.2 3c-.1.3-.3.7-.4 1-.2.7-.4 1.3-.7 2-.2.7-.4 1.4-.6 2-.1.3-.2.7-.3 1l-.4 2c-.1.3-.2.7-.2 1l-.4 2.1-.3 2.1c0 .4-.1.7-.1 1.1l-.2 2.2c0 .4-.1.7-.1 1.1l-.1 2.1v3.2l.1 1.1c.1.7.1 1.4.2 2.1.3 2.8.8 5.7 1.4 8.5l.6 2.1c.1.4.2.7.3 1.1l.6 2c.1.3.2.7.4 1l.8 2c.3.7.6 1.3.9 2l.4 1 .5 1c.3.6.6 1.3 1 1.9l1 1.9 2.4 3.6c.4.6.8 1.2 1.2 1.7l1.3 1.7c1.8 2.2 3.7 4.3 5.8 6.2.2.3.5.5.8.7l.7.7 1.6 1.4c.6.4 1.1.9 1.7 1.3.6.4 1.1.8 1.7 1.2 2.3 1.6 4.7 3 7.2 4.3 5 2.5 10.2 4.3 15.5 5.3l2 .4c.7.1 1.3.2 2 .3 1.3.1 2.7.3 4 .3 2.7.2 5.3.1 7.9-.1 1.3-.1 2.6-.2 3.9-.4.6-.1 1.3-.2 1.9-.3.6-.1 1.3-.3 1.9-.4l.5-.1h.4l.9-.2c.6-.2 1.3-.3 1.9-.5l5.4-1.8.8-.4.9-.4c.6-.2 1.1-.5 1.7-.7.6-.3 1.1-.5 1.6-.8.3-.1.5-.3.8-.4.3-.1.5-.3.8-.4.5-.3 1.1-.6 1.6-.9l1.5-.9c.5-.3 1-.6 1.5-1C57.5 62.2 61 59.2 64 56c3-3.2 5.5-6.6 7.6-10.1 2.1-3.5 3.7-6.9 4.9-10.3 1.2-3.4 2.1-6.6 2.6-9.7.2-.8.2-1.5.4-2.3.1-.7.2-1.5.3-2.2.1-.7.1-1.4.2-2.1 0-.7.1-1.3.1-2 .2-5.2-.4-9.2-.8-11.9-.1-.3-.1-.7-.2-1 0-.3-.1-.6-.2-.8-.1-.5-.2-.9-.3-1.3-.1-.6-.2-1-.2-1zm0 0s.1.4.2 1.1c.1.3.2.8.3 1.3.1.3.1.5.2.8.1.3.1.6.2 1 .5 2.7 1 6.8.9 11.9 0 .6 0 1.3-.1 2s-.1 1.4-.2 2.1c0 .7-.2 1.4-.2 2.2-.1.7-.2 1.5-.3 2.3-.5 3.1-1.3 6.4-2.5 9.8-2.3 6.8-6.3 14.1-12.2 20.8-3 3.3-6.4 6.5-10.4 9.2-.5.4-1 .7-1.5 1-.5.3-1 .7-1.5 1-.5.3-1.1.6-1.6.9-.3.2-.5.3-.8.5-.3.2-.5.3-.8.4-.6.3-1.1.6-1.7.9-.6.3-1.1.5-1.7.8-.3.1-.6.3-.9.4l-.4.2-.5.1c-.6.2-1.2.5-1.8.7-.6.3-1.2.5-1.8.7-.6.2-1.2.4-1.9.6-.6.2-1.2.4-1.9.5l-.9.3h-.2l-.2.2-.5.1c-.6.2-1.3.3-1.9.5-.6.1-1.3.2-2 .4-1.3.3-2.7.4-4 .6-2.7.3-5.4.4-8.2.3-1.4 0-2.8-.1-4.2-.2-.7-.1-1.4-.2-2.1-.2l-1-.1-1-.2C3.7 75.3-1.8 73.5-7.1 71c-.7-.3-1.3-.7-2-1-.6-.3-1.3-.7-1.9-1.1-.3-.2-.6-.4-1-.5l-2.7-1.8c-.6-.4-1.2-.8-1.8-1.3-.6-.4-1.2-.9-1.8-1.3l-2.7-2.1c-.3-.2-.6-.5-.8-.7-.5-.5-1.1-1-1.6-1.5s-1-1.1-1.6-1.6l-.8-.8-1.4-1.6c-.3-.3-.5-.6-.7-.9l-1.4-1.8c-.5-.6-.9-1.2-1.3-1.8-.2-.3-.4-.6-.7-.9l-1.8-3c-1.6-2.6-2.9-5.3-4.1-8.1l-.8-2.1c-.1-.4-.3-.7-.4-1.1l-.8-2.2c-.1-.4-.2-.7-.3-1.1l-.6-2.2c-.7-3-1.2-6-1.5-9-.3-3-.3-6.1-.2-9.1 0-.4 0-.8.1-1.1l.2-2.2c0-.4.1-.7.2-1.1.1-.7.2-1.5.3-2.2l.4-2.2c.1-.4.2-.7.2-1.1l.6-2.2c.1-.4.2-.7.3-1.1.2-.7.4-1.4.7-2.1.2-.7.5-1.4.7-2.1.1-.4.3-.7.4-1l.8-2 .5-1c.3-.7.6-1.4.9-2 .3-.7.7-1.3 1-2 .2-.3.4-.6.5-1l1.2-2 1.8-2.7c.4-.6.9-1.2 1.3-1.8 3.5-4.7 7.6-8.8 12.2-12.2l.8-.6.9-.6c.6-.4 1.2-.8 1.7-1.2 1.2-.7 2.4-1.5 3.6-2.1 2.4-1.4 4.9-2.5 7.4-3.5 1.3-.5 2.5-1 3.8-1.3.6-.2 1.3-.4 1.9-.6.6-.2 1.3-.3 1.9-.5l.5-.1.2-.1h.2l1-.2c.6-.1 1.3-.3 1.9-.4.6-.1 1.3-.2 1.9-.3.6-.1 1.3-.2 1.9-.3.6-.1 1.3-.1 1.9-.2h2c.6 0 1.3-.1 1.9-.1h3.7c.6 0 1.2.1 1.8.1.6 0 1.2.1 1.8.2.6.1 1.2.1 1.8.2 4.8.6 9.3 1.8 13.5 3.4 8.3 3.2 15.2 7.9 20.4 12.8 2.6 2.5 4.9 5 6.7 7.5.5.6.9 1.2 1.3 1.9.4.6.9 1.2 1.2 1.8.4.6.8 1.2 1.1 1.8.3.6.7 1.2 1 1.7 2.5 4.5 3.9 8.4 4.7 11l.3.9c.1.3.2.6.2.8.1.5.3.9.3 1.3.6.3.7.7.7.7z" fill="url(#_Linear3)" transform="translate(49.807 51.074) scale(.56824)"/><path d="M84.185 88.35l-.34.342a2.471 2.471 0 01-.398.34c-1.08 1.023-2.785 2.444-5.228 3.808-.284.17-.625.34-.91.511l-1.022.511c-.341.171-.682.341-1.08.512-.34.17-.738.34-1.136.511a30.75 30.75 0 01-5.171 1.591 33.59 33.59 0 01-6.08.74 31.063 31.063 0 01-6.762-.57 33.642 33.642 0 01-7.047-2.215c-.284-.114-.568-.284-.852-.398-.284-.17-.568-.284-.852-.455-.284-.17-.568-.34-.853-.454-.17-.057-.284-.17-.454-.228a1.727 1.727 0 01-.398-.284l-.852-.511c-.284-.17-.569-.398-.796-.568l-.398-.284-.454-.341c-.284-.228-.512-.398-.796-.625-.284-.228-.511-.398-.795-.625-.284-.228-.512-.455-.796-.682-.227-.228-.511-.455-.739-.74l-.397-.34-.398-.398c-.227-.227-.455-.511-.739-.738a9.893 9.893 0 01-.682-.796 18.612 18.612 0 01-1.307-1.648 29.722 29.722 0 01-2.33-3.58c-.34-.625-.681-1.25-1.022-1.932-.17-.34-.284-.682-.455-1.023l-.227-.511-.17-.511-.342-.853a21.13 21.13 0 01-1.932-1.08c.285.853.569 1.648.91 2.5l.454 1.024.512 1.022c.34.682.682 1.364 1.08 1.99.738 1.306 1.647 2.5 2.5 3.636.454.568.909 1.136 1.42 1.648.227.284.512.511.739.795.284.228.511.512.739.74l.397.397.398.34c.284.228.512.455.796.683l.852.682c.284.227.568.454.852.625.284.227.569.397.853.625l.227.17.227.114c.17.113.284.17.455.284.284.17.568.398.852.568l.853.512c.17.056.284.17.454.227.17.057.284.17.455.227.284.17.568.284.909.455.284.17.625.284.91.398.283.113.567.284.908.397a34.4 34.4 0 007.217 2.046c4.773.796 9.205.455 13.013-.455 1.875-.454 3.636-1.022 5.17-1.704.398-.17.74-.341 1.137-.512.341-.17.739-.34 1.08-.511l1.023-.512c.34-.17.625-.34.909-.568 2.386-1.42 4.091-2.841 5.17-3.864.114-.113.285-.227.399-.34.113.113.227 0 .34-.114a2.15 2.15 0 00.512-.512l.398-.398-.398.398a2.17 2.17 0 01-.512.512z" fill="#910d85"/><path d="M71.911 89.6a34.56 34.56 0 01-4.83 1.478 33.59 33.59 0 01-6.08.739 31.063 31.063 0 01-6.762-.568 33.642 33.642 0 01-7.046-2.217c-.284-.113-.568-.284-.852-.397-.284-.17-.568-.284-.853-.455-.284-.17-.568-.34-.852-.454-.17-.057-.284-.17-.455-.228a1.727 1.727 0 01-.397-.284l-.853-.511c-.284-.17-.568-.398-.795-.569l-.398-.284-.455-.34c-.284-.228-.511-.398-.795-.626-.284-.227-.512-.397-.796-.625-.284-.227-.511-.454-.795-.682-.227-.227-.512-.454-.739-.738l-.398-.341-.397-.398c-.228-.227-.455-.511-.74-.739a9.893 9.893 0 01-.681-.795c-.455-.512-.91-1.08-1.307-1.648a29.722 29.722 0 01-2.33-3.58c-.34-.625-.682-1.25-1.023-1.932-.17-.341-.284-.682-.454-1.023l-.227-.511-.17-.512-.342-.852a21.13 21.13 0 01-1.932-1.08c.284.853.568 1.648.91 2.5l.454 1.023.511 1.023c.341.682.682 1.364 1.08 1.989.739 1.307 1.648 2.5 2.5 3.637.455.568.91 1.136 1.42 1.648.228.284.512.511.74.795.284.227.51.512.738.739l.398.398.398.34c.284.228.511.455.795.682l.853.682c.284.228.568.455.852.625.284.228.568.398.852.625l.228.17.227.115c.17.113.284.17.455.284.284.17.568.397.852.568l.852.511c.17.057.284.17.455.228.17.056.284.17.454.227.285.17.569.284.91.455.284.17.625.284.909.397.284.114.568.284.909.398a34.4 34.4 0 007.217 2.046c4.773.795 9.205.454 13.012-.455a28.046 28.046 0 004.944-1.59c-.114.113-.17.113-.17.113z" fill="#183676"/><path d="M68.4 55.6c-1.6 2.5-3.1 4.5-4.3 5.9-.2.3-.4.5-.6.7-.2.2-.4.4-.5.6-.3.4-.6.7-.8.9-.5.5-.7.8-.7.8s.2-.3.7-.8c.2-.3.5-.6.9-.9.2-.2.4-.4.5-.6.2-.2.4-.5.6-.7 1.1-1.4 2.6-3.3 4.2-5.9z" fill="url(#_Linear4)" transform="translate(49.807 51.074) scale(.56824)"/><path d="M72.2-30.7s-.3-.3-.8-.9c-.3-.3-.6-.6-.9-1.1-.2-.2-.4-.4-.6-.7l-.7-.7c-2-2.1-5.2-5.1-9.8-8.2l-1.8-1.2c-.6-.4-1.3-.8-1.9-1.1-.6-.4-1.3-.8-2-1.1-.7-.4-1.4-.8-2.2-1.1-3-1.5-6.3-2.8-10-3.8-3.7-1.1-7.7-1.9-12-2.3-4.3-.4-8.8-.4-13.5.2-4.7.6-9.5 1.7-14.2 3.4-.6.2-1.2.5-1.8.7-.6.2-1.2.5-1.8.7-.6.3-1.2.5-1.7.8-.3.1-.6.3-.9.4-.3.1-.6.3-.9.5-.6.3-1.2.6-1.7.9-.6.3-1.1.7-1.7 1-.3.2-.6.3-.9.5l-.8.6c-.6.4-1.1.7-1.7 1.1-.6.4-1.1.8-1.6 1.2-.5.4-1.1.8-1.6 1.2-.5.4-1 .9-1.6 1.3l-.8.7-.8.8c-.5.5-1 .9-1.5 1.4l-1.5 1.5c-1 1-1.9 2-2.8 3.1-1.8 2.1-3.5 4.4-5.1 6.8-.8 1.2-1.5 2.4-2.2 3.7-.3.6-.7 1.3-1 1.9l-1 2c-5 10.5-7 22.7-5.6 34.7.1.7.2 1.5.3 2.2.1.7.3 1.5.4 2.2.1.4.1.7.2 1.1l.6 2.2c.1.4.2.7.3 1.1l.6 2.2c.2.7.5 1.4.7 2.2.1.4.2.7.4 1.1l.8 2.2c.1.4.3.7.4 1.1l.9 2.1c.3.7.7 1.4 1 2l.5 1 .6 1c.4.7.8 1.3 1.2 2 1.6 2.6 3.4 5.1 5.4 7.4l1.5 1.7c.3.3.5.6.8.9l2.4 2.4 1.7 1.6 1.8 1.5 1.8 1.4c.6.5 1.2.9 1.8 1.4l2.1.8c.3.2.6.4 1 .6l2 1.2c.3.2.7.4 1 .6.7.4 1.3.7 2 1.1l2.1 1c2.8 1.3 5.6 2.4 8.5 3.2.4.1.7.2 1.1.3l2.2.6 1.1.2c.7.2 1.5.3 2.2.5.7.1 1.5.2 2.2.4 3 .4 5.9.7 8.9.7 5.9.1 11.8-.7 17.4-2.3l2-.6c.7-.2 1.4-.4 2.1-.7 1.3-.5 2.7-1 4-1.6 2.6-1.1 5.1-2.4 7.5-3.8 1.2-.7 2.4-1.5 3.5-2.3.6-.4 1.1-.8 1.7-1.2.5-.4 1.1-.8 1.6-1.3l.4-.3.4-.4.8-.7c.5-.5 1-.9 1.6-1.3.5-.5 1-.9 1.5-1.4.5-.5 1-.9 1.4-1.4.5-.5.9-1 1.4-1.5l1.2-1.6c.4-.5.9-1 1.3-1.5l1.2-1.5c.2-.3.4-.5.6-.8l.6-.8c.4-.5.7-1.1 1.1-1.6.4-.5.7-1.1 1-1.6.3-.5.7-1.1 1-1.6 2.5-4.4 4.4-8.9 5.8-13.4 1.4-4.5 2.2-9 2.5-13.2.3-4.3.2-8.4-.2-12.2-.4-3.8-1.1-7.3-2.1-10.5-.2-.8-.5-1.6-.7-2.3-.3-.8-.5-1.5-.8-2.2-.3-.7-.5-1.4-.8-2.1-.3-.7-.6-1.3-.9-1.9-2.3-5-4.7-8.7-6.4-11-.2-.3-.4-.6-.6-.8-.2-.3-.4-.5-.6-.7-.4-.4-.6-.8-.9-1.1-.5-.6-.7-.9-.7-.9zm0 0s.2.3.7.9c.2.3.5.7.9 1.1.2.2.4.5.6.7.2.3.4.5.6.8 1.8 2.4 4.2 6 6.5 11 .3.6.6 1.3.9 1.9.3.7.5 1.4.8 2.1.3.7.5 1.4.8 2.2.3.8.5 1.5.8 2.3 1 3.2 1.8 6.7 2.3 10.5 1 7.6.7 16.5-1.8 25.7-1.3 4.6-3.1 9.2-5.6 13.8-.3.6-.6 1.1-1 1.7-.3.6-.7 1.1-1 1.7-.4.5-.7 1.1-1.1 1.6l-.6.9c-.2.3-.4.5-.6.8-.4.5-.8 1.1-1.2 1.6-.4.5-.8 1.1-1.3 1.6l-1.2 1.6c-.5.5-.9 1-1.4 1.5-.4.5-.9 1-1.4 1.5l-1.5 1.5c-.5.5-1 .9-1.5 1.4l-.8.7-.4.4-.4.3c-.5.4-1.1.9-1.6 1.3-.6.4-1.1.9-1.7 1.3-1.1.9-2.3 1.6-3.5 2.5-2.4 1.5-5 3-7.7 4.2-1.3.7-2.7 1.2-4.1 1.8-.7.3-1.4.5-2.1.7l-1.1.4-1.1.3c-5.8 1.8-11.9 2.7-18.1 2.8H21c-.8 0-1.6-.1-2.3-.1-.4 0-.8 0-1.2-.1l-1.2-.1L15 76c-.4 0-.8-.1-1.2-.1-.8-.1-1.6-.2-2.3-.4-.8-.1-1.6-.3-2.3-.4l-4.8-1.2c-.8-.2-1.5-.5-2.3-.7-.6-.2-1.4-.5-2.1-.8-.4-.1-.8-.3-1.1-.4l-2.2-1c-.4-.1-.7-.3-1.1-.5l-2.2-1c-.7-.4-1.4-.8-2.1-1.1-.4-.2-.7-.4-1.1-.6l-2-1.2c-.3-.2-.7-.4-1-.6l-2-1.3c-.7-.5-1.3-1-2-1.4l-1-.7-.9-.8c-.6-.5-1.3-1-1.9-1.6l-1.8-1.6-2.7-2.7c-.3-.3-.5-.6-.8-.9l-1.6-1.8c-2.1-2.5-4-5.1-5.7-7.9-1.7-2.8-3.2-5.6-4.5-8.6-.2-.4-.3-.7-.5-1.1l-.8-2.2c-.1-.4-.3-.8-.4-1.1-.2-.8-.5-1.5-.7-2.3-.2-.8-.4-1.5-.6-2.3l-.9-3.6c-.1-.4-.1-.8-.2-1.2-.1-.8-.3-1.6-.4-2.4l-.3-2.4c-.1-.4-.1-.8-.1-1.2l-.2-2.4v-1.2c0-.8-.1-1.6 0-2.4 0-.8 0-1.6.1-2.4 0-.4 0-.8.1-1.2l.2-2.4c0-.4.1-.8.1-1.2.1-.8.2-1.6.3-2.3.1-.8.3-1.5.4-2.3 1.2-6.1 3.1-12 5.9-17.4l1-2c.4-.7.7-1.3 1.1-2 .8-1.3 1.5-2.5 2.4-3.7 1.7-2.5 3.5-4.7 5.5-6.9 1-1 2-2.1 3-3.1.5-.5 1-1 1.6-1.5.5-.5 1.1-.9 1.6-1.4l.4-.3.4-.4.8-.6c.6-.4 1.1-.9 1.7-1.3.6-.4 1.1-.8 1.7-1.2.6-.4 1.1-.8 1.7-1.2.6-.4 1.2-.7 1.7-1.1l.4-.3.4-.2c.3-.2.6-.3.9-.5.6-.3 1.2-.7 1.8-1l1.8-.9c.3-.1.6-.3.9-.4.3-.1.6-.3.9-.4.6-.3 1.2-.5 1.8-.8.6-.2 1.2-.5 1.8-.7.6-.2 1.2-.5 1.8-.7 4.9-1.6 9.8-2.7 14.5-3.1 9.5-.9 18.3.3 25.6 2.6 3.7 1.1 7 2.5 10 4 .8.3 1.5.8 2.2 1.1.7.4 1.4.7 2 1.2.7.4 1.3.8 1.9 1.2l1.8 1.2c4.5 3.1 7.7 6.1 9.8 8.3l.7.7c.2.2.4.5.6.7.4.4.7.8.9 1.1.5.9.8 1.2.8 1.2z" fill="url(#_Linear5)" transform="translate(49.807 51.074) scale(.56824)"/><path d="M78.787 24.878s.057 0 .17-.056c.114-.057.285-.057.455-.171.17-.057.398-.227.682-.34.114-.058.227-.171.398-.285.057 0 .057-.057.114-.057.056 0 .056-.057.113-.113l.17-.171a.794.794 0 00.171-.227.769.769 0 00.17-.228l.342-.511c.056-.114.113-.17.17-.284.057-.114.057-.17.114-.284.057-.227.113-.398.17-.625.114-.455.114-.91.057-1.364a4.139 4.139 0 00-.398-1.364l-.17-.34c-.057-.114-.114-.171-.17-.285l-.455-.454c-.17-.17-.341-.341-.512-.455-.113-.057-.17-.114-.284-.17-.114-.057-.17-.114-.284-.171a3.288 3.288 0 00-1.193-.398c-.398-.057-.796-.113-1.137-.057h-.454c-.057 0-.17.057-.228.057-.056 0-.113.057-.227.057-.057 0-.114.057-.17.057-.057 0-.114.057-.17.057-.058 0-.115.057-.171.057-.057 0-.114.056-.114.056-.114.057-.17.057-.227.114-.057.057-.114.057-.17.114-.114.056-.114.113-.114.113l-.341-.454s.056-.057.17-.114c.057-.057.114-.057.17-.114.057-.056.171-.056.285-.113.057 0 .113-.057.17-.057.057 0 .114-.057.17-.057.057 0 .114-.057.228-.057.057 0 .17-.057.227-.057.057 0 .17-.056.228-.056.056 0 .17 0 .227-.057h.511c.398 0 .796 0 1.25.113.398.114.853.285 1.25.512.114.057.228.114.285.17.113.057.17.17.284.228.17.17.397.34.511.511l.114.114v.057l.057.056.113.17.114.114.34.682c.171.455.285.966.342 1.421.057.511 0 .966-.114 1.42-.057.228-.113.455-.227.626-.057.113-.114.227-.114.284-.057.113-.113.17-.17.284l-.341.511c-.057.057-.114.17-.17.228-.058.056-.114.17-.171.227a.784.784 0 01-.227.17l-.114.114c-.057 0-.057.057-.114.057-.113.113-.284.17-.398.284a2.53 2.53 0 01-.681.34c-.228.058-.341.115-.455.171h-.057z" fill="#7ac943"/><path d="M32.3-52.6s-.4-.3-1-.8-1.5-1.4-2.5-2.7c-.9-1.3-1.9-3-2.5-5.1-.1-.3-.2-.5-.2-.8-.1-.3-.1-.6-.2-.9-.1-.6-.2-1.2-.2-1.8v-2c0-.3.1-.7.1-1 0-.3.1-.7.1-1 .1-.3.1-.7.2-1 0-.2.1-.3.1-.5.1-.2.1-.3.2-.5s.1-.3.2-.5l.2-.6c.1-.3.3-.7.4-1 .6-1.3 1.4-2.7 2.5-3.9.2-.3.5-.6.8-.9l.4-.4c.2-.1.3-.3.5-.4.2-.1.3-.3.5-.4.2-.1.3-.2.5-.4.4-.2.7-.5 1.1-.7 1.5-.8 3.2-1.3 4.9-1.5 3.5-.4 7.3.6 10.2 3 2.9 2.3 4.5 6.4 4 10.2-.2.9-.4 1.9-.8 2.8-.1.2-.2.4-.3.7l-.5.6c-.1.2-.2.4-.4.6l-.2.3-.2.2v.1l-.4.5-.8.8-.3.2c-.2.1-.4.3-.6.4-.8.6-1.7.9-2.6 1.2-1.8.5-3.8.4-5.6-.2-.4-.2-.9-.3-1.3-.6-.2-.1-.4-.2-.6-.4l-.6-.4-.9-.9c-.2-.2-.3-.4-.4-.5-.1-.2-.3-.4-.4-.6-.9-1.6-1.2-3.5-.8-5.2.2-.9.5-1.7 1-2.4l.4-.5c0-.1 0 0 0 0v-.1l.8-.8c.2-.1.3-.3.5-.4 1.4-.9 3.2-1.2 4.7-.8.8.2 1.5.5 2.1 1h.1l.7.7c.1.2.2.3.3.5l.2.4c.6 1.3.6 2.9 0 4.1-.1.1-.2.3-.2.4-.1.1-.2.3-.3.4l-.3.3c-.1.1-.2.2-.4.3-.5.4-1.1.6-1.7.7-1.2.2-2.3-.2-3-.9-.8-.7-1-1.7-.9-2.5.1-.8.5-1.5 1.1-1.8.5-.4 1.1-.4 1.5-.4.4 0 .7.2.9.3.1.1.2.1.2.1h.1-.1s-.1-.1-.2-.1c-.2-.1-.5-.2-.9-.2s-.9.1-1.4.5c-.5.4-.8 1-.9 1.7 0 .4 0 .8.2 1.2.1.4.4.8.7 1 .7.6 1.7.9 2.7.7 1-.2 1.9-.9 2.4-2 .5-1 .5-2.3-.1-3.4l-.1-.2-.2-.2c-.1-.1-.2-.2-.3-.4l-.3-.3-.2-.1-.1-.1h-.1c-.5-.4-1.1-.7-1.8-.8-1.3-.3-2.8 0-3.9.8-.1.1-.3.2-.4.3l-.6.6v.1l-.3.5c-.4.6-.7 1.3-.8 2.1-.3 1.5 0 3.1.8 4.4.1.2.2.3.3.5.1.1.2.3.4.4.1.1.2.3.4.4l.5.4h.1l.3.3c.2.1.3.2.5.3.3.2.7.3 1.1.5 1.5.5 3.2.6 4.8.1.8-.2 1.5-.6 2.2-1 .2-.1.3-.2.5-.4l.8-.8.4-.5.3-.5c.1-.2.2-.3.3-.5l.6-1.2c.3-.8.5-1.6.7-2.4.5-3.4-.8-6.9-3.5-9-1.3-1-2.8-1.9-4.4-2.3-1.6-.5-3.2-.6-4.9-.5-1.6.2-3.2.6-4.5 1.3-.4.2-.7.4-1 .6-.2.1-.3.2-.5.3l-1 .6-.2.4-1.4 1.4v.1l-.1.1-.6.9-.2.2c0 .1-.1.2-.1.2l-.6 1-.2.4c-.1.3-.3.6-.4 1l-.1.2-.1.4c-.1.2-.1.3-.2.5s-.1.3-.2.5-.1.3-.1.5c-.1.3-.1.7-.2 1-.1.3-.1.6-.2 1 0 .3-.1.6-.1 1v1.8c0 .6 0 1.2.2 1.8 0 .3.1.6.1.8 0 .3.1.5.2.8.5 2.1 1.4 3.8 2.3 5.1.9 1.3 1.7 2.2 2.4 2.8.6.5.9.8.9.8z" fill="url(#_Linear6)" transform="translate(49.807 51.074) scale(.56824)"/><path d="M26.3-62.4s0-.3-.1-.8-.2-1.2-.6-2.1c-.4-.9-.9-1.9-1.8-2.8-.1-.1-.2-.3-.3-.4-.1-.1-.3-.2-.4-.3-.2-.2-.5-.4-.8-.7-.1-.1-.3-.2-.5-.3-.2-.1-.3-.2-.5-.3-.2-.1-.4-.2-.5-.3-.2-.1-.4-.2-.6-.2-.2-.1-.4-.1-.6-.2-.1 0-.2-.1-.3-.1-.1 0-.2-.1-.3-.1-.1 0-.2-.1-.3-.1h-.4c-.2 0-.4-.1-.6-.1-.9-.1-1.8-.1-2.7.1-.2 0-.5.1-.7.2-.1 0-.2.1-.4.1-.1 0-.2.1-.3.1-.1 0-.2.1-.3.1-.1 0-.2.1-.3.2-.2.1-.4.2-.7.4-.9.5-1.6 1.2-2.3 2-1.3 1.6-1.9 3.9-1.6 6.1.3 2.2 1.9 4.2 4 5.1.5.2 1.1.4 1.6.4h1.6l.4-.1h.2l.6-.3c.1-.1.3-.1.4-.2.5-.2 1-.6 1.4-1 .8-.8 1.4-1.8 1.6-2.9 0-.3.1-.5.1-.8v-.8l-.1-.4c0-.1-.1-.3-.1-.4 0-.1-.1-.3-.1-.4 0-.1-.1-.2-.2-.4-.5-.9-1.4-1.7-2.4-2-.5-.2-1-.2-1.5-.2h-.7c-.1 0-.3.1-.4.1-.1 0-.2.1-.3.1-.9.4-1.6 1.2-1.8 2.1-.1.4-.2.9-.1 1.4v.3c0 .1.1.2.1.3 0 .1.1.2.1.3l.2.2c.5.7 1.3 1.2 2.1 1.2h.6c.1 0 .2 0 .3-.1.1 0 .2-.1.3-.1.3-.1.6-.4.9-.6.4-.5.6-1.2.4-1.8-.1-.6-.6-1-1-1.2-.5-.2-.9-.2-1.3 0-.3.2-.5.4-.7.6-.1.2-.1.4-.1.6v.1-.1c0-.1 0-.3.2-.5.1-.2.3-.5.7-.6.3-.1.8-.1 1.2.1.2.1.4.2.5.4.1.2.3.4.3.7.1.5 0 1.1-.5 1.6-.4.5-1 .7-1.7.6-.7-.1-1.3-.5-1.7-1.1l-.2-.2c0-.1-.1-.2-.1-.3 0-.1 0-.2-.1-.3v-.3c0-.4 0-.8.1-1.1.2-.7.8-1.4 1.6-1.8.1 0 .2-.1.3-.1.1 0 .2-.1.3-.1h.6c.4 0 .9.1 1.3.2.8.3 1.6.9 2 1.7 0 .1.1.2.1.3 0 .1.1.2.1.3 0 .1.1.2.1.3l.1.4v.7c0 .2 0 .5-.1.7-.2.9-.7 1.8-1.4 2.5-.4.3-.8.6-1.2.8-.1.1-.2.1-.3.1l-.2.1h-.6l-.4.1h-1.6c-.5-.1-1-.2-1.4-.4-1.8-.8-3.2-2.5-3.5-4.5 0-.4.1-1.4.3-2.4.2-.9.7-1.8 1.2-2.6.6-.8 1.3-1.4 2-1.9l.6-.3c.1 0 .2-.1.3-.2l.9-.3c.2-.1.4-.1.6-.2l.3-.1h.3c.2 0 .4 0 .6-.1h1.4c.2 0 .4 0 .6.1h.3c.1 0 .2 0 .3.1.1 0 .2 0 .3.1.1 0 .2 0 .3.1.2.1.4.1.6.2.2.1.4.1.5.2.2.1.3.1.5.2s.3.2.5.3c.2.1.3.2.5.3.3.2.6.4.8.6.1.1.3.2.4.3l.3.3c.9.9 1.5 1.9 1.9 2.7.4.8.6 1.5.7 2 .2.6.3.8.3.8z" fill="url(#_Linear7)" transform="translate(49.807 51.074) scale(.56824)"/><path d="M2.9 72.5s.4.3 1 .8 1.5 1.4 2.5 2.7c.9 1.3 1.9 3 2.5 5.1.1.3.2.5.2.8.1.3.1.6.2.9.1.6.2 1.2.2 1.8v2c0 .3-.1.7-.1 1 0 .3-.1.7-.1 1-.1.3-.1.7-.2 1 0 .2-.1.3-.1.5.1.1 0 .3 0 .5-.1.2-.1.3-.2.5l-.2.6c-.1.3-.3.7-.4 1-.6 1.3-1.4 2.7-2.5 3.9-.2.3-.5.6-.8.9l-.4.4c-.2.1-.4.2-.5.3-.2.1-.3.3-.5.4-.2.2-.4.3-.5.4-.4.2-.7.5-1.1.7-1.5.8-3.2 1.3-4.9 1.5-3.5.4-7.3-.6-10.2-3-2.9-2.3-4.5-6.4-4-10.2.2-.9.4-1.9.8-2.8.1-.2.2-.4.3-.7l.3-.6c.1-.2.2-.4.4-.6l.2-.3.2-.2v-.1l.4-.5.8-.8.3-.2c.2-.1.4-.3.6-.4.8-.6 1.7-.9 2.6-1.2 1.8-.5 3.8-.4 5.6.2.4.2.9.3 1.3.6.2.1.4.2.6.4l.6.4.5.4.5.5c.2.2.3.4.4.5.1.2.3.4.4.6.9 1.6 1.2 3.5.8 5.2-.2.9-.5 1.7-1 2.4l-.4.6c0 .1 0 0 0 0v.1l-.8.8c-.2.1-.3.3-.5.4-1.4.9-3.2 1.2-4.7.8-.8-.2-1.5-.5-2.1-1h-.1l-.7-.7c-.1-.2-.2-.3-.3-.5l-.2-.4c-.6-1.3-.6-2.9 0-4.1.1-.1.2-.3.2-.4.1-.1.2-.3.3-.4l.3-.3c.1-.1.2-.2.4-.3.5-.4 1.1-.6 1.7-.7 1.2-.2 2.3.2 3 .9.8.7 1 1.7.9 2.5-.1.8-.5 1.5-1.1 1.8-.5.4-1.1.4-1.5.4-.4 0-.7-.2-.9-.3-.1-.1-.2-.1-.2-.1h-.1.1s.1.1.2.1c.2.1.5.2.9.2s.9-.1 1.4-.5c.5-.4.8-1 .9-1.7 0-.4 0-.8-.2-1.2-.1-.4-.4-.8-.7-1-.7-.6-1.7-.9-2.7-.7-1 .2-1.9.9-2.4 2-.5 1-.5 2.3.1 3.4l.2.4c.1.1.2.2.3.4l.6.6h.1c.5.4 1.1.7 1.8.8 1.3.3 2.8 0 3.9-.8.1-.1.3-.2.4-.3l.7-.7v-.1l.3-.5c.4-.6.7-1.3.8-2.1.3-1.5 0-3.1-.8-4.4-.1-.2-.2-.3-.3-.5-.1-.1-.2-.3-.4-.4l-.8-.8h-.1l-.3-.3c-.2-.1-.3-.2-.5-.3-.3-.2-.7-.3-1.1-.5-1.5-.5-3.2-.6-4.8-.1-.8.2-1.5.6-2.2 1-.2.1-.3.2-.5.4l-.8.8-.4.5-.3.5c-.1.2-.2.3-.3.5l-.6 1.2c-.3.8-.5 1.6-.7 2.4-.5 3.4.8 6.9 3.5 9 1.3 1 2.8 1.9 4.4 2.3 1.6.5 3.2.6 4.9.5 1.6-.2 3.2-.6 4.5-1.3.4-.2.7-.4 1-.6.2-.1.3-.2.5-.3l1-.6L6 95.4v-.1l-.3-.3.6-.9.2-.2c0-.1.1-.2.1-.2l.6-1 .2-.4c.1-.3.3-.6.4-1l.1-.2.1-.3c.1-.2.1-.3.2-.5s.1-.3.2-.5.1-.3.1-.5c.1-.3.1-.7.2-1 .1-.3.1-.6.2-1 0-.3.1-.6.1-1v-1.8c0-.6 0-1.2-.2-1.8 0-.3-.1-.6-.1-.8 0-.3-.1-.5-.2-.8C8 79 7.1 77.3 6.2 76c-.9-1.3-1.7-2.2-2.4-2.8-.6-.4-.9-.7-.9-.7z" fill="url(#_Linear8)" transform="translate(49.807 51.074) scale(.56824)"/><path d="M83.2-11.8s0 .1.1.3c.1.2.1.5.2.9.2.7.6 1.8 1.2 3.1.7 1.3 1.6 2.8 3 4.2 1.4 1.4 3.2 2.8 5.5 3.7.3.1.6.2.8.3.3.1.6.2.9.2.2 0 .3.1.5.1s.3 0 .5.1c.3 0 .6.1 1 .1 1.3.1 2.6 0 4-.3 2.7-.6 5.3-2.1 7.2-4.4.2-.3.5-.6.7-.9.2-.3.4-.6.6-1v-.1l.1-.1.1-.3c.1-.2.2-.4.3-.5.1-.3.3-.7.4-1 .4-1.4.5-3 .3-4.5s-.9-3-1.7-4.2c-.4-.6-1-1.2-1.5-1.7-.3-.2-.6-.5-.9-.7l-.5-.3-.2-.2h-.1l-.1-.1-.6-.3-.5-.2c-.2-.1-.3-.1-.5-.2-.2 0-.4-.1-.6-.1-.7-.2-1.5-.2-2.3-.1-.8.1-1.5.3-2.2.5-.7.3-1.4.7-2 1.1-.6.5-1.1 1-1.6 1.6-.1.2-.2.3-.3.5l-.2.2-.1.2c-.2.4-.3.7-.4 1-.4 1.4-.4 2.9.2 4.2.5 1.3 1.6 2.4 2.7 3.1l.5.3.6.3h.5c.7.1 1.3 0 1.9-.2 1.3-.3 2.3-1.2 2.9-2.2.6-1 .7-2.3.4-3.4-.4-1.1-1.2-1.9-2.2-2.3-.5-.2-1-.3-1.5-.3s-1 .2-1.4.4c-.4.2-.8.5-1 .9-.1.1-.1.2-.2.3 0 .1-.1.2-.2.3-.1.2-.1.4-.2.6-.2.8.1 1.6.5 2.1.2.3.5.5.7.6.1 0 .1.1.2.1s.1.1.2.1.3.1.4.1c.5.1 1-.1 1.3-.2.3-.2.5-.4.7-.6.1-.1.1-.1.1-.2v-.1.1s-.1.1-.1.2c-.1.2-.3.4-.6.6-.3.2-.8.4-1.4.3-.1 0-.3 0-.4-.1-.1 0-.2-.1-.2-.1-.1 0-.1-.1-.2-.1-.3-.2-.6-.4-.8-.7-.4-.4-.7-1.2-.6-2.2 0-.2.1-.5.2-.7 0-.1.1-.2.2-.3.1-.1.1-.2.2-.3.3-.4.7-.8 1.1-1.1.9-.6 2.2-.8 3.3-.3 1.1.4 2.1 1.4 2.6 2.7.5 1.3.4 2.8-.3 4.1-.7 1.3-1.9 2.3-3.4 2.8-.7.2-1.5.3-2.3.2-.2 0-.4-.1-.6-.1-.2 0-.4-.1-.6-.1-.2-.1-.4-.1-.6-.2l-.5-.2h-.2l-.1-.1-.3-.4c-.2-.1-.3-.2-.5-.4l-.8-.8c-.6-.6-1-1.3-1.3-2.1-.7-1.5-.8-3.4-.3-5 .1-.4.3-.9.5-1.2l.1-.1v-.2l.2-.3c.1-.2.2-.4.3-.5.5-.7 1.1-1.3 1.8-1.9.7-.5 1.5-1 2.3-1.3.8-.3 1.7-.5 2.6-.6.9-.1 1.8 0 2.7.1.2 0 .4.1.6.2.2.1.4.1.6.2.2.1.4.2.6.2l.6.3c3.2 1.7 5.3 4.8 5.9 8.3.3 1.7.1 3.5-.4 5.1-.1.4-.3.8-.5 1.2-.1.2-.2.4-.3.5l-.1.3-.1.1v.2c-.2.3-.4.7-.7 1-.2.3-.5.6-.7 1-2.1 2.5-5 4.1-7.9 4.7-.2 0-.4.1-.5.1-.2 0-.4 0-.5.1-.4 0-.7.1-1.1.1h-1.1c-.4 0-.7-.1-1-.1-.3 0-.7-.1-1-.2-.2 0-.3-.1-.5-.1s-.3-.1-.5-.1l-.9-.3c-.3-.1-.6-.2-.9-.4-2.3-1-4.2-2.5-5.5-4-1.4-1.5-2.3-3.1-2.9-4.4-.6-1.3-.9-2.5-1-3.2-.1-.4-.1-.7-.2-.9-.2-.3-.2-.4-.2-.4z" fill="url(#_Linear9)" transform="translate(49.807 51.074) scale(.56824)"/><path d="M82.14 19.082l-.114-.113c-.057-.114-.17-.228-.34-.398a2.228 2.228 0 01-.285-.739c-.057-.17-.057-.34-.057-.511v-.228c0-.113 0-.17.057-.284.057-.17.114-.397.227-.568l.341-.511a2.14 2.14 0 011.194-.569h.511c.057 0 .114 0 .17.057.228.057.455.17.626.341.17.17.34.341.397.568 0 .057.057.114.057.17 0 .058.057.115.057.171v.341c0 .228-.114.455-.227.625-.057.114-.17.17-.228.228-.056.057-.113.057-.17.113-.057 0-.114.057-.17.057 0 0-.057 0-.057.057h-.512a1.18 1.18 0 01-.568-.34 1.242 1.242 0 01-.17-.285c0-.057-.057-.114-.057-.17v-.114c0-.114 0-.227.057-.284.056-.114.113-.17.17-.228.114-.113.34-.227.511-.227h.114c.057 0 .114 0 .114.057.057.057.17.114.227.17.114.114.17.285.17.455 0 .17-.113.284-.227.398-.113.057-.284.113-.398.057-.113-.057-.227-.114-.284-.228-.057-.113-.057-.17-.057-.284 0-.057.057-.113.114-.17.057-.057.114-.057.114-.057h.057-.057c-.057 0-.057 0-.114.057l-.17.17a.362.362 0 000 .341c.056.114.17.227.284.284.17.057.34 0 .454-.057.17-.113.284-.284.284-.454a.96.96 0 00-.17-.568c-.17-.17-.341-.285-.625-.285-.227 0-.455.114-.682.285-.17.17-.284.397-.34.681 0 .285.056.512.226.74.17.226.398.397.682.454.057 0 .114.057.228.057h.511c.057 0 .057 0 .114-.057.056 0 .113-.057.17-.114.057-.057.114-.057.17-.114.114-.113.228-.17.285-.284.17-.227.284-.511.284-.795v-.398c0-.057-.057-.114-.057-.227 0-.057-.057-.114-.057-.228a1.551 1.551 0 00-.511-.681 1.189 1.189 0 00-.341-.228c-.057-.057-.114-.057-.17-.057-.057 0-.114-.056-.171-.056-.057 0-.114-.057-.227-.057h-.625c-.512.057-.966.34-1.307.682-.17.17-.285.397-.398.568-.114.227-.17.398-.17.625v.568c0 .17.056.341.113.512.114.34.227.568.398.738.113.17.284.341.34.398.171-.114.228-.114.285-.057z" fill="#ee007d"/><path d="M41.4-59.9s.1.2.2.7c.1.5.2 1.1.2 2 0 .9-.2 1.9-.6 3.1-.4 1.1-1.1 2.4-2.3 3.4-.3.3-.6.5-.9.7-.3.2-.7.4-1 .7-.7.4-1.5.7-2.4.9-.9.2-1.8.2-2.7.1-.9-.1-1.8-.5-2.7-1-1.7-1-3-2.7-3.5-4.7s.1-4.3 1.6-5.7c.4-.4.8-.7 1.2-.9.5-.3.9-.4 1.5-.6.5-.1 1-.2 1.5-.2s1 .1 1.5.3c1 .4 1.8 1.1 2.4 1.9.3.4.5.9.6 1.4l.1.3v1.2c-.1 1-.6 1.9-1.3 2.5-.4.3-.8.6-1.2.7l-.3.1c-.1 0-.2 0-.3.1h-.7c-.9-.1-1.8-.5-2.3-1.2-.3-.3-.5-.7-.6-1.1 0-.1 0-.2-.1-.3v-.9c.2-.8.7-1.4 1.3-1.8.6-.3 1.4-.3 2 0 .6.3.9.9 1 1.4.1.6-.1 1.1-.4 1.4-.3.3-.7.5-1.1.5-.4 0-.6-.2-.8-.3-.3-.3-.4-.6-.4-.6s0 .3.4.6c.2.1.4.3.8.3.3 0 .7-.2 1-.5.3-.3.5-.8.4-1.3-.1-.5-.4-1-1-1.2-.5-.3-1.2-.2-1.7.1-.6.3-1 .9-1.1 1.6-.1.7.1 1.4.6 2 .5.6 1.2.9 2 1h.6c.1 0 .2-.1.3-.1l.3-.1c.4-.2.7-.4 1-.6.6-.6 1-1.3 1.1-2.2.2-1.7-1-3.5-2.7-4.2-.4-.2-.9-.3-1.3-.3-.5 0-.9 0-1.4.2-.9.3-1.7.7-2.4 1.4-1.3 1.3-1.9 3.3-1.5 5.1.4 1.8 1.6 3.4 3.2 4.3 1.5.9 3.4 1.2 5 .9.8-.2 1.6-.5 2.3-.8.3-.2.7-.4 1-.6.3-.2.6-.5.9-.7.1-.1.3-.2.4-.4.1-.1.2-.3.4-.4.2-.3.4-.5.6-.8.2-.3.4-.5.5-.8.1-.1.1-.3.2-.4.1-.1.1-.3.2-.4.5-1.1.6-2.1.7-3 0-.9 0-1.5-.1-2-.1-.6-.2-.8-.2-.8z" fill="url(#_Linear10)" transform="translate(49.807 51.074) scale(.56824)"/><path d="M-49-63.4s-.1 0-.2.1c-.1 0-.4.1-.6.2-.6.2-1.4.4-2.4.9-1 .4-2.2 1-3.5 1.9-1.3.8-2.6 1.9-3.9 3.2-1.3 1.3-2.5 3-3.6 4.8-.5.9-1 1.9-1.4 3-.4 1-.7 2.1-1 3.3-.5 2.3-.6 4.7-.4 7.1.1 1.2.3 2.4.7 3.6.3 1.2.7 2.3 1.3 3.4.2.6.5 1.1.8 1.6.3.5.6 1.1 1 1.6.2.3.3.5.5.7.2.2.4.5.6.7l.6.7.5.6c.4.4.8.9 1.3 1.3.2.2.4.4.7.6.2.2.4.4.7.6.5.3 1 .7 1.4 1l1.5.9c2 1.1 4.1 1.8 6.1 2.2 2 .4 4 .5 5.8.4.4 0 .9-.1 1.3-.1.2 0 .4 0 .6-.1.2 0 .4-.1.6-.1.4-.1.8-.2 1.2-.2.4-.1.7-.2 1.1-.3.3-.1.7-.2 1-.3.3-.1.6-.2.9-.4.3-.1.6-.2.8-.3.3-.1.5-.3.7-.4.5-.2.9-.4 1.2-.6l.9-.6c.5-.3.7-.5.7-.5L-30-21s-.3.2-.8.5c-.3.2-.6.4-1 .6-.4.2-.9.4-1.4.7-.3.1-.5.3-.8.4l-.9.3c-.3.1-.7.2-1 .4-.4.1-.7.2-1.1.3l-1.2.3c-.4.1-.9.1-1.3.2-.2 0-.4.1-.7.1-.2 0-.5 0-.7.1-.5 0-.9.1-1.4.1-2 0-4.1-.1-6.3-.6s-4.4-1.4-6.5-2.6c-.5-.3-1-.6-1.6-1-.5-.4-1-.7-1.5-1.1-.3-.2-.5-.4-.7-.6-.2-.2-.5-.4-.7-.7-.5-.4-.9-.9-1.3-1.4l-.6-.7-.1-.1-.1-.2-.3-.4c-.2-.2-.4-.5-.6-.8-.2-.3-.4-.5-.5-.8-.4-.5-.7-1.1-1-1.7-.3-.6-.6-1.2-.8-1.7-.5-1.2-.9-2.4-1.2-3.7-.3-1.2-.5-2.5-.6-3.8-.2-2.5.1-5 .6-7.3.3-1.2.7-2.3 1.1-3.3.4-1.1 1-2.1 1.5-3 1.1-1.9 2.4-3.5 3.8-4.8 1.4-1.3 2.8-2.4 4.1-3.2 1.3-.8 2.5-1.4 3.6-1.8 1-.4 1.9-.6 2.4-.8.3-.1.5-.1.7-.2l-.1-.1z" fill="url(#_Linear11)" transform="translate(49.807 51.074) scale(.56824)"/><path d="M-8.9 78.7s-.2 0-.5.1c-.3 0-.7.1-1.3.1-1.2.1-2.9.2-5.1-.1-2.2-.3-4.8-1-7.5-2.5a21.8 21.8 0 01-7.7-6.7c-.6-.8-1.1-1.6-1.6-2.5-.5-.9-.9-1.8-1.3-2.7-.2-.5-.3-1-.5-1.5-.1-.5-.3-1-.4-1.5-.1-.3-.1-.5-.2-.8 0-.3-.1-.5-.1-.8V59c0-.3-.1-.5-.1-.8v-2.4c0-.3.1-.6.1-.8 0-.3.1-.6.1-.8 0-.3.1-.6.2-.8.1-.6.2-1.1.4-1.7.6-2.2 1.7-4.4 3.2-6.3 1.5-1.9 3.4-3.5 5.5-4.8 2.2-1.2 4.6-2 7.1-2.3l.9-.1h1c.7 0 1.3.1 1.9.2 1.3.2 2.5.5 3.7 1.1.6.2 1.2.6 1.7.9.1.1.3.2.4.3l.4.3c.3.2.6.3.8.6l.8.6c.1.1.2.2.4.3l.3.3c.5.4.9 1 1.3 1.5.1.1.2.3.3.4l.6.8.2.4c.3.6.6 1.1.9 1.8.1.3.3.6.4.9l.3.9c.1.3.2.6.2.9l.1.5v.5l.1.9v1.5c0 .2 0 .3-.1.5l-.1.5c0 .2 0 .3-.1.5l-.2 1-.3.9c-.1.3-.2.6-.4.9-.1.1-.1.3-.2.4l-.2.4c-1.2 2.1-3.2 3.9-5.5 5-.6.2-1.2.5-1.8.7-.3.1-.6.2-.9.2-.3.1-.6.1-1 .2l-.9.1h-1c-.3 0-.6-.1-.9-.1-.3 0-.6-.1-.9-.2-2.4-.6-4.5-2.1-5.8-4.1-.7-1-1.1-2.1-1.4-3.2-.1-.3-.1-.6-.2-.9v-1.8c0-.3.1-.6.1-.9.4-2.2 1.8-4.2 3.6-5.3.9-.6 1.9-.9 2.9-1.1h1.6c.3 0 .5 0 .7.1l.8.2c1.9.6 3.3 2.1 3.9 3.8.1.2.1.4.2.6 0 .2.1.4.1.6v1.3c-.1.8-.4 1.6-.9 2.3-.9 1.3-2.4 2-3.8 2.1-.7 0-1.4-.1-1.9-.4-.6-.3-1-.7-1.4-1.1-.7-.9-.9-1.9-.8-2.8.1-.9.6-1.5 1-1.9.5-.4.9-.5 1.2-.6.1 0 .3-.1.3-.1h.1-.1c-.1 0-.2 0-.3.1-.3.1-.7.3-1.1.7-.4.4-.8 1-.9 1.8-.1.8.2 1.8.8 2.6.3.4.8.8 1.3 1 .5.2 1.1.4 1.8.3 1.3-.1 2.6-.8 3.4-2 .4-.6.7-1.3.7-2.1v-.6c0-.2 0-.4-.1-.6 0-.2-.1-.4-.1-.6-.1-.2-.1-.4-.2-.6-.6-1.5-1.9-2.8-3.5-3.3l-.6-.2c-.2-.1-.4-.1-.7-.1h-1.4c-.9.2-1.8.5-2.6 1-1.6 1-2.8 2.8-3.1 4.7 0 .2-.1.5-.1.7v1.4c.1.3.1.5.2.8.3 1 .7 2 1.3 2.8 1.2 1.7 3.1 3.1 5.2 3.6 4.4 1 9.2-1.5 11.4-5.6l.2-.4c.1-.1.1-.3.2-.4.1-.3.2-.5.3-.8l.3-.8.2-.9c0-.1.1-.3.1-.4v-2l-.1-.9-.2-.8c-.1-.3-.1-.6-.2-.9v-.4c-.1-.3-.2-.6-.3-.8-.2-.6-.5-1.1-.8-1.6l-.6-1.2c-.3-.1-.3-.2-.4-.3-2.9-3.8-7.8-5.9-12.5-5.4-2.3.3-4.6 1-6.6 2.1s-3.8 2.6-5.2 4.4c-1.4 1.8-2.4 3.8-3.1 5.9-.2.5-.3 1-.4 1.6-.1.3-.1.5-.2.8 0 .3-.1.5-.1.8 0 .3-.1.5-.1.8v2.4c0 .3 0 .5.1.8v.4s0 .1 0 0v.3c0 .3.1.5.1.8.1.3.1.5.2.8.1.5.2 1 .4 1.5s.3 1 .5 1.4c.3.9.7 1.8 1.2 2.7.5.8.9 1.7 1.5 2.4 1 1.5 2.2 2.8 3.5 3.9 1.2 1.1 2.6 2.1 3.9 2.8 2.6 1.5 5.2 2.3 7.3 2.6 2.1.4 3.9.4 5 .3.6 0 1-.1 1.3-.1.2-.1.4-.1.4-.1z" fill="url(#_Linear12)" transform="translate(49.807 51.074) scale(.56824)"/><path d="M-35 56s.1-.4.3-1.1c.2-.7.4-1.8.5-3.2 0-1.4-.1-3.1-.6-5-.1-.2-.1-.5-.2-.7-.1-.2-.2-.5-.3-.7-.2-.5-.4-.9-.7-1.4-.1-.2-.3-.5-.4-.7-.2-.2-.3-.5-.5-.7-.2-.2-.4-.4-.5-.7-.2-.2-.4-.5-.6-.7l-.6-.6c-.2-.2-.5-.4-.7-.6-.1-.1-.2-.2-.4-.3l-.2-.2-.2-.1c-.3-.2-.5-.4-.8-.5-1.1-.7-2.2-1.3-3.5-1.7-.3-.1-.7-.2-1-.2l-1.5-.3h-1.5c-1.4.1-2.8.5-4.1 1.1-1.3.6-2.5 1.5-3.5 2.6s-1.8 2.4-2.3 3.8c-1 2.8-.4 6.2 1.5 8.5.5.6 1 1.1 1.6 1.5.2.1.3.2.5.3l.5.3c.2.1.3.2.5.3l.5.2.6.2h.2l.6.2h.3c.2 0 .4.1.5.1.7.1 1.5 0 2.2-.2 1.4-.4 2.7-1.2 3.6-2.3l.6-.9c.1-.2.2-.3.3-.5l.1-.2.1-.1v-.1l.2-.5c0-.2.1-.3.1-.5s0-.3.1-.5v-.5c0-1.4-.5-2.7-1.4-3.7-.4-.5-1-.9-1.5-1.2l-.4-.2h-.2l-.3-.1-.4-.1c-.2 0-.3 0-.5-.1-1.2-.1-2.5.4-3.3 1.2-.4.4-.8.9-1 1.4v.1l-.3.3c0 .1-.1.3-.1.4v.8c.1 1.1.7 2.1 1.5 2.7.8.6 1.9.7 2.7.4.9-.3 1.5-1 1.7-1.8.1-.4.1-.8.1-1.1-.1-.4-.2-.7-.4-1-.4-.5-1-.9-1.5-.9-.5-.1-1 .1-1.3.3-.3.2-.5.4-.6.6-.1.1-.1.2-.1.2v.1-.1s0-.1.1-.2c.1-.2.3-.4.6-.7.3-.2.8-.4 1.4-.4.6 0 1.2.3 1.7.9.5.6.7 1.5.5 2.4-.2.9-.9 1.7-1.9 2.1-.5.2-1.1.3-1.6.2-.1 0-.3 0-.4-.1-.2 0-.2-.1-.4-.1-.1-.1-.3-.1-.4-.2-.1-.1-.3-.1-.4-.2-1-.6-1.8-1.8-1.9-3.1v-1.1c0-.2.1-.4.1-.5l.1-.2v-.2c.2-.6.6-1.2 1.1-1.8 1-1 2.5-1.6 4-1.6.2 0 .4 0 .6.1.2 0 .4.1.6.1l.3.1h.3l.5.2c.7.3 1.3.8 1.9 1.4 1.1 1.2 1.8 2.8 1.8 4.4 0 .4 0 .8-.1 1.3 0 .2-.1.4-.1.6l-.2.5-.6 1.2c-.2.4-.5.7-.7 1-1.1 1.3-2.5 2.3-4.2 2.8-.8.2-1.7.3-2.6.3-.2 0-.4 0-.7-.1h-.3l-.3-.1c-.5-.1-.8-.2-1.2-.4h-.2l-.1-.1-.3-.1-1.2-.6c-.2-.1-.4-.2-.5-.4-.7-.5-1.3-1.1-1.9-1.8-2.2-2.7-2.9-6.5-1.7-9.7 1.1-3.2 3.6-5.8 6.5-7.1 1.4-.7 3-1 4.5-1.1h1.7l1.8.3c.4.1.7.2 1.1.3 1.4.4 2.6 1.1 3.7 1.9.3.2.5.4.8.6l.2.1.2.2c.1.1.2.2.4.3.2.2.5.4.7.7.2.2.4.5.6.7.2.2.4.5.6.7.2.2.4.5.5.7.2.3.3.5.5.8.2.2.3.5.4.8.2.5.5 1 .7 1.5.1.3.2.5.3.7.1.2.1.5.2.7.5 1.9.5 3.7.4 5.1-.2 1.4-.5 2.5-.7 3.2-.7 1.1-.8 1.4-.8 1.4z" fill="url(#_Linear13)" transform="translate(49.807 51.074) scale(.56824)"/><path d="M-54.9-21.6s-.1 0-.2-.1c-.2-.1-.4-.2-.7-.3-.6-.2-1.6-.5-2.8-.7-1.2-.2-2.7-.3-4.4-.1-.8.1-1.7.3-2.6.6-.2.1-.5.2-.7.2-.2.1-.4.2-.7.3-.1.1-.2.1-.3.2-.1.1-.2.1-.3.2-.2.1-.4.3-.7.4-.8.6-1.7 1.3-2.4 2.1-.7.9-1.3 1.8-1.8 2.9-.5 1.1-.8 2.3-.9 3.5v1.9c0 .3.1.6.1.9 0 .3.1.6.2.9.3 1.3.8 2.4 1.6 3.4s1.8 1.9 3 2.5c1.2.6 2.5 1 3.8 1 1.3 0 2.7-.2 3.8-.8 1.2-.6 2.2-1.5 2.8-2.6.3-.6.6-1.1.8-1.8l.1-.2v-.2c0-.2.1-.3.1-.5 0-.3.1-.6.1-1 0-.3 0-.6-.1-1 0-.2-.1-.3-.1-.5v-.3c0 .1 0 0 0 0v-.1c-.1-.2-.1-.3-.2-.5l-.2-.4c-.1-.3-.3-.5-.5-.8-.7-1-1.8-1.7-2.9-2.1-.6-.2-1.2-.2-1.8-.2-.3 0-.6 0-.9.1h-.4l-.2.1c-.1 0-.1.1-.2.1-.5.2-1 .5-1.4.9-.4.4-.7.9-.9 1.4-.4 1-.5 2.1-.1 3.2.1.1.1.2.1.3.1.1.1.2.2.3.1.2.3.4.5.6.4.4.8.6 1.2.8.9.3 1.9.3 2.7-.1.4-.2.7-.5 1-.8.3-.3.4-.7.5-1.1.2-.8 0-1.6-.4-2.1-.4-.6-1.1-.9-1.6-.9-.6 0-1.1.1-1.5.4-.4.3-.6.7-.7 1-.1.3-.1.6-.1.7v.3s0-.1-.1-.3c0-.2-.1-.4 0-.8.1-.3.3-.7.6-1.1.4-.3 1-.6 1.6-.5.7 0 1.4.3 1.9.9.5.6.8 1.5.6 2.5-.1.5-.3.9-.5 1.3-.3.4-.7.8-1.1 1-.1.1-.3.1-.4.2-.1.1-.2.1-.4.1-.1.3-.2.3-.3.4-.1 0-.3 0-.4.1-.6 0-1.1 0-1.7-.2-1.1-.4-2.1-1.2-2.6-2.5-.5-1.1-.5-2.6 0-3.8.5-1.3 1.5-2.3 2.8-2.9.1 0 .2-.1.3-.1l.2-.1h.3l.3-.1c.3-.1.7-.1 1.1-.2.7 0 1.4 0 2.2.2 1.4.4 2.7 1.3 3.6 2.5.2.3.4.6.6 1l.2.5c.1.2.1.3.2.5v.3l.1.3c0 .2.1.4.1.6 0 .4.1.8.1 1.1 0 .4 0 .8-.1 1.1 0 .2-.1.4-.1.6 0 .1 0 .2-.1.3l-.1.3c-.2.7-.5 1.4-.9 2.1-.8 1.3-2 2.4-3.4 3.1-.4 0-.7.2-1.1.2l-.3.1h-.3l-.6.1c-.4.1-.8.1-1.1.2h-1.1c-1.5-.1-3-.5-4.3-1.2-1.3-.7-2.5-1.7-3.4-2.8-.9-1.2-1.5-2.5-1.8-3.9-.1-.3-.2-.7-.2-1 0-.3-.1-.7-.1-1V-12l.1-.5c.2-1.3.5-2.6 1.1-3.8.5-1.1 1.2-2.2 2-3.1.8-.9 1.7-1.6 2.6-2.2 1.9-1.1 3.9-1.6 5.6-1.8 1.8-.2 3.3 0 4.5.3 1.2.3 2.1.7 2.8.9.3.1.5.3.7.3.3.2.4.3.4.3z" fill="url(#_Linear14)" transform="translate(49.807 51.074) scale(.56824)"/><path d="M-58.9-24.4h.4c.3 0 .6-.1 1.1-.2.5-.1 1-.3 1.6-.7.3-.2.6-.4.8-.7l.6-.6c.1-.1.1-.2.2-.2.2-.3.4-.7.5-1.2.1-.4.2-.9.2-1.3 0-.5-.1-.9-.2-1.4l-.2-.4c-.1-.1-.1-.2-.2-.3-.1-.1-.1-.2-.2-.3-.1-.1-.1-.2-.2-.3-.3-.4-.7-.7-1.1-1-.4-.2-1-.4-1.5-.4s-1 .1-1.5.3c-.5.2-.9.5-1.3.9-.3.4-.5.9-.6 1.4v1.2c0 .1.1.2.1.4 0 .1.1.2.2.3 0 .1.1.1.1.2l.3.3c.1.1.2.1.3.2.4.2.9.3 1.4.3.2 0 .5-.1.7-.2.1-.1.2-.1.3-.2l.3-.3c.1-.2.3-.4.3-.6.1-.2.1-.4.1-.6 0-.4-.2-.8-.5-1.2l-.2-.2c-.1-.1-.2-.1-.3-.1-.2-.1-.4-.1-.6-.1-.4 0-.7.2-1 .5-.1.1-.2.3-.2.4v.5c.1.3.3.6.5.7.2.1.5.1.7.1.2-.1.4-.2.5-.4.1-.2.1-.3.1-.5 0-.1-.1-.2-.1-.3 0-.1-.1-.1-.1-.1l.1.1c0 .1.1.1.1.3 0 .1 0 .3-.1.5s-.3.4-.5.5c-.2.1-.6.1-.8 0-.3-.1-.5-.4-.6-.8 0-.2-.1-.4 0-.6 0-.2.1-.4.2-.6l.4-.4c.2-.1.4-.2.6-.2.5 0 1 .1 1.3.5.3.3.6.8.6 1.4 0 .5-.2 1.1-.5 1.5l-.3.3c-.1.1-.2.2-.4.2-.3.1-.5.2-.8.3-.6.1-1.2 0-1.7-.3-.1-.1-.3-.2-.4-.3l-.2-.2c-.1-.1-.1-.1-.1-.2l-.1-.1c0-.1-.1-.1-.1-.2-.1-.1-.2-.3-.2-.4-.1-.1-.1-.3-.2-.4 0-.1 0-.1-.1-.2v-.2c-.1-.3 0-.6 0-.9.1-.6.3-1.2.7-1.7l.4-.4.2-.1c.1-.1.3-.2.4-.2.1-.1.3-.1.4-.2.6-.2 1.2-.3 1.7-.3.6 0 1.2.2 1.7.5s.9.7 1.3 1.1c.1.1.2.2.2.3.1.1.1.2.2.4.1.1.1.2.2.4 0 .1.1.1.1.2l.1.2c.2.5.2 1 .2 1.5s-.1 1-.2 1.4c-.2.4-.4.9-.6 1.2-.5.7-1.1 1.2-1.7 1.6-.6.3-1.2.5-1.7.6-.5.1-.9.1-1.1.1h-.3l.3-.1z" fill="url(#_Linear15)" transform="translate(49.807 51.074) scale(.56824)"/><path d="M26.907 72.894s-.114 0-.284-.056c-.17-.057-.455-.114-.853-.284-.738-.228-1.818-.682-3.011-1.421-1.193-.796-2.614-1.875-3.864-3.466-1.25-1.591-2.387-3.637-2.898-6.137-.568-2.444-.512-5.285.398-8.012a11.822 11.822 0 012.159-3.864c.966-1.194 2.216-2.16 3.58-2.955 1.42-.739 2.955-1.25 4.602-1.42 1.648-.171 3.296-.058 4.887.454l.569.17c.17.057.397.17.568.284.398.17.739.398 1.136.625l.512.341c.17.114.34.228.511.398l.455.398.682.682.113.17.114.114.398.511.227.228.34.568.115.113.056.17.285.57.113.34.227.568.114.341.17.625.114.341.114.682.057.17v.171c.057.455.057.852.057 1.307v.625l-.057.625c0 .227-.057.398-.114.625l-.057.284-.057.17v.171l-.17.569-.057.17c0 .057-.057.114-.057.17l-.227.569c-.057.113-.114.17-.17.284l-.171.284c-.057.114-.114.17-.17.284l-.398.511-.398.455-.682.682-.227.17c-2.898 1.99-6.876 2.217-9.49.17-1.307-.965-2.16-2.443-2.443-3.977a7.616 7.616 0 010-2.273c.057-.17.057-.397.113-.568v-.17l.17-.341c.058-.17.171-.341.228-.512.114-.17.17-.34.284-.454.853-1.25 2.216-2.046 3.58-2.217.682-.113 1.364-.056 2.046.114h.17l.114.057.227.057c.17.057.341.113.455.227.17.114.284.17.398.284l.227.17.17.171c.228.227.455.455.626.739.17.284.34.568.454.852.227.568.341 1.194.284 1.762 0 .17-.057.284-.057.454-.056.17-.056.284-.113.398-.057.17-.057.284-.17.398-.058.114-.114.284-.171.398-.284.511-.682.852-1.137 1.136-.909.568-1.988.568-2.784.284-.455-.17-.796-.454-1.08-.738-.284-.285-.454-.682-.568-1.023-.17-.739-.057-1.42.227-1.875.285-.512.74-.74 1.137-.853.398-.113.682-.113.852-.057.114 0 .17.057.228.057h.056-.056c-.057 0-.114-.057-.228-.057-.17 0-.511 0-.852.114a2.127 2.127 0 00-1.08.852 2.995 2.995 0 00-.284.853c-.057.284 0 .625.057.966.114.34.284.682.511.966.284.284.625.511.966.682a2.916 2.916 0 002.614-.341 3.727 3.727 0 001.023-1.08l.17-.34c.057-.115.114-.285.114-.399 0-.113.057-.284.057-.397 0-.114.057-.285.057-.398 0-.512-.057-1.08-.284-1.591a3.061 3.061 0 00-.398-.739c-.17-.227-.341-.455-.568-.625l-.17-.17-.171-.114a.916.916 0 00-.398-.227c-.114-.057-.284-.114-.398-.171l-.227-.057-.114-.057h-.113c-.569-.17-1.25-.17-1.876-.056-1.25.17-2.443.966-3.182 2.045-.113.114-.17.284-.227.455-.057.17-.114.284-.227.454l-.057.285-.057.113v.114c-.057.17-.057.34-.114.511a5.27 5.27 0 00.057 2.103 6.31 6.31 0 002.216 3.58c.17.113.284.227.455.284.17.113.34.17.455.284.17.057.34.17.511.227l.568.17c.739.171 1.478.285 2.216.228.74-.057 1.535-.17 2.216-.455a5.342 5.342 0 001.99-1.136l.227-.17a.784.784 0 01.227-.171l.454-.455.398-.454.341-.455c.057-.057.114-.17.17-.227l.171-.227c.057-.057.114-.17.17-.228l.228-.568c0-.057.057-.057.057-.114l.057-.17.17-.568.114-.569c.057-.17.113-.397.113-.568l.057-.568v-.568c0-.398 0-.796-.057-1.194v-.34l-.056-.285-.057-.568v-.17l-.057-.17c-.739-3.07-3.182-5.683-6.194-6.592a10.744 10.744 0 00-2.273-.455 15.941 15.941 0 00-2.33 0 12.31 12.31 0 00-4.318 1.307c-2.671 1.42-4.66 3.807-5.569 6.421-.91 2.614-1.023 5.341-.511 7.728.113.625.284 1.193.454 1.705.17.568.398 1.08.625 1.59.455 1.024 1.023 1.933 1.591 2.728a15.236 15.236 0 003.75 3.523c1.194.796 2.274 1.25 2.955 1.535.341.17.626.227.853.284.17.113.284.113.284.113z" fill="#7ac943"/><path d="M-73.2 35.1l7.2 3.4c1.9.9 4.1 1 6.1.1l2.3-1c2-.8 4-1.3 6.1-1.4h.8l-6.2-3.6c-2.5-1.4-5.4-1.8-8.1-1.2l-7 1.6 5.5-.4c2-.2 3.9.3 5.7 1.3l1.8 1-3.4-1.1c-1.3-.4-2.6-.5-3.9-.2l-6.9 1.5z" fill="url(#_Linear16)" transform="translate(49.807 51.074) scale(.56824)"/><path d="M13.9 60.2l-7.8-1.9c-2.1-.5-3.8-1.8-4.8-3.7L.1 52.4c-1-1.9-2.3-3.5-3.9-4.9l-.6-.5 7.1 1.1c2.8.5 5.3 1.9 7 4.2l4.4 5.7-4-3.8c-1.4-1.4-3.3-2.2-5.2-2.6l-2-.3 3.4 1.3c1.3.5 2.4 1.3 3.2 2.3l4.4 5.3z" fill="url(#_Linear17)" transform="translate(49.807 51.074) scale(.56824)"/><path d="M-40.2 82.5l4.8-6.4c1.3-1.7 1.7-3.9 1.3-5.9l-.5-2.4c-.4-2.1-.5-4.2-.1-6.3l.1-.8-4.7 5.4c-1.9 2.1-2.8 4.9-2.7 7.7l.2 7.2.7-5.5c.2-2 1.1-3.8 2.4-5.3l1.3-1.5-1.8 3.1c-.7 1.2-1 2.5-1 3.8v6.9z" fill="url(#_Linear18)" transform="translate(49.807 51.074) scale(.56824)"/><path d="M-74.8 22.1l7.4-3c2-.8 3.5-2.4 4.3-4.3l.9-2.3c.7-2 1.8-3.8 3.2-5.4l.5-.6-6.9 2.1c-2.7.8-5 2.7-6.4 5.1l-3.6 6.2 3.4-4.3c1.2-1.5 2.9-2.7 4.8-3.3l1.9-.6-3.1 1.7c-1.2.6-2.2 1.6-2.9 2.7l-3.5 6z" fill="url(#_Linear19)" transform="translate(49.807 51.074) scale(.56824)"/><path d="M-62.3 62.2l2.8-4.3c.8-1.1 1-2.5.7-3.8l-.4-1.5c-.3-1.3-.4-2.7-.3-4l.1-.5-2.8 3.6c-1.1 1.4-1.6 3.2-1.5 5l.4 4.6.2-3.5c.1-1.3.6-2.5 1.3-3.5l.8-1-1 2c-.4.8-.6 1.6-.5 2.5l.2 4.4z" fill="url(#_Linear20)" transform="translate(49.807 51.074) scale(.56824)"/><path d="M-16.5 70.7l-4.5-2.5c-1.2-.7-2.6-.8-3.9-.3l-1.5.5c-1.3.4-2.6.7-4 .6h-.5l3.8 2.5c1.5 1 3.3 1.4 5.1 1.1l4.5-.8-3.5.1c-1.3 0-2.5-.3-3.6-1l-1.1-.7 2.1.9c.8.3 1.7.4 2.5.3l4.6-.7z" fill="url(#_Linear21)" transform="translate(49.807 51.074) scale(.56824)"/><path d="M-64.7 30.6l3.6-3.7c.9-1 1.4-2.3 1.3-3.7l-.1-1.6c-.1-1.3.1-2.7.4-4l.1-.5-3.4 3c-1.4 1.2-2.2 2.9-2.4 4.7l-.4 4.6.9-3.4c.3-1.2 1-2.3 1.9-3.2l1-.9-1.4 1.8c-.5.7-.8 1.5-.9 2.3l-.6 4.6z" fill="url(#_Linear22)" transform="translate(49.807 51.074) scale(.56824)"/><path d="M-48.8 22.9l-4.8-1.6c-1.3-.4-2.3-1.4-2.9-2.6l-.6-1.5c-.5-1.2-1.3-2.4-2.2-3.3l-.4-.4 4.5 1.1c1.8.4 3.3 1.5 4.3 3l2.5 3.8-2.3-2.6c-.8-.9-1.9-1.6-3.2-1.9l-1.3-.3 2.1 1c.8.4 1.4.9 1.9 1.6l2.4 3.7z" fill="url(#_Linear23)" transform="translate(49.807 51.074) scale(.56824)"/><path d="M-50.8 8.4l-1.8-4.8c-.5-1.3-.4-2.7.2-3.9l.7-1.4c.6-1.2 1-2.5 1.2-3.9l.1-.5 2 4.1c.8 1.6.9 3.5.4 5.2l-1.4 4.4.5-3.5c.2-1.2 0-2.5-.6-3.7l-.6-1.2.6 2.2c.2.8.2 1.7 0 2.5l-1.3 4.5z" fill="url(#_Linear24)" transform="translate(49.807 51.074) scale(.56824)"/><path d="M-45.6-14.3l-4.8 1.9c-1.3.5-2.7.4-3.9-.2l-1.4-.7c-1.2-.6-2.5-1-3.9-1.2l-.5-.1 4.1-2c1.6-.8 3.5-.9 5.2-.4l4.4 1.4-3.5-.5c-1.2-.2-2.5 0-3.7.6l-1.2.6 2.2-.6c.8-.2 1.7-.2 2.5 0l4.5 1.2z" fill="url(#_Linear25)" transform="translate(49.807 51.074) scale(.56824)"/><path d="M-12.7-2.9l-5.1.7c-1.3.2-2.7-.2-3.7-1.1l-1.2-1c-1-.9-2.2-1.6-3.5-2l-.5-.2 4.5-1c1.8-.4 3.6-.1 5.2.8l3.9 2.3-3.3-1.3c-1.1-.3-2.4-.5-3.6-.2l-1.3.3h2.3c.9 0 1.7.2 2.4.6l3.9 2.1z" fill="url(#_Linear26)" transform="translate(49.807 51.074) scale(.56824)"/><path d="M-36.5 31.1l.2-3.6c.1-1 .5-1.8 1.3-2.4l.9-.7c.7-.6 1.4-1.3 1.9-2.1l.2-.3v3.2c0 1.3-.5 2.5-1.3 3.4l-2.2 2.4 1.4-2.1c.5-.7.7-1.6.7-2.5v-.9l-.3 1.6c-.1.6-.4 1.1-.8 1.6l-2 2.4z" fill="url(#_Linear27)" transform="translate(49.807 51.074) scale(.56824)"/><path d="M-70.3 4.1l2.1-3c.5-.8 1.4-1.3 2.3-1.4l1.1-.1c.9-.1 1.9-.4 2.7-.8l.3-.2-1.6 2.8c-.6 1.1-1.7 1.9-2.9 2.3l-3.1.9 2.2-1.1c.8-.4 1.5-1 1.9-1.8l.5-.8-1.1 1.2c-.4.4-.9.8-1.5 1l-2.9 1z" fill="url(#_Linear28)" transform="translate(49.807 51.074) scale(.56824)"/><path d="M-69.2-37.3c-6.1-6.8-16.8-5.5-16.8-5.5s2.7 8.2 13.6 12.6c0 0-8.3-.4-13.9-9.6 0 0 3.3 16.8 26.3 15.9 0 0-3.7-.1-6.3-7.3-.4-1.2-1.5-4.5-2.9-6.1z" fill="url(#_Linear29)" transform="translate(49.807 51.074) scale(.56824)"/><path d="M-49.1-24.3c-1.4-4 1.6-8 1.6-8s2.7 2.9 2 8.3c0 0 1.7-3.5-.8-7.8 0 0 6 5.1.5 14.2 0 0 .8-1.5-1.5-4.2-.4-.4-1.5-1.5-1.8-2.5z" fill="url(#_Linear30)" transform="translate(49.807 51.074) scale(.56824)"/><path d="M16.11 16.923c.625-1.42-.284-3.012-.284-3.012s-1.08.966-1.023 2.955c0 0-.51-1.307.569-2.784 0 0-2.387 1.648-.682 5.17 0 0-.227-.567.739-1.477.056-.113.511-.511.681-.852z" fill="#ee007d"/><path d="M-63.4-47.7c2-3 6.2-3.1 6.2-3.1s-.6 3.3-4.5 5.7c0 0 3.2-.6 4.8-4.5 0 0-.3 6.7-9.2 7.7 0 0 1.4-.2 2-3.2 0-.6.2-1.9.7-2.6z" fill="url(#_Linear31)" transform="translate(49.807 51.074) scale(.56824)"/><path d="M122.9-2.2c-.7-2.1-1.6-3.9-2.7-5.5s-2.2-2.9-3.3-4c-1.1-1.1-2.2-1.9-3.1-2.5-.9-.6-1.7-1-2.2-1.3-.3-.1-.5-.2-.6-.3-.1-.1-.2-.1-.2-.1s.1 0 .2.1.3.2.6.3c.5.3 1.3.7 2.2 1.4.9.6 1.9 1.5 3 2.6s2.2 2.4 3.2 4 1.9 3.4 2.5 5.5c.3 1 .6 2.1.7 3.2.2 1.1.2 2.2.3 3.4 0 2.3-.4 4.7-1.1 7-.4 1.2-.8 2.3-1.4 3.4-.6 1.1-1.2 2.1-2 3.1-.4.5-.8 1-1.2 1.4-.4.4-.8.9-1.3 1.3-.2.2-.4.4-.7.6-.2.2-.5.4-.7.6l-.7.5-.8.5c-.5.3-1 .7-1.5 1-.3.1-.5.3-.8.4-.3.1-.5.3-.8.4-.5.2-1.1.5-1.6.7-.5.2-1.1.4-1.6.5-2.2.6-4.4.9-6.5.9-2.1 0-4-.4-5.8-.8-.4-.1-.8-.3-1.3-.4-.2-.1-.4-.1-.6-.2-.2-.1-.4-.2-.6-.2-.4-.2-.7-.3-1.1-.5-.4-.2-.7-.4-1-.5-.3-.2-.6-.3-.9-.5-.3-.2-.6-.4-.8-.5-.3-.2-.5-.3-.8-.5-.2-.2-.4-.4-.6-.5-.3-.2-.5-.4-.8-.6 0 .9-.1 1.7-.5 2.5.2.1.4.3.6.4.3.2.6.3.8.5l.9.6c.3.2.7.3 1 .5.4.2.7.4 1.1.5.4.2.8.3 1.2.5l.6.3c.2.1.4.1.7.2.5.1.9.3 1.4.4 1.9.4 4 .8 6.3.7 2.2-.1 4.6-.4 6.9-1.2.6-.2 1.2-.4 1.7-.6.6-.3 1.1-.5 1.7-.8.3-.1.6-.3.8-.5.3-.2.6-.3.8-.5.6-.3 1-.7 1.6-1l.8-.5.3-.3.4-.3c.3-.2.5-.4.7-.6.2-.2.5-.4.7-.7.5-.5.9-.9 1.3-1.4l1.2-1.5c.7-1.1 1.4-2.2 2-3.3.6-1.2 1-2.3 1.4-3.6.7-2.4 1-4.9 1-7.3 0-1.2-.2-2.4-.4-3.5 0-1.2-.3-2.3-.6-3.4z" fill="url(#_Linear32)" transform="translate(49.807 51.074) scale(.56824)"/><path d="M81.4 61.2h-.5c-.3 0-.7-.1-1.3-.1-1.2 0-2.9 0-5 .4-2.1.5-4.7 1.3-7.3 2.9-2.6 1.6-5.3 4-7.3 7.2-.5.8-1 1.7-1.4 2.5-.4.9-.8 1.8-1.1 2.8-.2.5-.3 1-.4 1.5l-.3 1.5c0 .3-.1.5-.1.8 0 .3-.1.5-.1.8v3.3c0 .3 0 .6.1.8 0 .3.1.6.1.8 0 .3.1.6.1.8 0 .3.1.6.2.8.2.6.3 1.1.5 1.7.8 2.2 2 4.3 3.6 6.1 1.6 1.8 3.6 3.3 5.8 4.4 2.2 1.1 4.7 1.8 7.2 1.9h.9c.3 0 .7 0 1-.1.7 0 1.3-.2 1.9-.3 1.3-.3 2.5-.7 3.6-1.3.6-.3 1.1-.6 1.7-1 .1-.1.3-.2.4-.3l.4-.3c.3-.2.5-.4.8-.6l1-1 .3-.4c.5-.5.8-1 1.2-1.5.1-.1.2-.3.3-.4l.6-1.2c.3-.6.6-1.2.8-1.8l.3-.9.2-.9c.1-.3.1-.6.2-1l.1-.5v-2.8c0-.2-.1-.3-.1-.5l-.2-.3c0-.2-.1-.3-.1-.5l-.6-1.8c-.1-.3-.3-.6-.4-.9-.1-.1-.1-.3-.2-.4l-.3-.5c-1.3-2.2-3.4-3.9-5.8-4.9l-1.8-.6c-.3-.1-.6-.2-.9-.2-.3 0-.6-.1-1-.1h-.9c-.3 0-.6 0-1 .1-.3 0-.6.1-.9.1-.3.1-.6.2-.9.2-2.4.7-4.4 2.4-5.6 4.4-.6 1-1 2.1-1.2 3.3 0 .3-.1.6-.1.9v.9c0 .3 0 .6.1.9.1.3.1.6.2.8.5 2.2 2.1 4.1 3.9 5.1.9.5 2 .8 3 .9h.8c.3 0 .5 0 .8-.1.2 0 .5-.1.7-.2l.4-.1.3-.1c1.9-.7 3.2-2.3 3.7-4.1.1-.2.1-.4.2-.6 0-.2.1-.4.1-.7v-.6c0-.2 0-.4-.1-.7-.1-.8-.5-1.6-1-2.2-1-1.3-2.5-1.9-3.9-1.9-.7 0-1.3.2-1.9.5-.5.3-1 .7-1.3 1.2-.6.9-.8 2-.6 2.8.2.9.7 1.5 1.2 1.8.5.4.9.5 1.2.6.1 0 .3 0 .3.1h.1-.1c-.1 0-.2 0-.3-.1-.3-.1-.7-.2-1.2-.6-.4-.4-.9-1-1-1.8-.1-.8.1-1.8.7-2.7.3-.4.7-.8 1.2-1.1.5-.3 1.1-.4 1.7-.4 1.3 0 2.6.6 3.5 1.8.4.6.7 1.3.9 2 0 .2 0 .4.1.6v.6c0 .2-.1.4-.1.6-.1.2-.1.4-.2.6-.5 1.5-1.7 2.9-3.3 3.5l-.6.2c-.2.1-.4.1-.7.1h-1.3c-.9-.1-1.8-.4-2.7-.8-1.7-.9-3-2.6-3.4-4.5-.2-.1-.3-.4-.3-.6v-1.4c0-.3.1-.5.1-.8.2-1 .6-2 1.1-2.9 1.1-1.8 2.9-3.2 5-3.9 4.3-1.3 9.3.9 11.7 4.9l.2.4c.1.1.1.3.2.4.1.3.3.5.4.8l.3.7.2.8c0 .1.1.3.1.4l.1.4c0 .1.1.3.1.4v2.1l-.1.8c0 .3-.1.6-.2.9l-.2 1.1c-.1.3-.2.6-.3.8-.2.6-.4 1.1-.7 1.6v.3l-.5 1c-.1.1-.2.3-.2.4-2.6 4-7.4 6.4-12.1 6.1-2.3-.1-4.7-.7-6.7-1.7-2.1-1-3.9-2.4-5.5-4.1-1.5-1.7-2.7-3.6-3.4-5.7-.2-.5-.3-1-.5-1.5-.1-.3-.2-.5-.2-.8 0-.3-.1-.5-.1-.8 0-.3-.1-.5-.1-.8 0-.3 0-.5-.1-.8 0-.3 0-.5-.1-.8v-2.3c0-.3.1-.5.1-.8 0-.3.1-.5.1-.8l.3-1.5c.1-.5.2-1 .4-1.4.3-1 .6-1.9 1-2.7.4-.9.8-1.7 1.3-2.5 1-1.6 2.1-2.9 3.3-4.1 1.2-1.2 2.4-2.2 3.7-3 2.5-1.7 5-2.6 7.1-3.1 2.1-.5 3.8-.6 5-.6h1.3c.1-.1.3-.1.3-.1z" fill="url(#_Linear33)" transform="translate(49.807 51.074) scale(.56824)"/><path d="M82.026 99.602s.057.227.227.625.285 1.023.398 1.818c.057.796.057 1.762-.227 2.841-.057.114-.057.284-.114.398a1.053 1.053 0 00-.113.398c-.057.284-.228.568-.341.852a.916.916 0 01-.228.398c-.056.114-.17.284-.227.398-.114.113-.17.284-.284.398-.114.113-.17.284-.284.397-.114.114-.227.284-.341.398l-.625.625-.114.057c-.113.114-.284.227-.398.34-.568.399-1.25.796-1.932 1.08-.17.057-.34.114-.568.171l-.852.17h-.284c-.17 0-.398.057-.569 0-.795 0-1.59-.17-2.33-.454-.738-.284-1.477-.796-2.045-1.364-.625-.568-1.08-1.307-1.42-2.102-.682-1.591-.455-3.467.568-4.887.284-.341.568-.682.852-.91.057-.056.17-.113.227-.17l.284-.17c.114-.057.17-.114.285-.17l.284-.114.34-.114.057-.057h.057l.512-.17c.113 0 .227-.057.284-.057.398-.057.852 0 1.25.057.795.17 1.534.625 2.102 1.193.114.17.285.284.398.454.057.057.114.171.17.285l.057.113.057.057v.057l.114.284c.057.114.057.17.057.284 0 .114.057.17.057.284 0 .114 0 .17.056.284.057.796-.227 1.535-.681 2.16-.228.284-.512.568-.853.738l-.227.114h-.057l-.227.17-.114.057-.227.057c-.114 0-.17.057-.284.057-.682.114-1.42-.17-1.932-.568-.284-.228-.455-.512-.625-.796v-.057l-.057-.113c0-.057-.057-.114-.057-.228 0-.056-.057-.17-.057-.227v-.227c0-.625.341-1.193.796-1.534.454-.398 1.023-.455 1.534-.341.511.17.852.511 1.023.966.057.227.113.454.057.625 0 .227-.114.398-.228.568-.227.34-.511.511-.795.568-.284.057-.568 0-.739-.113-.17-.114-.284-.228-.34-.341-.058-.057-.058-.057-.058-.114v-.057.057s.057.057.057.114c.057.113.17.227.341.34.17.114.455.228.796.171a1.33 1.33 0 00.909-.568c.227-.341.398-.853.227-1.364-.17-.455-.568-.966-1.136-1.136-.285-.114-.625-.114-.91-.114-.056 0-.17.057-.227.057-.114 0-.114.057-.227.057-.057.056-.17.056-.227.113a.43.43 0 01-.228.114c-.568.398-.966 1.08-.966 1.818v.341c0 .114 0 .17.057.284 0 .114.057.17.057.284l.057.114v.114c.17.34.397.682.682.966a2.905 2.905 0 002.33.738c.113 0 .227-.056.34-.056.114 0 .228-.057.341-.114l.114-.057h.17l.284-.17a3.721 3.721 0 001.023-.853c.569-.682.91-1.648.853-2.557 0-.227-.057-.454-.114-.682-.057-.113-.057-.227-.114-.34l-.113-.342-.17-.34a1.242 1.242 0 00-.171-.285c-.114-.227-.284-.397-.455-.568-.625-.682-1.534-1.25-2.5-1.42-.455-.114-.966-.114-1.477-.057-.114 0-.228.057-.341.057l-.341.113c-.285.057-.455.17-.682.227H71.4l-.057.057-.17.057-.341.17-.341.228c-.114.057-.17.17-.284.227-.398.284-.739.682-1.023 1.08-1.193 1.59-1.42 3.807-.625 5.569.739 1.761 2.216 3.125 3.92 3.807.853.34 1.705.511 2.615.454.227 0 .454 0 .625-.056.113 0 .227 0 .34-.057l.342-.057.284-.057.284-.114c.227-.056.398-.113.568-.227.739-.284 1.42-.739 2.046-1.193.17-.114.284-.227.454-.341l.228-.227a.784.784 0 00.17-.228c.114-.113.284-.227.398-.397.113-.114.227-.285.34-.398.114-.114.228-.284.285-.455.114-.17.17-.284.284-.454.057-.17.17-.285.227-.455.057-.17.17-.284.228-.455l.34-.852c.057-.17.057-.284.114-.455.057-.113.057-.284.114-.397.227-1.137.17-2.103.057-2.898a7.2 7.2 0 00-.512-1.819 1.09 1.09 0 01-.284-.454z" fill="#229dbe"/><path d="M107.7 26.3h.3c.2 0 .4-.1.8-.1.7-.1 1.6-.2 2.9-.1 1.2.1 2.7.3 4.3.9.8.3 1.6.7 2.4 1.2.2.1.4.3.6.4.2.1.4.3.6.4.1.1.2.1.3.2l.3.3c.2.2.4.3.6.5.7.8 1.4 1.6 1.9 2.6s.9 2.1 1.1 3.2c.2 1.2.3 2.4.1 3.6l-.1.5c0 .2 0 .3-.1.5-.1.3-.1.6-.2.9l-.3.9c-.1.3-.3.6-.4.9-.6 1.2-1.3 2.2-2.3 3-1 .8-2.2 1.4-3.4 1.8-1.3.3-2.6.4-3.9.2-1.3-.3-2.6-.8-3.6-1.6s-1.8-1.9-2.2-3.1c-.2-.6-.4-1.2-.4-1.9v-.9c0-.3.1-.6.1-.9l.3-.9c0-.2.1-.3.2-.4l.1-.2v-.1l.1-.1c.1-.1.2-.3.3-.4l.3-.4c.2-.2.4-.5.6-.7.9-.8 2.1-1.3 3.3-1.4.6 0 1.2 0 1.8.2.3.1.6.2.8.3l.2.1h.1l.1.1.2.1c.1 0 .1.1.2.1.4.3.9.7 1.2 1.2.3.5.5 1 .6 1.5.2 1.1 0 2.2-.6 3.1-.1.1-.1.2-.2.3l-.3.3c-.2.2-.4.3-.6.5-.4.3-.9.4-1.4.5-.9.2-1.9-.1-2.6-.7-.3-.3-.6-.6-.8-1-.2-.4-.3-.8-.3-1.2 0-.8.3-1.6.9-2 .5-.5 1.2-.6 1.8-.5.6.1 1.1.4 1.4.7.3.4.4.8.4 1.1 0 .3 0 .6-.1.7l-.1.2s0-.1.1-.2c.1-.2.1-.4.1-.8 0-.3-.1-.8-.4-1.2-.3-.4-.8-.8-1.5-.9-.6-.1-1.4 0-2.1.5-.7.5-1.1 1.3-1.1 2.3 0 .5.1 1 .2 1.4.2.5.5.9.9 1.3l.3.3c.1.1.2.1.3.2.1.1.2.1.4.2.1 0 .3.1.4.1.5.2 1.1.2 1.7.2 1.2-.1 2.3-.8 3.1-1.9.7-1 1-2.4.8-3.7-.2-1.3-1-2.6-2.1-3.5-.1-.1-.2-.1-.2-.2l-.2-.1-.1-.1h-.2l-.2-.1c-.3-.2-.7-.3-1-.4-.7-.2-1.4-.3-2.1-.2-1.5.1-2.9.6-4.1 1.6-.3.2-.5.5-.8.8l-.4.5c-.1.2-.2.3-.3.5l-.1.1v.2l-.1.3c-.1.2-.2.3-.2.5-.1.4-.3.7-.3 1.1-.1.4-.1.7-.2 1.1v1.2c0 .8.2 1.5.4 2.2.5 1.5 1.4 2.8 2.6 3.7.3.2.7.5 1 .6l.4-.3.2.2.5.2c.3.2.7.3 1.1.4.4.1.7.2 1.1.3 1.5.3 3 .2 4.5-.2 1.4-.4 2.8-1.1 3.9-2.1s2-2.2 2.6-3.4c.1-.3.3-.6.4-1 .1-.3.2-.7.3-1 .1-.3.1-.7.2-1 0-.2.1-.3.1-.5l.1-.5c.1-1.3 0-2.7-.2-3.9-.3-1.2-.8-2.4-1.3-3.4-.6-1-1.3-1.9-2.1-2.7-1.6-1.5-3.5-2.4-5.1-2.9-1.7-.5-3.2-.7-4.5-.7-1.3 0-2.2.2-2.9.3-.3.1-.6.1-.7.2h-.5z" fill="url(#_Linear34)" transform="translate(49.807 51.074) scale(.56824)"/><path d="M112.2 24.4h-.1c-.1 0-.2 0-.3-.1-.3-.1-.6-.2-1.1-.4-.4-.2-.9-.5-1.4-1-.2-.2-.5-.5-.7-.8-.1-.1-.1-.2-.2-.2 0-.1-.1-.2-.1-.3 0 0 0-.1-.1-.1 0 0 0-.1-.1-.1 0-.1-.1-.2-.1-.3l-.3-1.2c0-.4 0-.9.1-1.3.1-.5.3-.9.5-1.3l.1-.2c0-.1.1-.1.1-.1.1-.1.1-.2.2-.3l.6-.6c.4-.3.8-.6 1.3-.7.5-.1 1-.2 1.5-.1s1 .3 1.4.6c.4.3.8.7 1 1.1.2.5.3 1 .3 1.5 0 .3-.1.5-.2.7v.2c0 .1-.1.1-.1.2-.1.1-.1.2-.2.3-.1.1-.2.2-.2.3l-.2.2c-.1 0-.1.1-.2.1l-.1.1c-.1.1-.2.1-.3.1-.5.2-1 .1-1.4 0l-.6-.3c-.1-.1-.2-.2-.3-.2V20l-.1-.1v-.1c-.1-.2-.2-.4-.2-.6v-.7c.1-.4.4-.8.7-1 0 0 .1 0 .1-.1 0 0 .1 0 .1-.1.1 0 .2-.1.3-.1h.6c.4.1.7.4.8.7.1.2.1.3.1.5s0 .3-.1.5c-.1.3-.4.5-.6.6-.3.1-.5 0-.7-.1-.2-.1-.3-.3-.4-.5-.1-.2 0-.3 0-.5 0-.1.1-.2.2-.3l.1-.1-.3.3c-.1.1-.1.3-.1.5s.2.4.4.5c.2.1.5.2.8.2.3-.1.6-.3.8-.6.1-.2.1-.4.1-.6 0-.2 0-.4-.1-.6l-.4-.4c-.2-.1-.4-.3-.6-.3-.4-.1-1-.1-1.4.2-.4.3-.7.7-.9 1.2-.1.5-.1 1.1.2 1.6 0 0 0 .1.1.1l.5.5c.2.2.5.3.7.4.5.2 1.2.2 1.7.1.1 0 .3-.1.4-.2l.2-.1c.1 0 .1-.1.2-.1l.6-.6c.1-.1.2-.2.2-.4 0-.1.1-.1.1-.2v-.2c.1-.3.2-.6.2-.9.1-.6-.1-1.2-.4-1.8-.1-.1-.2-.3-.2-.4l-.1-.1V16l-.1-.2-.3-.3c-.1-.1-.2-.2-.4-.3-.5-.3-1.1-.6-1.6-.6-.6-.1-1.2-.1-1.7.1-.6.2-1.1.5-1.5.8l-.6.6c-.1.1-.2.2-.2.3 0 .1-.1.1-.1.2l-.1.2c-.3.5-.4 1-.5 1.4-.1.5-.1 1-.1 1.5.1.5.2.9.3 1.3.3.8.9 1.4 1.4 1.9.5.5 1.1.8 1.5 1 .5.2.8.3 1.1.4.1 0 .2 0 .3.1h.2z" fill="url(#_Linear35)" transform="translate(49.807 51.074) scale(.56824)"/><path d="M80.8 81.9h.5c.4 0 .9 0 1.5-.1 1.3-.2 3.3-.5 5.7-1.3 2.4-.9 5.2-2.3 8-4.5 2.7-2.3 5.4-5.4 7.3-9.4 1.9-4 2.8-8.9 2.3-13.9-.3-2.5-1-5.1-2.3-7.5-1.2-2.4-3-4.6-5.1-6.4-2.1-1.8-4.6-3.3-7.4-4.2-2.7-.9-5.7-1.3-8.6-1l-1.1.1c-.4.1-.7.1-1.1.2-.8.1-1.4.4-2.2.6-.4.1-.7.3-1 .4-.3.2-.7.3-1 .5l-1.2.6-.2.2-.5.3-.4.3-.4.4-.9.7-.3.1-1.4 1.4-.7.9-.2.2-.1.3-.6 1-.2.2-.7 1.4-.1.3-.4 1-.2.3-.1.3c-.2.7-.5 1.4-.6 2.2-.1.4-.2.7-.2 1.1l-.1 1.1c-.1.4 0 .7 0 1.1V52l.1 1.1v.3c0 .1 0 .2.1.3l.2 1.2c.1.2.1.4.2.5l.2.5c.1.2.1.4.2.5l.4 1 .5 1c.1.2.2.3.3.5l.3.5c.1.2.2.3.3.5l.4.4c3.8 4.6 10.6 6.5 15.9 4 2.6-1.2 4.7-3.4 5.7-5.9.5-1.3.8-2.6.9-4v-1.5l-.1-.5c-.1-.3-.1-.7-.2-1l-.3-.9c-1-2.5-3-4.3-5.3-5.2-1.2-.4-2.4-.6-3.6-.6h-.9c-.3.1-.6.1-.9.2-.3.1-.6.2-.8.3l-.8.4c-.5.3-.9.6-1.4 1-.4.4-.8.8-1.1 1.3-.6.9-1 1.9-1.1 3 0 .3 0 .5-.1.8v.8c0 .3 0 .5.1.7.1.3.1.5.2.7.3.9.9 1.8 1.5 2.4 1.3 1.3 3.2 1.7 4.7 1.5.8-.1 1.5-.4 2.1-.9.6-.4 1-1 1.3-1.6.6-1.2.6-2.4.3-3.4s-1-1.6-1.6-1.9c-.6-.3-1.1-.4-1.5-.4h-.5.5c.3 0 .9.1 1.4.5.6.4 1.2 1 1.5 1.9.2.5.2 1 .2 1.5s-.2 1.1-.5 1.7c-.3.5-.7 1.1-1.3 1.4-.5.4-1.2.7-1.9.8-1.5.2-3.1-.3-4.3-1.5-.6-.6-1.1-1.3-1.3-2.2-.1-.2-.1-.4-.2-.6 0-.2-.1-.5-.1-.7v-.7c0-.2 0-.5.1-.7.2-.9.5-1.8 1.1-2.7.3-.4.6-.8 1-1.1l1.2-.9.3-.2.4-.1c.2-.1.5-.2.7-.3.3-.1.5-.1.8-.2h.8c1.1 0 2.2.1 3.2.6 2.1.8 3.9 2.5 4.7 4.7.1.3.2.6.3.8.1.3.1.6.2.8v1.8c-.1 1.2-.3 2.4-.8 3.6-1 2.3-2.8 4.2-5.2 5.3-.3.1-.6.3-.9.4l-.9.3c-.3.1-.6.1-.9.2l-1 .1c-1.3 0-2.7-.1-3.9-.4-1.3-.3-2.5-.9-3.7-1.6-1.1-.7-2.2-1.6-3-2.7l-.3-.4c-.1-.1-.2-.3-.3-.4l-.3-.4c-.1-.1-.2-.3-.3-.4l-.5-.9-.3-1.1c-.1-.2-.1-.3-.2-.5l-.2-.5c0-.2-.1-.3-.2-.5l-.2-1c0-.1 0-.2-.1-.2v-.3l-.1-1.1v-2l.1-1c0-.3.1-.7.2-1 .1-.7.3-1.3.5-2l.2-.4.4-1 .2-.4c2.4-5 7.6-8.6 13.1-9 1.3-.1 2.8-.1 4.1 0 1.4.2 2.7.4 4 .9 2.6.8 5 2.2 7 3.9 4 3.4 6.6 8.3 7.2 13.1.6 4.9-.3 9.6-2 13.5-.4 1-.9 1.9-1.4 2.8-.5.9-1.1 1.7-1.7 2.5-1.2 1.6-2.5 2.9-3.8 4.1-2.6 2.3-5.4 3.7-7.7 4.7-2.4.9-4.3 1.3-5.7 1.5-.7.1-1.2.2-1.5.2-.3-.2-.4-.2-.4-.2z" fill="url(#_Linear36)" transform="translate(49.807 51.074) scale(.56824)"/><path d="M109.643 105.398l-4.376-1.307a4.147 4.147 0 01-2.614-2.273l-.625-1.25c-.511-1.08-1.25-2.046-2.102-2.898l-.341-.341 3.977.852a6.276 6.276 0 013.864 2.557l2.33 3.353-2.16-2.273c-.795-.796-1.76-1.364-2.897-1.591l-1.137-.228 1.876.796c.681.284 1.307.796 1.761 1.42l2.444 3.183zM76.344 82.952l1.023 4.433c.284 1.193 1.022 2.159 2.102 2.784l1.25.682a10.634 10.634 0 012.785 2.273l.284.34-.625-4.034c-.228-1.59-1.08-3.011-2.33-4.034l-3.182-2.557 2.102 2.273c.739.852 1.25 1.875 1.42 2.954l.171 1.137-.682-1.932c-.284-.739-.682-1.364-1.307-1.818l-3.011-2.5zm8.864 35.288l-2.386-3.864a4.237 4.237 0 01-.455-3.41l.398-1.363c.34-1.137.454-2.387.398-3.58l-.057-.455 2.386 3.296c.966 1.307 1.364 2.898 1.194 4.49l-.512 4.034-.113-3.126c-.057-1.136-.398-2.216-1.08-3.125l-.682-.91.852 1.876c.341.682.455 1.477.398 2.216l-.34 3.92z" fill="#229dbe"/><path d="M117.9 73.2l-6.6-4.5c-1.8-1.2-2.9-3.1-3.2-5.2l-.4-2.5c-.3-2.1-1-4.1-2-6l-.4-.7 6.3 3.5c2.5 1.4 4.3 3.7 5.2 6.4L119 71l-2.4-4.9c-.9-1.8-2.3-3.2-4-4.2l-1.8-1 2.7 2.3c1 .9 1.8 2 2.2 3.3l2.2 6.7z" fill="url(#_Linear37)" transform="translate(49.807 51.074) scale(.56824)"/><path d="M100.494 112.898l-1.193-2.67c-.285-.682-.285-1.478 0-2.216l.34-.853c.285-.682.512-1.477.569-2.216v-.284l1.25 2.273c.511.91.625 1.932.34 2.955l-.681 2.5.227-1.989c.057-.738-.057-1.42-.397-2.045l-.341-.625.397 1.25c.114.454.17.966.057 1.42l-.568 2.5z" fill="#ee007d"/><path d="M35.5 112.9l3.4-3.8c.9-1 2.2-1.6 3.5-1.6H44c1.4 0 2.7-.2 4-.7l.5-.2-2.8 3.6c-1.1 1.4-2.7 2.4-4.5 2.7l-4.5.8 3.3-1.1c1.2-.4 2.2-1.1 3-2.1l.8-1-1.7 1.5c-.6.6-1.4.9-2.3 1.1l-4.3.8z" fill="url(#_Linear38)" transform="translate(49.807 51.074) scale(.56824)"/><path d="M106.2 79.4l-2.7-4.3c-.7-1.2-.9-2.5-.5-3.9l.4-1.5c.4-1.3.5-2.7.4-4v-.5l2.7 3.7c1.1 1.5 1.5 3.3 1.3 5.1l-.5 4.5-.1-3.5c0-1.3-.5-2.5-1.2-3.5l-.8-1 1 2.1c.4.8.5 1.6.4 2.5l-.4 4.3z" fill="url(#_Linear39)" transform="translate(49.807 51.074) scale(.56824)"/><path d="M92.3 68.5l5.1-.6c1.3-.1 2.6-.9 3.4-2l.9-1.3c.8-1.1 1.8-2 2.9-2.8l.4-.3-4.6.1c-1.8.1-3.5.8-4.8 2.1l-3.3 3.2 2.8-2.1c1-.7 2.2-1.2 3.5-1.2h1.3l-2.2.5c-.8.2-1.6.6-2.2 1.2l-3.2 3.2z" fill="url(#_Linear40)" transform="translate(49.807 51.074) scale(.56824)"/><path d="M97.4 54.8l2.8-4.3c.7-1.1 1-2.5.6-3.8l-.4-1.5c-.3-1.3-.4-2.7-.3-4v-.5l-2.8 3.6c-1.1 1.4-1.6 3.2-1.5 5l.4 4.6.2-3.5c.1-1.3.5-2.5 1.3-3.5l.8-1-1 2c-.4.8-.6 1.6-.5 2.5l.4 4.4z" fill="url(#_Linear41)" transform="translate(49.807 51.074) scale(.56824)"/><path d="M97.1 31.5l4.3 2.8c1.1.7 2.5 1 3.8.6l1.5-.4c1.3-.3 2.7-.4 4-.3l.5.1-3.6-2.8c-1.4-1.1-3.2-1.6-5-1.5l-4.6.4 3.5.2c1.3.1 2.5.5 3.5 1.3l1 .8-2-1c-.8-.4-1.6-.6-2.5-.5l-4.4.3z" fill="url(#_Linear42)" transform="translate(49.807 51.074) scale(.56824)"/><path d="M85.038 88.464l1.989-2.102a2.822 2.822 0 00.738-2.103l-.056-.909c-.057-.739 0-1.534.227-2.273l.057-.284-1.932 1.762c-.74.681-1.25 1.647-1.307 2.67l-.228 2.614.455-1.932c.17-.682.568-1.307 1.08-1.818l.568-.512-.739 1.023a2.868 2.868 0 00-.511 1.307l-.341 2.557zm6.648 2.671l.284-2.046c.057-.511-.056-1.08-.397-1.477l-.398-.512a4.364 4.364 0 01-.796-1.42l-.057-.17-.397 1.818c-.17.682-.057 1.42.34 2.045l.91 1.591-.512-1.306a2.598 2.598 0 01-.113-1.478l.113-.511v.909c0 .34.057.682.228.966l.795 1.591z" fill="#229dbe"/><path d="M117.3 54.7l-1.4-3.3c-.4-.9-1.1-1.6-2-1.9l-1.1-.4c-.9-.3-1.7-.8-2.5-1.4l-.3-.2 1 3.1c.4 1.2 1.2 2.2 2.4 2.8l2.8 1.6-2-1.5c-.7-.5-1.2-1.3-1.5-2.1l-.3-.9.8 1.4c.3.5.7 1 1.2 1.3l2.9 1.5z" fill="url(#_Linear43)" transform="translate(49.807 51.074) scale(.56824)"/><path d="M125 14c7.4-5.3 17.6-1.8 17.6-1.8s-4.4 7.5-16 9.5c0 0 8.2 1.4 15.6-6.4 0 0-6.8 15.7-29.1 10 0 0 3.6.7 7.7-5.8.8-1.2 2.5-4.2 4.2-5.5z" fill="url(#_Linear44)" transform="translate(49.807 51.074) scale(.56824)"/><path d="M102.6 22.5c2.2-3.6.2-8.2.2-8.2S99.5 16.6 99 22c0 0-.9-3.7 2.4-7.4 0 0-7 3.7-3.5 13.8 0 0-.5-1.6 2.4-3.7.5-.5 1.8-1.4 2.3-2.2z" fill="url(#_Linear45)" transform="translate(49.807 51.074) scale(.56824)"/><path d="M120.2-10.3c-.6-2.7 1.6-5 1.6-5s1.5 2.1.7 5.5c0 0 1.3-2.1.1-5 0 0 3.5 3.7-.7 9.2 0 0 .6-.9-.7-2.8-.3-.5-.9-1.3-1-1.9z" fill="url(#_Linear46)" transform="translate(49.807 51.074) scale(.56824)"/><path d="M40.7 84c2.2-1.6 2.2-4.8 2.2-4.8s-2.5.5-4.2 3.6c0 0 .4-2.5 3.3-3.8 0 0-5.1.4-5.6 7.3 0 0 .1-1.1 2.4-1.6.4-.2 1.4-.4 1.9-.7z" fill="url(#_Linear47)" transform="translate(49.807 51.074) scale(.56824)"/><path d="M121.6 2.6c-1.3-3.3-5.4-4.3-5.4-4.3s-.2 3.4 3.2 6.5c0 0-3-1.3-3.7-5.4 0 0-1.1 6.6 7.4 9.5 0 0-1.3-.5-1.3-3.5 0-.7.1-2-.2-2.8z" fill="url(#_Linear48)" transform="translate(49.807 51.074) scale(.56824)"/><path d="M26.5-79.5c0-6.1-5.9-10.2-5.9-10.2s-2.3 5.2 1.1 12.3c0 0-3.9-3.9-2.6-10.9 0 0-5.8 9.8 5.9 19.5 0 0-1.8-1.7.1-6.4.5-.8 1.4-2.9 1.4-4.3z" fill="url(#_Linear49)" transform="translate(49.807 51.074) scale(.56824)"/><path d="M54.1-69c2.3 3.5 7.3 3.6 7.3 3.6s-.7-3.9-5.3-6.7c0 0 3.8.8 5.7 5.3 0 0-.4-7.9-10.9-9 0 0 1.7.3 2.4 3.7 0 .8.3 2.3.8 3.1z" fill="url(#_Linear50)" transform="translate(49.807 51.074) scale(.56824)"/><path d="M71.684 8.74c.512-1.363-.398-2.84-.398-2.84s-.966.965-.852 2.84c0 0-.511-1.25.398-2.67 0 0-2.16 1.648-.398 4.943 0 0-.284-.511.625-1.42.057-.114.455-.512.625-.853zm2.955 3.808c.511.625 1.42.568 1.42.568s-.17-.739-1.079-1.193c0 0 .739.113 1.136.909 0 0-.17-1.478-2.159-1.535 0 0 .341.057.512.682 0 .114.056.455.17.569z" fill="#7ac943"/><path d="M53.1-55.6C52.1-54 53-52 53-52s1.5-1 1.7-3.4c0 0 .4 1.7-1 3.3 0 0 3.1-1.7 1.5-6.1 0 0 .2.7-1.1 1.7-.2.1-.8.5-1 .9z" fill="url(#_Linear51)" transform="translate(49.807 51.074) scale(.56824)"/><path d="M26-59c-.3-1.8-2.3-2.8-2.3-2.8s-.4 1.7 1 3.7c0 0-1.4-1-1.3-3.2 0 0-1.3 3.3 2.8 5.7 0 0-.6-.4-.3-2 0-.3.1-1 .1-1.4z" fill="url(#_Linear52)" transform="translate(49.807 51.074) scale(.56824)"/><path d="M37.4-55.6c.8 1.1 2.5 1 2.5 1s-.3-1.3-1.9-2.1c0 0 1.2.2 2 1.6 0 0-.3-2.6-3.8-2.7 0 0 .6.1.9 1.2-.1.2.1.7.3 1z" fill="url(#_Linear53)" transform="translate(49.807 51.074) scale(.56824)"/><path d="M81.742 23.628c0 1.25 1.25 2.046 1.25 2.046s.455-1.08-.284-2.5c0 0 .796.795.568 2.216 0 0 1.137-1.99-1.25-3.978 0 0 .398.341 0 1.307-.057.17-.284.625-.284.91z" fill="#910d85"/></g><g fill-rule="nonzero"><path d="M-5.1-17.3c.4 1.1.8 2.4 1.2 4 .4 1.5.9 3.4 1.4 5.4.5 2.1 1 4.5 1.6 7.2C-.4 2 .2 5.1.9 8.5H1c.9-1.7 1.8-3.4 2.7-5C4.6 1.8 5.4.2 6.2-1.4 6.9-3 7.6-4.5 8.3-6c.6-1.4 1.2-2.8 1.7-4 .5-1.3.8-2.4 1.1-3.5.3-1.1.4-2 .4-2.7 0-2-.7-3.5-2.1-4.6l.1-.3c.2 0 .4-.1.6-.1h.6c.5 0 1 .1 1.5.2s.9.3 1.3.6.7.6.9 1.1c.2.5.4 1 .4 1.7 0 .6-.2 1.4-.5 2.5s-.8 2.3-1.3 3.8c-.6 1.4-1.3 3-2.1 4.8C10.1-4.9 9.1-3 8.1-1c-1 2-2.2 4.1-3.4 6.3C3.5 7.5 2.2 9.7.8 12l-2.5.2H-2C-3.5 4.7-4.8-1.3-5.9-6c-1.1-4.6-2-7.9-2.8-9.9-.2-.5-.4-.9-.6-1.3-.2-.4-.4-.6-.7-.9-.3-.2-.6-.4-.9-.5-.4-.1-.8-.2-1.3-.2-.3 0-.7 0-1.1.1-.4 0-.9.1-1.4.2l-.2-1.3c1.5-.4 2.8-.6 3.9-.8 1-.2 1.9-.3 2.6-.3.5 0 .9.1 1.3.2.3.1.6.3.8.6.2.3.4.7.6 1.1.2.6.4 1.1.6 1.7z" fill="url(#_Linear54)" transform="translate(49.807 51.074) scale(.56824)"/><path d="M20.5-16.2c0-.4 0-.8-.1-1.1 0-.3-.1-.6-.3-.8-.2-.2-.4-.3-.7-.4-.3-.1-.7-.1-1.2-.1H17c-.5 0-1 .1-1.5.2l-.1-1.2c1.5-.4 2.7-.6 3.8-.8 1.1-.2 1.9-.3 2.6-.3.7 0 1.2.1 1.5.2.4.2.6.4.8.7.2.3.3.7.3 1.2v3.3c0 .9-.1 2-.1 3.4s-.1 3-.2 4.8c-.1 1.9-.1 3.8-.2 5.9-.1 2-.1 4.2-.2 6.3-.1 2.2-.1 4.3-.2 6.5L20 12h-.3c.1-2.7.2-5.2.3-7.6.1-2.4.2-4.7.2-7 .1-2.3.1-4.5.2-6.7.1-2.3.1-4.6.1-6.9z" fill="url(#_Linear55)" transform="translate(49.807 51.074) scale(.56824)"/><path d="M34.3 4c-.4 1-.7 1.8-.9 2.5-.3.7-.5 1.3-.7 1.8-.2.5-.4 1-.5 1.4-.1.4-.3.7-.4 1-.2.4-.3.6-.5.8-.2.2-.4.3-.6.4-.2.1-.5.1-.7.2h-2.2l-.4-.1c1.2-2.4 2.3-4.8 3.4-7s2.1-4.3 3.1-6.4c-.2-.3-.3-.6-.3-.8 0-.4.3-.6 1-.6 1.8-3.8 3.4-7.1 4.9-10 1.4-2.9 2.7-5.3 3.8-7.2.1-.2.2-.3.4-.4.2-.1.3-.2.5-.3.2-.1.4-.1.6-.1h.6c.3 0 .6 0 .9.1.3 0 .6.1.9.3.6 3.2 1.2 6.2 1.7 8.8.5 2.6 1 4.9 1.5 6.9.4 2 .9 3.8 1.3 5.3s.8 2.8 1.2 3.9c.4 1.1.7 2 1.1 2.7.4.7.8 1.3 1.1 1.7.4.4.8.7 1.2.8.4.2.9.2 1.4.2.3 0 .7 0 1-.1.3-.1.7-.2 1.2-.3l.4 1.2c-1.1.5-2.2.9-3.3 1.2-1 .3-2 .4-2.8.4-.5 0-.9-.1-1.3-.2-.4-.2-.8-.4-1.2-.8-.4-.4-.7-.9-1.1-1.6-.4-.7-.7-1.5-1.1-2.5-.4-1-.7-2.2-1.1-3.5-.4-1.4-.8-3-1.2-4.8-1.8 0-3.7.1-5.5.1-1.8 0-3.7.1-5.6.2-.4 1-.7 1.8-1.1 2.7-.2.7-.5 1.5-.7 2.1zm12.5-6.9c-.2-.9-.4-2-.7-3.1-.2-1.1-.5-2.3-.7-3.6-.2-1.3-.5-2.6-.8-3.9-.3-1.4-.5-2.8-.8-4.2h-.1c-1.4 2.8-2.7 5.4-3.8 8-1.1 2.5-2.1 4.8-3 7 1.7 0 3.4-.1 5-.1 1.6-.1 3.2-.1 4.9-.1z" fill="url(#_Linear56)" transform="translate(49.807 51.074) scale(.56824)"/><path d="M-14 21.8c0-.3 0-.6-.1-.8 0-.2-.1-.4-.3-.5-.1-.1-.3-.2-.5-.3-.2-.1-.5-.1-.9-.1h-.8c-.3 0-.6.1-1 .1l-.1-1c.7-.1 1.4-.2 2-.3.6-.1 1.2-.2 1.8-.2.6-.1 1.1-.1 1.5-.1h4.9c1.1 0 2 0 2.9-.1.8 0 1.5 0 2-.1h1c.3 0 .6.1.8.2.2.2.3.4.3.7v.7c0 .4-.1.8-.1 1.3s-.1 1-.1 1.5c-.1.5-.1 1-.2 1.5H-2v-1.4c0-.6 0-1.1-.1-1.4-.1-.4-.2-.7-.4-.9-.2-.2-.5-.4-.8-.4-.4-.1-.9-.2-1.4-.2H-11c0 1.2-.1 2.6-.1 4.3 0 1.7-.1 3.5-.2 5.6 1 0 1.8.1 2.6.1h2.1c.8 0 1.5 0 2.1-.1.6 0 1.2-.1 1.7-.2.1.3.2.6.2.8 0 .2-.1.4-.2.5-.1.1-.3.3-.6.3-.3.1-.6.1-.9.2-.4 0-.8.1-1.2.1-.8 0-1.7 0-2.7-.1-1-.1-2-.2-3.2-.3 0 .9-.1 1.8-.1 2.7 0 .9-.1 1.9-.1 2.8 0 1-.1 1.9-.1 2.9s-.1 2-.1 2.9l-2.7.3h-.2c.1-2 .2-3.9.2-5.7.1-1.8.1-3.6.2-5.3 0-1.7.1-3.4.1-5.1.2-1.5.2-3.2.2-4.9z" fill="url(#_Linear57)" transform="translate(49.807 51.074) scale(.56824)"/><path d="M3.9 21.8c0-.3 0-.6-.1-.8 0-.2-.1-.4-.2-.6-.1-.1-.3-.3-.5-.3-.2-.1-.5-.1-.8-.1h-.9c-.4 0-.7.1-1.1.1l-.1-.9c1.1-.3 2-.5 2.8-.6.8-.1 1.4-.2 2-.2.5 0 .9.1 1.1.2.3.1.5.3.6.5.1.2.2.5.2.9v3.6c0 .7 0 1.6-.1 2.5 0 1-.1 2-.1 3 0 1.1-.1 2.2-.1 3.3 0 1.1-.1 2.2-.2 3.3-.1 1.1-.1 2.1-.2 3-.1.9-.1 1.8-.2 2.5.7-.1 1.4-.2 2-.2.6 0 1.2-.1 1.8-.1.8 0 1.5 0 2.2.1.7 0 1.3.1 2 .1.5 0 .9-.1 1.2-.2.4-.1.7-.3.9-.7.3-.3.5-.7.6-1.3.2-.5.3-1.2.4-2.1l1 .1c0 1.2-.1 2.3-.2 3.1-.2.8-.4 1.4-.7 1.9-.3.5-.6.8-1 1-.4.2-.9.3-1.4.3-.4 0-.8 0-1.3-.1s-1-.1-1.6-.2c-.6-.1-1.2-.2-1.8-.2-.7-.1-1.4-.1-2.1-.1-.7 0-1.4 0-2.2.1-.8.1-1.6.2-2.5.4L3 43c.1-1 .2-2 .3-3.1.1-1.1.2-2.3.2-3.5.1-1.2.1-2.4.2-3.7 0-1.3.1-2.5.1-3.8v-3.7c.1-1.1.1-2.3.1-3.4z" fill="url(#_Linear58)" transform="translate(49.807 51.074) scale(.56824)"/><path d="M30 43.3c-1.5 0-2.9-.2-4.1-.7-1.3-.5-2.3-1.2-3.2-2.2-.9-1-1.6-2.2-2.1-3.6s-.8-3.1-.8-5c0-1.2.1-2.4.3-3.5.2-1.2.5-2.2.9-3.3.4-1 .9-2 1.6-2.8.6-.9 1.3-1.6 2.2-2.2.8-.6 1.8-1.1 2.8-1.4 1-.3 2.2-.5 3.4-.5 1.5 0 2.9.2 4.1.7 1.3.5 2.3 1.2 3.2 2.2.9 1 1.6 2.2 2.1 3.6s.8 3.1.8 5c0 1.2-.1 2.4-.3 3.5-.2 1.2-.5 2.2-.9 3.3-.4 1-.9 2-1.6 2.8-.6.9-1.3 1.6-2.2 2.2-.8.6-1.8 1.1-2.8 1.4-1 .3-2.1.5-3.4.5zm.6-1.4c.9 0 1.7-.1 2.4-.4.7-.3 1.3-.6 1.9-1.1.6-.5 1-1.1 1.5-1.8.4-.7.8-1.5 1-2.3.3-.8.5-1.8.6-2.7.1-1 .2-2 .2-3.1 0-1.9-.2-3.6-.6-5-.4-1.4-.9-2.6-1.6-3.5-.7-.9-1.5-1.6-2.4-2.1-.9-.5-1.9-.7-2.9-.7-.9 0-1.7.1-2.4.4-.7.3-1.3.6-1.9 1.1-.6.5-1 1.1-1.5 1.8-.4.7-.8 1.5-1 2.3-.3.8-.5 1.8-.6 2.7-.1 1-.2 2-.2 3.1 0 1.9.2 3.6.6 5 .4 1.4.9 2.6 1.6 3.5.7.9 1.5 1.6 2.4 2.1.8.5 1.8.7 2.9.7z" fill="url(#_Linear59)" transform="translate(49.807 51.074) scale(.56824)"/><path d="M46.9 21.8c0-.3 0-.5-.1-.8-.1-.2-.1-.4-.3-.5-.1-.1-.3-.2-.5-.3-.2-.1-.5-.1-.9-.1-.5 0-1.1.1-1.9.2l-.1-.9c.7-.1 1.5-.2 2.3-.4.8-.1 1.7-.2 2.5-.3.9-.1 1.7-.2 2.6-.3.9-.1 1.7-.1 2.5-.1 1.1 0 2.1.1 3 .3.9.2 1.7.5 2.4.9s1.2 1 1.6 1.6c.4.7.6 1.5.6 2.5 0 .9-.2 1.8-.5 2.6s-.8 1.5-1.4 2.1c-.6.6-1.3 1.1-2.2 1.6-.8.4-1.8.8-2.8 1 .8 1.3 1.5 2.4 2.1 3.3.6.9 1.2 1.8 1.8 2.5.5.7 1 1.3 1.5 1.8.4.5.9 1 1.2 1.3.3.3.6.6.9.8.3.2.5.4.8.5.3.1.5.2.8.3.3.1.5.1.8.1.3 0 .6 0 .9-.1.3-.1.6-.1.9-.3l.3.9c-1 .4-1.8.7-2.5.9-.7.2-1.3.3-1.8.3-.2 0-.5 0-.7-.1-.2-.1-.4-.1-.7-.2-.2-.1-.4-.2-.7-.4-.2-.2-.5-.4-.7-.6-.4-.4-.9-.8-1.4-1.5-.5-.6-1.1-1.4-1.8-2.3-.7-.9-1.4-2-2.2-3.3-.8-1.3-1.7-2.7-2.7-4.4v-.1c1.3 0 2.4-.2 3.4-.5.9-.3 1.7-.7 2.2-1.2.6-.5 1-1.1 1.2-1.8.3-.7.4-1.5.4-2.3 0-1.7-.5-2.9-1.4-3.7-.9-.8-2.3-1.2-4.1-1.2h-1.1c-.4 0-.7.1-1.2.1 0 .5 0 1.3-.1 2.2 0 .9-.1 1.9-.1 3.1 0 1.2-.1 2.5-.1 3.9s-.1 2.9-.1 4.4c0 1.5-.1 3.1-.1 4.7-.1 1.6-.1 3.2-.2 4.8l-2.7.2h-.2c.1-2 .2-3.9.2-5.7.1-1.8.1-3.6.2-5.3 0-1.7.1-3.4.1-5.1.1-1.7.1-3.4.1-5.1z" fill="url(#_Linear60)" transform="translate(49.807 51.074) scale(.56824)"/></g><defs><linearGradient id="_Linear1" x1="0" y1="0" x2="1" y2="0" gradientUnits="userSpaceOnUse" gradientTransform="rotate(79.71 68.498 -74.789) scale(325.3305)"><stop offset="0" stop-color="#7ac943"/><stop offset=".38" stop-color="#7ac943"/><stop offset=".58" stop-color="#ee007d"/><stop offset=".62" stop-color="#e08b43"/><stop offset=".75" stop-color="#e58843"/><stop offset="1" stop-color="#e2e00f"/></linearGradient><linearGradient id="_Linear2" x1="0" y1="0" x2="1" y2="0" gradientUnits="userSpaceOnUse" gradientTransform="rotate(22.07 67.995 -417.077) scale(325.333)"><stop offset="0" stop-color="#7ac943"/><stop offset=".38" stop-color="#7ac943"/><stop offset=".52" stop-color="#e08b43"/><stop offset=".75" stop-color="#e58843"/><stop offset="1" stop-color="#e2e00f"/></linearGradient><linearGradient id="_Linear3" x1="0" y1="0" x2="1" y2="0" gradientUnits="userSpaceOnUse" gradientTransform="rotate(22.07 61.646 -418.2) scale(325.332)"><stop offset="0" stop-color="#7ac943"/><stop offset=".38" stop-color="#7ac943"/><stop offset=".52" stop-color="#e08b43"/><stop offset=".75" stop-color="#e58843"/><stop offset="1" stop-color="#e2e00f"/></linearGradient><linearGradient id="_Linear4" x1="0" y1="0" x2="1" y2="0" gradientUnits="userSpaceOnUse" gradientTransform="rotate(79.71 113.744 -71.567) scale(325.3315)"><stop offset="0" stop-color="#fc3b29"/><stop offset="1" stop-color="#f05e23"/></linearGradient><linearGradient id="_Linear5" x1="0" y1="0" x2="1" y2="0" gradientUnits="userSpaceOnUse" gradientTransform="rotate(22.07 75.477 -415.45) scale(325.333)"><stop offset="0" stop-color="#7ac943"/><stop offset=".38" stop-color="#7ac943"/><stop offset=".49" stop-color="#ee007d"/><stop offset=".62" stop-color="#e08b43"/><stop offset=".72" stop-color="#1836ab"/><stop offset=".78" stop-color="#0036a6"/><stop offset=".9" stop-color="#e58843"/><stop offset="1" stop-color="#e2e00f"/></linearGradient><linearGradient id="_Linear6" x1="0" y1="0" x2="1" y2="0" gradientUnits="userSpaceOnUse" gradientTransform="rotate(62.845 83.4 -16.17) scale(35.8555)"><stop offset="0" stop-color="#e2e00f"/><stop offset="1" stop-color="#7ac943"/></linearGradient><linearGradient id="_Linear7" x1="0" y1="0" x2="1" y2="0" gradientUnits="userSpaceOnUse" gradientTransform="rotate(62.845 65.854 -26.894) scale(35.8551)"><stop offset="0" stop-color="#e2e00f"/><stop offset="1" stop-color="#7ac943"/></linearGradient><linearGradient id="_Linear8" x1="0" y1="0" x2="1" y2="0" gradientUnits="userSpaceOnUse" gradientTransform="rotate(-69.311 75.322 66.293) scale(51.9674)"><stop offset="0" stop-color="#7ac943"/><stop offset=".38" stop-color="#7ac943"/><stop offset=".62" stop-color="#e08b43"/><stop offset=".75" stop-color="#e58843"/><stop offset="1" stop-color="#e2e00f"/></linearGradient><linearGradient id="_Linear9" x1="0" y1="0" x2="1" y2="0" gradientUnits="userSpaceOnUse" gradientTransform="rotate(22.07 199.753 -391.372) scale(325.33)"><stop offset="0" stop-color="#fc3b29"/><stop offset="1" stop-color="#f05e23"/></linearGradient><linearGradient id="_Linear10" x1="0" y1="0" x2="1" y2="0" gradientUnits="userSpaceOnUse" gradientTransform="rotate(62.845 75.536 -20.98) scale(35.8545)"><stop offset="0" stop-color="#e2e00f"/><stop offset="1" stop-color="#7ac943"/></linearGradient><linearGradient id="_Linear11" x1="0" y1="0" x2="1" y2="0" gradientUnits="userSpaceOnUse" gradientTransform="rotate(14.874 140.49 -280.75) scale(38.3539)"><stop offset="0" stop-color="#e2e00f"/><stop offset="1" stop-color="#7ac943"/></linearGradient><linearGradient id="_Linear12" x1="0" y1="0" x2="1" y2="0" gradientUnits="userSpaceOnUse" gradientTransform="rotate(22.07 -73.266 -444.51) scale(325.338)"><stop offset="0" stop-color="#7ac943"/><stop offset=".38" stop-color="#7ac943"/><stop offset=".62" stop-color="#e08b43"/><stop offset=".75" stop-color="#e58843"/><stop offset="1" stop-color="#e2e00f"/></linearGradient><linearGradient id="_Linear13" x1="0" y1="0" x2="1" y2="0" gradientUnits="userSpaceOnUse" gradientTransform="rotate(22.07 -76.128 -445.056) scale(325.333)"><stop offset="0" stop-color="#7ac943"/><stop offset=".38" stop-color="#7ac943"/><stop offset=".62" stop-color="#e08b43"/><stop offset=".75" stop-color="#e58843"/><stop offset="1" stop-color="#e2e00f"/></linearGradient><linearGradient id="_Linear14" x1="0" y1="0" x2="1" y2="0" gradientUnits="userSpaceOnUse" gradientTransform="rotate(14.874 20.75 -296.357) scale(38.3535)"><stop offset="0" stop-color="#e2e00f"/><stop offset="1" stop-color="#7ac943"/></linearGradient><linearGradient id="_Linear15" x1="0" y1="0" x2="1" y2="0" gradientUnits="userSpaceOnUse" gradientTransform="rotate(14.874 89.633 -287.386) scale(38.3539)"><stop offset="0" stop-color="#e2e00f"/><stop offset="1" stop-color="#7ac943"/></linearGradient><linearGradient id="_Linear16" x1="0" y1="0" x2="1" y2="0" gradientUnits="userSpaceOnUse" gradientTransform="rotate(22.07 -62.867 -442.47) scale(325.327)"><stop offset="0" stop-color="#fc3b29"/><stop offset="1" stop-color="#f05e23"/></linearGradient><linearGradient id="_Linear17" x1="0" y1="0" x2="1" y2="0" gradientUnits="userSpaceOnUse" gradientTransform="rotate(90.558 57.211 -51.357) scale(325.34342)"><stop offset="0" stop-color="#fc3b29"/><stop offset="1" stop-color="#f05e23"/></linearGradient><linearGradient id="_Linear18" x1="0" y1="0" x2="1" y2="0" gradientUnits="userSpaceOnUse" gradientTransform="rotate(22.07 -125.179 -454.626) scale(325.335)"><stop offset="0" stop-color="#fc3b29"/><stop offset="1" stop-color="#f05e23"/></linearGradient><linearGradient id="_Linear19" x1="0" y1="0" x2="1" y2="0" gradientUnits="userSpaceOnUse" gradientTransform="rotate(22.07 -17.133 -433.54) scale(325.312)"><stop offset="0" stop-color="#fc3b29"/><stop offset="1" stop-color="#f05e23"/></linearGradient><linearGradient id="_Linear20" x1="0" y1="0" x2="1" y2="0" gradientUnits="userSpaceOnUse" gradientTransform="rotate(22.07 -108.988 -451.568) scale(325.337)"><stop offset="0" stop-color="#fc3b29"/><stop offset="1" stop-color="#f05e23"/></linearGradient><linearGradient id="_Linear21" x1="0" y1="0" x2="1" y2="0" gradientUnits="userSpaceOnUse" gradientTransform="rotate(22.07 -108.437 -451.357) scale(325.329)"><stop offset="0" stop-color="#fc3b29"/><stop offset="1" stop-color="#f05e23"/></linearGradient><linearGradient id="_Linear22" x1="0" y1="0" x2="1" y2="0" gradientUnits="userSpaceOnUse" gradientTransform="rotate(22.07 -35.787 -437.248) scale(325.333)"><stop offset="0" stop-color="#fc3b29"/><stop offset="1" stop-color="#f05e23"/></linearGradient><linearGradient id="_Linear23" x1="0" y1="0" x2="1" y2="0" gradientUnits="userSpaceOnUse" gradientTransform="rotate(22.07 -14.315 -432.698) scale(325.337)"><stop offset="0" stop-color="#fc3b29"/><stop offset="1" stop-color="#f05e23"/></linearGradient><linearGradient id="_Linear24" x1="0" y1="0" x2="1" y2="0" gradientUnits="userSpaceOnUse" gradientTransform="rotate(22.07 29.282 -424.59) scale(325.356)"><stop offset="0" stop-color="#fc3b29"/><stop offset="1" stop-color="#f05e23"/></linearGradient><linearGradient id="_Linear25" x1="0" y1="0" x2="1" y2="0" gradientUnits="userSpaceOnUse" gradientTransform="rotate(14.875 41.268 -293.708) scale(38.3531)"><stop offset="0" stop-color="#e2e00f"/><stop offset="1" stop-color="#7ac943"/></linearGradient><linearGradient id="_Linear26" x1="0" y1="0" x2="1" y2="0" gradientUnits="userSpaceOnUse" gradientTransform="rotate(-44.293 59.748 206.879) scale(325.33)"><stop offset="0" stop-color="#fc3b29"/><stop offset="1" stop-color="#f05e23"/></linearGradient><linearGradient id="_Linear27" x1="0" y1="0" x2="1" y2="0" gradientUnits="userSpaceOnUse" gradientTransform="rotate(22.07 -13.013 -444.075) scale(325.33)"><stop offset="0" stop-color="#fc3b29"/><stop offset="1" stop-color="#f05e23"/></linearGradient><linearGradient id="_Linear28" x1="0" y1="0" x2="1" y2="0" gradientUnits="userSpaceOnUse" gradientTransform="rotate(22.07 13.994 -427.475) scale(325.315)"><stop offset="0" stop-color="#fc3b29"/><stop offset="1" stop-color="#f05e23"/></linearGradient><linearGradient id="_Linear29" x1="0" y1="0" x2="1" y2="0" gradientUnits="userSpaceOnUse" gradientTransform="rotate(14.874 89.365 -287.424) scale(38.3539)"><stop offset="0" stop-color="#e2e00f"/><stop offset="1" stop-color="#7ac943"/></linearGradient><linearGradient id="_Linear30" x1="0" y1="0" x2="1" y2="0" gradientUnits="userSpaceOnUse" gradientTransform="rotate(14.874 84.76 -288.025) scale(38.35483)"><stop offset="0" stop-color="#e2e00f"/><stop offset="1" stop-color="#7ac943"/></linearGradient><linearGradient id="_Linear31" x1="0" y1="0" x2="1" y2="0" gradientUnits="userSpaceOnUse" gradientTransform="rotate(14.874 149.38 -279.583) scale(38.3516)"><stop offset="0" stop-color="#e2e00f"/><stop offset="1" stop-color="#7ac943"/></linearGradient><linearGradient id="_Linear32" x1="0" y1="0" x2="1" y2="0" gradientUnits="userSpaceOnUse" gradientTransform="rotate(22.07 164.807 -398.066) scale(325.324)"><stop offset="0" stop-color="#229dbe"/><stop offset="1" stop-color="#3a54af"/></linearGradient><linearGradient id="_Linear33" x1="0" y1="0" x2="1" y2="0" gradientUnits="userSpaceOnUse" gradientTransform="rotate(22.07 -40.016 -437.898) scale(325.333)"><stop offset="0" stop-color="#229dbe"/><stop offset="1" stop-color="#3a54af"/></linearGradient><linearGradient id="_Linear34" x1="0" y1="0" x2="1" y2="0" gradientUnits="userSpaceOnUse" gradientTransform="rotate(54.892 26.856 117.755) scale(46.5435)"><stop offset="0" stop-color="#7ac943"/><stop offset=".38" stop-color="#7ac943"/><stop offset=".62" stop-color="#e08b43"/><stop offset=".75" stop-color="#e58843"/><stop offset="1" stop-color="#e2e00f"/></linearGradient><linearGradient id="_Linear35" x1="0" y1="0" x2="1" y2="0" gradientUnits="userSpaceOnUse" gradientTransform="rotate(54.892 34.861 121.945) scale(46.544)"><stop offset="0" stop-color="#7ac943"/><stop offset=".38" stop-color="#7ac943"/><stop offset=".62" stop-color="#e08b43"/><stop offset=".75" stop-color="#e58843"/><stop offset="1" stop-color="#e2e00f"/></linearGradient><linearGradient id="_Linear36" x1="0" y1="0" x2="1" y2="0" gradientUnits="userSpaceOnUse" gradientTransform="rotate(-116.378 70.038 5.831) scale(35.7428)"><stop offset="0" stop-color="#229dbe"/><stop offset="1" stop-color="#3a54af"/></linearGradient><linearGradient id="_Linear37" x1="0" y1="0" x2="1" y2="0" gradientUnits="userSpaceOnUse" gradientTransform="rotate(28.422 -56.969 199.963) scale(35.865)"><stop offset="0" stop-color="#7ac943"/><stop offset=".38" stop-color="#7ac943"/><stop offset=".62" stop-color="#e08b43"/><stop offset=".75" stop-color="#e58843"/><stop offset="1" stop-color="#e2e00f"/></linearGradient><linearGradient id="_Linear38" x1="0" y1="0" x2="1" y2="0" gradientUnits="userSpaceOnUse" gradientTransform="rotate(-13.762 480.808 -90.248) scale(14.12307)"><stop offset="0" stop-color="#e2e00f"/><stop offset="1" stop-color="#7ac943"/></linearGradient><linearGradient id="_Linear39" x1="0" y1="0" x2="1" y2="0" gradientUnits="userSpaceOnUse" gradientTransform="rotate(28.422 -77.77 194.695) scale(35.8657)"><stop offset="0" stop-color="#7ac943"/><stop offset=".38" stop-color="#7ac943"/><stop offset=".62" stop-color="#e08b43"/><stop offset=".75" stop-color="#e58843"/><stop offset="1" stop-color="#e2e00f"/></linearGradient><linearGradient id="_Linear40" x1="0" y1="0" x2="1" y2="0" gradientUnits="userSpaceOnUse" gradientTransform="rotate(28.422 -71.296 196.35) scale(35.863)"><stop offset="0" stop-color="#7ac943"/><stop offset=".38" stop-color="#7ac943"/><stop offset=".62" stop-color="#e08b43"/><stop offset=".75" stop-color="#e58843"/><stop offset="1" stop-color="#e2e00f"/></linearGradient><linearGradient id="_Linear41" x1="0" y1="0" x2="1" y2="0" gradientUnits="userSpaceOnUse" gradientTransform="rotate(28.422 -41.049 203.995) scale(35.8648)"><stop offset="0" stop-color="#7ac943"/><stop offset=".38" stop-color="#7ac943"/><stop offset=".62" stop-color="#e08b43"/><stop offset=".75" stop-color="#e58843"/><stop offset="1" stop-color="#e2e00f"/></linearGradient><linearGradient id="_Linear42" x1="0" y1="0" x2="1" y2="0" gradientUnits="userSpaceOnUse" gradientTransform="rotate(72.698 40.353 72.797) scale(32.28227)"><stop offset="0" stop-color="#229dbe"/><stop offset="1" stop-color="#183676"/></linearGradient><linearGradient id="_Linear43" x1="0" y1="0" x2="1" y2="0" gradientUnits="userSpaceOnUse" gradientTransform="rotate(22.07 68.257 -416.922) scale(325.338)"><stop offset="0" stop-color="#fc3b29"/><stop offset="1" stop-color="#f05e23"/></linearGradient><linearGradient id="_Linear44" x1="0" y1="0" x2="1" y2="0" gradientUnits="userSpaceOnUse" gradientTransform="rotate(72.698 58.601 86.208) scale(32.28414)"><stop offset="0" stop-color="#229dbe"/><stop offset="1" stop-color="#183676"/></linearGradient><linearGradient id="_Linear45" x1="0" y1="0" x2="1" y2="0" gradientUnits="userSpaceOnUse" gradientTransform="rotate(72.698 40.194 72.672) scale(32.28438)"><stop offset="0" stop-color="#229dbe"/><stop offset="1" stop-color="#183676"/></linearGradient><linearGradient id="_Linear46" x1="0" y1="0" x2="1" y2="0" gradientUnits="userSpaceOnUse" gradientTransform="rotate(22.07 223.267 -386.704) scale(325.34)"><stop offset="0" stop-color="#fc3b29"/><stop offset="1" stop-color="#f05e23"/></linearGradient><linearGradient id="_Linear47" x1="0" y1="0" x2="1" y2="0" gradientUnits="userSpaceOnUse" gradientTransform="rotate(-13.763 363.632 -106.19) scale(7.97648)"><stop offset="0" stop-color="#e2e00f"/><stop offset="1" stop-color="#7ac943"/></linearGradient><linearGradient id="_Linear48" x1="0" y1="0" x2="1" y2="0" gradientUnits="userSpaceOnUse" gradientTransform="rotate(72.698 55.97 84.272) scale(32.28363)"><stop offset="0" stop-color="#229dbe"/><stop offset="1" stop-color="#183676"/></linearGradient><linearGradient id="_Linear49" x1="0" y1="0" x2="1" y2="0" gradientUnits="userSpaceOnUse" gradientTransform="rotate(-13.763 -314.365 -115.009) scale(8.54409)"><stop offset="0" stop-color="#e2e00f"/><stop offset="1" stop-color="#7ac943"/></linearGradient><linearGradient id="_Linear50" x1="0" y1="0" x2="1" y2="0" gradientUnits="userSpaceOnUse" gradientTransform="rotate(-13.762 -262.148 -251.738) scale(8.51129)"><stop offset="0" stop-color="#fc3b29"/><stop offset="1" stop-color="#f05e23"/></linearGradient><linearGradient id="_Linear51" x1="0" y1="0" x2="1" y2="0" gradientUnits="userSpaceOnUse" gradientTransform="rotate(-13.763 -200.31 -244.217) scale(3.66904)"><stop offset="0" stop-color="#fc3b29"/><stop offset="1" stop-color="#f05e23"/></linearGradient><linearGradient id="_Linear52" x1="0" y1="0" x2="1" y2="0" gradientUnits="userSpaceOnUse" gradientTransform="matrix(2.59395 -.63534 .63534 2.59395 23.375 -58.39)"><stop offset="0" stop-color="#fc3b29"/><stop offset="1" stop-color="#f05e23"/></linearGradient><linearGradient id="_Linear53" x1="0" y1="0" x2="1" y2="0" gradientUnits="userSpaceOnUse" gradientTransform="matrix(2.92352 -.71605 .71605 2.92352 36.612 -55.865)"><stop offset="0" stop-color="#fc3b29"/><stop offset="1" stop-color="#f05e23"/></linearGradient><linearGradient id="_Linear54" x1="0" y1="0" x2="1" y2="0" gradientUnits="userSpaceOnUse" gradientTransform="rotate(49.105 23.707 -31.214) scale(98.7772)"><stop offset="0" stop-color="#7ac943"/><stop offset=".38" stop-color="#7ac943"/><stop offset=".49" stop-color="#ee007d"/><stop offset=".62" stop-color="#e08b43"/><stop offset=".72" stop-color="#1836ab"/><stop offset=".78" stop-color="#0036a6"/><stop offset=".9" stop-color="#e58843"/><stop offset="1" stop-color="#e2e00f"/></linearGradient><linearGradient id="_Linear55" x1="0" y1="0" x2="1" y2="0" gradientUnits="userSpaceOnUse" gradientTransform="rotate(49.105 36.777 -25.246) scale(98.777)"><stop offset="0" stop-color="#7ac943"/><stop offset=".38" stop-color="#7ac943"/><stop offset=".49" stop-color="#ee007d"/><stop offset=".62" stop-color="#e08b43"/><stop offset=".72" stop-color="#1836ab"/><stop offset=".78" stop-color="#0036a6"/><stop offset=".9" stop-color="#e58843"/><stop offset="1" stop-color="#e2e00f"/></linearGradient><linearGradient id="_Linear56" x1="0" y1="0" x2="1" y2="0" gradientUnits="userSpaceOnUse" gradientTransform="rotate(49.105 49.705 -19.34) scale(98.777)"><stop offset="0" stop-color="#7ac943"/><stop offset=".38" stop-color="#7ac943"/><stop offset=".49" stop-color="#ee007d"/><stop offset=".62" stop-color="#e08b43"/><stop offset=".72" stop-color="#1836ab"/><stop offset=".78" stop-color="#0036a6"/><stop offset=".9" stop-color="#e58843"/><stop offset="1" stop-color="#e2e00f"/></linearGradient><linearGradient id="_Linear57" x1="0" y1="0" x2="1" y2="0" gradientUnits="userSpaceOnUse" gradientTransform="rotate(49.105 -12.545 -47.808) scale(98.777)"><stop offset="0" stop-color="#7ac943"/><stop offset=".38" stop-color="#7ac943"/><stop offset=".49" stop-color="#ee007d"/><stop offset=".62" stop-color="#e08b43"/><stop offset=".72" stop-color="#1836ab"/><stop offset=".78" stop-color="#0036a6"/><stop offset=".9" stop-color="#e58843"/><stop offset="1" stop-color="#e2e00f"/></linearGradient><linearGradient id="_Linear58" x1="0" y1="0" x2="1" y2="0" gradientUnits="userSpaceOnUse" gradientTransform="rotate(49.105 -2.374 -43.132) scale(98.7768)"><stop offset="0" stop-color="#7ac943"/><stop offset=".38" stop-color="#7ac943"/><stop offset=".49" stop-color="#ee007d"/><stop offset=".62" stop-color="#e08b43"/><stop offset=".72" stop-color="#1836ab"/><stop offset=".78" stop-color="#0036a6"/><stop offset=".9" stop-color="#e58843"/><stop offset="1" stop-color="#e2e00f"/></linearGradient><linearGradient id="_Linear59" x1="0" y1="0" x2="1" y2="0" gradientUnits="userSpaceOnUse" gradientTransform="rotate(49.105 19.212 -33.27) scale(98.7771)"><stop offset="0" stop-color="#7ac943"/><stop offset=".38" stop-color="#7ac943"/><stop offset=".49" stop-color="#ee007d"/><stop offset=".62" stop-color="#e08b43"/><stop offset=".72" stop-color="#1836ab"/><stop offset=".78" stop-color="#0036a6"/><stop offset=".9" stop-color="#e58843"/><stop offset="1" stop-color="#e2e00f"/></linearGradient><linearGradient id="_Linear60" x1="0" y1="0" x2="1" y2="0" gradientUnits="userSpaceOnUse" gradientTransform="rotate(49.105 37.004 -25.143) scale(98.777)"><stop offset="0" stop-color="#7ac943"/><stop offset=".38" stop-color="#7ac943"/><stop offset=".49" stop-color="#ee007d"/><stop offset=".62" stop-color="#e08b43"/><stop offset=".72" stop-color="#1836ab"/><stop offset=".78" stop-color="#0036a6"/><stop offset=".9" stop-color="#e58843"/><stop offset="1" stop-color="#e2e00f"/></linearGradient></defs></svg>